<?xml version="1.0" encoding="UTF-8"?>
<svg width="1623px" height="1000px" viewBox="0 0 1623 1000" version="1.1" xmlns="http://www.w3.org/2000/svg" xmlns:xlink="http://www.w3.org/1999/xlink">
    <!-- Generator: Sketch 52.6 (67491) - http://www.bohemiancoding.com/sketch -->
    <title>m0018-31</title>
    <desc>Created with Sketch.</desc>
    <defs>
        <path d="M40.939,63.946 C30.687,65.281 -0.042,57.426 0.109,43.701 C0.272,28.763 12.46,3.146 12.46,3.146 L60.389,0.393 C60.389,0.393 73.452,26.522 76.156,36.331 C80.536,52.221 50.89,62.649 40.939,63.946" id="path-1"></path>
        <path d="M20.375,22.216 C27.182,22.116 39.232,9.177 41.575,5.126 C41.575,5.126 37.915,3.488 36.143,3.037 C24.54,0.085 19.684,-0.95 6.33,5.143 C4.749,5.864 0.473,8.886 0.473,8.886 C0.616,9.401 14.387,22.305 20.375,22.216" id="path-3"></path>
        <linearGradient x1="36.0933775%" y1="-9.27526184%" x2="163.422948%" y2="344.655173%" id="linearGradient-5">
            <stop stop-color="#F5CBC6" offset="0%"></stop>
            <stop stop-color="#EBA49F" offset="100%"></stop>
        </linearGradient>
        <path d="M13.987,0.704 L0.78,0.704 C0.419,0.704 0.126,0.997 0.126,1.359 L0.126,14.036 C0.126,18.044 3.375,21.293 7.384,21.293 C11.392,21.293 14.642,18.044 14.642,14.036 L14.642,1.359 C14.642,0.997 14.349,0.704 13.987,0.704" id="path-6"></path>
        <linearGradient x1="17.2981538%" y1="93.4139589%" x2="75.1453568%" y2="-6.1324008%" id="linearGradient-8">
            <stop stop-color="#F5CBC6" offset="0%"></stop>
            <stop stop-color="#EBA49F" offset="100%"></stop>
        </linearGradient>
        <path d="M7.704,4.14 C7.702,6.155 6.083,7.787 4.088,7.785 C2.093,7.783 0.477,6.148 0.479,4.133 C0.481,2.119 2.1,0.488 4.095,0.49 C6.09,0.492 7.706,2.126 7.704,4.14" id="path-9"></path>
        <linearGradient x1="0.00140974922%" y1="49.938314%" x2="99.9902858%" y2="50.0370116%" id="linearGradient-11">
            <stop stop-color="#F5CBC6" offset="0%"></stop>
            <stop stop-color="#EBA49F" offset="100%"></stop>
        </linearGradient>
        <path d="M0.064,4.137 C0.064,2.123 1.681,0.49 3.676,0.49 C5.671,0.49 7.288,2.123 7.288,4.137 C7.288,6.152 5.671,7.785 3.676,7.785 C1.681,7.785 0.064,6.152 0.064,4.137" id="path-12"></path>
        <linearGradient x1="100%" y1="49.993146%" x2="-0.00415282392%" y2="49.993146%" id="linearGradient-14">
            <stop stop-color="#F5CBC6" offset="0%"></stop>
            <stop stop-color="#EBA49F" offset="100%"></stop>
        </linearGradient>
        <path d="M22.451,195.63 C22.451,195.63 14.071,146.721 13.716,129.414 C13.611,124.279 13.847,111.824 13.847,111.824 C13.847,111.824 -1,28.383 0.154,4.444 C0.678,-6.414 44.757,6.326 44.757,6.326 L39.922,111.051 L43.382,130.491 L38.287,194.903 L26.456,197.416 L22.451,195.63" id="path-15"></path>
        <path d="M45.47,192.388 L52.126,121.595 L55.262,113.015 C55.262,113.015 44.61,34.917 36.156,2.331 C33.589,-7.564 0.939,31.5 0.939,31.5 L25.956,114.491 L23.266,129.671 L27.528,194.355 L45.47,192.388" id="path-17"></path>
        <polyline id="path-19" points="23.2 25.824 0.977 26.872 0.12 0.033 21.11 2.313 23.2 25.824"></polyline>
        <linearGradient x1="51.94974%" y1="99.0424382%" x2="43.5134315%" y2="-2.66552405%" id="linearGradient-21">
            <stop stop-color="#F5CBC6" offset="0%"></stop>
            <stop stop-color="#EBA49F" offset="100%"></stop>
        </linearGradient>
        <path d="M0.193,4.653 C0.193,2.461 1.948,0.685 4.112,0.685 C6.276,0.685 8.031,2.461 8.031,4.653 C8.031,6.844 6.276,8.622 4.112,8.622 C1.948,8.622 0.193,6.844 0.193,4.653" id="path-22"></path>
        <linearGradient x1="100%" y1="49.9937004%" x2="0.00510334269%" y2="49.9937004%" id="linearGradient-24">
            <stop stop-color="#F5CBC6" offset="0%"></stop>
            <stop stop-color="#EBA49F" offset="100%"></stop>
        </linearGradient>
        <path d="M2.338,2.194 C2.338,2.194 0.742,7.012 0.426,9.329 C0.152,11.334 0.426,17.425 0.426,17.425 L6.691,18.725 L6.691,16.558 C6.691,16.558 8.291,19.001 9.167,19.704 C11.992,21.968 23.73,23.653 23.73,23.653 L34.53,22.333 C34.53,22.333 35.01,20.25 34.54,18.966 C33.42,15.842 27.65,11.261 25.54,8.748 C23.96,6.862 20.839,1.003 20.839,1.003 C20.839,1.003 13.168,-0.305 10.776,1.14 C9.857,1.695 7.998,4.139 6.926,4.197 C5.537,4.272 2.338,2.194 2.338,2.194" id="path-25"></path>
        <path d="M0.45,13.702 L1.31,3.267 C1.31,3.267 10.6,5.121 13.62,4.464 C15.55,4.046 21.74,0.695 22.25,0.866 C22.76,1.037 32.63,10.696 37.4,12.504 C39.94,13.465 45.67,14.51 48.06,15.795 C52.12,17.983 48.6,20.529 48.6,20.529 L22.18,20.529 L13.45,15.925 L13.62,19.689 L0.45,19.004 L0.45,13.702" id="path-27"></path>
        <polyline id="path-29" points="5.2 48.73 30.43 38.147 27.19 0.473 7.1 1.118 0.68 36.671 5.2 48.73"></polyline>
        <linearGradient x1="40.8070588%" y1="103.068985%" x2="73.8715966%" y2="-1.82419131%" id="linearGradient-31">
            <stop stop-color="#F5CBC6" offset="0%"></stop>
            <stop stop-color="#EBA49F" offset="100%"></stop>
        </linearGradient>
        <path d="M7.15,3.642 C7.24,1.886 5.91,0.386 4.17,0.292 C2.43,0.199 0.95,1.546 0.85,3.303 C0.76,5.06 2.09,6.56 3.83,6.654 C5.57,6.748 7.06,5.399 7.15,3.642" id="path-32"></path>
        <linearGradient x1="0.068332969%" y1="47.3467276%" x2="99.918986%" y2="52.6707114%" id="linearGradient-34">
            <stop stop-color="#F5CBC6" offset="0%"></stop>
            <stop stop-color="#EBA49F" offset="100%"></stop>
        </linearGradient>
        <path d="M15.97,19.919 C22.162,21.088 34.757,13.235 37.632,9.996 C37.632,9.996 35.346,6.18 33.823,5.444 C23.845,0.618 19.632,-1.219 6.393,1.833 C4.826,2.195 0.388,4.144 0.388,4.144 C0.422,4.637 10.523,18.891 15.97,19.919" id="path-35"></path>
        <linearGradient x1="39.5690581%" y1="-12.3946702%" x2="130.472291%" y2="393.679175%" id="linearGradient-37">
            <stop stop-color="#F5CBC6" offset="0%"></stop>
            <stop stop-color="#EBA49F" offset="100%"></stop>
        </linearGradient>
        <path d="M3.942,0.124 L15.729,13.31 C16.092,13.338 16.363,13.657 16.334,14.02 L15.201,26.525 C14.879,30.553 11.495,33.437 7.466,33.115 C3.437,32.792 0.432,29.265 0.753,25.236 L3.232,0.729 C3.261,0.366 3.579,0.094 3.942,0.124" id="path-38"></path>
        <linearGradient x1="-2.25224364%" y1="91.4545353%" x2="87.0950555%" y2="14.6743995%" id="linearGradient-40">
            <stop stop-color="#F5CBC6" offset="0%"></stop>
            <stop stop-color="#EBA49F" offset="100%"></stop>
        </linearGradient>
        <path d="M0.213,4.539 C0.397,6.394 2.037,7.75 3.874,7.569 C5.712,7.386 7.052,5.734 6.868,3.878 C6.684,2.023 5.045,0.667 3.208,0.848 C1.37,1.031 0.029,2.683 0.213,4.539" id="path-41"></path>
        <linearGradient x1="99.7474232%" y1="45.1209828%" x2="0.258393668%" y2="54.8923438%" id="linearGradient-43">
            <stop stop-color="#F5CBC6" offset="0%"></stop>
            <stop stop-color="#EBA49F" offset="100%"></stop>
        </linearGradient>
        <path d="M51.35,14.177 C49.499,11.401 43.708,8.118 43.708,8.118 L40.663,11.413 L21.823,0.245 C21.823,0.245 5.318,8.816 2.556,13.579 C-2.51,22.31 1.296,41.446 4.813,50.482 C7.116,56.399 13.866,67.379 14.708,73.873 C15.257,78.119 13.642,80.989 14.707,82.566 C16.23,84.823 21.556,85.708 24.224,86.258 C31.886,87.837 61.848,87.437 63.329,79.066 C64.448,72.744 55.284,55.103 55.369,48.683 C55.412,45.388 59.226,39.06 59.489,35.775 C60.042,28.873 53.378,17.219 51.35,14.177" id="path-44"></path>
        <path d="M4.375,62.203 L27.456,58.263 C29.903,57.846 32.285,54.967 32.774,51.833 L40.018,5.524 C40.508,2.39 38.921,0.189 36.474,0.606 L13.392,4.545 C10.945,4.962 8.563,7.841 8.073,10.975 L0.831,57.285 C0.34,60.418 1.927,62.62 4.375,62.203" id="path-46"></path>
        <linearGradient x1="56.1800202%" y1="60.50029%" x2="11.3573927%" y2="-15.6483822%" id="linearGradient-48">
            <stop stop-color="#6CC3C3" offset="0%"></stop>
            <stop stop-color="#24A3C4" offset="100%"></stop>
        </linearGradient>
    </defs>
    <g id="m0018-31" stroke="none" stroke-width="1" fill="none" fill-rule="evenodd">
        <polygon id="Fill-1" points="0.06 1000 1622.83 1000 1622.83 0.04 0.06 0.04"></polygon>
        <polygon id="Fill-3" fill="#E3EDF0" points="108.833 907.728 1533.29 907.728 1533.29 895.132 108.833 895.132"></polygon>
        <polyline id="Fill-4" fill="#4AB48A" points="284.319 649.848 250.385 653.367 250.385 581.131 282.743 581.131 284.319 649.848"></polyline>
        <path d="M235.52,695.915 C235.52,695.915 237.215,720.928 238.339,730.409 C239.37,739.116 242.581,756.375 244.333,764.965 C245.988,773.079 250.847,793.357 250.791,797.45 C250.708,803.562 248.477,815.442 249.315,823.732 C253.103,861.231 258.043,885.385 258.043,885.385 C258.043,885.385 255.381,891.12 252.219,895.919 C250.888,897.939 251.437,899.416 249.191,902.132 C248.347,903.152 253.237,904.718 255.316,904.618 C258.908,904.444 266.175,900.709 269.722,895.67 C271.469,893.187 269.821,889.102 270.15,883.636 C270.986,869.705 272.323,838.495 273.12,821.468 C273.515,813.013 270.816,800.559 271.603,792.47 C271.716,791.297 272.652,774.81 272.778,773.664 C273.795,764.387 273.939,728.999 273.939,728.999 L235.52,695.915" id="Fill-5" fill="#F5CBC6"></path>
        <path d="M306.894,705.243 C306.894,705.243 325.756,782.865 325.906,793.763 C325.99,799.875 323.687,798.402 322.85,806.692 C319.062,844.191 315.118,878.006 315.118,878.006 C315.118,878.006 325.065,884.619 330.624,888.585 C334.361,891.251 339.684,891.524 338.746,894.409 C338.33,895.686 317.32,892.656 315.242,892.555 C311.65,892.381 305.108,892.898 303.691,889.375 C302.839,887.254 304.064,882.457 303.736,876.99 C302.9,863.058 298.401,833.492 299.107,818.984 C299.518,810.529 301.898,804.547 302.69,800.43 C304.737,789.79 275.963,720.797 275.963,720.797 L306.894,705.243" id="Fill-6" fill="#F5CBC6"></path>
        <path d="M245.01,907.89 C246.874,908.064 250.034,908.143 250.034,908.143 C251.588,908.236 255.127,908.005 256.322,907.006 L262.442,902.231 C263.522,901.388 264.77,900.787 266.102,900.465 L267.409,900.15 C269.022,899.761 270.306,898.545 270.781,896.956 C271.345,894.198 270.255,889.5 270.255,889.5 C270.255,889.5 260.466,901.011 252.915,899.66 C249.662,899.078 253.908,893.343 253.908,893.343 C253.908,893.343 250.77,898.572 244.834,903.333 C244.089,903.93 242.897,904.911 242.806,905.862 C242.735,906.607 243.109,907.712 245.01,907.89" id="Fill-7" fill="#233D6C"></path>
        <path d="M302.713,886.415 L303.5,882.12 C303.5,882.12 310.741,885.876 321.903,888.226 C325.312,888.944 329.836,888.289 330.624,888.585 L338.282,891.471 C339.405,891.894 340.354,892.641 341.026,893.592 C341.693,894.537 341.005,895.849 339.851,895.907 L325.256,896.625 C324.617,896.656 323.978,896.557 323.378,896.335 L314.468,893.074 L314.124,896.625 L304.236,896.625 L302.688,891.344 C302.4,889.679 302.408,888.077 302.713,886.415" id="Fill-8" fill="#233D6C"></path>
        <g id="Group-11" transform="translate(233.000000, 648.000000)">
            <mask id="mask-2" fill="white">
                <use xlink:href="#path-1"></use>
            </mask>
            <g id="Clip-10"></g>
            <path d="M40.939,63.946 C30.687,65.281 -0.042,57.426 0.109,43.701 C0.272,28.763 12.46,3.146 12.46,3.146 L60.389,0.393 C60.389,0.393 73.452,26.522 76.156,36.331 C80.536,52.221 50.89,62.649 40.939,63.946" id="Fill-9" fill="#9098B6" mask="url(#mask-2)"></path>
        </g>
        <path d="M245.712,513.146 C231.418,533.917 235.821,561.051 240.32,566.052 C246.331,572.732 275.218,566.232 287.599,567.128 C289.967,567.3 296.211,540.98 284.728,515.93 C279.18,503.83 254.329,500.624 245.712,513.146" id="Fill-12" fill="#E5AA17"></path>
        <g id="Group-15" transform="translate(244.000000, 567.000000)">
            <mask id="mask-4" fill="white">
                <use xlink:href="#path-3"></use>
            </mask>
            <g id="Clip-14"></g>
            <path d="M20.375,22.216 C27.182,22.116 39.232,9.177 41.575,5.126 C41.575,5.126 37.915,3.488 36.143,3.037 C24.54,0.085 19.684,-0.95 6.33,5.143 C4.749,5.864 0.473,8.886 0.473,8.886 C0.616,9.401 14.387,22.305 20.375,22.216" id="Fill-13" fill="url(#linearGradient-5)" mask="url(#mask-4)"></path>
        </g>
        <g id="Group-18" transform="translate(256.000000, 555.000000)">
            <mask id="mask-7" fill="white">
                <use xlink:href="#path-6"></use>
            </mask>
            <g id="Clip-17"></g>
            <path d="M13.987,0.704 L0.78,0.704 C0.419,0.704 0.126,0.997 0.126,1.359 L0.126,14.036 C0.126,18.044 3.375,21.293 7.384,21.293 C11.392,21.293 14.642,18.044 14.642,14.036 L14.642,1.359 C14.642,0.997 14.349,0.704 13.987,0.704" id="Fill-16" fill="url(#linearGradient-8)" mask="url(#mask-7)"></path>
        </g>
        <g id="Group-21" transform="translate(274.000000, 533.000000)">
            <mask id="mask-10" fill="white">
                <use xlink:href="#path-9"></use>
            </mask>
            <g id="Clip-20"></g>
            <path d="M7.704,4.14 C7.702,6.155 6.083,7.787 4.088,7.785 C2.093,7.783 0.477,6.148 0.479,4.133 C0.481,2.119 2.1,0.488 4.095,0.49 C6.09,0.492 7.706,2.126 7.704,4.14" id="Fill-19" fill="url(#linearGradient-11)" mask="url(#mask-10)"></path>
        </g>
        <g id="Group-24" transform="translate(245.000000, 533.000000)">
            <mask id="mask-13" fill="white">
                <use xlink:href="#path-12"></use>
            </mask>
            <g id="Clip-23"></g>
            <path d="M0.064,4.137 C0.064,2.123 1.681,0.49 3.676,0.49 C5.671,0.49 7.288,2.123 7.288,4.137 C7.288,6.152 5.671,7.785 3.676,7.785 C1.681,7.785 0.064,6.152 0.064,4.137" id="Fill-22" fill="url(#linearGradient-14)" mask="url(#mask-13)"></path>
        </g>
        <path d="M263.406,515.133 L263.405,515.133 C255.287,515.125 248.698,521.886 248.69,530.233 L248.676,544.012 C248.668,552.359 255.243,559.132 263.362,559.14 C271.481,559.148 278.069,552.388 278.078,544.041 L278.091,530.262 C278.1,521.915 271.525,515.142 263.406,515.133" id="Fill-25" fill="#F5CBC6"></path>
        <path d="M274.081,509.55 C270.258,506.563 260.44,504.095 251.585,511.748 C242.524,519.578 247.117,534.283 248.687,533.112 C253.88,529.24 251.149,522.044 256.034,521.855 C259.971,521.702 264.993,533.429 278.087,535.25 C279.106,535.392 280.33,531.123 280.966,527.654 C282.604,518.728 277.208,511.994 274.081,509.55" id="Fill-26" fill="#E5AA17"></path>
        <path d="M260.22,536.208 C260.22,538.268 258.543,539.946 256.483,539.946 L255.303,539.946 C252.591,539.946 250.385,537.74 250.385,535.028 C250.385,534.148 251.101,533.433 251.98,533.433 L258.625,533.433 C259.505,533.433 260.22,534.148 260.22,535.028 L260.22,536.208 Z M258.625,532.635 L251.98,532.635 C250.661,532.635 249.588,533.708 249.588,535.028 C249.588,538.179 252.152,540.743 255.303,540.743 L256.483,540.743 C258.983,540.743 261.018,538.708 261.018,536.208 L261.018,535.028 C261.018,533.708 259.944,532.635 258.625,532.635 Z" id="Fill-27" stroke="#979797" fill="#1E1E43"></path>
        <path d="M266.547,535.028 C266.547,534.148 267.263,533.433 268.142,533.433 L274.787,533.433 C275.667,533.433 276.382,534.148 276.382,535.028 C276.382,537.74 274.176,539.946 271.464,539.946 L270.285,539.946 C268.224,539.946 266.547,538.268 266.547,536.208 L266.547,535.028 Z M265.75,535.028 L265.75,536.208 C265.75,538.708 267.784,540.743 270.285,540.743 L271.464,540.743 C274.615,540.743 277.179,538.179 277.179,535.028 C277.179,533.708 276.107,532.635 274.787,532.635 L268.142,532.635 C266.823,532.635 265.75,533.708 265.75,535.028 Z" id="Fill-28" stroke="#979797" fill="#1E1E43"></path>
        <path d="M265.263,535.024 C264.158,534.181 262.604,534.167 261.485,534.991 C261.325,535.108 261.291,535.332 261.408,535.492 C261.525,535.651 261.75,535.685 261.91,535.569 C262.775,534.933 263.975,534.944 264.828,535.594 L265.046,535.668 C265.154,535.668 265.261,535.62 265.331,535.527 C265.451,535.369 265.421,535.144 265.263,535.024" id="Fill-29" fill="#1E1E43"></path>
        <path d="M253.976,570.196 C253.976,570.196 262.747,608.38 264.121,619.596 C266.036,635.235 270.686,672.053 270.686,672.053 L234.605,671.335 L236.452,632.157 C236.452,632.157 228.376,590.518 236.448,579.718 C239.322,575.872 253.976,570.196 253.976,570.196" id="Fill-30" fill="#3F50AA"></path>
        <path d="M274.623,568.395 C274.623,568.395 271.874,601.738 271.2,612.556 C270.261,627.641 273.939,670.797 273.939,670.797 L305.568,665.235 C305.568,665.235 300.814,645.74 300.995,627.274 C301.228,603.579 303.343,585.815 293.964,576.113 C290.631,572.666 274.623,568.395 274.623,568.395" id="Fill-31" fill="#3F50AA"></path>
        <path d="M294.466,575.458 C298.922,574.666 303.429,585.75 305.655,595.825 C310.357,617.104 310.931,623.717 311.577,641.427 C311.721,645.371 311.85,646.697 306.707,646.511 C294.891,646.083 257.015,626.804 257.015,626.804 L258.375,616.598 L293.389,626.804 C293.389,626.804 289.549,607.615 289.203,599.966 C288.932,594.001 288.68,576.489 294.466,575.458" id="Fill-32" fill="#3F50AA"></path>
        <path d="M276.916,628.729 L270.686,622.646 C270.686,622.646 275.505,619.053 276.165,618.91 C280.383,617.991 290.775,615.795 290.775,615.795 L293.389,626.804 C293.389,626.804 282.037,627.014 276.916,628.729" id="Fill-33" fill="#F5CBC6"></path>
        <path d="M236.448,579.718 C232.873,579.718 227.461,589.616 225.903,600.104 C223.212,618.226 222.816,622.069 224.609,642.157 C225.307,649.966 225.421,652.14 231.338,650.757 C236.96,649.445 259.084,637.762 274.549,632.486 C276.829,631.708 284.119,628.729 284.119,628.729 L279.873,617.564 L239.743,625.589 C239.743,625.589 239.447,614.917 240.495,600.816 C241.038,593.507 239.562,579.718 236.448,579.718" id="Fill-34" fill="#3F50AA"></path>
        <path d="M243.561,625.833 C245.715,626.467 252.672,625.079 257.357,624.235 L258.199,617.919 C258.199,617.919 253.297,617.4 252.637,617.256 C248.418,616.337 243.163,613.56 238.994,612.434 C236.91,611.871 228.527,614.006 228.527,614.006 C228.527,614.006 229.293,615.109 229.963,615.456 C231.47,616.237 237.218,615.161 237.218,615.161 L232.087,618.983 L229.691,622.843 C229.691,622.843 230.153,623.395 231.369,623.395 C232.425,623.395 234.093,620.78 234.093,620.78 L237.263,620.185 L232,626.788 C232,626.788 233.459,627.875 234.042,627.962 C234.663,628.055 236.492,627.401 236.492,627.401 C236.492,627.401 237.169,628.087 237.378,628.125 C239.421,628.502 242.098,625.402 243.561,625.833" id="Fill-35" fill="#F5CBC6"></path>
        <polyline id="Fill-36" fill="#233D6C" points="264.502 900.218 262.349 901.175 262.349 903.986 267.432 904.285 270.423 903.029 270.943 895.672 264.502 900.218"></polyline>
        <g id="Group-39" transform="translate(233.000000, 686.000000)">
            <mask id="mask-16" fill="white">
                <use xlink:href="#path-15"></use>
            </mask>
            <g id="Clip-38"></g>
            <path d="M22.451,195.63 C22.451,195.63 14.071,146.721 13.716,129.414 C13.611,124.279 13.847,111.824 13.847,111.824 C13.847,111.824 -1,28.383 0.154,4.444 C0.678,-6.414 44.757,6.326 44.757,6.326 L39.922,111.051 L43.382,130.491 L38.287,194.903 L26.456,197.416 L22.451,195.63" id="Fill-37" fill="#9098B6" mask="url(#mask-16)"></path>
        </g>
        <g id="Group-42" transform="translate(273.000000, 682.000000)">
            <mask id="mask-18" fill="white">
                <use xlink:href="#path-17"></use>
            </mask>
            <g id="Clip-41"></g>
            <path d="M45.47,192.388 L52.126,121.595 L55.262,113.015 C55.262,113.015 44.61,34.917 36.156,2.331 C33.589,-7.564 0.939,31.5 0.939,31.5 L25.956,114.491 L23.266,129.671 L27.528,194.355 L45.47,192.388" id="Fill-40" fill="#9098B6" mask="url(#mask-18)"></path>
        </g>
        <path d="M450.366,708.754 L450.366,610.005 L387.772,708.754 L450.366,708.754 Z M598.303,797.773 L558.155,797.773 L558.155,887.692 L450.366,887.692 L450.366,797.773 L278.209,797.773 L278.209,708.754 L432.269,472.269 L558.155,472.269 L558.155,708.754 L598.303,708.754 L598.303,797.773 Z" id="Fill-48" fill="#FFFFFE"></path>
        <path d="M400.498,701.754 L443.366,701.754 L443.366,634.124 L400.498,701.754 Z M450.366,715.754 L387.772,715.754 C385.22,715.754 382.87,714.365 381.639,712.128 C380.409,709.892 380.494,707.163 381.86,705.006 L444.454,606.257 C446.122,603.627 449.327,602.417 452.317,603.283 C455.309,604.151 457.366,606.891 457.366,610.005 L457.366,708.754 C457.366,712.621 454.232,715.754 450.366,715.754 Z M457.366,880.692 L551.155,880.692 L551.155,797.773 C551.155,793.907 554.289,790.773 558.155,790.773 L591.303,790.773 L591.303,715.754 L558.155,715.754 C554.289,715.754 551.155,712.621 551.155,708.754 L551.155,479.269 L436.063,479.269 L285.209,710.833 L285.209,790.773 L450.366,790.773 C454.232,790.773 457.366,793.907 457.366,797.773 L457.366,880.692 Z M558.155,894.692 L450.366,894.692 C446.5,894.692 443.366,891.558 443.366,887.692 L443.366,804.773 L278.209,804.773 C274.343,804.773 271.209,801.639 271.209,797.773 L271.209,708.754 C271.209,707.398 271.603,706.07 272.344,704.933 L426.404,468.448 C427.696,466.465 429.902,465.269 432.269,465.269 L558.155,465.269 C562.021,465.269 565.155,468.403 565.155,472.269 L565.155,701.754 L598.303,701.754 C602.169,701.754 605.303,704.888 605.303,708.754 L605.303,797.773 C605.303,801.639 602.169,804.773 598.303,804.773 L565.155,804.773 L565.155,887.692 C565.155,891.558 562.021,894.692 558.155,894.692 Z" id="Fill-49" fill="#F44336"></path>
        <path d="M819.027,785.836 C838.959,785.836 852.285,773.132 859.01,747.721 C865.73,722.311 869.093,687.561 869.093,643.468 C869.093,582.901 864.628,543.338 855.708,524.77 C846.782,506.208 834.673,496.921 819.375,496.921 C800.828,496.921 788.023,509.165 780.955,533.645 C773.882,558.13 770.352,591.836 770.352,634.767 C770.352,693.016 773.882,732.752 780.955,753.986 C788.023,775.219 800.713,785.836 819.027,785.836 Z M817.636,886.782 C760.382,886.782 715.069,864.216 681.691,819.079 C648.313,773.949 631.625,714.599 631.625,641.032 C631.625,565.617 648.716,506.094 682.908,462.461 C717.096,418.836 762.816,397.021 820.07,397.021 C880.1,397.021 926.114,420.289 958.101,466.813 C990.087,513.343 1006.08,572.805 1006.08,645.209 C1006.08,719.004 988.871,777.716 954.45,821.341 C920.029,864.971 874.422,886.782 817.636,886.782 Z" id="Fill-50" fill="#FFFFFE"></path>
        <path d="M819.375,503.921 C804.2,503.921 793.833,514.279 787.68,535.586 C780.827,559.314 777.352,592.683 777.352,634.767 C777.352,691.999 780.798,731.366 787.596,751.774 C793.743,770.238 803.73,778.836 819.027,778.836 C829.548,778.836 844.438,775.425 852.243,745.93 C858.779,721.217 862.093,686.744 862.093,643.468 C862.093,584.252 857.822,545.336 849.398,527.801 C841.671,511.733 831.851,503.921 819.375,503.921 Z M819.027,792.836 C804.193,792.836 784.394,786.48 774.313,756.197 C766.938,734.053 763.352,694.333 763.352,634.767 C763.352,591.368 767.012,556.692 774.23,531.703 C784.201,497.17 804.283,489.921 819.375,489.921 C837.518,489.921 851.865,500.625 862.016,521.737 C871.489,541.455 876.093,581.273 876.093,643.468 C876.093,687.951 872.623,723.629 865.777,749.511 C856.301,785.32 835.124,792.836 819.027,792.836 Z M820.07,404.021 C765.347,404.021 721.052,425.136 688.418,466.779 C655.378,508.942 638.625,567.569 638.625,641.032 C638.625,712.725 655.008,771.229 687.319,814.917 C719.596,858.564 762.223,879.782 817.636,879.782 C871.909,879.782 916.091,858.661 948.955,817.005 C982.216,774.849 999.081,717.049 999.081,645.209 C999.081,574.59 983.353,515.903 952.332,470.779 C921.448,425.858 878.185,404.021 820.07,404.021 Z M817.636,893.782 C758.308,893.782 710.676,870.048 676.063,823.241 C641.932,777.091 624.625,715.788 624.625,641.032 C624.625,564.363 642.38,502.83 677.398,458.144 C712.823,412.941 760.824,390.021 820.07,390.021 C882.264,390.021 930.645,414.523 963.869,462.847 C996.524,510.349 1013.08,571.705 1013.08,645.209 C1013.08,720.272 995.204,780.991 959.946,825.677 C924.293,870.868 876.413,893.782 817.636,893.782 Z" id="Fill-51" fill="#F44336"></path>
        <path d="M328.414,152.93 C337.033,124.639 361.39,119.003 395.302,125.762 C437.334,80.774 522.16,84.781 538.011,145.301 C568.16,142.543 591.319,173.98 574.942,200.719 C538.31,200.719 308.855,200.719 272.817,200.719 C271.385,168.333 301.822,150.278 328.414,152.93" id="Fill-53" fill="#EFF8F7"></path>
        <path d="M1393.39,176.635 C1389.1,149.433 1370.6,132.643 1333.84,139.718 C1288.26,89.414 1231.57,112.765 1225.82,175.749 C1173.53,169.542 1156.7,191.411 1156.7,214.437 C1190.79,214.437 1415.04,216.669 1448.58,216.669 C1446.77,189.009 1420.51,174.188 1393.39,176.635" id="Fill-54" fill="#EFF8F7"></path>
        <path d="M1036.76,551.628 L1036.52,543.227 L1038.02,531.82 C1038.02,531.82 1038.43,526.449 1037.7,524.836 C1037.15,523.609 1033.4,514.208 1030.49,513.173 C1030.13,513.044 1028.52,513.177 1028.52,513.177 C1028.52,513.177 1027.15,511.87 1026.59,511.672 C1026.21,511.541 1025.57,511.41 1025.27,511.669 C1025.06,511.851 1024.99,512.749 1024.99,512.749 C1024.99,512.749 1023.62,512.405 1023.29,512.453 C1022.86,512.515 1022.56,512.923 1022.44,513.339 C1021.89,515.336 1024.61,519.17 1025.23,521.15 C1025.63,522.438 1025.24,522.942 1024.74,528.867 L1023.82,530.737 C1023.82,530.737 1022.06,527.572 1021.91,526.239 C1021.33,521.266 1018.98,520.597 1017.69,520.649 C1017.1,520.672 1015.76,521.565 1015.76,521.565 C1015.76,521.565 1017.8,527.275 1018.21,529.25 C1018.65,531.375 1017.72,533.579 1019.18,537.713 C1019.52,538.682 1023.83,544.47 1023.94,544.978 C1024.05,545.485 1024.9,553.373 1024.9,553.373 L1036.76,551.628" id="Fill-56" fill="#F5CBC6"></path>
        <path d="M1021.89,537.38 L1011.95,533.962 C1010.57,533.756 1009.66,532.769 1009.93,531.767 L1016.7,506.437 C1016.97,505.435 1018.32,504.784 1019.7,504.989 L1029.64,508.408 C1031.02,508.613 1031.93,509.6 1031.66,510.602 L1024.88,535.932 C1024.62,536.934 1023.27,537.585 1021.89,537.38" id="Fill-57" fill="#233D6C"></path>
        <polyline id="Fill-58" fill="#263560" points="1017.37 860.723 1017.37 871.696 1013.21 882.668 1031.17 880.839 1032.54 864.189 1017.37 860.723"></polyline>
        <path d="M981.315,867.554 C981.315,867.554 982.549,874.379 982.021,877.334 C981.657,879.367 980.46,889.748 980.46,889.748 L998.414,887.918 L996.235,866.64 L981.315,867.554" id="Fill-59" fill="#263560"></path>
        <g id="Group-62" transform="translate(989.000000, 528.000000)">
            <mask id="mask-20" fill="white">
                <use xlink:href="#path-19"></use>
            </mask>
            <g id="Clip-61"></g>
            <polyline id="Fill-60" fill="url(#linearGradient-21)" mask="url(#mask-20)" points="23.2 25.824 0.977 26.872 0.12 0.033 21.11 2.313 23.2 25.824"></polyline>
        </g>
        <g id="Group-65" transform="translate(982.000000, 509.000000)">
            <mask id="mask-23" fill="white">
                <use xlink:href="#path-22"></use>
            </mask>
            <g id="Clip-64"></g>
            <path d="M0.193,4.653 C0.193,2.461 1.948,0.685 4.112,0.685 C6.276,0.685 8.031,2.461 8.031,4.653 C8.031,6.844 6.276,8.622 4.112,8.622 C1.948,8.622 0.193,6.844 0.193,4.653" id="Fill-63" fill="url(#linearGradient-24)" mask="url(#mask-23)"></path>
        </g>
        <path d="M1010.58,537.907 C1009.14,537.984 1008.24,537.536 1007.27,537.53 C1005.52,537.52 1002.75,538.647 999.89,538.37 C996.176,538.009 990.676,536.93 989.12,528.033 C987.058,516.247 985.287,493.732 985.287,493.732 L1014.25,491.677 C1014.25,491.677 1015.65,517.622 1014.47,529.318 C1014.04,533.607 1014.47,537.698 1010.58,537.907" id="Fill-66" fill="#F5CBC6"></path>
        <path d="M987.313,514.809 L986.891,510.215 C986.829,508.998 987.139,507.793 987.781,506.758 C988.725,505.238 989.582,504.117 990.075,503.003 C990.973,500.98 990.125,498.761 993.425,496.359 C996.439,494.166 1002.61,496.668 1006.2,495.994 C1007.73,495.707 1010.13,495.202 1011.64,495.632 C1014.85,496.554 1014.85,510.884 1014.85,510.884 C1014.85,510.884 1020.35,493.265 1016.32,485.745 C1015.46,484.153 1010.7,482.267 1010.7,482.267 C1010.7,482.267 1011.04,484.363 1007.56,484.53 C1004.83,484.662 999.547,484.069 993.063,483.105 C986.903,482.19 982.208,488.533 981.331,492.449 C979.428,500.954 983.355,510.833 983.355,510.833 L987.313,514.809" id="Fill-67" fill="#9E6C4A"></path>
        <polyline id="Fill-68" fill="#C0E3E5" points="993.666 558.166 1021.64 552.842 1018.18 582.058 993.666 558.166"></polyline>
        <g id="Group-71" transform="translate(978.000000, 881.000000)">
            <mask id="mask-26" fill="white">
                <use xlink:href="#path-25"></use>
            </mask>
            <g id="Clip-70"></g>
            <path d="M2.338,2.194 C2.338,2.194 0.742,7.012 0.426,9.329 C0.152,11.334 0.426,17.425 0.426,17.425 L6.691,18.725 L6.691,16.558 C6.691,16.558 8.291,19.001 9.167,19.704 C11.992,21.968 23.73,23.653 23.73,23.653 L34.53,22.333 C34.53,22.333 35.01,20.25 34.54,18.966 C33.42,15.842 27.65,11.261 25.54,8.748 C23.96,6.862 20.839,1.003 20.839,1.003 C20.839,1.003 13.168,-0.305 10.776,1.14 C9.857,1.695 7.998,4.139 6.926,4.197 C5.537,4.272 2.338,2.194 2.338,2.194" id="Fill-69" fill="#5C6CC0" mask="url(#mask-26)"></path>
        </g>
        <path d="M967.917,684.933 C967.917,684.933 973.859,756.638 973.035,776.821 C972.651,786.205 970.763,796.294 970.354,805.677 C969.58,823.474 977.526,871.332 977.526,871.332 L994.811,872.762 L998.053,871.332 C998.053,871.332 996.994,809.41 1000.36,786.192 C1000.97,782.007 1004.05,774.157 1004.7,769.981 C1006.39,759.041 1017.37,693.639 1017.37,693.639 L967.917,684.933" id="Fill-72" fill="#0E858A"></path>
        <path d="M1005.3,704.814 L1024.56,783.949 L1011.99,865.922 C1011.99,865.922 1036.74,871.493 1037.61,868.956 C1038.02,867.782 1054.34,789.41 1056.07,781.168 C1060.03,762.352 1044.47,689.914 1044.47,689.914 L1038.84,673.773 L1005.3,704.814" id="Fill-73" fill="#0E858A"></path>
        <g id="Group-76" transform="translate(1011.000000, 876.000000)">
            <mask id="mask-28" fill="white">
                <use xlink:href="#path-27"></use>
            </mask>
            <g id="Clip-75"></g>
            <path d="M0.45,13.702 L1.31,3.267 C1.31,3.267 10.6,5.121 13.62,4.464 C15.55,4.046 21.74,0.695 22.25,0.866 C22.76,1.037 32.63,10.696 37.4,12.504 C39.94,13.465 45.67,14.51 48.06,15.795 C52.12,17.983 48.6,20.529 48.6,20.529 L22.18,20.529 L13.45,15.925 L13.62,19.689 L0.45,19.004 L0.45,13.702" id="Fill-74" fill="#5C6CC0" mask="url(#mask-28)"></path>
        </g>
        <polyline id="Fill-77" fill="#0E858A" points="972.992 656.15 969.342 675.833 967.917 684.933 988.584 702.006 1033.53 697.189 1038.84 673.773 1034.09 656.15 972.992 656.15"></polyline>
        <path d="M956.908,565.001 C959.867,557.68 983.453,550.367 983.453,550.367 L1015.76,578.387 L1013.62,546.993 L1043.74,561.911 L1040.05,616.436 L1040.05,645.566 L1042.41,673.063 L1023.05,677.211 L1019.12,671.934 L1017.37,678.428 L1010.22,679.96 C1008.34,680.364 1006.41,680.475 1004.5,680.293 L967.941,676.812 L970.145,623.53 C970.145,623.53 950.773,580.176 956.908,565.001" id="Fill-78" fill="#3F50AA"></path>
        <path d="M972.622,553.555 L983.636,547.819 C983.636,547.819 1000.65,559.69 1005.45,565.117 C1009.05,569.187 1018.51,581.094 1018.51,581.094 L1015.76,593.518 L972.622,553.555" id="Fill-79" fill="#5C6CC0"></path>
        <path d="M1013.1,545.012 L1025.73,550.304 C1025.73,550.304 1027.26,574.37 1026.1,579.83 C1025.01,584.94 1023.13,604.626 1023.13,604.626 L1013.84,607.932 C1013.84,607.932 1014.44,585.372 1014.96,578.391 C1015.45,571.823 1013.1,545.012 1013.1,545.012" id="Fill-80" fill="#5C6CC0"></path>
        <polyline id="Fill-81" fill="#C0E3E5" points="1024.96 558.127 1039.45 556.271 1038.13 545.675 1022.27 546.459 1024.96 558.127"></polyline>
        <polyline id="Fill-82" fill="#A2D7E1" points="988.312 545.322 1007.96 555.412 1003.32 565.593 983.636 551.279 988.312 545.322"></polyline>
        <polyline id="Fill-83" fill="#A2D7E1" points="1007.96 555.412 1015.95 560.828 1017.06 546.282 1012.88 543.186 1007.96 555.412"></polyline>
        <polygon id="Fill-84" fill="#F5CBC6" points="1031.64 621.909 1043.01 617.333 1037.62 598.207 1026.54 607.322"></polygon>
        <polyline id="Fill-85" fill="#A2D7E1" points="1021.64 607.244 1029.45 624.628 1037.13 621.357 1029.76 603.778 1021.64 607.244"></polyline>
        <path d="M957.466,563.101 C950.282,572.452 957.43,594.26 959.581,603.868 C963.242,620.221 975.477,645.868 980.8,645.868 C989.944,645.868 1033.6,623.894 1033.6,623.894 L1026.98,603.301 C1026.98,603.301 995.357,613.734 990.901,615.714 C988.518,616.774 983.511,581.902 975.055,572.503 C971.638,568.706 960.211,559.528 957.466,563.101" id="Fill-86" fill="#5C6CC0"></path>
        <path d="M1057.16627,593.991 C1060.34627,607.866 1055.28627,634.743 1046.15627,630.488 C1032.60627,624.176 1021.26627,557.764 1021.26627,557.764 L1039.06627,556 C1039.06627,556 1040.61627,563.738 1042.73627,566.499 C1048.28627,573.721 1055.47627,586.578 1057.16627,593.991 Z" id="Fill-87" fill="#5C6CC0"></path>
        <path d="M762.13,216.265 C767.935,166.71 844.503,154.684 867.523,181.698 C892.998,109.854 1026.36,108.705 1040.17,203.68 C1082.29,198.929 1136.99,227.76 1136.95002,291.077 C1090.83,291.077 694.423,291.077 649.057,291.077 C648.157,231.208 725.439,211.807 762.13,216.265" id="Fill-88" fill="#E4F3F3"></path>
        <path d="M1211.56,708.9 L1211.56,610.15 L1148.97,708.9 L1211.56,708.9 Z M1359.5,797.918 L1319.35,797.918 L1319.35,887.836 L1211.56,887.836 L1211.56,797.918 L1039.4,797.918 L1039.4,708.9 L1193.46,472.414 L1319.35,472.414 L1319.35,708.9 L1359.5,708.9 L1359.5,797.918 Z" id="Fill-93" fill="#FFFFFE"></path>
        <path d="M1161.69,701.9 L1204.56,701.9 L1204.56,634.269 L1161.69,701.9 Z M1211.56,715.9 L1148.97,715.9 C1146.41,715.9 1144.06,714.51 1142.83,712.274 C1141.6,710.038 1141.69,707.308 1143.06,705.153 L1205.65,606.403 C1207.32,603.772 1210.52,602.561 1213.51,603.427 C1216.5,604.295 1218.56,607.036 1218.56,610.15 L1218.56,708.9 C1218.56,712.766 1215.43,715.9 1211.56,715.9 Z M1218.56,880.836 L1312.35,880.836 L1312.35,797.918 C1312.35,794.052 1315.48,790.918 1319.35,790.918 L1352.5,790.918 L1352.5,715.9 L1319.35,715.9 C1315.48,715.9 1312.35,712.766 1312.35,708.9 L1312.35,479.414 L1197.26,479.414 L1046.4,710.979 L1046.4,790.918 L1211.56,790.918 C1215.43,790.918 1218.56,794.052 1218.56,797.918 L1218.56,880.836 Z M1319.35,894.836 L1211.56,894.836 C1207.69,894.836 1204.56,891.703 1204.56,887.836 L1204.56,804.918 L1039.4,804.918 C1035.54,804.918 1032.4,801.785 1032.4,797.918 L1032.4,708.9 C1032.4,707.543 1032.8,706.215 1033.54,705.079 L1187.6,468.592 C1188.89,466.61 1191.1,465.414 1193.46,465.414 L1319.35,465.414 C1323.22,465.414 1326.35,468.547 1326.35,472.414 L1326.35,701.9 L1359.5,701.9 C1363.36,701.9 1366.5,705.034 1366.5,708.9 L1366.5,797.918 C1366.5,801.785 1363.36,804.918 1359.5,804.918 L1326.35,804.918 L1326.35,887.836 C1326.35,891.703 1323.22,894.836 1319.35,894.836 Z" id="Fill-94" fill="#F44336"></path>
        <path d="M1316.04,468.289 C1316.04,468.289 1321.18,464.219 1322.89,462.555 C1324.79,460.702 1328.42,458.009 1330.73,456.401 C1332.16,455.406 1335.69,453.071 1337.43,452.756 C1338.75,452.517 1347.84,449.004 1350.34,450.814 C1350.65,451.04 1351.45,452.431 1351.45,452.431 C1351.45,452.431 1353.3,452.825 1353.78,453.173 C1354.1,453.406 1354.57,453.861 1354.52,454.254 C1354.49,454.53 1353.76,455.749 1353.76,455.749 C1353.76,455.749 1354.66,456.527 1354.8,456.821 C1354.99,457.208 1354.83,457.689 1354.55,458.019 C1353.23,459.604 1347.68,461.652 1345.77,462.436 C1342.74,463.679 1339.19,467.694 1339.19,467.694 C1339.19,467.694 1342.15,467.335 1343.36,466.751 C1346.63,465.163 1349.14,465.945 1349.82,467.036 C1350.14,467.53 1350.15,468.826 1350.15,468.826 C1350.15,468.826 1347.48,468.833 1343.99,471.104 C1341.53,472.699 1340.54,473.188 1336.32,474.322 C1335.33,474.587 1330.69,474.986 1327.61,475.307 C1325.61,475.515 1324.65,477.394 1324.65,477.394 L1316.04,468.289" id="Fill-95" fill="#F5CBC6"></path>
        <polyline id="Fill-96" fill="#9CD5DC" points="1325.16 553.921 1280.77 527.825 1272.57 510.144 1305.47 507.465 1348.06 513.542 1340.32 556.981 1325.16 553.921"></polyline>
        <path d="M1372.07,891.256 L1372.17,882.35 L1371.6,876.985 L1362.7,877.1 L1353.98,875.299 C1353.98,875.299 1352.05,881.228 1351.85,881.296 C1351.4,881.446 1344.19,888.704 1340.06,890.278 C1337.87,891.115 1332.9,892.03 1330.84,893.147 C1327.32,895.048 1330.38,897.248 1330.38,897.248 L1353.27,897.205 L1360.81,893.204 L1360.67,896.463 L1371.91,895.565 L1372.07,891.256" id="Fill-97" fill="#3F50AA"></path>
        <path d="M1440.91,875.301 L1433.95,868.034 C1433.95,868.034 1429.12,869.584 1426.63,871.05 C1425.05,871.985 1418.42,872.07 1418.18,872.512 C1417.94,872.955 1413.65,887.855 1411.83,888.696 C1409.31,889.856 1406.67,889.736 1405.11,890.503 C1403,891.537 1403.95,894.61 1403.95,894.61 L1421.78,894.975 L1432.46,884.524 L1434.17,887.387 L1443.6,881.786 L1440.91,875.301" id="Fill-98" fill="#3F50AA"></path>
        <g id="Group-101" transform="translate(1354.000000, 487.000000)">
            <mask id="mask-30" fill="white">
                <use xlink:href="#path-29"></use>
            </mask>
            <g id="Clip-100"></g>
            <polyline id="Fill-99" fill="url(#linearGradient-31)" mask="url(#mask-30)" points="5.2 48.73 30.43 38.147 27.19 0.473 7.1 1.118 0.68 36.671 5.2 48.73"></polyline>
        </g>
        <polyline id="Fill-102" fill="#9CD5DC" points="1383.04 524.888 1359.56 529.926 1341.86 518.953 1356.7 571.293 1383.04 524.888"></polyline>
        <polyline id="Fill-103" fill="#F5CBC6" points="1441.2 668.788 1469.19 619.375 1441.96 623.616 1426.86 664.555 1441.2 668.788"></polyline>
        <polyline id="Fill-104" fill="#48B9BA" points="1418.68 653.133 1426.15 696.841 1416.78 781.104 1424.66 799.514 1438.01 869.893 1425.13 874.966 1416.69 874.847 1390.09 793.894 1386.16 788.696 1379.32 743.423 1375.24 773.72 1374.51 785.724 1378.11 807.247 1374.1 879.265 1358.1 880.432 1351.48 879.65 1347.41 797.429 1341.61 787.866 1341.61 655.154 1418.68 653.133"></polyline>
        <polyline id="Fill-105" fill="#3F50AA" points="1423.69 531.072 1386.19 516.386 1371.49 526.004 1352 552.876 1355.19 518.15 1352.58 512.308 1342.6 512.879 1334.1 578.737 1340.02 657.987 1354.9 659.126 1420.02 654.987 1418.83 611.558 1416.83 592.788 1423.69 531.072"></polyline>
        <path d="M1471.31,620.447 C1471.31,620.447 1440.85,556.542 1434.68,544.67 C1432.55,540.567 1428.76,529.531 1424.13,529.481 C1413.09,529.361 1405.04,560.26 1405.57,571.293 C1406.41,588.537 1441.2,624.482 1441.2,624.482 L1471.31,620.447" id="Fill-106" fill="#9CD5DC"></path>
        <polyline id="Fill-107" fill="#F5CBC6" points="1379.41 488.829 1369.87 506.988 1349.82 506.32 1348.91 504.004 1351.24 501.848 1350.14 491.822 1344.82 489.639 1350.96 479.398 1354.35 465.112 1370.79 468.174 1377.85 469.485 1380.75 471.949 1379.41 488.829"></polyline>
        <polyline id="Fill-108" fill="#C0E3E5" points="1392.47 520.833 1385.14 512.496 1359.56 529.926 1365.7 542.105 1392.47 520.833"></polyline>
        <polyline id="Fill-109" fill="#C0E3E5" points="1359.56 529.926 1356.62 509.708 1352.09 511.757 1352.07 534.864 1359.56 529.926"></polyline>
        <path d="M1427.53,663.986 L1418.76,668.987 C1418.76,668.987 1413.37,675.627 1412.8,677.319 C1412.59,677.95 1413.77,679.479 1413.79,682.604 C1413.8,684.498 1415.36,685.317 1415.99,685.741 C1416.88,686.331 1417.26,687.121 1418.94,688.799 C1419.23,689.083 1423,689.23 1423.67,689.008 C1424.12,688.86 1427.92,687.532 1428.57,686.42 C1429.08,685.547 1429.19,684.731 1429.25,683.152 C1429.29,681.907 1428.82,681.569 1428.19,681.485 C1427.4,681.378 1426.62,682.269 1425.98,684.537 C1425.98,684.537 1424.21,685.311 1424.04,684.692 C1423.67,683.378 1427.2,681.336 1428.73,680.518 C1431.26,679.163 1434.9,680.184 1436.73,678.27 C1439.47,675.406 1441.2,668.788 1441.2,668.788 L1427.53,663.986" id="Fill-110" fill="#F5CBC6"></path>
        <path d="M1354.93,468.003 C1360.47,471.938 1382.71,474.293 1382.71,474.293 C1382.71,474.293 1387.38,459.98 1378.03,458.702 C1356.73,455.792 1354.34,450.757 1354.34,450.757 C1354.34,450.757 1346.66,462.138 1354.93,468.003" id="Fill-111" fill="#263560"></path>
        <path d="M1379.16,489.935 L1381.88,496.154 C1381.88,496.154 1388.63,489.208 1390.93,484.778 C1395.19,476.56 1394.31,468.613 1383.17,461.503 L1381.65,464.048 L1376.05,479.887 C1375.35,483.141 1376.45,486.677 1379.16,489.935" id="Fill-112" fill="#263560"></path>
        <g id="Group-115" transform="translate(1375.000000, 484.000000)">
            <mask id="mask-33" fill="white">
                <use xlink:href="#path-32"></use>
            </mask>
            <g id="Clip-114"></g>
            <path d="M7.15,3.642 C7.24,1.886 5.91,0.386 4.17,0.292 C2.43,0.199 0.95,1.546 0.85,3.303 C0.76,5.06 2.09,6.56 3.83,6.654 C5.57,6.748 7.06,5.399 7.15,3.642" id="Fill-113" fill="url(#linearGradient-34)" mask="url(#mask-33)"></path>
        </g>
        <polyline id="Fill-116" fill="#263560" points="1353.37 499.067 1350.94 499.064 1351.24 501.848 1353.37 499.067"></polyline>
        <polyline id="Fill-117" fill="#F5CBC6" points="1324.65 477.394 1303.74 509.054 1274.22 510.086 1295.48 484.258 1316.9 467.729 1324.65 477.394"></polyline>
        <path d="M296.978,311.949 C290.283,311.949 284.837,317.252 284.837,323.772 C284.837,329.776 289.554,334.191 293.992,335.296 C294.883,335.518 295.509,336.319 295.509,337.237 L295.509,340.542 L300.045,336.591 C300.409,336.274 300.876,336.099 301.359,336.099 L305.406,336.099 C312,336.099 317.364,330.682 317.364,324.024 C317.364,317.366 312,311.949 305.406,311.949 L296.978,311.949 Z M293.509,346.936 C293.228,346.936 292.946,346.876 292.681,346.756 C291.967,346.431 291.509,345.719 291.509,344.936 L291.509,338.713 C285.328,336.462 280.837,330.301 280.837,323.772 C280.837,315.047 288.077,307.949 296.978,307.949 L305.406,307.949 C314.205,307.949 321.364,315.161 321.364,324.024 C321.364,332.888 314.205,340.099 305.406,340.099 L302.108,340.099 L294.822,346.444 C294.451,346.767 293.983,346.936 293.509,346.936 Z" id="Fill-118" fill="#DEF1F2"></path>
        <path d="M301.1,331.569 C299.996,331.569 299.1,330.673 299.1,329.569 L299.1,324.236 C299.1,323.131 299.996,322.236 301.1,322.236 C302.205,322.236 303.1,323.131 303.1,324.236 L303.1,329.569 C303.1,330.673 302.205,331.569 301.1,331.569" id="Fill-119" fill="#DEF1F2"></path>
        <path d="M301.1,317.356 C300.412,317.356 299.853,317.92 299.853,318.614 C299.853,319.308 300.412,319.874 301.1,319.874 C301.788,319.874 302.348,319.308 302.348,318.614 C302.348,317.92 301.788,317.356 301.1,317.356 Z M301.1,321.356 C299.582,321.356 298.348,320.125 298.348,318.614 C298.348,317.103 299.582,315.874 301.1,315.874 C302.618,315.874 303.853,317.103 303.853,318.614 C303.853,320.125 302.618,321.356 301.1,321.356 Z" id="Fill-120" fill="#DEF1F2"></path>
        <path d="M1462.89,393.984 C1462.34,394.329 1462,394.915 1461.96,395.559 C1461.92,396.29 1461.79,397.019 1461.58,397.725 C1461.4,398.345 1461.53,399.015 1461.93,399.524 L1463.42,401.418 L1462.76,402.458 L1460.41,401.927 C1459.78,401.785 1459.12,401.956 1458.64,402.384 C1458.09,402.874 1457.48,403.301 1456.84,403.656 C1456.28,403.965 1455.89,404.528 1455.82,405.167 L1455.53,407.558 L1454.33,407.829 L1453.04,405.794 C1452.7,405.249 1452.11,404.903 1451.47,404.866 C1450.74,404.824 1450.01,404.698 1449.3,404.491 C1449.12,404.436 1448.93,404.41 1448.74,404.41 C1448.3,404.41 1447.86,404.557 1447.5,404.836 L1445.61,406.323 L1444.57,405.666 L1445.1,403.319 C1445.24,402.689 1445.07,402.031 1444.64,401.548 C1444.16,401 1443.73,400.394 1443.37,399.745 C1443.06,399.181 1442.5,398.802 1441.86,398.725 L1439.47,398.437 L1439.2,397.237 L1441.23,395.952 C1441.78,395.609 1442.12,395.025 1442.16,394.383 C1442.21,393.646 1442.33,392.913 1442.54,392.205 C1442.72,391.586 1442.59,390.919 1442.19,390.412 L1440.71,388.517 L1441.36,387.478 L1443.71,388.008 C1444.34,388.149 1445,387.98 1445.48,387.551 C1446.04,387.059 1446.64,386.631 1447.28,386.282 C1447.85,385.971 1448.23,385.407 1448.31,384.766 L1448.59,382.376 L1449.79,382.107 L1451.08,384.142 C1451.42,384.687 1452.01,385.033 1452.65,385.07 C1453.38,385.113 1454.11,385.239 1454.83,385.446 C1455.44,385.625 1456.11,385.498 1456.62,385.099 L1458.51,383.612 L1459.55,384.269 L1459.02,386.617 C1458.88,387.247 1459.05,387.907 1459.48,388.389 C1459.97,388.937 1460.39,389.542 1460.75,390.189 C1461.06,390.754 1461.62,391.134 1462.26,391.211 L1464.65,391.499 L1464.92,392.699 L1462.89,393.984 Z M1468.24,389.242 C1468.06,388.416 1467.37,387.796 1466.53,387.696 L1463.71,387.357 C1463.53,387.08 1463.34,386.808 1463.14,386.545 L1463.76,383.774 C1463.95,382.949 1463.6,382.095 1462.88,381.642 L1459.46,379.477 C1458.74,379.025 1457.82,379.071 1457.15,379.594 L1454.92,381.349 C1454.59,381.281 1454.27,381.224 1453.94,381.179 L1452.42,378.777 C1451.97,378.062 1451.12,377.711 1450.29,377.895 L1446.34,378.785 C1445.51,378.971 1444.89,379.657 1444.79,380.498 L1444.45,383.317 C1444.18,383.499 1443.9,383.69 1443.64,383.891 L1440.87,383.265 C1440.04,383.083 1439.19,383.433 1438.74,384.148 L1436.57,387.573 C1436.12,388.288 1436.17,389.209 1436.69,389.875 L1438.44,392.112 C1438.37,392.436 1438.32,392.762 1438.27,393.09 L1435.87,394.609 C1435.15,395.061 1434.8,395.914 1434.99,396.74 L1435.88,400.693 C1436.06,401.518 1436.75,402.137 1437.59,402.239 L1440.41,402.58 C1440.59,402.857 1440.78,403.128 1440.98,403.391 L1440.36,406.162 C1440.17,406.987 1440.52,407.84 1441.24,408.292 L1444.66,410.458 C1445.38,410.91 1446.3,410.863 1446.97,410.341 L1449.2,408.587 C1449.53,408.656 1449.86,408.712 1450.18,408.757 L1451.7,411.158 C1452.07,411.747 1452.71,412.09 1453.39,412.09 C1453.54,412.09 1453.68,412.074 1453.83,412.042 L1457.78,411.151 C1458.61,410.964 1459.23,410.28 1459.33,409.44 L1459.67,406.619 C1459.95,406.437 1460.22,406.246 1460.48,406.044 L1463.25,406.67 C1464.08,406.858 1464.93,406.503 1465.39,405.788 L1467.55,402.361 C1468,401.646 1467.96,400.724 1467.43,400.058 L1465.68,397.825 C1465.75,397.5 1465.8,397.172 1465.85,396.844 L1468.25,395.327 C1468.97,394.875 1469.32,394.021 1469.13,393.196 L1468.24,389.242 Z" id="Fill-121" fill="#DEF1F2"></path>
        <path d="M1454,396.193 C1453.67,396.709 1453.16,397.069 1452.56,397.203 L1452.56,397.204 C1451.97,397.338 1451.35,397.232 1450.84,396.906 C1450.32,396.579 1449.96,396.07 1449.83,395.473 C1449.69,394.875 1449.8,394.26 1450.12,393.743 C1450.45,393.226 1450.96,392.867 1451.56,392.733 C1451.73,392.695 1451.9,392.675 1452.07,392.675 C1452.49,392.675 1452.91,392.796 1453.29,393.031 C1453.8,393.358 1454.16,393.867 1454.3,394.463 C1454.43,395.061 1454.32,395.675 1454,396.193 Z M1455.42,389.65 C1454,388.751 1452.32,388.46 1450.68,388.831 C1449.04,389.2 1447.64,390.185 1446.74,391.606 C1445.85,393.026 1445.55,394.711 1445.92,396.352 C1446.29,397.991 1447.28,399.388 1448.7,400.286 C1449.72,400.93 1450.87,401.262 1452.05,401.262 C1452.51,401.262 1452.98,401.209 1453.44,401.105 C1455.08,400.736 1456.48,399.75 1457.38,398.33 C1458.28,396.909 1458.57,395.223 1458.2,393.584 C1457.83,391.945 1456.84,390.547 1455.42,389.65 Z" id="Fill-122" fill="#DEF1F2"></path>
        <path d="M1478.2,378.832 L1477.6,375.678 C1477.44,374.847 1476.77,374.206 1475.94,374.077 L1473.9,373.763 C1473.83,373.643 1473.75,373.524 1473.67,373.407 L1474.19,371.415 C1474.4,370.595 1474.08,369.731 1473.38,369.254 L1470.72,367.451 C1470.02,366.975 1469.1,366.992 1468.42,367.492 L1466.75,368.709 C1466.61,368.677 1466.48,368.649 1466.33,368.623 L1465.29,366.845 C1464.86,366.116 1464.02,365.734 1463.19,365.893 L1460.04,366.495 C1459.21,366.653 1458.57,367.318 1458.44,368.155 L1458.12,370.189 C1458,370.265 1457.89,370.343 1457.77,370.424 L1455.77,369.905 C1454.96,369.693 1454.09,370.016 1453.62,370.716 L1451.81,373.372 C1451.34,374.072 1451.35,374.995 1451.85,375.677 L1453.64,378.118 C1454.29,379.009 1455.54,379.203 1456.43,378.55 C1457.33,377.897 1457.52,376.646 1456.87,375.754 L1455.91,374.453 L1456.13,374.131 L1457.69,374.539 C1458.32,374.7 1458.98,374.553 1459.48,374.141 C1459.9,373.785 1460.37,373.48 1460.85,373.235 C1461.43,372.944 1461.83,372.392 1461.93,371.753 L1462.18,370.159 L1462.56,370.086 L1463.37,371.479 C1463.7,372.035 1464.27,372.4 1464.92,372.458 C1465.46,372.508 1466.01,372.621 1466.53,372.794 C1467.15,372.995 1467.82,372.887 1468.34,372.506 L1469.64,371.552 L1469.96,371.769 L1469.55,373.332 C1469.39,373.956 1469.54,374.621 1469.95,375.117 C1470.3,375.54 1470.61,376.004 1470.86,376.498 C1471.15,377.073 1471.7,377.471 1472.34,377.57 L1473.93,377.815 L1474.01,378.197 L1472.61,379.013 C1472.06,379.339 1471.69,379.914 1471.63,380.556 C1471.58,381.102 1471.47,381.645 1471.3,382.168 C1471.1,382.783 1471.2,383.457 1471.58,383.978 L1472.33,384.991 L1470.22,384.407 C1469.16,384.115 1468.06,384.734 1467.76,385.798 C1467.47,386.863 1468.09,387.965 1469.15,388.261 L1472.71,389.249 C1472.89,389.297 1473.07,389.322 1473.24,389.322 C1473.83,389.322 1474.39,389.066 1474.78,388.603 L1476.52,386.518 C1477.11,385.812 1477.14,384.795 1476.6,384.053 L1475.38,382.394 C1475.41,382.255 1475.44,382.115 1475.47,381.975 L1477.25,380.932 C1477.98,380.504 1478.36,379.664 1478.2,378.832" id="Fill-123" fill="#DEF1F2"></path>
        <path d="M992.507,365.69 C990.097,366.916 988.166,369.078 987.311,371.861 C986.5,374.5 986.765,377.295 988.057,379.735 C989.349,382.174 991.514,383.963 994.152,384.775 C999.599,386.449 1005.39,383.38 1007.07,377.933 C1007.88,375.294 1007.61,372.499 1006.32,370.059 C1005.03,367.621 1002.86,365.831 1000.23,365.019 C997.561,364.201 994.814,364.516 992.507,365.69 Z M1003.86,388.009 C1000.57,389.681 996.658,390.131 992.864,388.964 C989.106,387.81 986.023,385.26 984.183,381.787 C982.343,378.313 981.966,374.331 983.121,370.573 C985.505,362.816 993.756,358.445 1001.51,360.83 C1005.27,361.985 1008.35,364.534 1010.19,368.007 C1012.03,371.481 1012.41,375.463 1011.26,379.221 C1010.04,383.184 1007.29,386.264 1003.86,388.009 Z" id="Fill-124" fill="#DEF1F2"></path>
        <path d="M992.784,375.191 C992.295,375.44 991.712,375.506 991.146,375.333 C989.99,374.977 989.34,373.75 989.695,372.594 C990.311,370.592 991.668,368.95 993.519,367.97 C995.367,366.988 997.49,366.789 999.492,367.405 C1000.65,367.76 1001.3,368.986 1000.94,370.143 C1000.59,371.299 999.361,371.949 998.204,371.594 C997.322,371.323 996.396,371.428 995.571,371.843 C994.755,372.276 994.157,373 993.886,373.882 C993.704,374.472 993.295,374.931 992.784,375.191" id="Fill-125" fill="#DEF1F2"></path>
        <path d="M1012.36,403.812 L1012.32,403.832 C1010.79,404.596 1008.92,404.507 1007.21,403.586 C1005.73,402.786 1004.45,401.419 1003.61,399.737 L1003.53,399.558 L998.945,387.815 C998.504,386.687 999.055,385.408 1000.19,384.976 C1001.32,384.536 1002.59,385.092 1003.03,386.219 L1007.58,397.864 C1008.01,398.694 1008.63,399.37 1009.29,399.727 C1009.73,399.96 1010.13,400.028 1010.37,399.908 L1010.37,399.906 C1010.61,399.784 1010.8,399.422 1010.88,398.939 C1010.99,398.2 1010.83,397.303 1010.43,396.465 L1003.68,385.951 C1003.03,384.932 1003.32,383.576 1004.34,382.922 C1005.36,382.268 1006.71,382.563 1007.37,383.582 L1014.19,394.206 L1014.31,394.415 C1015.15,396.097 1015.47,397.942 1015.21,399.609 C1014.91,401.511 1013.88,403.041 1012.36,403.812" id="Fill-126" fill="#DEF1F2"></path>
        <path d="M1005.59,395.442 C1004.53,395.983 1003.23,395.573 1002.67,394.514 C1002.1,393.445 1002.51,392.119 1003.58,391.552 L1007.53,389.458 C1008.58,388.853 1009.93,389.298 1010.49,390.368 C1011.06,391.437 1010.65,392.763 1009.58,393.33 L1005.63,395.425 L1005.59,395.442" id="Fill-127" fill="#DEF1F2"></path>
        <path d="M652.424,597.808 C653.146,605.543 654.117,618.985 654.117,618.985 C654.117,618.985 643.407,635.91 639.647,632.88 C638.555,632 622.716,633.261 623.156,630.511 C626.036,612.491 633.213,567.625 637.731,569.254 C642.79,571.079 651.046,583.05 652.424,597.808" id="Fill-128" fill="#0E858A"></path>
        <path d="M619.23,513.523 C613.91,519.164 612.128,529.466 617.204,535.054 C621.594,539.888 640.741,540.048 642.134,540.043 C655.208,539.999 653.007,525.399 649.779,519.262 C644.352,508.942 629.156,502.999 619.23,513.523" id="Fill-129" fill="#1C5B8C"></path>
        <g id="Group-132" transform="translate(601.000000, 562.000000)">
            <mask id="mask-36" fill="white">
                <use xlink:href="#path-35"></use>
            </mask>
            <g id="Clip-131"></g>
            <path d="M15.97,19.919 C22.162,21.088 34.757,13.235 37.632,9.996 C37.632,9.996 35.346,6.18 33.823,5.444 C23.845,0.618 19.632,-1.219 6.393,1.833 C4.826,2.195 0.388,4.144 0.388,4.144 C0.422,4.637 10.523,18.891 15.97,19.919" id="Fill-130" fill="url(#linearGradient-37)" mask="url(#mask-36)"></path>
        </g>
        <g id="Group-135" transform="translate(616.000000, 538.000000)">
            <mask id="mask-39" fill="white">
                <use xlink:href="#path-38"></use>
            </mask>
            <g id="Clip-134"></g>
            <path d="M3.942,0.124 L15.729,13.31 C16.092,13.338 16.363,13.657 16.334,14.02 L15.201,26.525 C14.879,30.553 11.495,33.437 7.466,33.115 C3.437,32.792 0.432,29.265 0.753,25.236 L3.232,0.729 C3.261,0.366 3.579,0.094 3.942,0.124" id="Fill-133" fill="url(#linearGradient-40)" mask="url(#mask-39)"></path>
        </g>
        <path d="M619.146,539.573 L615.694,531.544 C615.694,531.544 611.922,541.375 610.316,548.607 C607.696,560.41 605.932,568.985 612.903,576.513 C619.313,583.435 620.409,588.171 620.612,588.147 C620.612,588.147 625.233,579.14 623.394,574.01 C618.629,560.723 617.59,558.444 617.873,552.172 C618.154,545.922 619.146,539.573 619.146,539.573" id="Fill-136" fill="#1C5B8C"></path>
        <g id="Group-139" transform="translate(616.000000, 532.000000)">
            <mask id="mask-42" fill="white">
                <use xlink:href="#path-41"></use>
            </mask>
            <g id="Clip-138"></g>
            <path d="M0.213,4.539 C0.397,6.394 2.037,7.75 3.874,7.569 C5.712,7.386 7.052,5.734 6.868,3.878 C6.684,2.023 5.045,0.667 3.208,0.848 C1.37,1.031 0.029,2.683 0.213,4.539" id="Fill-137" fill="url(#linearGradient-43)" mask="url(#mask-42)"></path>
        </g>
        <path d="M648.848,538.792 C648.55,550.299 640.22,558.003 635.687,557.051 C626.226,555.062 620.156,548.106 620.453,536.598 C620.75,525.09 627.289,517.384 635.151,517.586 C643.013,517.79 649.145,527.284 648.848,538.792" id="Fill-140" fill="#F5CBC6"></path>
        <path d="M626.959,514.127 C617.43,518.104 618.909,532.273 619.208,532.848 C619.681,533.762 621.204,534.383 621.768,534.2 C631.743,530.937 643.912,523.032 643.912,523.032 C643.912,523.032 653.171,531.236 646.668,556.696 C646.668,556.696 652.05,547.279 652.326,534.329 C652.674,517.942 640.79,508.357 626.959,514.127" id="Fill-141" fill="#1C5B8C"></path>
        <path d="M664.547,841.811 L664.095,882.631 L657.254,886.052 L651.2,883.938 C651.2,883.938 651.158,873.781 650.219,866.989 C649.257,860.025 646.699,843.294 646.699,843.294 L664.547,841.811" id="Fill-142" fill="#F5CBC6"></path>
        <path d="M601.387,835.47 L599.019,885.83 L587.375,889.302 C587.375,889.302 584.487,867.125 583.871,860.343 C583.479,856.031 582.512,835.47 582.512,835.47 L601.387,835.47" id="Fill-143" fill="#F5CBC6"></path>
        <path d="M650.612,635.352 L604.279,638.919 C604.279,638.919 594.957,670.599 593.333,685.069 C591.653,700.027 593.524,751.018 590.514,766.533 C589.342,772.572 584.474,786.584 583.231,792.61 C580.37,806.488 580.647,849.229 580.647,849.229 L596.473,852.44 L602.677,849.229 C602.677,849.229 608.745,801.711 612.476,787.661 C618.319,765.658 631.443,726.331 631.443,726.331 C631.443,726.331 636.267,789.492 638.906,809.739 C640.336,820.708 646.422,850.982 646.422,850.982 L663.859,852.024 L667.85,850.062 C667.85,850.062 664.97,794.142 665.397,775.93 C665.937,752.899 670.391,695.768 667.951,672.861 C666.951,663.478 650.612,635.352 650.612,635.352" id="Fill-144" fill="#3F50AA"></path>
        <g id="Group-147" transform="translate(589.000000, 558.000000)">
            <mask id="mask-45" fill="white">
                <use xlink:href="#path-44"></use>
            </mask>
            <g id="Clip-146"></g>
            <path d="M43.708,8.118 L40.663,11.413 L21.823,0.245 C21.823,0.245 5.318,8.816 2.556,13.579 C-2.51,22.31 1.296,41.446 4.813,50.482 C7.116,56.399 13.866,67.379 14.708,73.873 C15.257,78.119 13.642,80.989 14.707,82.566 C16.23,84.823 21.556,85.708 24.224,86.258 C31.886,87.837 61.848,87.437 63.329,79.066 C64.448,72.744 55.284,55.103 55.369,48.683 C55.412,45.388 59.226,39.06 59.489,35.775 C60.042,28.873 53.378,17.219 51.35,14.177 C49.499,11.401 43.708,8.118 43.708,8.118 Z" id="Fill-145" fill="#A7E5E7" mask="url(#mask-45)"></path>
        </g>
        <path d="M614.568,904.374 L602.771,905.078 C601.185,905.172 599.622,904.658 598.403,903.639 L591.432,897.813 L586.431,895.883 L586.454,894.293 C585.878,891.479 586.614,886.4 586.614,886.4 C586.614,886.4 589.588,888.75 593.644,885.614 C595.886,883.879 598.122,884.297 600.545,885.769 L602.438,889.302 L613.649,899.995 C614.236,900.554 614.568,901.33 614.568,902.14 L614.568,904.374" id="Fill-148" fill="#263560"></path>
        <path d="M637.166,568.356 L632.077,565.371 L630.043,568.994 C630.043,568.994 635.971,574.507 636.021,574.288 C636.725,571.139 637.166,568.356 637.166,568.356" id="Fill-149" fill="#0E858A"></path>
        <path d="M630.043,568.994 L625.247,576.105 C619.961,571.342 606.442,558.903 606.442,558.903 L613.436,555.477 L630.043,568.994" id="Fill-150" fill="#0E858A"></path>
        <path d="M649.851,886.028 L650.809,881.944 L653.588,882.986 C656.042,883.906 658.802,883.441 660.819,881.767 L664.556,878.667 L674.523,888.102 C675.111,888.658 675.792,889.107 676.534,889.429 L683.747,892.559 C685.301,893.234 686.46,894.56 686.932,896.162 C687.039,896.525 686.76,896.89 686.381,896.89 L671.002,896.89 C670.388,896.89 669.78,896.766 669.214,896.525 L660.817,892.974 L660.396,894.827 L650.884,894.827 C650.884,894.827 650.599,893.667 650.414,892.823 C650.308,892.339 649.595,890.758 649.595,890.758 C649.396,889.147 649.48,887.609 649.851,886.028" id="Fill-151" fill="#263560"></path>
        <path d="M650.678,611.937 C647.741,611.753 642.646,610.852 639.619,613.29 C638.25,614.392 635.807,616.779 634.469,617.919 C632.803,619.34 620.92,617.708 620.92,617.708 L619.815,629.043 C619.815,629.043 634.302,627.467 637.5,628.376 C638.193,628.574 641.106,629.903 641.828,629.918 C646.704,630.022 648.78,628.897 648.78,628.897 L648.024,616.044 C644.619,616.032 643.831,615.61 644.1,615.438 C645.037,614.838 647.87,615.23 648.846,614.797 C649.915,614.323 651.86,612.01 650.678,611.937" id="Fill-152" fill="#F5CBC6"></path>
        <path d="M604.682,599.628 C604.188,605.898 597.893,621.198 597.893,621.198 C597.893,621.198 605.725,618.698 622.015,615.056 C623.701,614.679 627.454,616.272 627.393,617.835 C627.383,618.074 632.472,617.452 632.472,617.452 L633.227,629.526 L629.63,630.349 C629.63,630.349 629.072,633.061 627.618,633.511 C613.958,637.744 582.835,641.681 579.075,638.652 C577.983,637.771 576.968,636.043 577.408,633.293 C580.288,615.272 584.584,596.445 588.611,579.124 C589.228,576.472 591.837,571.296 593.42,572.321 C597.934,575.245 605.35,591.145 604.682,599.628" id="Fill-153" fill="#0E858A"></path>
        <path d="M610.319,548.585 C603.861,570.82 615.476,588.649 615.476,588.649 L625.615,589.563 C625.615,589.563 619.541,574.667 617.875,552.151 C617.413,545.912 612.385,541.471 610.319,548.585" id="Fill-154" fill="#1C5B8C"></path>
        <g id="Group-157" transform="translate(632.000000, 591.000000)">
            <mask id="mask-47" fill="white">
                <use xlink:href="#path-46"></use>
            </mask>
            <g id="Clip-156"></g>
            <path d="M4.375,62.203 L27.456,58.263 C29.903,57.846 32.285,54.967 32.774,51.833 L40.018,5.524 C40.508,2.39 38.921,0.189 36.474,0.606 L13.392,4.545 C10.945,4.962 8.563,7.841 8.073,10.975 L0.831,57.285 C0.34,60.418 1.927,62.62 4.375,62.203" id="Fill-155" fill="url(#linearGradient-48)" mask="url(#mask-47)"></path>
        </g>
        <path d="M668.393,619.76 L667.366,626.328 C667.366,626.328 671.054,623.665 672.173,620.855 C673.096,618.541 675.282,609.753 673.253,606.637 C672.239,605.08 666.093,602.153 666.093,602.153 C666.093,602.153 665.951,603.3 666.182,603.907 C666.701,605.274 670.261,607.815 670.261,607.815 L665.52,607.39 L661.767,608.492 C661.767,608.492 661.747,609.112 662.527,609.809 C663.205,610.416 665.776,609.695 665.776,609.695 L668.151,611.132 L660.984,612.348 C660.984,612.348 661.296,613.884 661.62,614.274 C661.966,614.691 663.516,615.321 663.516,615.321 C663.516,615.321 663.556,616.15 663.668,616.294 C664.762,617.708 668.393,619.76 668.393,619.76" id="Fill-158" fill="#F5CBC6"></path>
        <path d="M654.416,606.205 C654.497,606.906 655.414,607.375 656.465,607.253 C657.516,607.132 658.303,606.466 658.222,605.765 C658.141,605.065 657.223,604.595 656.172,604.716 C655.121,604.837 654.334,605.504 654.416,606.205" id="Fill-159" fill="#C4E0C5"></path>
        <path d="M632.117,394.935 L640.694,396.163 L641.863,387.991 L633.287,386.763 L632.117,394.935 Z M644.086,400.69 L627.591,398.328 L629.894,382.238 L646.39,384.598 L644.086,400.69 Z" id="Fill-162" fill="#DEF1F2"></path>
        <polyline id="Fill-163" fill="#DEF1F2" points="1111.63 460.601 1108.37 458.281 1116.61 446.707 1128.73 454.874 1126.49 458.19 1117.61 452.203 1111.63 460.601"></polyline>
        <path d="M138.639,691.005 C137.733,691.005 136.843,691.257 136.055,691.749 C134.942,692.441 134.165,693.526 133.867,694.803 C133.254,697.439 134.9,700.083 137.536,700.697 C140.175,701.309 142.817,699.664 143.43,697.029 C144.043,694.393 142.397,691.749 139.761,691.135 C139.388,691.048 139.012,691.005 138.639,691.005 Z M138.648,704.826 C137.982,704.826 137.306,704.75 136.63,704.593 C131.845,703.479 128.859,698.681 129.972,693.897 C130.511,691.579 131.921,689.61 133.941,688.352 C135.962,687.096 138.35,686.699 140.668,687.239 C145.452,688.353 148.439,693.151 147.325,697.935 C146.369,702.042 142.696,704.826 138.648,704.826 Z" id="Fill-164" fill="#DEF1F2"></path>
        <path d="M718.841,135.589 L727.417,136.817 L728.587,128.645 L720.01,127.417 L718.841,135.589 Z M730.81,141.344 L714.314,138.982 L716.618,122.892 L733.113,125.252 L730.81,141.344 Z" id="Fill-165" fill="#DEF1F2"></path>
        <path d="M1122.527,89.697 L1131.103,90.925 L1132.273,82.753 L1123.696,81.525 L1122.527,89.697 Z M1134.496,95.452 L1118,93.09 L1120.304,77 L1136.799,79.36 L1134.496,95.452 Z" id="Fill-165" fill="#DEF1F2"></path>
        <polyline id="Fill-166" fill="#DEF1F2" points="202.605 193.048 201.966 189.099 207.85 188.147 208.488 192.096 202.605 193.048"></polyline>
        <polyline id="Fill-167" fill="#DEF1F2" points="208.484 186.638 207.549 180.864 211.498 180.225 212.432 186 208.484 186.638"></polyline>
        <polyline id="Fill-168" fill="#DEF1F2" points="214.92 191.055 214.281 187.106 219.846 186.206 220.485 190.155 214.92 191.055"></polyline>
        <polyline id="Fill-169" fill="#DEF1F2" points="210.527 199.259 209.539 193.156 213.487 192.517 214.476 198.621 210.527 199.259"></polyline>
        <polyline id="Fill-170" fill="#DEF1F2" points="346.418 456.967 343.159 454.647 351.399 443.073 363.518 451.24 361.282 454.556 352.396 448.569 346.418 456.967"></polyline>
        <polyline id="Fill-171" fill="#DEF1F2" points="1374.93 281.047 1374.29 277.098 1380.18 276.145 1380.82 280.094 1374.93 281.047"></polyline>
        <polyline id="Fill-172" fill="#DEF1F2" points="1380.81 274.636 1379.88 268.862 1383.83 268.223 1384.76 273.998 1380.81 274.636"></polyline>
        <polyline id="Fill-173" fill="#DEF1F2" points="1387.25 279.054 1386.61 275.105 1392.17 274.204 1392.81 278.153 1387.25 279.054"></polyline>
        <polyline id="Fill-174" fill="#DEF1F2" points="1382.86 287.257 1381.87 281.154 1385.82 280.515 1386.8 286.619 1382.86 287.257"></polyline>
    </g>
</svg>