<svg xmlns="http://www.w3.org/2000/svg" width="420" height="373" viewBox="0 0 0 0 420 0 373"><defs><linearGradient id="a" gradientUnits="userSpaceOnUse" x1="-329.65" y1="476.54" x2="-328.65" y2="476.54"><stop offset="0" stop-color="#BFE4EF"/><stop offset=".12" stop-color="#BFE4EF"/><stop offset=".23" stop-color="#DDF1F7"/><stop offset="1" stop-color="#DDF1F7"/></linearGradient><linearGradient id="b" gradientUnits="userSpaceOnUse" x1="-329.65" y1="476.54" x2="-328.65" y2="476.54"><stop offset="0" stop-color="#67AEC6"/><stop offset=".04" stop-color="#A1D0DF"/><stop offset=".78" stop-color="#A1D0DF"/><stop offset=".86" stop-color="#ECF7F8"/><stop offset="1" stop-color="#ECF7F8"/></linearGradient><linearGradient id="c" gradientUnits="userSpaceOnUse" x1="-329.65" y1="476.54" x2="-328.65" y2="476.54"><stop offset="0" stop-color="#BFE4EF"/><stop offset=".12" stop-color="#BFE4EF"/><stop offset=".23" stop-color="#DDF1F7"/><stop offset="1" stop-color="#DDF1F7"/></linearGradient><linearGradient id="d" gradientUnits="userSpaceOnUse" x1="-329.09" y1="476.54" x2="-328.09" y2="476.54"><stop offset="0" stop-color="#BF2254"/><stop offset="1" stop-color="#EC955D"/></linearGradient><linearGradient id="e" gradientUnits="userSpaceOnUse" x1="-329.65" y1="476.54" x2="-328.65" y2="476.54"><stop offset="0" stop-color="#194689"/><stop offset="1" stop-color="#4FC0DF"/></linearGradient><linearGradient id="f" gradientUnits="userSpaceOnUse" x1="-329.65" y1="476.54" x2="-328.65" y2="476.54"><stop offset="0" stop-color="#1C2345"/><stop offset="1" stop-color="#26B7CC"/></linearGradient><linearGradient id="g" gradientUnits="userSpaceOnUse" x1="-329.65" y1="476.54" x2="-328.65" y2="476.54"><stop offset="0" stop-color="#194689"/><stop offset="1" stop-color="#4FC0DF"/></linearGradient><linearGradient id="h" gradientUnits="userSpaceOnUse" x1="-329.65" y1="476.54" x2="-328.65" y2="476.54"><stop offset="0" stop-color="#1C2345"/><stop offset="1" stop-color="#26B7CC"/></linearGradient><linearGradient id="i" gradientUnits="userSpaceOnUse" x1="-329.65" y1="476.54" x2="-328.65" y2="476.54"><stop offset="0" stop-color="#85203D"/><stop offset="1" stop-color="#E0563D"/></linearGradient><linearGradient id="j" gradientUnits="userSpaceOnUse" x1="-329.65" y1="484.43" x2="-328.65" y2="484.43"><stop offset="0" stop-color="#BF2254"/><stop offset="1" stop-color="#EC955D"/></linearGradient><linearGradient id="k" gradientUnits="userSpaceOnUse" x1="-329.65" y1="476.54" x2="-328.65" y2="476.54"><stop offset="0" stop-color="#194689"/><stop offset="1" stop-color="#4FC0DF"/></linearGradient><linearGradient id="l" gradientUnits="userSpaceOnUse" x1="-329.65" y1="476.54" x2="-328.65" y2="476.54"><stop offset="0" stop-color="#194689"/><stop offset="1" stop-color="#4FC0DF"/></linearGradient><linearGradient id="m" gradientUnits="userSpaceOnUse" x1="-329.65" y1="476.54" x2="-328.65" y2="476.54"><stop offset="0" stop-color="#1C2345"/><stop offset="1" stop-color="#26B7CC"/></linearGradient><linearGradient id="n" gradientUnits="userSpaceOnUse" x1="-329.65" y1="476.54" x2="-328.65" y2="476.54"><stop offset="0" stop-color="#1C2345"/><stop offset="1" stop-color="#26B7CC"/></linearGradient><linearGradient id="o" gradientUnits="userSpaceOnUse" x1="-329.65" y1="476.54" x2="-328.65" y2="476.54"><stop offset="0" stop-color="#1C2345"/><stop offset="1" stop-color="#26B7CC"/></linearGradient><linearGradient id="p" gradientUnits="userSpaceOnUse" x1="-329.65" y1="476.54" x2="-328.65" y2="476.54"><stop offset="0" stop-color="#194689"/><stop offset="1" stop-color="#4FC0DF"/></linearGradient><linearGradient id="q" gradientUnits="userSpaceOnUse" x1="-329.65" y1="476.54" x2="-328.65" y2="476.54"><stop offset="0" stop-color="#1C2345"/><stop offset="1" stop-color="#26B7CC"/></linearGradient><linearGradient id="r" gradientUnits="userSpaceOnUse" x1="-329.65" y1="476.54" x2="-328.65" y2="476.54"><stop offset="0" stop-color="#1C2345"/><stop offset="1" stop-color="#26B7CC"/></linearGradient><linearGradient id="s" gradientUnits="userSpaceOnUse" x1="-329.65" y1="476.54" x2="-328.65" y2="476.54"><stop offset="0" stop-color="#BFE3E7"/><stop offset="1" stop-color="#FFFFFE"/></linearGradient><linearGradient id="t" gradientUnits="userSpaceOnUse" x1="-329.65" y1="476.54" x2="-328.65" y2="476.54"><stop offset="0" stop-color="#81AAAF"/><stop offset="1" stop-color="#55C1DD"/></linearGradient><linearGradient id="u" gradientUnits="userSpaceOnUse" x1="-329.65" y1="476.54" x2="-328.65" y2="476.54"><stop offset="0" stop-color="#7CC8CC"/><stop offset="1" stop-color="#CCE9F2"/></linearGradient><linearGradient id="v" gradientUnits="userSpaceOnUse" x1="-329.65" y1="476.54" x2="-328.65" y2="476.54"><stop offset="0" stop-color="#BF2254"/><stop offset="1" stop-color="#EC955D"/></linearGradient><linearGradient id="w" gradientUnits="userSpaceOnUse" x1="-329.65" y1="476.54" x2="-328.65" y2="476.54"><stop offset="0" stop-color="#7CC8CC"/><stop offset="1" stop-color="#CCE9F2"/></linearGradient><linearGradient id="x" gradientUnits="userSpaceOnUse" x1="-329.65" y1="476.54" x2="-328.65" y2="476.54"><stop offset="0" stop-color="#85203D"/><stop offset="1" stop-color="#E0563D"/></linearGradient><linearGradient id="y" gradientUnits="userSpaceOnUse" x1="-329.65" y1="476.54" x2="-328.65" y2="476.54"><stop offset="0" stop-color="#12192F"/><stop offset="1" stop-color="#42558A"/></linearGradient><linearGradient id="z" gradientUnits="userSpaceOnUse" x1="-329.65" y1="476.54" x2="-328.65" y2="476.54"><stop offset="0" stop-color="#194689"/><stop offset="1" stop-color="#4FC0DF"/></linearGradient><linearGradient id="A" gradientUnits="userSpaceOnUse" x1="-329.65" y1="476.54" x2="-328.65" y2="476.54"><stop offset="0" stop-color="#194689"/><stop offset="1" stop-color="#4FC0DF"/></linearGradient><linearGradient id="B" gradientUnits="userSpaceOnUse" x1="-329.65" y1="476.54" x2="-328.65" y2="476.54"><stop offset="0" stop-color="#12192F"/><stop offset="1" stop-color="#42558A"/></linearGradient><linearGradient id="C" gradientUnits="userSpaceOnUse" x1="-329.65" y1="476.54" x2="-328.65" y2="476.54"><stop offset="0" stop-color="#7CC8CC"/><stop offset="1" stop-color="#CCE9F2"/></linearGradient><linearGradient id="D" gradientUnits="userSpaceOnUse" x1="-329.65" y1="476.54" x2="-328.65" y2="476.54"><stop offset="0" stop-color="#BFE3E7"/><stop offset="1" stop-color="#FFFFFE"/></linearGradient><linearGradient id="E" gradientUnits="userSpaceOnUse" x1="-329.65" y1="476.54" x2="-328.65" y2="476.54"><stop offset="0" stop-color="#81AAAF"/><stop offset="1" stop-color="#55C1DD"/></linearGradient><linearGradient id="F" gradientUnits="userSpaceOnUse" x1="-329.65" y1="476.54" x2="-328.65" y2="476.54"><stop offset="0" stop-color="#7CC8CC"/><stop offset="1" stop-color="#CCE9F2"/></linearGradient><linearGradient id="G" gradientUnits="userSpaceOnUse" x1="-329.65" y1="476.54" x2="-328.65" y2="476.54"><stop offset="0" stop-color="#7CC8CC"/><stop offset="1" stop-color="#CCE9F2"/></linearGradient><linearGradient id="H" gradientUnits="userSpaceOnUse" x1="-329.65" y1="476.54" x2="-328.65" y2="476.54"><stop offset="0" stop-color="#81AAAF"/><stop offset="1" stop-color="#55C1DD"/></linearGradient><linearGradient id="I" gradientUnits="userSpaceOnUse" x1="-329.65" y1="476.54" x2="-328.65" y2="476.54"><stop offset="0" stop-color="#BFE3E7"/><stop offset="1" stop-color="#FFFFFE"/></linearGradient><linearGradient id="J" gradientUnits="userSpaceOnUse" x1="-329.65" y1="476.54" x2="-328.65" y2="476.54"><stop offset="0" stop-color="#BF2254"/><stop offset="1" stop-color="#EC955D"/></linearGradient><linearGradient id="K" gradientUnits="userSpaceOnUse" x1="-329.65" y1="476.54" x2="-328.65" y2="476.54"><stop offset="0" stop-color="#85203D"/><stop offset="1" stop-color="#E0563D"/></linearGradient><linearGradient id="L" gradientUnits="userSpaceOnUse" x1="-329.65" y1="476.54" x2="-328.65" y2="476.54"><stop offset="0" stop-color="#BF2254"/><stop offset="1" stop-color="#EC955D"/></linearGradient><linearGradient id="M" gradientUnits="userSpaceOnUse" x1="-329.65" y1="476.54" x2="-328.65" y2="476.54"><stop offset="0" stop-color="#BF2254"/><stop offset="1" stop-color="#EC955D"/></linearGradient><linearGradient id="N" gradientUnits="userSpaceOnUse" x1="-329.92" y1="507.03" x2="-328.92" y2="507.03"><stop offset="0" stop-color="#BF2254"/><stop offset="1" stop-color="#EC955D"/></linearGradient></defs><path d="M276.68 331.05l-10.43-1.8c-.3.22-.67.44-1.13.65.2-1.07.42-2.17.68-3.3l.1-.4c.52.33.88.67 1.08 1.03l8.4-1.46.87.88.73.5a203.77 203.77 0 0 1-.3 3.9zM94.95 368.3l2.95-.5v.8l10.75 1.95 10.9-1.8v-3.9l16.25 2.8-30.9 5.35L1.65 355.15l14.05-2.42v1.57l10.75 1.85 2.95-.5v1.1l10.75 1.9 2.95-.55v1l10.75 1.9 2.95-.5v1.1l10.75 1.9 2.95-.5v.85l10.75 1.9 2.95-.4v1.05l10.75 1.9zm10.9-26.43c3.08-2.19 9.26-4.17 18.53-5.94.22 1.48.53 3.44.92 5.87-.4.67-.35 1.6.15 2.8.53 1.27 1.4 1.85 2.6 1.75 2.13 1.83 4.8 2.9 8 3.2 2.77.27 5.67-.07 8.7-1 .57-.1.93-.42 1.1-.95.1-.37.13-.92.1-1.65.07-1.63-.68-3.25-2.25-4.85l-.3-.3a97.75 97.75 0 0 0-2.35-2c-.9-.83-1.58-1.57-2.05-2.2-.48-.82-1.1-1.71-1.85-2.68l2.85-.35c-.17 1.86.73 3.11 2.7 3.78 1.6.5 3.68.62 6.25.35 1.1-.93 2.45-1.18 4.05-.75.23.07 1.58.65 4.05 1.75 4.37 1 9.07.65 14.1-1.05.43-.1.67-.35.7-.75a3.2 3.2 0 0 0-.2-1.15 6.08 6.08 0 0 0-2.25-3.6 9.35 9.35 0 0 0-.83-.65 491.1 491.1 0 0 1 38.9.2c-5.5-1.08-8.25-2.38-8.22-3.9 0-1.6 3.32-2.97 9.95-4.1l1.53-.25a3.31 3.31 0 0 0-1.13 2.8c-.03.23.02.78.15 1.65 6.27 2.03 11.65 2.35 16.15.95v2c.2.6 1.13.98 2.8 1.15a33.41 33.41 0 0 0 7.1.55c3.17-.23 5.65-1.27 7.45-3.1 1.4-.17 2.38-.9 2.95-2.2.5-1.2.52-2.48.05-3.85a14 14 0 0 1-.07-1c4.01.3 7.69.73 11.02 1.3l.1.03a86 86 0 0 1-.63 8.37c-6.52 1.07-14.34 1.6-23.47 1.6h-1.3a228 228 0 0 1 11.25 1.65c4.9.84 9.05 1.74 12.45 2.7l-.35 1.35a49.86 49.86 0 0 0-.65 5.45c-.07.3-.1.62-.1.95-.23 2.77-.52 4.9-.85 6.4a26 26 0 0 1-3.95 1.8c-.83.33-2.2.82-4.1 1.45-1 .4-1.33 1.18-1 2.35.33 1.13 1 1.75 2 1.85 2.1.63 4.3.9 6.6.8 2.27-.13 4.47-.57 6.6-1.3.47-.77 1.02-2.28 1.65-4.55.4-1.39.83-2.49 1.3-3.3l1.13-.03c.63 1.2 1 2.76 1.07 4.68.07 1.33.07 3.33 0 6 .93.17 1.45-.38 1.55-1.65 0-1.6.08-2.65.25-3.15-.03-1.42.42-3.39 1.35-5.9 1.13 0 2.25.02 3.35.05-.44 1.04-.3 2.04.45 3a2.95 2.95 0 0 0 3.05 1.3c1.13.2 2.58.15 4.35-.15 2.27-.4 3.7-.62 4.3-.65.17.47.18 1.33.05 2.6.03.97.52 1.33 1.45 1.1.17-2.21.43-4.33.77-6.35 2.12.24 4.13.53 6.03.85 6.63 1.13 9.95 2.52 9.95 4.15.03 1.6-3.27 2.98-9.9 4.15-6.63 1.13-14.65 1.7-24.05 1.7s-17.42-.57-24.05-1.7c-6.63-1.13-9.93-2.53-9.9-4.2 0-.16.03-.32.1-.48-14.04 1.85-30.29 2.76-48.75 2.73-22.57 0-41.82-1.37-57.75-4.1-2.94-.5-5.6-1.03-8-1.57v-4.38l-10.85-2-2.85.55v-5.98zm179.03-9.4a32 32 0 0 1 .05-3.12l62.82 10.8v3.23l-62.88-10.9zm78.52 20.68l15.65-2.75v-4.85l6.15 1.05 1.4.1 1.35-.1 11.25-1.95 1.3-.4 1.25-.6.85-.6 14.4 2.5-27.5 4.75 2.25.4-28.35 4.9-28.35-4.95 12.7-2.2v1.95l15.65 2.75" fill="#D7EFF5"/><path d="M275.45 164.3v41.13a10.8 10.8 0 0 0-4.2 3.47l-.1.1c.03 1.37.95 2.68 2.75 3.95.63.44 1.15.8 1.55 1.1v5.75c-.9 1.49-2.08 3.4-3.52 5.75h-2.08v-63.4l1.5.75.9.4.32.13a13 13 0 0 0 2.75.84l.13.03zM312 25.85l-.3-.3-.6-.45h-.4l-.65.45-.2.4-.2.85.2.85.2.45.3.4.35.25.4.1h.3l.3-.1.3-.25.2-.4.1-.45v-.85l-.1-.5-.2-.45zm18.75-9.15l-1.2.7-.7 1.6v1.8l.7 1.85.55.6.65.45.7.3h.6l.75-.3.5-.45.4-.7.45-1.75-.45-1.95-.4-.8-.5-.65-.75-.5-.6-.2h-.7zm15.3 18.1h.4l.2-.1.3-.25.2-.25.25-.95-.25-1-.2-.45-.5-.5-29.3-5.15h-.3l-.65.4-.3.75v1.05l.3.75.65.65 29.2 5.05zm48.1 190.75h-3.95V54.65L275.45 34.8v111.92c-.18.28-.37.54-.55.78-.2-.4-.83-1.62-1.9-3.65a41 41 0 0 0-2.1-3.65c-.34-.52-.69-1-1.05-1.45V15.15l.35-3.7 4.5-5.65 2.05-1.35 2.35-.4h1.25l104.85 18.2 1.25.3 1.2.5 3.2 2.8 1.75 2.65 1.25 3.1.6 3.4-.25 190.55h-.05" fill="url(#a)"/><path d="M276.98 327.15l-.73-.5-2.25-2.25-2.05-3.1-1.25-3.45-.85-3.85 5.15 8.65.85 1.05 1.25.93c-.03.81-.07 1.65-.13 2.52zm70.77 13l-62.82-10.8a36.87 36.87 0 0 1 .2-2.38l62.62 10.8v2.38zM270.2 11.45l1-3.4.75-1.45L273 5.3l2-1.85 1.25-.6L279 2.2l1.3.25L385.2 20.5l2.75.95 1.25.8 1.25 1.15 2.2 2.65 1.7 3.3 1 3.65.45 3.85V333.9l-.45 3.65-.4 1.75-1.45 3.1-.85 1.25-2.2 1.95-2.5 1-1.35.1-1.4-.1-6.15-1.05v-2.38l6.15 1.08 1.25.1 2.15-.45 1-.5 1-.85 1.65-1.95 1.05-2.55.7-2.95.15-109.55h.05L394.45 35l-.6-3.4-1.25-3.1-1.75-2.65-3.2-2.8-1.2-.5-1.25-.3-104.85-18.2h-1.25l-2.35.4-2.05 1.35-4.5 5.65" fill="#F6FBFC"/><path d="M280.3 2.45l11.3-2 106.3 18.4 1.3.65 1.3.9 2.45 2.25 1 1.45 1.7 3.3 1 3.65L407 35l-.15 298.75-.6 3.6-1.45 3-.85 1.35-1 1.1-.35.25-.85.6-1.25.6-1.3.4-11.25 1.95 2.5-1 2.2-1.95.85-1.25 1.45-3.1.4-1.75.45-3.65V36.85l-.45-3.85-1-3.65-1.7-3.3-2.2-2.65-1.25-1.15-1.25-.8-2.75-.95L280.3 2.45" fill="url(#b)"/><path d="M312 25.85l.2.45.1.5v.85l-.1.45-.2.4-.3.25-.3.1h-.3l-.4-.1-.35-.25-.3-.4-.2-.45-.2-.85.2-.85.2-.4.65-.45h.4l.6.45.3.3zm30.45 286.2c2.1.4 3.15 1.68 3.15 3.85v11.3c0 2.03-1.05 2.88-3.15 2.55l-25.9-4.5c-2.07-.43-3.1-1.68-3.1-3.75v-11.3c0-2.03 1.03-2.88 3.1-2.55l25.9 4.4zm3.6-277.25l-29.2-5.05-.65-.65-.3-.75V27.3l.3-.75.65-.4h.3l29.3 5.15.5.5.2.45.25 1-.25.95-.2.25-.3.25-.2.1h-.4zm-15.3-18.1h.7l.6.2.75.5.5.65.4.8.45 1.95-.45 1.75-.4.7-.5.45-.75.3h-.6l-.7-.3-.65-.45-.55-.6-.7-1.85V19l.7-1.6 1.2-.7" fill="#A8D5E8"/><path d="M277.1 324.63l-1.25-.93-.85-1.05-5.15-8.65v-4.43a57.12 57.12 0 0 0 .97-8.4l3.98.7.1.93c.53 4.77 1.07 8.47 1.6 11.1.54 2.88.74 6.46.6 10.73zm-1.65-52.6a8.63 8.63 0 0 0-3.3 2.27c-.23.07-.5.13-.8.2-.51.14-1.01.3-1.5.45V264.5c1.99-.4 3.85-.82 5.6-1.25v8.77zm-5.6-43.13v-3.35h2.07l-2.07 3.35zm72.6 83.15l-25.9-4.4c-2.07-.33-3.1.52-3.1 2.55v11.3c0 2.07 1.03 3.32 3.1 3.75l25.9 4.5c2.1.33 3.15-.52 3.15-2.55v-11.3c0-2.17-1.05-3.45-3.15-3.85zm-54.07-7.8l1.42.25c3.4.6 7.35.92 11.85.95 4.5.07 8.25-.17 11.25-.7l21.78-3.8 55.52 9.6v-85h3.95L394 335.1l-.7 2.95-1.05 2.55-1.65 1.95-1 .85-1 .5-2.15.45-1.25-.1-6.15-1.07v-8.68l-15.65-2.75-15.65 2.75v3.27l-62.63-10.8c.06-.62.14-1.26.23-1.92.13-1.27.72-4.58 1.75-9.95a64.14 64.14 0 0 0 1.27-10.85" fill="url(#c)"/><path d="M298.25 265.2c-1.47 1.13-2.68 2.98-3.65 5.55h-13.75c-2.13.22-3.93.65-5.4 1.27v-8.77c12.33-3.04 18.62-6.52 18.85-10.43.47.6 1.1 1.31 1.9 2.13 1.5 1.63 2.5 2.75 3 3.35 2 2.7 1.68 5-.95 6.9zm-55.75-40.9l.4 1.05 6.9-.95-.4-1.05-6.9.95zm-.5 5.1l-4-10.55-4.25.7 4 10.55 4.25-.7zm6.2-3.05l-.4-1.05-4.65.65.4 1.05 4.65-.65zm3.5 1.35l-.4-1.1-7.5 1 .4 1.1 7.5-1zm-9.85-5.05l.45 1.05 8.3-1.15-.45-1.05-8.3 1.15zm43.55 11.95a58.35 58.35 0 0 1-.3 4.33c-1.34-.51-2.81-1.01-4.43-1.5.96-.85 1.97-1.72 3.03-2.63.37-.1.93-.17 1.7-.2zm12.05-22.35c.36.53.8.98 1.3 1.35.07.17.12.35.15.55a89.87 89.87 0 0 0-5.85 1.7c-.77.3-1.97 1.22-3.6 2.75l-.85.75c-.33-.37-.7-.75-1.1-1.15l-2.75.35c-1.57.7-2.87 1.52-3.9 2.45a10.52 10.52 0 0 0 1.75-5.1c.13-1.8-.32-3.5-1.35-5.1 1.23.7 2.15 1.23 2.75 1.6l.85 1.85c.43.57 1.08 1.37 1.95 2.4.03-.23.1-.48.2-.75v-.05l.05-.05v-.05l.05-.05c.27-.7.63-1.37 1.1-2l.2-.2c.16-.13.34-.27.53-.4.5.14 1.08.24 1.72.3 1.43.1 2.87-.02 4.3-.35.92-.24 1.75-.5 2.5-.8zM224.4 235.2l-7.9-20.55 29.25-5.15 7.9 20.55-29.25 5.15zm2.65-17.25l5.05 13.15 4.2-.7-5.05-13.15-4.2.7zm-4.6 3.95l4 10.55 4.25-.7-4-10.55-4.25.7zm53-7.85l.55.45c.77.6 1.3 1.18 1.6 1.75l-.15.2c-.35.6-1.01 1.73-2 3.35v-5.75zm15.53-83.08l.47 1.48-.4 1.9a10.7 10.7 0 0 0-1.5-1.25 15.8 15.8 0 0 0-7.05-2.55c.14-.33.29-.63.43-.93l1.27-2.3.23-.32.02-.05 4.63.58c.5.54.96 1.27 1.37 2.17.18.4.36.83.53 1.28zm-176.13 59.58l.45-.65c.93-1.9 1.38-3.75 1.35-5.55a9.57 9.57 0 0 0-1.75-5.4l.02-.15.45.07.13.18c1.27 2.1 2.38 4.4 3.35 6.9 1.17 3.07 1.75 5.62 1.75 7.65a7.4 7.4 0 0 1-.2 1.8c-.07.27-.37.98-.9 2.15h-.6l-.05-.1c-.23-.43-1.2-2.48-2.9-6.15l-.4-.85-.7.1zm137.85-59.5c-.2-.16-.4-.33-.6-.53l.25.23.35.3zm-21.05 3.6l-.05-.1c0-.6.02-1 .05-1.2.13-.4.43-.63.9-.7a24.44 24.44 0 0 0 5.65-2.05l2.3-1.2a102.73 102.73 0 0 1 2.9-1.6l.15-.1c1.03-.47 2-1 2.9-1.6 1.63-.63 1.62-1.17-.05-1.6v-.6a4 4 0 0 1 2.4 1.65c.23.33.7 1.13 1.4 2.4.18.32.36.62.55.9-4.33 2.66-8.1 6.73-11.3 12.2-1.65.6-3.07.9-4.25.9-1.27 0-2.3-1.55-3.1-4.65-.1-.57-.2-1.08-.3-1.55.07-.4.02-.77-.15-1.1zm-2.6 1c-1.1 1.1-2.1 2-3 2.7-.23-.3-.45-.6-.65-.9l-.22-.35 1.17-4.5.1-.65c-.28.18-.57.33-.88.43 1.1-.4 2.04-1.31 2.83-2.73l.4-.83.15.13c.1.1.23.18.38.25-.22.55-.33 1.1-.33 1.65.03.5.15 1.08.35 1.75.1.37.28.93.55 1.7-.6-.73-.9-.78-.9-.15l.05 1.05c-.03.13-.03.28 0 .45zm-51.1 12.55c-.87.73-1.42 1.27-1.65 1.6-.2.3-.47.89-.8 1.77v.03l-.47-.72-2.18-3.28a14 14 0 0 1 2.1-2.9 7.74 7.74 0 0 1 4.35-2.4 83.94 83.94 0 0 1 2.75 2.8 78.65 78.65 0 0 0-4.1 3.1zm-65 42.65l-1.1 2.45-2.2 4.55-.9.15c-4.23-4.47-7.17-7.83-8.8-10.1-2.2-3.07-3.45-5.92-3.75-8.55l.1-.05c.13-1 .58-2.05 1.35-3.15.73-1.13 1.28-1.37 1.65-.7l.1.2-.05.05c-.9.27-1.32.77-1.25 1.5.03.37.15.7.35 1 .23.3.53.55.9.75.93.67 3.17 2.5 6.7 5.5 2.7 2.3 5.05 3.9 7.05 4.8l-.1 1.15c-.03.17-.05.32-.05.45zM351.8 238.4c3.73 1 7.43 1.67 11.1 2 .33-2.77.33-5.6 0-8.5-3.67-.77-7.37-1.38-11.1-1.85a34.9 34.9 0 0 0 0 8.35zm-10.15-11.65l-6.75-1.25c-.2 3.33-.2 7.17 0 11.5l6.95 1.25c.37-4.17.3-8-.2-11.5zm45.9-50.35l-63.6-10.7v12.1l63.75 10.75-.15-12.15zm-69.15 46.63a15.14 15.14 0 0 0-2.65-5.58 8.47 8.47 0 0 0-2.88-2.52l-.07-1.63c-.1-1.44-.22-2.88-.4-4.33a22.97 22.97 0 0 1 5.85-5.12 25.72 25.72 0 0 1 7.65-3.05c2.83-.53 5.68-.7 8.55-.5l2.3.5c3.63.57 7.3 1.9 11 4 3.43 2 6.57 4.53 9.4 7.6a32.16 32.16 0 0 1 5.55 8c1.07 2 1.95 4.13 2.65 6.4a28.78 28.78 0 0 1 .95 15.4c-.6 3.17-1.72 6.1-3.35 8.8a24.45 24.45 0 0 1-6.35 6.75c-3.9 2.93-8.58 4.43-14.05 4.5a29.78 29.78 0 0 1-15.65-3.9c-1.2-.6-2.35-1.29-3.47-2.03-.96-3.7-1.64-6.4-2.03-8.12a99.09 99.09 0 0 1-2.38-14.4l2.08.45-.35-2.25 4 .5c.13-1.8.2-3.13.2-4 0-1.07-.08-2.07-.25-3 0-.4-.07-.78-.2-1.15a34.48 34.48 0 0 0-6.1-1.32zm32.75-65.98l-34.6-5.85v4.55l34.6 5.85v-4.55zm3.75 5.25l34.3 5.85v-4.55l-34.3-5.85v4.55zm30.7-104.5a8.4 8.4 0 0 0-2.65-1.85 9.26 9.26 0 0 0-2.4-.8l-95.7-15.5c-.63-.03-1.28-.05-1.95-.05-.57 0-1.08.1-1.55.3-.97.3-1.82.77-2.55 1.4a7.66 7.66 0 0 0-2.65 6v11.2l113.1 18.45v-11.2c0-2.17-.65-4.17-1.95-6a5.66 5.66 0 0 0-.6-.7c-.33-.5-.7-.92-1.1-1.25zm-60.4 45.9l-10.75 17.05-10.35-17.4c.4-.17.72-.45.95-.85.47-.7.7-1.67.7-2.9 0-1.2-.23-2.32-.7-3.35-.5-1.07-1.1-1.67-1.8-1.8-.67-.17-1.28.1-1.85.8-.47.73-.7 1.7-.7 2.9 0 1.23.23 2.37.7 3.4.1.17.18.28.25.35l-.1.15-4 7-5.3-15.7a3.74 3.74 0 0 0-.7-1.2c-.33-.27-.67-.32-1-.15-.3.1-.5.35-.6.75l-7.6 20.5c-.12-.22-.23-.4-.35-.55-.4-.37-1.1-.53-2.1-.5.08 1.73.34 3.58.78 5.52l-1.83 4.93c-.17.57-.2 1.18-.1 1.85 0 .23.03.43.1.6v9.05l1.97.32c-.33.87-.68 1.8-1.02 2.78-1.48 4.2-2.93 7.35-4.35 9.47V34.8L390.2 54.65v255.9l-55.52-9.6.22-.05c2.83-.53 4.2-1.17 4.1-1.9v-5.25a.8.8 0 0 0-.05-.25c-.27-.83-2.1-1.55-5.5-2.15l-7.6-1.33.25-.47a20.65 20.65 0 0 0 2.15-10.25 40.89 40.89 0 0 0-1.18-8.38c4.1 1.71 8.3 2.8 12.58 3.28 5.07.53 9.93.08 14.6-1.35a30.87 30.87 0 0 0 12.45-6.55 31.57 31.57 0 0 0 8.95-12.6 37.18 37.18 0 0 0 2.9-15.85 47.01 47.01 0 0 0-2.9-15.45 55.67 55.67 0 0 0-3.75-7.95 49.97 49.97 0 0 0-4.35-6.35 52.38 52.38 0 0 0-13.95-12.7 47.22 47.22 0 0 0-16.85-6.45 22.9 22.9 0 0 0-5.35-.7 35.95 35.95 0 0 0-20.25 4.8c-1.1.7-2.15 1.44-3.15 2.22l-.2-.32a57.64 57.64 0 0 0-3.2-4.4 5.46 5.46 0 0 0-1.85-1.6 5.3 5.3 0 0 0-.8-.45h.05c-.1-.47-.3-.9-.6-1.3-.27-.4-.55-.7-.85-.9.03-.07-.17-.25-.6-.55-.1-.1-.5-.35-1.2-.75a8.85 8.85 0 0 0-1.95-1.15c-1.07-.87-2.68-1.37-4.85-1.5a10.2 10.2 0 0 0-2.85.5l-.75.1c-2-.4-3.35-.5-4.05-.3-.73.2-1.3.42-1.7.65-2.47.87-4.3 2.7-5.5 5.5a16.9 16.9 0 0 0-1.3 7.9c.2-.36.39-.67.57-.92l-.02.42v.15a50.8 50.8 0 0 0 .3 8.65c-.4.11-.8.26-1.2.43V164.3l1.63.15c.3.01.62 0 .92-.02v5.62l42.45 7.15v-12.4l-35.77-5.95a59.8 59.8 0 0 0 2.4-8.03l25.72 4.33v-4.45l-24.7-4.22c.78-3.23 1.37-5.4 1.75-6.53l.82-3.85 94.78 15.65v-60.8c.23-.4.35-.93.35-1.6a5.8 5.8 0 0 0-.5-1.8c-.33-.57-.7-.85-1.1-.85-.4-.07-.72.13-.95.6L371.9 107 366 92.4c-.17-.5-.37-.83-.6-1 .57 0 1.08-.32 1.55-.95.4-.73.6-1.7.6-2.9s-.2-2.33-.6-3.4c-.57-1.03-1.17-1.63-1.8-1.8-.73-.17-1.38.12-1.95.85-.47.73-.7 1.7-.7 2.9s.23 2.33.7 3.4c.4.7.85 1.22 1.35 1.55-.33.07-.53.3-.6.7l-12.1 22.7-7.6-17.85a6.28 6.28 0 0 0-.7-.85c-.17-.23-.37-.32-.6-.25-.33 0-.58.17-.75.5l-10.95 16.3-4.1-8.2c.3-.17.58-.42.85-.75.4-.73.6-1.7.6-2.9s-.2-2.32-.6-3.35c-.57-1.07-1.22-1.68-1.95-1.85-.63-.13-1.23.15-1.8.85-.5.73-.75 1.7-.75 2.9 0 1.23.25 2.37.75 3.4.3.57.62 1 .95 1.3" fill="#FFFFFE"/><path d="M351.15 157.05v4.55l-34.6-5.85v-4.55l34.6 5.85" fill="#C7C6C1"/><path d="M225.18 137.1l.22.35c-.13.1-.25.2-.38.28l.16-.63zm12.07 8.1a75.5 75.5 0 0 0-3.55 8.9c-3.7 10.97-5.6 22.7-5.7 35.2v1c0 2.13-.2 7.23-.57 15.32l-2.96.53a58.59 58.59 0 0 1-5.42-16.7c-.47-3.13-.78-7.6-.95-13.4l-.13-.45c1.23-10.33 3.1-21 5.66-32.03a9.33 9.33 0 0 0 2.77-1.02l-.65 1.35a33.33 33.33 0 0 0-2.75 7.95 208 208 0 0 0-1.75 14.5 417.85 417.85 0 0 1-1.45 14.55c-.33 2.87-.5 4.58-.5 5.15 0 2 .45 3.63 1.35 4.9.33-.23.63-.5.9-.8h.15c.5 0 .78-.05.85-.15l.15-.2a66.55 66.55 0 0 0 1.4-12.25c.13-5.37.27-9.38.4-12.05.5-9.6 2.87-17.37 7.1-23.3.43.4.9 1.08 1.4 2.05.67.73 1.8 1.1 3.4 1.1.25 0 .53-.05.85-.15zm-13.55-12.35c-1.17.3-2.28.77-3.35 1.4a14.36 14.36 0 0 1 3.55-1.47l-.2.07zm-10.05 60.53a19.12 19.12 0 0 1 0-.08v.07zM354.9 162.3v-4.55l34.3 5.85v4.55l-34.3-5.85" fill="#C3E5E9"/><path d="M387.55 176.4l.15 12.15-63.75-10.75v-12.1l63.6 10.7zm-85.9-74.5a1.92 1.92 0 0 1-.25-.35 8.16 8.16 0 0 1-.7-3.4c0-1.2.23-2.17.7-2.9.57-.7 1.18-.97 1.85-.8.7.13 1.3.73 1.8 1.8.47 1.03.7 2.15.7 3.35 0 1.23-.23 2.2-.7 2.9-.23.4-.55.68-.95.85-.27.1-.55.1-.85 0-.57-.17-1.1-.65-1.6-1.45zm23.55 1.8c-.33-.3-.65-.73-.95-1.3a7.7 7.7 0 0 1-.75-3.4c0-1.2.25-2.17.75-2.9.57-.7 1.17-.98 1.8-.85.73.17 1.38.78 1.95 1.85.4 1.03.6 2.15.6 3.35 0 1.2-.2 2.17-.6 2.9-.27.33-.55.58-.85.75-.33.17-.7.2-1.1.1a1.5 1.5 0 0 1-.85-.5zm40.2-12.3a32.45 32.45 0 0 0-.85-.35c-.5-.33-.95-.85-1.35-1.55a8.4 8.4 0 0 1-.7-3.4c0-1.2.23-2.17.7-2.9.57-.73 1.22-1.02 1.95-.85.63.17 1.23.77 1.8 1.8.4 1.07.6 2.2.6 3.4 0 1.2-.2 2.17-.6 2.9-.47.63-.98.95-1.55.95zm20.2-33.6c.4.33.77.75 1.1 1.25.23.23.43.47.6.7a10.15 10.15 0 0 1 1.95 6v11.2L276.15 58.5V47.3c0-2.43.88-4.43 2.65-6a7.06 7.06 0 0 1 2.55-1.4c.47-.2.98-.3 1.55-.3.67 0 1.32.02 1.95.05l95.7 15.5c.87.17 1.67.43 2.4.8a8.4 8.4 0 0 1 2.65 1.85zm-14 2.7a3.44 3.44 0 0 0-2.65.65c-.8.7-1.2 1.53-1.2 2.5 0 1.07.4 2.03 1.2 2.9a3.55 3.55 0 0 0 2.65 1.55c.9.17 1.78-.05 2.65-.65.67-.67 1-1.55 1-2.65 0-.97-.33-1.9-1-2.8a4.81 4.81 0 0 0-2.65-1.5zm-13.65 1.7c0 1.03.28 1.95.85 2.75.9.93 1.83 1.48 2.8 1.65a2.9 2.9 0 0 0 2.55-.9c.7-.5 1.05-1.28 1.05-2.35 0-1.03-.35-2.02-1.05-2.95a5.01 5.01 0 0 0-2.55-1.55c-.97-.13-1.9.1-2.8.7a3.84 3.84 0 0 0-.85 2.65zm-6.35-4.85a3.97 3.97 0 0 0-2.7.5c-.8.73-1.2 1.62-1.2 2.65 0 1.07.4 2 1.2 2.8a3.93 3.93 0 0 0 2.7 1.65c.97.17 1.85-.1 2.65-.8a2.91 2.91 0 0 0 1.05-2.4 4.41 4.41 0 0 0-3.7-4.4" fill="#4370A9"/><path d="M278 164.43l.65-.1 4.08-2.16c.3-.28.6-.58.87-.92.36-.71.72-1.51 1.07-2.4l35.78 5.95v12.4L278 170.05v-5.63" fill="#93B7D6"/><path d="M288.1 146.47l24.7 4.23v4.45l-25.73-4.33.03-.12 1-4.22" fill="#EEEEEA"/><path d="M94.95 336v32.3l-10.75-1.9v-32.2l10.75 1.8zM282.3 122.7l-1.15 3.1c-.17.5-.42.82-.75.95-.4-.07-.75-.3-1.05-.7a1.55 1.55 0 0 1-.5-.95c-.07-.17-.1-.37-.1-.6-.1-.67-.07-1.28.1-1.85l1.82-4.93c.15.6.3 1.21.48 1.83.28.92.67 1.97 1.15 3.15zM56.8 316.4v-2.15l10.75 1.9v47.35l-10.75-1.9v-45.2zm-2.95 3.2V361l-10.75-1.9v-41.3l10.75 1.8zM371.9 214.45l-9.2 5.95a32.16 32.16 0 0 0-5.55-8 40.57 40.57 0 0 0-9.4-7.6 32.4 32.4 0 0 0-11-4v-11.85a47.22 47.22 0 0 1 16.85 6.45 52.38 52.38 0 0 1 13.95 12.7 49.97 49.97 0 0 1 4.35 6.35zm13.55-123.5l-12.6 21.6c-.13.3-.37.5-.7.6-.23.07-.48-.02-.75-.25-.3-.23-.53-.55-.7-.95l-5.8-14.5L353.1 120c-.27.33-.52.53-.75.6-.33.1-.57.03-.7-.2-.33-.27-.58-.6-.75-1l-7.85-17.85-10.85 16.05c-.33.4-.65.57-.95.5-.33-.1-.67-.43-1-1l-4.1-8.2-10.6 17.15c-.23.33-.52.45-.85.35-.33-.07-.65-.3-.95-.7l-10.9-18.35-4.3 7.5c-.17.3-.42.5-.75.6-.23 0-.47-.13-.7-.4a2.26 2.26 0 0 1-.45-.55c-.05-.34-.12-.7-.2-1.05-.3-1.01-.72-1.99-1.22-2.92l-4.08-11.63-7.05 18.97c-.2-.18-.36-.4-.5-.67l-.7-2.35a8.76 8.76 0 0 0-.55-1.6l7.6-20.5c.1-.4.3-.65.6-.75.33-.17.67-.12 1 .15.23.23.47.63.7 1.2l5.3 15.7 4-7 .1-.15c.5.8 1.03 1.28 1.6 1.45.3.1.58.1.85 0l10.35 17.4 10.75-17.05c.23.27.52.43.85.5.4.1.77.07 1.1-.1l4.1 8.2L342.2 96c.17-.33.42-.5.75-.5.23-.07.43.02.6.25.23.23.47.52.7.85l7.6 17.85 12.1-22.7c.07-.4.27-.63.6-.7a32.45 32.45 0 0 1 .85.35c.23.17.43.5.6 1l5.9 14.6 11.35-19.7c.23-.47.55-.67.95-.6.4 0 .77.28 1.1.85.23.47.4 1.07.5 1.8 0 .67-.12 1.2-.35 1.6" fill="#DE4C5A"/><path d="M282.93 129.63c-.35.68-.7 1.43-1.06 2.27l-1.05 2.57-1.97-.32v-9.05c.07.4.23.72.5.95.3.4.65.63 1.05.7.33-.13.58-.45.75-.95l1.15-3.1c.37.9.8 1.9 1.3 2.95 0 .13.05.3.15.5v.15l.45 1.03-1.27 2.3zm7.75 6.47l.37-1.75.4-1.9-.47-1.47c-.23-.66-.47-1.24-.73-1.75.4-.22.75-.53 1.05-.93l.95-1.5c.67-1.1 1.1-1.8 1.3-2.1a33.02 33.02 0 0 0 2.3-3.75c.9-1.97 1.16-4.12.8-6.45.12.2.27.38.45.55.23.27.47.4.7.4.33-.1.58-.3.75-.6l4.3-7.5 10.9 18.35c.3.4.62.63.95.7.33.1.62-.02.85-.35l10.6-17.15 4.1 8.2c.33.57.67.9 1 1 .3.07.62-.1.95-.5l10.85-16.05 7.85 17.85c.17.4.42.73.75 1 .13.23.37.3.7.2.23-.07.48-.27.75-.6l11.8-22.55 5.8 14.5c.17.4.4.72.7.95.27.23.52.32.75.25.33-.1.57-.3.7-.6l12.6-21.6v60.8l-94.77-15.65zm-4.43-18.65l-.05.1c-.17.27-.33.52-.5.75-.13.1-.2.18-.2.25a2.46 2.46 0 0 1-1.4-.67l7.05-18.98 4.08 11.63a17.88 17.88 0 0 0-2.63-3.68 3.3 3.3 0 0 0-1.75-.3c-.7.1-1.1.47-1.2 1.1-.43 1.23-1 3.15-1.7 5.75-.43 1.6-1 2.95-1.7 4.05" fill="#CFEAF2"/><path d="M351.6 57.35a4.41 4.41 0 0 1 3.7 4.4c0 1.03-.35 1.83-1.05 2.4-.8.7-1.68.97-2.65.8a3.93 3.93 0 0 1-2.7-1.65c-.8-.8-1.2-1.73-1.2-2.8 0-1.03.4-1.92 1.2-2.65a3.97 3.97 0 0 1 2.7-.5" fill="#43B7B5"/><path d="M119.55 349.3l-10.8 1.8-10.85-1.8 7.95-1.45 2.85-.55 10.85 2zm243.85-12.05l-15.65-2.75 15.65-2.75 15.65 2.75-15.65 2.75zm-320.3-15.2v2.7l-2.95.5-10.75-1.9 10.8-1.85 2.9.55zM357.95 62.2c0-1.13.28-2.02.85-2.65.9-.6 1.83-.83 2.8-.7.97.23 1.82.75 2.55 1.55.7.93 1.05 1.92 1.05 2.95 0 1.07-.35 1.85-1.05 2.35a2.9 2.9 0 0 1-2.55.9 5.18 5.18 0 0 1-2.8-1.65 4.64 4.64 0 0 1-.85-2.75" fill="#FBD75E"/><path d="M371.6 60.5c.9.13 1.78.63 2.65 1.5.67.9 1 1.83 1 2.8 0 1.1-.33 1.98-1 2.65-.87.6-1.75.82-2.65.65a3.55 3.55 0 0 1-2.65-1.55 4.18 4.18 0 0 1-1.2-2.9c0-.97.4-1.8 1.2-2.5a3.44 3.44 0 0 1 2.65-.65" fill="#DC3E7D"/><path d="M288.6 219.35l.35.35h-.05l.15.1.15.15 2.6 3.55.05.1.05.05c1.13 2.27 1.48 4.42 1.05 6.45-.47 2.07-1.43 3.45-2.9 4.15-1.13.53-2.68.65-4.65.35-.77.03-1.33.1-1.7.2a243.04 243.04 0 0 0-5.82 5.15 124.2 124.2 0 0 0-5.18 4.98l-.18.2-.02.02-.2.2-.8.85-.2.13c-.84.57-1.78.74-2.8.5l-.25-.08a5.42 5.42 0 0 1-1.68-.88l-.2-.15c-.32-.28-.63-.6-.92-.97a5.96 5.96 0 0 1-1.1-2.3l-.05-.3-.05-.33v-.22-.42l.02-.18c.04-.23.1-.45.18-.65l.05-.15.18-.35c.08-.13.17-.25.27-.38l.15-.15c.17-.19.37-.36.6-.52l.05-.05.15-.13.7-.62a50.6 50.6 0 0 0 3.13-3.28l.12-.15a85.09 85.09 0 0 0 3.65-4.47l1.95-2.5c2.63-3.34 4.43-5.54 5.4-6.6a14.71 14.71 0 0 1 3.9-2.45l2.75-.35c.4.4.77.78 1.1 1.15zM276.65 205a50.8 50.8 0 0 1-.3-8.65v-.15l.02-.42c.46-.61.9-.9 1.33-.88.63.13 1.17.55 1.6 1.25.47.7.77 2.33.9 4.9.1 2.23.57 3.87 1.4 4.9.07-.27.15-1.27.25-3 .17-1.8.8-2.08 1.9-.85.33.4.6.97.77 1.7a6.84 6.84 0 0 1-.37 2.15c-.7.67-1.27.82-1.7.45-.23.43-.48.87-.75 1.3a8.52 8.52 0 0 1-1.05 1.45c-.3-.5-.73-.98-1.3-1.45a19 19 0 0 1-2.7-2.7zM101.4 234.65a3.77 3.77 0 0 1 2.15 2.2 4.1 4.1 0 0 1 2.5.3c.77.33 1.33.78 1.7 1.35.4.57.42 1.03.05 1.4-.4.4-1.22.55-2.45.45-.3 1.33-1.27 2.38-2.9 3.15-.93.47-2.43 1.05-4.5 1.75-.4-.7-.93-1.15-1.6-1.35a3.02 3.02 0 0 0-2.1.3c-.7.33-1.45.2-2.25-.4-2.17-1-3.05-2.53-2.65-4.6l.05-.1c.14-.68.4-1.25.8-1.7a3.7 3.7 0 0 1 1.95-1.15 3.75 3.75 0 0 1 2.65.05l.8-.5c1.5-.8 2.82-1.25 3.95-1.35.7-.06 1.3 0 1.85.2zm167.1 81.1c-.62 2.53-1.48 6.01-2.6 10.45l-.1.4a72.89 72.89 0 0 0-.68 3.3c-.12.73-.23 1.45-.32 2.15a34.9 34.9 0 0 1-5.23 7.25l-.52.55c-1.87 2-3.35 3.67-4.45 5 .2-2.5.42-4.32.65-5.45l.35-1.35c.44-1.83.8-3.81 1.08-5.95a86 86 0 0 0 .67-10.15l.15-14.35a341.4 341.4 0 0 0 0-12.85c-.1-2.2-.15-3.87-.15-5-.03-3.97.93-6.97 2.9-9 2.43-2.55 5.63-4.49 9.6-5.8a38.45 38.45 0 0 1 2.3-.65 23.7 23.7 0 0 0-2.1 9.15l-.2.1c-2 1-4.14 1.64-6.4 1.9-.8.03-1.58.08-2.35.15-.2-.03-.4-.05-.6-.05.03.4.15.72.35.95a35.27 35.27 0 0 1 3.1 4.05l-.35.05c-3 .57-4.37 1.23-4.1 2v5.05a.79.79 0 0 0 0 .4c.27.8 2.08 1.5 5.45 2.1l3.38.6a37.17 37.17 0 0 1 .17 15zm-37.65-186.28a3.84 3.84 0 0 1-1.53-.27 1.56 1.56 0 0 1-.37-.25l-.15-.13-.1-.17c-.1-.2-.23-.43-.4-.7-.2-.43-.4-.93-.6-1.5l-.5-1.2-.1-.2a8.27 8.27 0 0 0-.3-.95l-.1-.25c-.46-1.11-.86-2.2-1.2-3.25a35.6 35.6 0 0 1-1.9-10.3c.5.2 1.12.43 1.85.7.77.37 2.52.3 5.25-.2 3.13-.53 4.78-.78 4.95-.75.87-.07 2.37.85 4.5 2.75.8.8 1.55 1.52 2.25 2.15l.1.45c.2.86.28 1.72.25 2.6l-.05-.05v.15l1.15.1a7.85 7.85 0 0 1-.5 2.7l-.3.6a11.53 11.53 0 0 1-3.25 3.8c-2.2 1.83-5 3.22-8.4 4.15l-.55.03zm-52.25 11.68c-.5-.13-1.2.03-2.1.5a8.86 8.86 0 0 0-2.35 1.85c-.73.8-1.2 1.22-1.4 1.25-.23.03-.45.05-.65.05.3-.17.55-.37.75-.6.5-.43.93-.98 1.3-1.65.17-.27.32-.53.45-.8.33-1.07.5-2.15.5-3.25a4.5 4.5 0 0 0-.2-1.5 10.5 10.5 0 0 0-1.55-2.45 2.5 2.5 0 0 1-.8-.95c-.47-.7-.93-.92-1.4-.65l1.2 2.2c.7 1.33 1.05 2.22 1.05 2.65 0 .67-.62 1.15-1.85 1.45-1.1.27-1.52.82-1.25 1.65-.07.07-.82.55-2.25 1.45-.53.43-.95.75-1.25.95-.73-.5-2.17-1.43-4.3-2.8-.23-1.8.38-3.6 1.85-5.4.87-1.17 2.33-2.5 4.4-4-.3-.67-.8-1.42-1.5-2.25-.93-.9-1.65-1.55-2.15-1.95-1.5-1.67-1.93-3.23-1.3-4.7a43.49 43.49 0 0 1 9.35 8.4 26.9 26.9 0 0 1 5.45 10.5v.05zm-59.25 36.8c-.08.1-.15.2-.2.3-.1.17-.47.35-1.1.55l-2.55.1-.13-.03-.45-.07a46.56 46.56 0 0 0-1.12-.1 23.19 23.19 0 0 1-5.65-1.5c-2.63-1.2-4.15-3.03-4.55-5.5-.57.33-1.16.45-1.77.38a7.9 7.9 0 0 1-3.38-3.38c-.8-1.6-.43-2.8 1.1-3.6 1.97 2.27 3.1 2.93 3.4 2 .33-.93.65-1.78.95-2.55.27-.77.37-1.5.3-2.2.27-.27.45-.55.55-.85.15-.38.15-.81 0-1.3l.25-.15c3.53-2 7.82-3.08 12.85-3.25.1-.03.2-.05.3-.05.47 1.57.87 3.47 1.2 5.7.4 2.77.6 5.95.6 9.55-.03 3.63-.15 5.53-.35 5.7-.1.08-.18.16-.25.25zm177.3-63.45c.37 2.33.1 4.48-.8 6.45-.4.83-1.17 2.08-2.3 3.75-.2.3-.63 1-1.3 2.1-.4-.2-.67-.32-.8-.35-.1 0-.82-.22-2.15-.65-1.3-.37-3.15-.25-5.55.35-.1-.2-.15-.37-.15-.5-.5-1.06-.93-2.04-1.3-2.95a36.7 36.7 0 0 1-1.15-3.15 31.43 31.43 0 0 1-1.25-7.35c1-.03 1.7.13 2.1.5.12.14.24.33.35.55.2.4.38.93.55 1.6l.7 2.35c.04.22.2.46.47.72.36.36.9.75 1.63 1.18 1.4.9 2.45 1.93 3.15 3.1.3.47.47.92.5 1.35-.07.27-.02.82.15 1.65v.4l.2-.05.1-.1c.53-1.73.18-3.8-1.05-6.2a4.79 4.79 0 0 0-2.3-2.05c-.07.1-.13.18-.2.25.7-1.1 1.27-2.45 1.7-4.05.7-2.6 1.27-4.52 1.7-5.75.1-.63.5-1 1.2-1.1a3.3 3.3 0 0 1 1.75.3 17.88 17.88 0 0 1 2.63 3.68c.5.93.91 1.9 1.22 2.92.08.36.15.7.2 1.05" fill="#F9DACE"/><path d="M253.65 352.2c.33-1.5.62-3.63.85-6.4 0-.33.03-.65.1-.95 1.1-1.33 2.58-3 4.45-5l.52-.55a34.9 34.9 0 0 0 5.23-7.25c-.04.28-.09.55-.15.8a49.03 49.03 0 0 0-.4 5.15c-.03.13-.05.28-.05.45v.2c-.68.44-1.37 1-2.05 1.7a25.7 25.7 0 0 0-3.6 4.7c-2.33 3.8-3.97 6.18-4.9 7.15zm17.17-51.02a57.12 57.12 0 0 1-.97 8.4 103.56 103.56 0 0 1-1.35 6.17c.95-5.37.9-10.37-.18-15l2.5.43zm-8.14-59.6l.02-.06.1-.22.18-.4.07-.13.1-.17.1-.2a19.75 19.75 0 0 1 .48-.93l.34-.67.06-.1.17-.35.38-.7a160.12 160.12 0 0 1 5.18-8.75l2.06-3.35c1.45-2.34 2.62-4.26 3.53-5.75a157.9 157.9 0 0 0 2-3.35 6.12 6.12 0 0 0 1.7-.25c.93-.27 1.4-.83 1.4-1.7 0-1.1-1.55-2.4-4.65-3.9l-.45-.22a15.4 15.4 0 0 0-4.2-1.48 10.22 10.22 0 0 1 5.4-3.9 19 19 0 0 0 2.7 2.7c.57.47 1 .95 1.3 1.45.37.57.57 1.12.6 1.65a8.08 8.08 0 0 1 1.35 5.1c-.1 1.73-.68 3.43-1.75 5.1-.98 1.06-2.77 3.26-5.4 6.6l-1.95 2.5a85.09 85.09 0 0 1-3.65 4.47l-.13.16a50.6 50.6 0 0 1-3.82 3.9l-.15.12-.05.05c-.23.16-.43.33-.6.52l-.15.16c-.1.12-.2.24-.27.37l-.18.35-.05.15c-.08.2-.14.42-.18.65l-.02.18v.64l.05.33a6.05 6.05 0 0 0 .13.63c.2.68.53 1.33 1.02 1.97.3.37.6.7.93.97l.2.16a5.42 5.42 0 0 0 1.68.88l.24.06c1.02.25 1.96.09 2.8-.5l.2-.12-.05.1a5.3 5.3 0 0 1-6.1 2.75 4.88 4.88 0 0 1-2.8-1.85 3.7 3.7 0 0 1-.45-.8 5.05 5.05 0 0 1-.3-2.9 7.99 7.99 0 0 1 .3-.65l.05-.15.18-.4.3-.6.05-.13zm22.37 86.17c-.46.48-.89.95-1.3 1.4a86.11 86.11 0 0 0-3.15 3.55 38.28 38.28 0 0 0-4.6 6.65c.03-.7.08-1.42.15-2.15a1985.75 1985.75 0 0 0 .83-10.05l.12-2.52c.14-4.27-.06-7.85-.6-10.73a134.64 134.64 0 0 1-1.7-12.02l7.75 1.35a31.87 31.87 0 0 1 5.15 8.42c-.2 1.07-.4 2.22-.6 3.45a175.4 175.4 0 0 0-1.75 9.95 36.92 36.92 0 0 0-.3 2.7zm-21.1-37.2a35.27 35.27 0 0 0-3.1-4.05c-.2-.23-.32-.55-.35-.95.2 0 .4.02.6.05a51.3 51.3 0 0 1 2.35-.15c2.26-.26 4.4-.9 6.4-1.9l.2-.1v.9c0 1.72.3 3.38.93 4.97l-7.03 1.23zm-40-184.05c0 .07.05.12.15.15l.1.1c1.5 1.27 3.5 1.77 6 1.5a41.2 41.2 0 0 0 3.35-.7c.33-.17.8-.3 1.4-.4l.1-.05c.03 0 .13-.03.3-.1l.7-.15-.15.05c.1.03.3-.02.6-.15h.05c.33.77.95 1.68 1.85 2.75.37.37.95.98 1.75 1.85.17.2.33.42.5.65.4.4.75.85 1.05 1.35.1.13.17.28.2.45.23.4.4.78.5 1.15-.7-.63-1.45-1.35-2.25-2.15-2.13-1.9-3.63-2.82-4.5-2.75-.17-.03-1.82.22-4.95.75-2.73.5-4.48.57-5.25.2-.73-.27-1.35-.5-1.85-.7l.1-.1a9.7 9.7 0 0 1 .05-2.2l.2-1.5zm-51.85 38.3c-.1.03-.2.08-.3.15l-1 .4h-.35a1.1 1.1 0 0 0-.4-.15c-.93-.43-1.88-.98-2.85-1.65a2.65 2.65 0 0 1-.4-.25c.3-.2.72-.52 1.25-.95a46.7 46.7 0 0 0 2.25-1.45c-.27-.83.15-1.38 1.25-1.65 1.23-.3 1.85-.78 1.85-1.45 0-.43-.35-1.32-1.05-2.65l-1.2-2.2c.47-.27.93-.05 1.4.65.2.4.47.72.8.95a10.5 10.5 0 0 1 1.55 2.45c.13.37.2.87.2 1.5 0 1.1-.17 2.18-.5 3.25-.13.27-.28.53-.45.8-.37.67-.8 1.22-1.3 1.65-.2.23-.45.43-.75.6zm3.93 83.1a693.92 693.92 0 0 0-6.43.13 19.42 19.42 0 0 1 2.7 2.62c1.13 1.33 1.67 2.35 1.6 3.05-.13.87-.68 1.23-1.65 1.1-.47-.07-1.25-.7-2.35-1.9l-1.18-1.25c-.47-.46-.8-.72-.97-.8a33.29 33.29 0 0 1-4.65-1.75 3.17 3.17 0 0 1-.45-.35 2.1 2.1 0 0 1-.43-.53l-3.2.13c.12-2.04 1.01-3.54 2.68-4.5a7.05 7.05 0 0 1 1.15-.55c1.3-.48 2.87-.63 4.7-.45 2.17.17 4.12.72 5.85 1.65 1.77.97 2.65 2 2.65 3.1 0 .1 0 .2-.03.3zm-72.18-71.3a41.18 41.18 0 0 1 5.65-1.95c2.3-.57 4.5-.68 6.6-.35l.53-.65a7.32 7.32 0 0 1 1.52 3.1c-.1 0-.2.02-.3.05-5.03.17-9.32 1.25-12.85 3.25l-.25.15a3.94 3.94 0 0 0-.2-.5 13.16 13.16 0 0 1-1.4-2.8l.45-.2.25-.1zm180.25-38.72c.36.36.83.58 1.4.67 0-.07.07-.15.2-.25.17-.23.33-.48.5-.75l.05-.1c.07-.07.13-.15.2-.25a4.79 4.79 0 0 1 2.3 2.05c1.23 2.4 1.58 4.47 1.05 6.2l-.1.1-.2.05v-.4a4.75 4.75 0 0 1-.15-1.65c-.03-.43-.2-.88-.5-1.35a9.66 9.66 0 0 0-3.15-3.1 8.38 8.38 0 0 1-1.63-1.17 1.5 1.5 0 0 1-.47-.73c.14.26.3.49.5.67" fill="#D6A89A"/><path d="M282.55 303.23l5.82 1.02c0 .3 0 .6-.02.9a64.14 64.14 0 0 1-.65 6.5 31.87 31.87 0 0 0-5.15-8.42zm2.15-98.53c0 1.77.22 3.22.65 4.35.08 2.05 1.23 3.4 3.45 4.02l-.4.43-.2.2c-.47.63-.83 1.3-1.1 2l-.05.05v.05l-.05.05v.05c-.1.27-.17.52-.2.75a76.01 76.01 0 0 1-1.95-2.4l-.85-1.85c-.6-.37-1.52-.9-2.75-1.6a3.45 3.45 0 0 0-.6-1.65c.37-.4.72-.88 1.05-1.45.27-.43.52-.87.75-1.3.43.37 1 .22 1.7-.45.24-.68.36-1.4.38-2.15.07.27.12.57.17.9zm13.32-11.15a9.03 9.03 0 0 0-.37-.3l-.05-.05h.05l.38.35zm-1.67-5.6v-.15l.05-.05-.05.2zm-18.9 28.5l.15-.2a5.82 5.82 0 0 0-1.6-1.75l-.55-.45c-.4-.3-.92-.67-1.55-1.1-1.8-1.27-2.72-2.58-2.75-3.95l.1-.1c1.07.15 2.48.64 4.2 1.47l.45.23c3.1 1.5 4.65 2.8 4.65 3.9 0 .87-.47 1.43-1.4 1.7-.37.13-.93.22-1.7.25zm6.75-89.12l-.45-1.03v-.15c2.4-.6 4.25-.72 5.55-.35 1.33.43 2.05.65 2.15.65.13.03.4.15.8.35l-.95 1.5c-.3.4-.65.7-1.05.92a7.4 7.4 0 0 0-1.18-1.7l-4.62-.57-.02.05c-.09.1-.16.22-.23.33zm-52.6 7.22v.1c-.3.2-.6.27-.9.2a1.4 1.4 0 0 1-.8-.55c-.27-.77-.45-1.33-.55-1.7a8.13 8.13 0 0 1-.35-1.75c.73-.47 1.28-.87 1.65-1.2l.2-.18c.17 0 .35 0 .55-.02 3.4-.93 6.2-2.32 8.4-4.15a11.53 11.53 0 0 0 3.25-3.8l.3-.6.25-.8a7.85 7.85 0 0 0 .25-1.9v-.6c.18-.48.37-1.32.58-2.5l.32-2.1c.37-1.87 1.33-2.67 2.9-2.4.33.13.58.42.75.85a5.36 5.36 0 0 1 .35 2.75c-.1 1.5-.32 2.68-.65 3.55-.27.6-.6 1.07-1 1.4l-.5.5-.2.13v4.72l.05 1.6c-.9.6-1.87 1.13-2.9 1.6l-.15.1a53.86 53.86 0 0 0-2.9 1.6l-2.3 1.2c-2.03 1-3.92 1.68-5.65 2.05-.47.07-.77.3-.9.7-.03.2-.05.6-.05 1.2zm-52.67 7.82a7.74 7.74 0 0 0-3.98 2.33c-.42.42-.82.9-1.2 1.45a9.65 9.65 0 0 1-1.65-.05 8 8 0 0 1-1.65-.75h.35l1-.4c.1-.07.2-.12.3-.15.2 0 .42-.02.65-.05.2-.03.67-.45 1.4-1.25a8.86 8.86 0 0 1 2.35-1.85c.9-.47 1.6-.63 2.1-.5.2.37.3.78.33 1.22zm-65.83 46.88c-2-.9-4.35-2.5-7.05-4.8-3.53-3-5.77-4.83-6.7-5.5.2-.83.25-1.63.15-2.4 0-.3-.03-.6-.1-.9l-.1-.2c-.28-1-.74-2.27-1.38-3.82 1.29.52 2.66.7 4.13.57l-.22-.13c.61.08 1.2-.04 1.77-.37.4 2.47 1.92 4.3 4.55 5.5a23.19 23.19 0 0 0 6.77 1.6l-.02.15c-.07.47-.17.92-.3 1.35 0 .07-.02.15-.05.25l-.05.1c-.27.93-.45 2.12-.55 3.55-.17 2.37-.45 4.05-.85 5.05zm171.95 145.8c-2.4.13-4.42 1.27-6.05 3.4a18.4 18.4 0 0 0-3.05 6.5c-.07-1.67-.05-3.53.05-5.6a38.28 38.28 0 0 1 5.32-7.5c.7-.81 1.51-1.72 2.43-2.7.41-.45.84-.92 1.3-1.4a36.87 36.87 0 0 0 0 7.3" fill="#C28C7D"/><path d="M290.25 129.22a13.08 13.08 0 0 1 .2.48 8.23 8.23 0 0 0-.2-.47zm-8.38 2.68" fill="#D6EDEC"/><path d="M224.47 206.15l-8.27 1.42c-.13-9.92.42-20.2 1.65-30.87l.13-1.1.12.45c.17 5.8.48 10.27.95 13.4a58.59 58.59 0 0 0 5.42 16.7zm6.38-76.68l-.2.18c-.37.33-.92.73-1.65 1.2 0-.55.1-1.1.32-1.65.37.17.88.26 1.53.28zm6.4 15.73c-.32.1-.6.15-.85.15-1.6 0-2.73-.37-3.4-1.1a7.62 7.62 0 0 0-1.4-2.05c-4.23 5.93-6.6 13.7-7.1 23.3-.13 2.67-.27 6.68-.4 12.05-.17 4.8-.63 8.88-1.4 12.25l-.15.2c-.07.1-.35.15-.85.15h-.15c.17-.2.32-.43.45-.7l.95-2.65v-.1l.05-.15v-.2c.07-2.53.17-4.37.3-5.5.3-2.6.52-6.2.65-10.8.17-5.2.33-8.82.5-10.85.7-8.5 2.67-15.37 5.9-20.6l1.15-1.9c.17-.33.27-.65.3-.95.1.47.2.98.3 1.55.8 3.1 1.83 4.65 3.1 4.65 1.18 0 2.6-.3 4.25-.9a55.8 55.8 0 0 0-2.2 4.15zm-13.63-1.63c.45-1.94.92-3.89 1.4-5.84l.38-.28c.2.3.42.6.65.9.9-.7 1.9-1.6 3-2.7v.5c-.13.4-.32.92-.55 1.55l-1.7 4c-.07.1-.12.22-.15.35V142l-.25.55c-1 .53-1.92.88-2.78 1.02zm22.78-19.07c1.67.43 1.68.97.05 1.6l-.05-1.6zm-133.45 66.35c0-.13.02-.28.05-.45l.1-1.15c.4-1 .68-2.68.85-5.05.1-1.43.28-2.62.55-3.55l.05-.1c.03-.1.05-.18.05-.25.13-.43.23-.88.3-1.35l.45.7c.83 1.43 1.27 3 1.3 4.7.03 1.8-.42 3.65-1.35 5.55l-.45.65-1.9.3zm-13.55-15.2c.07.3.1.6.1.9.1.77.05 1.57-.15 2.4-.37-.2-.67-.45-.9-.75-.2-.3-.32-.63-.35-1-.07-.73.35-1.23 1.25-1.5l.05-.05zm114.4 16.85l-.15.88v-.08l.15-.8" fill="#97C7CB"/><path d="M229.05 135.65a1.03 1.03 0 0 1 0-.45l-.05-1.05c0-.63.3-.58.9.15.23.3.5.48.8.55.3.07.6 0 .9-.2h.05c.17.33.22.7.15 1.1-.03.3-.13.62-.3.95l-1.15 1.9c-3.23 5.23-5.2 12.1-5.9 20.6-.17 2.03-.33 5.65-.5 10.85-.13 4.6-.35 8.2-.65 10.8a68.1 68.1 0 0 0-.3 5.5v.2l-.05.15v.1l-.95 2.65a3.62 3.62 0 0 1-1.35 1.5 8.27 8.27 0 0 1-1.35-4.9c0-.57.17-2.28.5-5.15.33-2.53.82-7.38 1.45-14.55a208 208 0 0 1 1.75-14.5 33.33 33.33 0 0 1 2.75-7.95 47.09 47.09 0 0 0 .9-1.9v.05c.03-.13.08-.25.15-.35l1.7-4c.23-.63.42-1.15.55-1.55v-.5" fill="url(#d)"/><path d="M231.6 134.55l.05.1h-.05v-.1" fill="#C1E3E1"/><path d="M229.95 310.75l-.75-.25a18.67 18.67 0 0 1-.2-3.25 337.6 337.6 0 0 1-3.45-17.05 126.5 126.5 0 0 1-1.75-17.25c.1-.83.07-1.74-.1-2.72 1.74-.12 3.47-.23 5.18-.36.77 5.76 1.15 13.56 1.12 23.38-.03 3.87-.05 8.58-.05 14.15v3.35zm-16.3-87.1l1.75 4.88-1.7-.08a444.4 444.4 0 0 1-.05-4.8" fill="url(#e)"/><path d="M235.05 269.38l.55 2.57c.2.87.3 1.73.3 2.6.03 4.6.2 9.2.5 13.8.4 6.43.28 12.85-.35 19.25v.35c-.03.57-.17 1.68-.4 3.35H231.65l-1.7-.55v-3.35c0-5.57.02-10.28.05-14.15.03-9.82-.35-17.62-1.13-23.38 2.1-.15 4.15-.32 6.18-.5" fill="url(#f)"/><path d="M238.55 312.35a9.1 9.1 0 0 0-2.8-.45l-.1-.6c.23-1.67.37-2.78.4-3.35v-.35c.63-6.4.75-12.82.35-19.25-.3-4.6-.47-9.2-.5-13.8 0-.87-.1-1.73-.3-2.6l-.55-2.57 4.3-.4c.47 4.91.7 10.25.7 16.02 0 8.43-.07 13.52-.2 15.25-.1 1.5-.38 4.33-.85 8.5-.17 1.1-.32 2.3-.45 3.6" fill="url(#g)"/><path d="M249.57 267.8c.18.54.37 1.07.58 1.6a28.57 28.57 0 0 1 .8 18.85c-1.6 5.87-3.22 11.73-4.85 17.6-.2.73-.42 1.47-.65 2.2l-.1.55a4 4 0 0 1-1.75 3.45 5.1 5.1 0 0 1-3.85.8c-.4-.2-.8-.37-1.2-.5.13-1.3.28-2.5.45-3.6.47-4.17.75-7 .85-8.5.13-1.73.2-6.82.2-15.25 0-5.76-.23-11.1-.7-16.02 3.5-.36 6.9-.75 10.22-1.18zm4.33-56.75c.07 1.72.02 3.45-.15 5.17l-1.53-4.22c.56-.3 1.12-.62 1.68-.95" fill="url(#h)"/><path d="M268.1 351.25c-.93 2.51-1.38 4.48-1.35 5.9-.17.5-.25 1.55-.25 3.15-.1 1.27-.62 1.82-1.55 1.65.07-2.67.07-4.67 0-6a10.92 10.92 0 0 0-1.07-4.68c-.16-.3-.34-.57-.53-.82-.2.24-.4.52-.6.85-.47.81-.9 1.91-1.3 3.3-.63 2.27-1.18 3.78-1.65 4.55a24.67 24.67 0 0 1-6.6 1.3c-2.3.1-4.5-.17-6.6-.8.53-.03 1.38 0 2.55.1 1.27.1 2.17.13 2.7.1 2.07-.07 3.35-.92 3.85-2.55a26.7 26.7 0 0 1 3.6-5.88l.05-.07c.6-.73 1.24-1.4 1.9-2a13.71 13.71 0 0 1 8.7-3.8c-.03.83-.62 2.65-1.75 5.45l-.1.25zm26.5-80.5c-.27 2.33-1.62 3.38-4.05 3.15-.47-.03-2.28-.1-5.45-.2a94.4 94.4 0 0 0-9.65.32l-3.3.28c.8-.94 1.9-1.7 3.3-2.28a18.86 18.86 0 0 1 5.4-1.27h13.75zm-9.25-61.7a12.32 12.32 0 0 1-.65-4.35c1.63.4 3.47-.1 5.5-1.5 1.1-.87 1.93-1.5 2.5-1.9 1-.73 1.85-1.25 2.55-1.55a68.24 68.24 0 0 1-4.05 5.8c-1.83 2.07-3.78 3.23-5.85 3.5zm-7.65-14.15c-.43-.02-.87.27-1.32.88-.2.25-.38.56-.58.92a16.9 16.9 0 0 1 1.3-7.9c1.2-2.8 3.03-4.63 5.5-5.5-2.07 1.67-3.45 3.27-4.15 4.8-.2.43-.38.92-.5 1.47a15.86 15.86 0 0 0-.3 4.38c0 .3.03.62.05.95zm26.9-4.35c-.07.57-.05 1.28.05 2.15-.04-.57.4.86 1.35 4.28.6 2.18 1.4 5.17 2.4 8.97.6 2.33 1.16 4.5 1.65 6.53l.43 1.82c1.34 5.7 2.17 10.01 2.47 12.95.03.4.05 2.12.05 5.15a110.9 110.9 0 0 0 0 5.15l.15 1.05c-.6.3-1.15.27-1.65-.1a4.38 4.38 0 0 1-1.85-3.2c-.37-2.53-.8-5.07-1.3-7.6l-.55-2.77c-.3-1.36-.61-2.7-.95-4.03-.45-2-.94-4-1.45-6l-.05-.2a108.26 108.26 0 0 1-1.75-7.63c-.25-1.49-.47-2.98-.65-4.47a39.68 39.68 0 0 0-1.35-7.15 31.67 31.67 0 0 0-1.85-5.15c-.3-.7-.3-1.4 0-2.1a4.21 4.21 0 0 1 3 .75 5.46 5.46 0 0 1 1.85 1.6zm-4.05-2.85l-1-.55a1.77 1.77 0 0 0-.25-.1l-.55-2.05c.7.4 1.1.65 1.2.75.43.3.63.48.6.55v1.4zm-2.9 5.55c-3.8 3.43-7.35 6.02-10.65 7.75-.5.4-.97.37-1.4-.1-.27-.23-.55-.7-.85-1.4a78.5 78.5 0 0 0 4.15-2.25c1.97-1.1 3.7-2.33 5.2-3.7a28.5 28.5 0 0 0 2.3-2.25c.07.17.15.33.25.5.2.5.52.97.95 1.4l.05.05zm-1.45-4.75c-2-.43-4.55-.65-7.65-.65-4.4 0-7.02-.02-7.85-.05 1.3-2.73 3.7-3.73 7.2-3 1.13.23 2.62.72 4.45 1.45 2.27.9 3.6 1.42 4 1.55v.15l-.1.35-.05.2zm-7.1-5.65a13.22 13.22 0 0 1 4.35 1.55c.9.5 2.17 1.3 3.8 2.4-.23.1-.43.25-.6.45a66.27 66.27 0 0 0-8.17-4.25l-.13-.05.75-.1zm7.7 1c.47.63 1.1 1.63 1.9 3a3.05 3.05 0 0 0-.7-.1 11.77 11.77 0 0 0-2.55-2.7 10.07 10.07 0 0 0-3.5-1.7c2.17.13 3.78.63 4.85 1.5zm-70.9 145.8v-.8l.35-2c-2.57.9-5.35 1.28-8.35 1.15a26.22 26.22 0 0 1-8.3-1.75 3.31 3.31 0 0 1 1.13-2.8c.41-.4.95-.77 1.62-1.1.51.21 1.07.42 1.68.63l.17.07c2 .73 3.43 1.1 4.3 1.1 1.16 0 2.53-.64 4.13-1.92a31.1 31.1 0 0 0 4.02-4.03l3.75-4.4a12.1 12.1 0 0 1 2.9-2.5H235.65L228 324.8c-.3.23-.57.48-.8.75.33.3.83.6 1.5.9 1.23.57 2.35.85 3.35.85 2.07 0 3.6-.62 4.6-1.85a9.7 9.7 0 0 0 1.47-3.43c.08-.32.16-.66.23-1.02.63-3.03 1.02-4.8 1.15-5.3.37-1.07.82-1.98 1.35-2.75a5.1 5.1 0 0 0 2.75-.9 4 4 0 0 0 1.75-3.45c.53 1.8.78 4.25.75 7.35-.03 2.97 0 5.12.08 6.45.01.41.04.75.07 1a5 5 0 0 1-1.45 1.9 13 13 0 0 1-2 1.3c-1.23 2.7-3.75 4.17-7.55 4.4a28.7 28.7 0 0 1-9.35-1.35zm-76.65-8.1l.6.2a18.78 18.78 0 0 0 4.5 5.95 20.18 20.18 0 0 0 6.08 4.15c1.76.77 3.53 1.15 5.32 1.15 1.1 0 2.27-.27 3.5-.8l.15-.05a6.08 6.08 0 0 1 2.25 3.6 24.73 24.73 0 0 1-9.85 1.75c-3.47-.13-6.7-.98-9.7-2.55a90.3 90.3 0 0 0-6.2-.3 11.78 11.78 0 0 1-4.63-1.22c-.4-.22-.78-.46-1.12-.73-.33-1.73-.2-3.92.4-6.55.8-3.6 1.23-5.77 1.3-6.5.2-1.03.37-1.73.5-2.1.27-.87.52-.85.75.05a4.2 4.2 0 0 0 2.15 3.35c.9.5 1.9.73 3 .7.33 0 .67-.03 1-.1zM91.55 163.1a46.22 46.22 0 0 1 4.2-.7 302.4 302.4 0 0 1 7.55-.7l1.45-.2c-.1.3-.28.58-.55.85.07.7-.03 1.43-.3 2.2-.3.77-.62 1.62-.95 2.55-.3.93-1.43.27-3.4-2-1.53.8-1.9 2-1.1 3.6a7.9 7.9 0 0 0 3.38 3.38l.22.12a8.66 8.66 0 0 1-5.8-1.5 11.69 11.69 0 0 1-3.75-4.8c-.4-.9-.72-1.83-.95-2.8zm-.3-1.7a13.43 13.43 0 0 1 .88-7.33 14.21 14.21 0 0 1 6.9-2.94c2.47-.45 5.58-.68 9.32-.68 1.29-.01 2.45-.09 3.48-.22 2.08-.26 3.64-.77 4.67-1.53 1.47-1.17 2.17-2.18 2.1-3.05.87 1.13 1.02 2.5.45 4.1a15.27 15.27 0 0 1-2.42 3.9l-.53.65c-2.1-.33-4.3-.22-6.6.35-1.4.33-3.28.98-5.65 1.95a39.58 39.58 0 0 0-9.85 3l-.42.22a9.7 9.7 0 0 0-2.33 1.58zm34.05 180.4c-.39-2.43-.7-4.39-.92-5.88l-.18-1.17a63.34 63.34 0 0 1-.6-7.1c1.07.13 2.23.23 3.5.3.37 1.37.92 2.9 1.65 4.6.4.93.75 1.74 1.03 2.43.46 1.1.75 1.9.87 2.37.1.4.23.8.4 1.2a8.73 8.73 0 0 0 2.7 3 9.65 9.65 0 0 0 5.6 1.8c1.33 0 2.33-.13 3-.4a2.2 2.2 0 0 0 1.35-1.85c1.57 1.6 2.32 3.22 2.25 4.85-2.87 1.6-6 2.27-9.4 2-3.83-.23-6.57-1.65-8.2-4.25-1.9-1.17-2.92-1.8-3.05-1.9zm160.57 10.35c-.34 2.02-.6 4.14-.77 6.35-.93.23-1.42-.13-1.45-1.1a6.82 6.82 0 0 0-.05-2.6c-.6.03-2.03.25-4.3.65-1.77.3-3.22.35-4.35.15 1.43-.43 2.42-1.77 2.95-4l.03-.08c.28-1.19.5-2.08.67-2.67a8 8 0 0 1 1.1-2.5c.73-1.27 1.98-2.18 3.75-2.75 1.07-.3 2.67-.55 4.8-.75a52.27 52.27 0 0 0-2.38 9.3zm20.08-54.55a22 22 0 0 0 2.5-1.25 19.72 19.72 0 0 0 8.95-9.8 23.22 23.22 0 0 0 1.75-13.5c1.57-.53 2.9-1.08 4-1.65a13.28 13.28 0 0 0 3.4-2.6c.2.72.37 1.43.52 2.13.73 3.1 1.13 5.89 1.18 8.37a20.65 20.65 0 0 1-2.4 10.72 10.96 10.96 0 0 1-6.2 5.13c-.53.2-1.08.35-1.65.45l-.5.1c-.17.03-.32.05-.45.05l-11.1 1.85" fill="#0E131F"/><path d="M235.65 311.3l.1.6a9.1 9.1 0 0 1 4 .95c.37.07.73.1 1.1.1-.53.77-.98 1.68-1.35 2.75a180.08 180.08 0 0 0-1.38 6.32 9.7 9.7 0 0 1-1.47 3.43c-1 1.23-2.53 1.85-4.6 1.85-1 0-2.12-.28-3.35-.85-.67-.3-1.17-.6-1.5-.9.23-.27.5-.52.8-.75l7.65-13.5zm-6.45-.8l.75.25 1.7.55h1.65a12.1 12.1 0 0 0-2.9 2.5l-3.75 4.4a31.1 31.1 0 0 1-4.03 4.03c-1.59 1.28-2.96 1.92-4.12 1.92-.87 0-2.3-.37-4.3-1.1l-.17-.07c-.6-.21-1.17-.42-1.68-.63.37-.17.78-.33 1.25-.5a35.1 35.1 0 0 0 11.2-6.55c.77-.9 1.48-1.63 2.15-2.2a6.4 6.4 0 0 0 1.45-2l.8-.6zm-79.55 10.85l2.55-1.25c.03-.73.08-1.45.15-2.15.1.53.35 1.17.75 1.9.2.37.55.93 1.05 1.7.3-.03.57.07.8.3.2.17.37.42.5.75a19.84 19.84 0 0 1 2.95 3.2c.8.9 1.97 1.72 3.5 2.45 1.87.8 3.25 1.4 4.15 1.8a15.1 15.1 0 0 1 3.35 2.1l-.15.05c-1.23.53-2.4.8-3.5.8-1.79 0-3.56-.38-5.32-1.15a20.18 20.18 0 0 1-6.08-4.15c-2.13-2-3.63-3.98-4.5-5.95l-.2-.4zm-22.55 6.6h1.75a24.73 24.73 0 0 1 4.4-.45l-.1-.35c.77.9 1.28 1.88 1.55 2.95.3.5.55 1.1.75 1.8.63.7 1.2 1.38 1.7 2.03.75.96 1.37 1.85 1.85 2.67.47.63 1.15 1.37 2.05 2.2.53.43 1.32 1.1 2.35 2l.3.3a2.2 2.2 0 0 1-1.35 1.85c-.67.27-1.67.4-3 .4-2 0-3.87-.6-5.6-1.8a8.73 8.73 0 0 1-2.7-3c-.17-.4-.3-.8-.4-1.2-.12-.47-.41-1.27-.88-2.38-.27-.68-.61-1.49-1.02-2.42a34.1 34.1 0 0 1-1.65-4.6" fill="#1A252C"/><path d="M125.3 341.8c.13.1 1.15.73 3.05 1.9 1.63 2.6 4.37 4.02 8.2 4.25 3.4.27 6.53-.4 9.4-2 .03.73 0 1.28-.1 1.65a1.3 1.3 0 0 1-1.1.95 22.22 22.22 0 0 1-8.7 1c-3.2-.3-5.87-1.37-8-3.2-1.2.1-2.07-.48-2.6-1.75-.5-1.2-.55-2.13-.15-2.8zm100.6-12.95c-4.5 1.4-9.88 1.08-16.15-.95a7.78 7.78 0 0 1-.15-1.65 26.22 26.22 0 0 0 8.3 1.75c3 .13 5.78-.25 8.35-1.15l-.35 2zm-85.9 4.72c.03-.27.08-.57.15-.87.34.27.72.5 1.13.73 1.24.66 2.78 1.07 4.62 1.22 2.8.07 4.87.17 6.2.3 3 1.57 6.23 2.42 9.7 2.55 3.33.1 6.62-.48 9.85-1.75.17.57.23.95.2 1.15-.03.4-.27.65-.7.75-5.03 1.7-9.73 2.05-14.1 1.05a85.63 85.63 0 0 0-4.05-1.75c-1.6-.43-2.95-.18-4.05.75-2.57.27-4.65.15-6.25-.35-1.97-.67-2.87-1.93-2.7-3.78zm106.25-10.17a5.28 5.28 0 0 1-.05 3.85 3.47 3.47 0 0 1-2.95 2.2c-1.8 1.83-4.28 2.87-7.45 3.1a33.41 33.41 0 0 1-7.1-.55c-1.67-.17-2.6-.55-2.8-1.15v-.95-.25a28.7 28.7 0 0 0 9.35 1.35c3.8-.23 6.32-1.7 7.55-4.4a13 13 0 0 0 2-1.3 5 5 0 0 0 1.45-1.9" fill="#0A0B09"/><path d="M222.95 102.95c.83.3 1.77.53 2.8.7 3.53.5 7.72.15 12.55-1.05 2.63-.67 4.55-1.95 5.75-3.85.33-.63.38-1.33.15-2.1.67.5 1.15.83 1.45 1 .23.3.52.57.85.8l-.7 1.85c-.83 1.07-2.6 2.45-5.3 4.15a33.78 33.78 0 0 1-3.95 2.3h-.05c-.8.07-1.32.2-1.55.4-.6.1-1.07.23-1.4.4a41.2 41.2 0 0 1-3.35.7c-2.5.27-4.5-.23-6-1.5l-.1-.1c-.1-.03-.15-.08-.15-.15a4.06 4.06 0 0 1-1-3.55zm25.8-1.3c.6 1.23 1.08 2.58 1.45 4.05.1.73.18 1.47.25 2.2v.55c.13 3.53-.65 6.63-2.35 9.3.33-.87.55-2.05.65-3.55a5.36 5.36 0 0 0-.35-2.75c-.17-.43-.42-.72-.75-.85-1.57-.27-2.53.53-2.9 2.4-.11.8-.22 1.5-.32 2.1a16.7 16.7 0 0 1-.58 2.5v.6l-1.15-.1v-.15l.05.05a10.16 10.16 0 0 0-.35-3.05c-.1-.37-.27-.75-.5-1.15a1.1 1.1 0 0 0-.2-.45c-.3-.5-.65-.95-1.05-1.35-.17-.23-.33-.45-.5-.65h.05c3.47-1.5 6.2-4.45 8.2-8.85.2-.27.32-.55.35-.85" fill="url(#i)"/><path d="M248.75 101.65c-.03.3-.15.58-.35.85-2 4.4-4.73 7.35-8.2 8.85h-.05c-.8-.87-1.38-1.48-1.75-1.85a11.95 11.95 0 0 1-1.85-2.75c.77-.33 2.08-1.1 3.95-2.3 2.7-1.7 4.47-3.08 5.3-4.15l.7-1.85c.9.97 1.65 2.02 2.25 3.15v.05zm-25.8 1.3c.13-.17.28-.4.45-.7a13.53 13.53 0 0 1 4.45-4.45 17.57 17.57 0 0 1 5.75-2.65c4.4-.97 7.93-.47 10.6 1.5.23.77.18 1.47-.15 2.1-1.2 1.9-3.12 3.18-5.75 3.85-4.83 1.2-9.02 1.55-12.55 1.05-1.03-.17-1.97-.4-2.8-.7" fill="url(#j)"/><path d="M236.05 106.85c.1-.03.25-.07.45-.1-.3.13-.5.18-.6.15l.15-.05" fill="#352219"/><path d="M236.05 106.85l-.7.15c-.17.07-.27.1-.3.1l-.1.05c.23-.2.75-.33 1.55-.4-.2.03-.35.07-.45.1" fill="#603826"/><path d="M254.9 143.6c-.77 2.3-.97 4.74-.6 7.3l.05.3v.2l-.1-.15c-1.43 3.57-3.58 8.5-6.45 14.8-3.23 7.93-4.85 14.65-4.85 20.15 0 2.37.72 6.63 2.15 12.8l.78 3.43-18.45 3.2c.38-8.1.57-13.2.57-15.33v-1c1.47-5.57 4.08-11.63 7.85-18.2 1.73-3.07 4-6.67 6.8-10.8 2.43-3.6 3.82-5.73 4.15-6.4l-5.8-4.85 6.75-.95c-.4-1.92-.2-3.9.57-5.95l.03-.05c.13-.53.3-1.05.5-1.55s.55-1.27 1.05-2.3a26.12 26.12 0 0 1 1.95-3.55 7.57 7.57 0 0 1 2.5-2.75l.83.2.17.05.3.08 1.85.47c1.99.52 4.39 1.19 7.2 2 1.16.46 2.24 1.12 3.25 2-4-2.5-7.45-1.85-10.35 1.95a15.45 15.45 0 0 0-2.7 4.9zm-37.05 33.1a242.92 242.92 0 0 0-1.65 30.88l-4.88.84c-1.43-3.63-.74-8.2 2.08-13.72l.15-.77.02-.16a19.12 19.12 0 0 0 .23-1.27l1.6-12.8a230.96 230.96 0 0 0 .5-14.8v-.3a30.32 30.32 0 0 1-1.9-9.25c-.3-6.93 1.82-13.97 6.35-21.1 1.07-.63 2.18-1.1 3.35-1.4-.97 1.63-1.92 3.35-2.85 5.15l-.3.65-1.1 2.28c-1.24 2.59-2.26 4.66-3.05 6.22l2.65 2.8 1.15 1.15-2.45 1.35c-.83.5-1.4.85-1.7 1.05l-.55.4h-.05c1.27 4.57 2.02 10.48 2.25 17.75a203.87 203.87 0 0 1 .15 5.05" fill="url(#k)"/><path d="M275.45 146.72c1.42-2.12 2.87-5.28 4.35-9.47.34-.98.69-1.9 1.02-2.78l1.06-2.57c.2-.47.42-.92.62-1.35a15.8 15.8 0 0 1 7.05 2.55 87.65 87.65 0 0 1-3.3 9.05c-3.77 8.8-7.77 13.2-12 13.2-1.67 0-3.77-.78-6.3-2.35-1.57-.97-3.97-2.68-7.2-5.15a97.41 97.41 0 0 0-5.85-4.25 15.45 15.45 0 0 1 2.7-4.9c2.9-3.8 6.35-4.45 10.35-1.95a18.33 18.33 0 0 1 2.95 3.45 41 41 0 0 1 2.1 3.65c1.07 2.03 1.7 3.25 1.9 3.65.18-.24.37-.5.55-.78" fill="url(#l)"/><path d="M228 189.3c.1-12.5 2-24.23 5.7-35.2a75.5 75.5 0 0 1 3.55-8.9 55.8 55.8 0 0 1 2.2-4.15c3.2-5.47 6.97-9.54 11.3-12.2.36.55.73 1.03 1.13 1.45l.22.22a5.58 5.58 0 0 0 2.25 1.42c-.87.51-1.7 1.43-2.5 2.76a26.12 26.12 0 0 0-1.95 3.55c-.5 1.03-.85 1.8-1.05 2.3-.2.5-.37 1.02-.5 1.55l-.03.05a10.46 10.46 0 0 0-.57 5.95l-6.75.95 5.8 4.85c-.33.67-1.72 2.8-4.15 6.4-2.8 4.13-5.07 7.73-6.8 10.8-3.77 6.57-6.38 12.63-7.85 18.2" fill="url(#m)"/><path d="M253.9 211.05c-.56.33-1.12.65-1.68.95l-2.92-8.15-.25-.5-.3-.4-.4-.35-.4-.25-.4-.15h-.4l-1.28.23-.77-3.43c-1.43-6.17-2.15-10.43-2.15-12.8 0-5.5 1.62-12.22 4.85-20.15 2.87-6.3 5.02-11.23 6.45-14.8l.1.15v-.2l7.45 5.75c-1.15 2.25-2.3 4.52-3.43 6.8l-1.12 2.3a119.2 119.2 0 0 1-5.6 10.2 27.9 27.9 0 0 0 2.65 15.5c2.37 4.83 3.62 10.38 3.75 16.65-1.4.95-2.79 1.84-4.15 2.65" fill="url(#n)"/><path d="M287.07 150.82a59.8 59.8 0 0 1-2.4 8.03c-.35.89-.7 1.69-1.07 2.4a9.9 9.9 0 0 1-.88.93l-4.07 2.14a6.24 6.24 0 0 1-1.57.13l-1.63-.15-.13-.03a13 13 0 0 1-3.07-.97l-.9-.4-1.5-.75a54.08 54.08 0 0 1-8.05-5.2l-7.45-5.75-.05-.3c-.37-2.56-.17-5 .6-7.3 1.43.93 3.38 2.35 5.85 4.25 3.23 2.47 5.63 4.18 7.2 5.15 2.53 1.57 4.63 2.35 6.3 2.35 4.23 0 8.23-4.4 12-13.2a87.65 87.65 0 0 0 3.3-9.05c.53.37 1.03.78 1.5 1.25l-1.2 5.6c-.38 1.13-.97 3.3-1.75 6.53l-1 4.22-.03.13" fill="url(#o)"/><path d="M218.63 135.38c.56-.42 1.14-.8 1.72-1.13-4.53 7.13-6.65 14.17-6.35 21.1-2.13 2.77-4 5.02-5.6 6.75-3.57 3.83-7 5.75-10.3 5.75-2.67 0-7.03-3.62-13.1-10.85a604.8 604.8 0 0 0-7.05-8.8c.97-.8 2.33-1.83 4.1-3.1l.85.95c.93 1.03 1.98 2.15 3.15 3.35 2.47 2.23 6.47 5.7 12 10.4 3.53-3.17 6.15-5.57 7.85-7.2 3-2.9 5.08-5.72 6.25-8.45a22.83 22.83 0 0 1 4.85-7.4l1.63-1.38" fill="url(#p)"/><path d="M214 155.35c.13 3.1.77 6.18 1.9 9.25-1.2.63-3.77 2.42-7.7 5.35-3.1 2.3-5.82 3.77-8.15 4.4a5.6 5.6 0 0 1-4.85.1 11.62 11.62 0 0 1-4.1-2.9c-2.63-3.27-5.42-6.7-8.35-10.3a118.62 118.62 0 0 1-7.25-9.65v-.03c.33-.88.6-1.47.8-1.77.23-.33.78-.87 1.65-1.6A604.8 604.8 0 0 1 185 157c6.07 7.23 10.43 10.85 13.1 10.85 3.3 0 6.73-1.92 10.3-5.75 1.6-1.73 3.47-3.98 5.6-6.75" fill="url(#q)"/><path d="M225.18 137.1l-.16.63a297.4 297.4 0 0 0-7.05 37.88l-.12 1.09-.03-1.63c-.03-1.26-.07-2.4-.12-3.42-.23-7.27-.98-13.18-2.25-17.75h.05l.55-.4a49.69 49.69 0 0 1 4.15-2.4l-1.15-1.15-2.65-2.8c.79-1.56 1.8-3.63 3.05-6.22l1.1-2.28.3-.65c.93-1.8 1.88-3.52 2.85-5.15l.2-.07c.24-.07.49-.13.75-.18l.92-.22c.3-.1.6-.25.88-.43l-.1.65c-.4 1.5-.8 3-1.17 4.5" fill="url(#r)"/><path d="M305.4 214.9l-2.55.1a21.14 21.14 0 0 0-.9-.15c-.17 0-.33-.02-.5-.05l-2.4-1-.3-.2c-.5-.37-.94-.82-1.3-1.35.41-.16.8-.32 1.15-.5 1.56-.77 3.23-2.32 5-4.68l.1.53c.47 2.37 1.02 4.73 1.65 7.1l.05.2zm12.85-11.05a22.97 22.97 0 0 0-5.85 5.13 36.7 36.7 0 0 0-2-8.72 30.21 30.21 0 0 0-2.4-4.98c1-.8 2.05-1.53 3.15-2.23 2.3 3.03 4.67 6.63 7.1 10.8zm8.82 67.08c-.15-.7-.32-1.4-.52-2.13a245.23 245.23 0 0 0-3.13-12.48c1.13.75 2.28 1.42 3.48 2.03a29.78 29.78 0 0 0 15.65 3.9c5.47-.07 10.15-1.57 14.05-4.5a24.45 24.45 0 0 0 6.35-6.75 26.34 26.34 0 0 0 3.35-8.8c1.1-4.97.78-10.1-.95-15.4-.7-2.27-1.58-4.4-2.65-6.4l9.2-5.95a55.67 55.67 0 0 1 3.75 7.95 47.01 47.01 0 0 1 2.9 15.45c.17 5.63-.8 10.92-2.9 15.85a31.57 31.57 0 0 1-8.95 12.6 30.87 30.87 0 0 1-12.45 6.55 36.3 36.3 0 0 1-14.6 1.35 45.68 45.68 0 0 1-12.57-3.27" fill="#6795C2"/><path d="M97.9 367.8v-18.5l10.85 1.8-.1 19.45-10.75-1.95v-.8zm-68.5-44.45l10.75 1.9v33.4l-10.75-1.9v-33.4zm318.35 11.15l15.65 2.75v15.9l-15.65-2.75v-15.9zm-13.3-134.2c-2.87-.2-5.72-.03-8.55.5-2.7.6-5.25 1.62-7.65 3.05-2.43-4.17-4.8-7.77-7.1-10.8a35.95 35.95 0 0 1 20.25-4.8l2.15.4c.2 1.47.38 3.42.55 5.85.17 3.3.28 5.23.35 5.8" fill="#F4B65B"/><path d="M70.5 323.25l10.75 1.8v40.7l-10.75-1.9v-40.6zm-44.05 32.9L15.7 354.3v-21.25l10.75 1.9v21.2zm310.3-155.35l-2.3-.5c-.07-.57-.18-2.5-.35-5.8a91.83 91.83 0 0 0-.55-5.85l-2.15-.4c1.63 0 3.42.23 5.35.7v11.85" fill="#8CCFD3"/><path d="M318.4 223.03l.6.07a34.48 34.48 0 0 1 5.5 1.25c.13.37.2.75.2 1.15.17.93.25 1.93.25 3 0 .87-.07 2.2-.2 4l-4-.5.35 2.25-2.08-.45c-.12-1.55-.19-3.03-.2-4.45 1.3.22 2.59.46 3.88.7l.9.2.1-5.15-4.93-.82c-.07-.46-.2-.87-.37-1.23v-.03" fill="#7583B3"/><path d="M351.8 238.4a34.9 34.9 0 0 1 0-8.35c3.73.47 7.43 1.08 11.1 1.85.33 2.9.33 5.73 0 8.5-3.67-.33-7.37-1-11.1-2zm2.1-6.85v6.2l7 1.15v-6.15l-7-1.2" fill="#B9C3D9"/><path d="M341 235.9l-5.1-.75a89.7 89.7 0 0 1 0-7.35l5.1.85v7.25zm12.9-4.35l7 1.2v6.15l-7-1.15v-6.2zm-35.07-2.2c-.01-.74 0-1.45.02-2.15v-2.1a8.2 8.2 0 0 0-.08-.82l4.93.82-.1 5.15-.9-.2c-1.3-.25-2.58-.48-3.88-.7" fill="#FFFEFE"/><path d="M341 235.9v-7.25l-5.1-.85a89.7 89.7 0 0 0 0 7.35l5.1.75zm.65-9.15c.5 3.5.57 7.33.2 11.5L334.9 237c-.2-4.33-.2-8.17 0-11.5l6.75 1.25" fill="#8B9AC2"/><path d="M246.6 359.65c-1-.1-1.67-.72-2-1.85-.33-1.17 0-1.95 1-2.35a84.4 84.4 0 0 0 4.1-1.45 26 26 0 0 0 3.95-1.8c.93-.97 2.57-3.35 4.9-7.15a25.7 25.7 0 0 1 3.6-4.7c.68-.7 1.37-1.26 2.05-1.7 1.77-.63 3.33-.07 4.7 1.7 1.3 1.77 1.65 3.5 1.05 5.2a13.71 13.71 0 0 0-8.7 3.8c-.66.6-1.3 1.27-1.9 2l-.05.07a26.7 26.7 0 0 0-3.6 5.88c-.5 1.63-1.78 2.48-3.85 2.55-.53.03-1.43 0-2.7-.1-1.17-.1-2.02-.13-2.55-.1zM298.75 185l.55 2.05c-.2-.1-.4-.17-.6-.2a36.68 36.68 0 0 0-1.9-3c.87.4 1.52.78 1.95 1.15zm5.85 5.55a57.64 57.64 0 0 1 3.2 4.4l.2.33a30.21 30.21 0 0 1 2.4 4.97 36.7 36.7 0 0 1 2 8.72c.18 1.45.3 2.9.4 4.33l.07 1.63.23 4.92.2 6.5c.07 1.97.08 3.95.05 5.95.03 2.1-.02 4.17-.15 6.2l-.05.1-.15-1.05c-.03-.4-.03-2.12 0-5.15 0-3.03-.02-4.75-.05-5.15-.3-2.94-1.13-7.25-2.47-12.95l-.43-1.83c-.5-2.02-1.04-4.2-1.65-6.52-1-3.8-1.8-6.79-2.4-8.97-.94-3.42-1.4-4.85-1.35-4.28a9.62 9.62 0 0 1-.05-2.15zm-4.05-4.25c.3.2.58.5.85.9.3.4.5.83.6 1.3l-1.45-.8v-1.4zm-4.15 5c-.07.13-.83.88-2.3 2.25a27.88 27.88 0 0 1-5.2 3.7 78.5 78.5 0 0 1-4.15 2.25c.3.7.58 1.17.85 1.4.43.47.9.5 1.4.1 3.3-1.73 6.85-4.32 10.65-7.75l.38.3.12.1.75.65c.23.17.45.33.65.5.32.23 1.06.63 2.2 1.2.58 2.16.99 4.36 1.2 6.6.18 1.5.4 2.98.65 4.47-1.77 2.36-3.44 3.91-5 4.68a20.66 20.66 0 0 1-3.65 1.3c-1.43.33-2.87.45-4.3.35-.64-.06-1.21-.16-1.72-.3l-.13-.03c-2.22-.63-3.37-1.97-3.45-4.02 2.07-.27 4.02-1.43 5.85-3.5.6-.67 1.95-2.6 4.05-5.8-.7.3-1.55.82-2.55 1.55-.57.4-1.4 1.03-2.5 1.9-2.03 1.4-3.87 1.9-5.5 1.5-.05-.33-.1-.63-.18-.9a4.3 4.3 0 0 0-.77-1.7c-1.1-1.23-1.73-.95-1.9.85-.1 1.73-.18 2.73-.25 3-.83-1.03-1.3-2.67-1.4-4.9-.13-2.57-.43-4.2-.9-4.9-.43-.7-.97-1.12-1.6-1.25a20.2 20.2 0 0 1-.05-.95c-.08-1.74.02-3.2.3-4.38.12-.55.3-1.04.5-1.47.7-1.53 2.08-3.13 4.15-4.8.4-.23.97-.45 1.7-.65.7-.2 2.05-.1 4.05.3l.13.05a66.27 66.27 0 0 1 8.17 4.25l-.1.2c-.03.1-.08.2-.15.3l-.05.05c-.4-.13-1.73-.65-4-1.55a27.77 27.77 0 0 0-4.45-1.45c-3.5-.73-5.9.27-7.2 3 .83.03 3.45.05 7.85.05 3.1 0 5.65.22 7.65.65a5.44 5.44 0 0 0 .2 2.8zm-4.45-8.95a10.07 10.07 0 0 1 5.15 3.25c.32.36.62.74.9 1.15-.3-.03-.55-.02-.75.05a56.7 56.7 0 0 0-3.8-2.4 13.22 13.22 0 0 0-4.35-1.55 10.2 10.2 0 0 1 2.85-.5zm-20.97 106.97c-.62-1.59-.93-3.25-.93-4.97v-.9c.1-3.23.8-6.28 2.1-9.15l3.3-.28c3.96-.3 7.17-.4 9.65-.32 3.17.1 4.98.17 5.45.2 2.43.23 3.78-.82 4.05-3.15.97-2.57 2.18-4.42 3.65-5.55a56.46 56.46 0 0 0 6.5 4.35c1.1.6 2.18 1.13 3.25 1.6 3.8 1.57 7.52 2.2 11.15 1.9a23.22 23.22 0 0 1-2.65 15.32 19.72 19.72 0 0 1-8.05 7.98 22 22 0 0 1-2.5 1.25c-.9.2-1.85.35-2.85.45-1.17.07-2.38.03-3.65-.1-1.7-.2-3.75-.6-6.15-1.2l-5.95-1.6-6.95-1.75c-3.1-.8-5.42-1.38-6.95-1.75l-1.6-.5c-.34-.6-.63-1.2-.88-1.82zm4.97 55.63a18.4 18.4 0 0 1 3.05-6.5c1.63-2.13 3.65-3.27 6.05-3.4 1.4.27 2.38 1.32 2.95 3.15.43 1.47.52 3.02.25 4.65-2.13.2-3.73.45-4.8.75-1.77.57-3.02 1.48-3.75 2.75a8 8 0 0 0-1.1 2.5c-.16.59-.39 1.48-.68 2.67l-.02.08c-.53 2.23-1.52 3.57-2.95 4a2.95 2.95 0 0 1-3.05-1.3c-.74-.96-.9-1.96-.45-3l.1-.25a35.63 35.63 0 0 0 2.6-2.75 10 10 0 0 0 1.8-3.35" fill="#1B2140"/><path d="M137.03 275.68l-11.06 1.92c-.1-.84-.28-1.7-.52-2.55a21.8 21.8 0 0 0-2.8-6.15c1.27.27 2.75.8 4.45 1.6 1.93 1.03 3.4 1.78 4.4 2.25 1.48.73 3.32 1.7 5.53 2.93zm-24.4 3.92c-1.73.1-3.6.13-5.63.1-4.5-.03-8.45-.35-11.85-.95l-24.85-4.4c-3.37-.6-5.18-1.3-5.45-2.1-.27-.77 1.1-1.43 4.1-2l22-3.85c1.09-.2 2.28-.35 3.58-.47 4.32 5.34 9.93 9.56 16.82 12.67.4.2.82.35 1.25.45l.03.55" fill="url(#s)"/><path d="M125.97 277.6l11.06-1.93c1.64.9 3.48 1.92 5.52 3.08-.1.4-.22.8-.35 1.2l-.07.18c-.53.14-1.16.28-1.88.42l-14.28 2.5c.03-.45.07-.89.13-1.3.13-1.36.08-2.74-.13-4.15zm-13.34 2c.07 1.8.18 3.6.32 5.4-1.8.1-3.8.13-5.95.1-4.5-.03-8.45-.35-11.85-.95L70.3 279.8c-3.37-.6-5.18-1.3-5.45-2.1a.8.8 0 0 1 0-.4v-5.05c.27.8 2.08 1.5 5.45 2.1l24.85 4.4c3.4.6 7.35.92 11.85.95 2.03.03 3.9 0 5.63-.1" fill="url(#t)"/><path d="M158.55 221.45l-.55-.3a7 7 0 0 0-1.4 1.25 6.18 6.18 0 0 0-1.55 2.65l-1.2-.65-7.55-5.08a45.76 45.76 0 0 1-11.2-12.62c-3.9-6.65-6.58-15.33-8.05-26.05 1 .63 1.88 1.35 2.65 2.15l.05.1a30.08 30.08 0 0 1 5.35 7.1c.53.97 1.05 2.03 1.55 3.2.47 1.1 1.13 2.75 2 4.95.17.41.33.8.5 1.17a38 38 0 0 0 1.2 2.56l.6 1.07a111 111 0 0 1 4.05 6.2l2.35 3.17c.75.92 1.45 1.71 2.1 2.38a35.36 35.36 0 0 0 4.8 3.95 288.5 288.5 0 0 0 4.3 2.8" fill="url(#u)"/><path d="M95.6 235.8c-.45-.29-.9-.55-1.38-.78.16-2.51.56-5.04 1.23-7.57.5-1.97 1.43-4.78 2.8-8.45 1.37-3.7 2.32-6.53 2.85-8.5a39.2 39.2 0 0 0 1.3-9.9c0-2.1-.97-4.43-2.9-7a27.97 27.97 0 0 0-6.35-6 17.25 17.25 0 0 0-4.45-2.3c1.4-1.4 3.9-3.38 7.5-5.95.3 2.63 1.55 5.48 3.75 8.55 1.63 2.27 4.57 5.63 8.8 10.1l.9-.15 3.95 3.45 1.75 1.55.55-.75 2.95-4.65.05.1h.6c.53-1.17.83-1.88.9-2.15.13-.53.2-1.13.2-1.8 0-2.03-.58-4.58-1.75-7.65-.97-2.5-2.08-4.8-3.35-6.9l-.13-.18.13.03 2.55-.1c.63-.2 1-.38 1.1-.55.05-.1.12-.2.2-.3l.9.25c1.4.27 2.55.55 3.45.85.17.07.32.13.45.2a1.92 1.92 0 0 1-.4-.15c.4 1.27 1.18 4.07 2.35 8.4 1.17 4.37 1.78 7.88 1.85 10.55.03 2.63-.65 5.87-2.05 9.7a26.8 26.8 0 0 0-2.8 17c.23 1.6.63 3.12 1.2 4.55l.7 1.67a303.14 303.14 0 0 0-23.6 3.68 4.33 4.33 0 0 0-1.85-.2c-1.13.1-2.45.55-3.95 1.35" fill="url(#v)"/><path d="M127.05 180.65c1.47 10.72 4.15 19.4 8.05 26.05v12.65c-.9-1.2-1.65-2.15-2.25-2.85-.9-1-2.07-2.47-3.5-4.4-.23-.27-.45-.53-.65-.8l-.05-.05a72.91 72.91 0 0 0-2.75-3.5c1.4-3.83 2.08-7.07 2.05-9.7-.07-2.67-.68-6.18-1.85-10.55a267.95 267.95 0 0 0-2.35-8.4 16.7 16.7 0 0 1 3.3 1.55" fill="url(#w)"/><path d="M115.9 202.1l-.55.75-1.75-1.55a6.61 6.61 0 0 0-.15-.8l-.3-2c-.2-1.23-.35-2.48-.45-3.75a.89.89 0 0 1-.25-.25 5.05 5.05 0 0 1-.6-1.2l1.1-2.45 1.9-.3.7-.1.4.85-.1.65c-.07.8-.38 1.78-.95 2.95l.1.8c.03.6.1 1.2.2 1.8l.4 2.35.3 2.25" fill="#C82B51"/><path d="M113.6 201.3l-3.95-3.45 2.2-4.55c.17.47.37.87.6 1.2.07.1.15.18.25.25.1 1.27.25 2.52.45 3.75l.3 2c.07.27.12.53.15.8zm5.25-3.85l-2.95 4.65-.3-2.25-.4-2.35c-.1-.6-.17-1.2-.2-1.8l-.1-.8c.57-1.17.88-2.15.95-2.95l.1-.65c1.7 3.67 2.67 5.72 2.9 6.15" fill="#85A3C1"/><path d="M86.85 232.57a66.77 66.77 0 0 0-.9-5.7l1.8-4.67a53.93 53.93 0 0 0 2.05-6.85c.6-2.73 2.17-4.38 4.7-4.95.5-.1.97-.25 1.4-.45a6.48 6.48 0 0 0 1.7-1.2 9.1 9.1 0 0 0 1.85-3.25c.43-1.43.52-2.98.25-4.65v-.05l-.15-.6a33.55 33.55 0 0 0-1-3.35 12.53 12.53 0 0 0-3.3-4.75 16.2 16.2 0 0 0-4.4-3.1 12.32 12.32 0 0 0-4.5-.9c.33-.5.7-1 1.1-1.5l.1-.05.05-.15.1-.1c.07-.07.15-.13.25-.2l.05-.15.4-.4c.07-.1.17-.18.3-.25 1.3.4 2.78 1.17 4.45 2.3a27.97 27.97 0 0 1 6.35 6c1.93 2.57 2.9 4.9 2.9 7 0 3.27-.43 6.57-1.3 9.9-.53 1.97-1.48 4.8-2.85 8.5a89.37 89.37 0 0 0-2.8 8.45 38.98 38.98 0 0 0-1.23 7.58c-1-.47-2.03-.8-3.12-.98a10.09 10.09 0 0 1-4.25-1.48" fill="url(#x)"/><path d="M129.2 327.9c-.13.03-.25.05-.35.05h-1.75a48.95 48.95 0 0 1-3.5-.3 137.33 137.33 0 0 1-11-48.6 5.6 5.6 0 0 1-1.25-.45c-6.89-3.1-12.5-7.33-16.82-12.68a43.55 43.55 0 0 1-2.63-3.57c4.5 1.25 9.99 2.44 16.45 3.55 2.59.45 5.25.86 7.98 1.25a23.15 23.15 0 0 1 5.22 11.23c.22 1.21.35 2.47.4 3.77l.08 1.6c.34 6.56 1.34 14.44 2.97 23.65 1.73 9.97 3.13 16.8 4.2 20.5" fill="url(#y)"/><path d="M121.88 267.9l.37.65.4.35a21.8 21.8 0 0 1 3.32 8.7c.21 1.4.25 2.8.13 4.15-.06.41-.1.85-.13 1.3-.09 2.14.24 4.72.98 7.75 1.17 4.57 1.8 7.55 1.9 8.95l1.2 13.85a56.9 56.9 0 0 0 3.1 13.55l.1.35c-1.13 0-2.48.13-4.05.4-1.07-3.7-2.47-10.53-4.2-20.5a199.92 199.92 0 0 1-3.05-25.25c-.05-1.3-.18-2.56-.4-3.77-.74-4.27-2.49-8.01-5.22-11.23 1.81.26 3.66.51 5.55.75" fill="url(#z)"/><path d="M162.47 223.45l-.12-.2.5.05-.38.15" fill="#F2B593"/><path d="M149.25 321.55c-.33.07-.67.1-1 .1A30.45 30.45 0 0 1 148 318c0-3.4.48-9.95 1.45-19.65.97-9.67 1.45-16.57 1.45-20.7 0-2.6-.37-5.01-1.1-7.25l4.17.23c.35 1.35.53 2.93.53 4.72 0 .83-.03 2.08-.1 3.75 0 1.47.08 2.72.25 3.75.73 4.67.67 10.52-.2 17.55a403.1 403.1 0 0 1-1.2 8.75c-.47 3.47-.77 6.4-.9 8.8-.07.7-.12 1.42-.15 2.15l-2.55 1.25-.4.2" fill="url(#A)"/><path d="M121.88 267.9c8.68 1.1 17.99 1.93 27.92 2.5.73 2.24 1.1 4.66 1.1 7.25 0 4.13-.48 11.03-1.45 20.7-.97 9.7-1.45 16.25-1.45 19.65 0 1.07.08 2.28.25 3.65a5.7 5.7 0 0 1-3-.7 4.2 4.2 0 0 1-2.15-3.35c-.17-4.37-.3-7.65-.4-9.85a73.07 73.07 0 0 0-1.2-9.85c-1.68-6.72-1.47-12.65.63-17.77l.07-.18c.13-.4.25-.8.35-1.2a292.12 292.12 0 0 0-11.05-6c-1-.47-2.47-1.22-4.4-2.25a20.9 20.9 0 0 0-4.45-1.6l-.4-.35-.38-.65" fill="url(#B)"/><path d="M149.85 321.75l-.6-.2.4-.2.2.4" fill="#5F605C"/><path d="M118.6 145.65c.07.87-.63 1.88-2.1 3.05-1.03.76-2.59 1.27-4.67 1.53-1.03.13-2.2.2-3.48.22a53.53 53.53 0 0 0-9.7.75 14.21 14.21 0 0 0-6.53 2.88l-.02.02c.03-.1.08-.2.15-.3v-.1c1.93-2.97 4.87-5.08 8.8-6.35a25.34 25.34 0 0 1 11.05-1c.9.17 1.92.07 3.05-.3.2-.03 1.13-.4 2.8-1.1.23.23.45.47.65.7zM91.55 163.1c-.08-.33-.14-.66-.2-1v-.15c-.07-.2-.1-.38-.1-.55a9.7 9.7 0 0 1 2.33-1.58l.42-.22a39.58 39.58 0 0 1 9.85-3l-.25.1-.45.2c.17.6.63 1.53 1.4 2.8.08.17.15.34.2.5.15.49.15.92 0 1.3l-1.45.2-1.2.1c-2.9.25-5.02.45-6.35.6a46.22 46.22 0 0 0-4.2.7" fill="#273673"/><path d="M155.05 225.05v.02a5.48 5.48 0 0 0-.3 1.93c0 .55.03 1.06.1 1.55-2.69.13-5.33.28-7.92.45a227 227 0 0 1-2.73-1c-2.33-.57-4.5-2.17-6.5-4.8l-1.02-1.57-1.16-1.66-.02-.04-.4-.58V206.7l.8 1.3a45.76 45.76 0 0 0 10.4 11.32l7.55 5.08 1.2.65" fill="url(#C)"/><path d="M94.22 235.03c.47.22.93.48 1.38.77l-.8.5a4.82 4.82 0 0 0-.63-.18 3.75 3.75 0 0 0-2.02.13 3.7 3.7 0 0 0-1.95 1.15c-.4.45-.66 1.02-.8 1.7l-.05.1c-.4 2.07.48 3.6 2.65 4.6-1.67.17-3.32.23-4.95.2a8.41 8.41 0 0 1-.35-.8l-.55-3.05a8.32 8.32 0 0 1 .35-2.4l1.15-2.05a6.73 6.73 0 0 1 2.6-1.8c.3.03.58.08.85.15 1.09.18 2.13.5 3.13.97zm64.8-6.68l-4.17.2c-.07-.49-.1-1-.1-1.55a5.48 5.48 0 0 1 .3-1.93v-.02c.27-.97.78-1.85 1.55-2.65a7 7 0 0 1 1.4-1.25l.55.3c1.47.43 2.73 1.03 3.8 1.8l.13.2c-.28.12-.54.26-.78.4a5.18 5.18 0 0 0-2.67 4.5" fill="#BC242B"/><path d="M266.68 234.13c-.73 1.22-1.4 2.4-2 3.52l-1.78-.3a4.18 4.18 0 0 0-1.7-.05l-.05-.5-1.4-3.9a558.05 558.05 0 0 1 6.93 1.22zm18.17 7.02l-6.98-1.2 2.8-2.52c1.62.49 3.1.99 4.43 1.5l-.05.37-.2 1.85zm-162.4.6v1.1l-2.45.43v-1.08c0-.3.15-.45.45-.45h2zm-2.45 4.28l2.45.42v2h-2c-.3 0-.45-.13-.45-.4v-2.03zm-2.65-2.28l-5.15.9 5.15.9v2.5c0 2.07 1.03 3.1 3.1 3.1h2v2.2c-.1.37.57.68 2 .95a34.82 34.82 0 0 0 11.1-.1c1.63-.3 2.52-.63 2.65-1v-4.52l32.8-5.78-24.5-4.3-8.3 1.47v-2.92c.13-.4-.53-.72-2-.95a34.82 34.82 0 0 0-11.1.1c-1.63.27-2.52.6-2.65 1v1.8h-2c-2.07 0-3.1 1.03-3.1 3.1v1.55zm37.5-15.2a322.93 322.93 0 0 1 7.38-.33c.1.19.24.36.42.53.13.12.28.24.45.35.73.4 2.28.98 4.65 1.75.18.08.5.34.97.8l1.18 1.25c1.1 1.2 1.88 1.83 2.35 1.9.97.13 1.52-.23 1.65-1.1.07-.7-.47-1.72-1.6-3.05l-.7-.78c-.6-.64-1.27-1.26-2-1.84l.72-.03a693.92 693.92 0 0 1 15.08-.15 635.33 635.33 0 0 1 30 .68l5.45 15.07.2.45.5.65.4.3.4.2.2.05h.2l.7.3L249 250l.55.05.65-.05 12.82-2.22a4.88 4.88 0 0 0 2.33 1.27 5.3 5.3 0 0 0 6.1-2.75l13.05-2.25a6.64 6.64 0 0 0 2.55 6 7.63 7.63 0 0 0 3.38 1.7c-3.12 1.97-8.1 3.79-14.98 5.48-1.75.43-3.61.86-5.6 1.27-2.3.48-4.77.95-7.4 1.4-4.44.76-9.09 1.44-13.92 2.05a404.07 404.07 0 0 1-26.9 2.4c-11.29.67-23.38 1-36.28 1a610.93 610.93 0 0 1-38.85-1.15 389.04 389.04 0 0 1-28.25-2.77l-.25-.03a305.66 305.66 0 0 1-9.65-1.5c-8.09-1.4-14.64-2.9-19.65-4.52-5.55-1.8-9.22-3.72-11-5.78a4.56 4.56 0 0 1-1.25-3c0-1.3.7-2.57 2.05-3.78 2.83.67 5.68 1.06 8.55 1.18 1.63.03 3.28-.03 4.95-.2.8.6 1.55.73 2.25.4a3.02 3.02 0 0 1 2.1-.3c.67.2 1.2.65 1.6 1.35 2.07-.7 3.57-1.28 4.5-1.75 1.63-.77 2.6-1.82 2.9-3.15 1.23.1 2.05-.05 2.45-.45.37-.37.35-.83-.05-1.4a3.71 3.71 0 0 0-1.7-1.35 4.1 4.1 0 0 0-2.5-.3 3.77 3.77 0 0 0-2.15-2.2 303.14 303.14 0 0 1 23.6-3.68c6.92-.82 14.23-1.48 21.93-1.97 2.59-.17 5.23-.32 7.92-.45" fill="url(#D)"/><path d="M239.35 268.98a573.64 573.64 0 0 1-10.47.9l-5.18.35a610.3 610.3 0 0 1-38.35 1.12 614 614 0 0 1-35.55-.95 406.76 406.76 0 0 1-33.48-3.25c-2.72-.39-5.38-.8-7.97-1.25a171.07 171.07 0 0 1-16.45-3.55c-10.3-2.88-15.45-6.13-15.45-9.75 0-1.03.42-2.03 1.25-3 1.78 2.06 5.45 3.99 11 5.78 5.01 1.62 11.56 3.13 19.65 4.52l1.15.2c2.76.46 5.6.9 8.5 1.3l.25.03c8.76 1.2 18.18 2.13 28.25 2.77 1.46.1 2.94.2 4.43.28 10.75.6 22.22.88 34.42.87a616.63 616.63 0 0 0 42.47-1.4 600.84 600.84 0 0 0 10.83-.9 317.76 317.76 0 0 0 23.8-3.15c2.63-.45 5.1-.92 7.4-1.4 1.99-.41 3.85-.84 5.6-1.27 6.87-1.69 11.86-3.52 14.98-5.48.98.21 2.03.21 3.12 0 .18.3.43.67.75 1.07-.23 3.91-6.52 7.39-18.85 10.43a222.28 222.28 0 0 1-13 2.65 373.07 373.07 0 0 1-23.1 3.08" fill="url(#E)"/><path d="M262.1 246.4h-.25l-8.8-1.55H253l-.05-.05.05-.05h.05l8.88-1.53-.13.28a5.05 5.05 0 0 0 .3 2.9zm11.6-2.47l1.1.17.1.05h.05l-.1.1-1.78.3.63-.63zm-1 1l11.95-2.08-.15 1.1v.1l-13.05 2.25.05-.1.8-.85h.05l.1-.1.05-.1.02-.03.18-.2zm-45.55-1.78l29-5.05h.05l.7-.1.1.1v.15h.25l.05.05-28.9 5.05h-.1l-1.15-.2zm37.15-4.8l-.05.1-1.2-.2h-.25l-.4.05-.05-.1-.8-.2h-.3l-1.7.3-.05.05v.15l-.4-.1h-.3l-1.75.35v.15l-.45-.05h-.3l-1.7.35v.15l-.45-.1h-.2l-1.8.35v.15l-.4-.05h-.3l-1.7.35-.05.15-.4-.1h-.3l-1.75.35v.15l-.45-.05h-.3l-1.65.35-.05.15-.4-.1h-.25l-1.8.35v.15l-.4-.05h-.25l-1.8.35v.15l-.35-.05h-.05l-.05-.05h-.15l-.05.05h-.05l-1.75.3v.15l-.4-.05h-.3l-1.75.35v.15l-.4-.1h-.25l-1.8.35v.15l-.4-.05h-.25l-1.75.35-.05.15-.4-.1h-.25l-1.7.3-.05.1v.35l.8.1h.05l.05.05h.15v-.05h.05l.3-.05v.15l1.8.35h.1v-.05h.4v.1l.05.05 1.65.25h.25l.35-.05.05.2 1.65.3h.3l.35-.1v.2l1.75.3h.15l2.65-.45v.1l-1.15.25-.05.35.9.15h.05l.05.05.05-.05h.05l1.85-.3v-.15l.25.05h.25l1.8-.3v-.15l.3.05h.2l1.85-.3v-.15l.4.05h.3l1.65-.3h.05v-.15l.3.05h.4l2.2-.4h.05v-.2l.3.05.1.05h.2l9.2-1.6-.05.15-21.3 3.7-.9-.05-13.8-2.4-.15-.05.2-.1L261 237.9h.75l2.55.45zm-48.9-9.82l-1.75-4.88-4.7-13-.05-.5.05-.45.05-.2.3-.5.35-.2-.15.1-.15.15-.1.15-.1.2-.05.4v.25l.05.5L221 243.5l.55.9.35.35.2.15.35.15v-.95l.05.05.1.05.15.05 26.55 4.55 1.7-.1 11.27-1.95c.08.15.18.3.28.45.15.2.3.4.47.58L250.2 250l-.65.05-.55-.05-25.55-4.45-.7-.3h-.2l-.2-.05-.4-.2-.4-.3-.5-.65-.2-.45-5.45-15.07" fill="#81C3E0"/><path d="M250.4 243.45h-.25l-1.7-.3.05-.05 1.65-.25h.05l.05-.05h.05l.05.05h.05l1.7.3-1.7.3zm1.9.6l-2.2.35-.15.05-2.2-.35.05-.05h.05l2.3-.4.55.05 1.65.35h-.05zm3.25-2.1l.15-.1 1.55-.25h.25l1.7.35-1.7.3h-.25l-1.7-.3zm.5-.95h.3l1.65.35-1.65.3-1.95-.3 1.65-.35zm-8.1.65l.15-.1 1.5-.25h.3l1.65.35-1.7.3h-.3l-1.55-.3h-.05zm1.05.6l.05-.05h.15l.05.05h.05l1.65.3-1.7.3H249l-1.7-.3 1.65-.3h.05zm2.95-1.35h.3l1.7.35-1.7.3H252l-1.7-.3.2-.1 1.45-.25zm-.6.9h.3l1.65.35-1.7.3h-.25l-1.7-.3 1.7-.35zm2.3.25l-1.55-.3h-.1l1.7-.35h.3l1.65.35h-.05l-1.55.3a.8.8 0 0 1-.4 0zm-1.1.35h.2l1.75.35-1.75.3h-.2l-1.7-.3.15-.05 1.55-.3zm.65-.05l.15-.1 1.55-.25h.2l1.7.35-1.7.3h-.2l-1.7-.3zm-.45-1.7l-1.85.3-1.65-.3h-.05l1.65-.35h.3l1.65.35h-.05zm3.1-1.2l1.75.35-1.75.3h-.25l-1.7-.3 1.7-.35h.25zm-8.7 4.7h.25l1.95.35.05.05-1.7.3h-.3l-1.95-.35 1.7-.35zm-1.05-.55l.15-.1 1.65-.25h.15l1.7.35-1.7.3h-.25l-1.7-.3zm-.55.05h.1l1.75.35-1.7.3h-.25l-1.75-.3.2-.1 1.65-.25zm-1.45 1.45l.05-.05 1.25-.25.45-.05h.3l.8.2-1.8.3h-.2l-.85-.15zm2.05-1.7l-1.65.3h-.2l-1.75-.3 1.7-.35h.3l1.65.3-.05.05zm.75-.15h-.25L245 243l-.05-.05 1.65-.35h.3l1.65.35-1.65.3zm-5.45.95l-1.55.3h-.45l-1.55-.3h-.05l1.7-.35h.3l1.65.35h-.05zm-.05.2l.15-.1 1.45-.25h.3l1.7.35-1.7.3h-.2l-1.7-.3zm-.65.05h.2l1.75.35-4.7.8h-.05l-.05.05h-.05l-.05-.05h-.05l-1.7-.25 4.7-.9zm2.5.6l.25.1h.3l.25.05.6.15-1.8.3h-.25l-.85-.2h-.25l-.85-.15 1.75-.35h.3l.5.1h.05zm-1.1-1.8l-1.75.35h-.2l-1.7-.3.15-.1 1.5-.25h.3l1.65.3h.05zm4.75-2.2h-.1l1.7-.35h.3l1.65.3h.05v.05l-1.65.3h-.4l-1.55-.3zm-.75.05h.25l1.65.3h.05v.05l-1.65.3h-.3l-1.7-.3 1.7-.35zm-7.1 1.25h.25l1.7.35-1.7.3h-.25l-1.7-.3 1.7-.35zm2.85 1.1h.3l1.7.35-1.75.3h-.25l-1.65-.3h-.05l1.7-.35zm3.65-1.4l1.7-.35h.3l1.65.35-.05.05-1.55.25h-.4l-1.55-.25-.1-.05zm-1.8.1l-1.7-.3h.05l.05-.05 1.65-.25h.05v-.05h.1l.05.05 1.7.25.05.05-1.7.3h-.3zm-.35.1v.05l-1.75.25h-.2l-1.75-.25v-.05l.1-.05 1.65-.25h.2l1.75.3zm-.85.3l.05-.05h.15l.05.05 1.7.3-.05.05-1.55.25h-.15l-.05.05h-.05l-.05-.05h-.15l-1.55-.25-.05-.05.2-.05 1.5-.25zm.65-.1l.2-.05 1.5-.25h.3l1.65.3-.05.05-1.55.25h-.35l-1.65-.25-.05-.05zm19.13-.15l-9.38 1.65h-.2l-.1-.05-1.95-.35 11.15-1.95h.3l.48.1-.3.6zm.35-.73l-.13-.02.15-.03-.02.05zm.3-.67l-.18.4-.55.1h-.3l-1.7-.3.15-.05 1.65-.3h.15l.78.15zm.17-.3l-.1.18-.45-.08.55-.1zm.43-.82c-.12.2-.23.41-.33.62h-.2l-1.6-.3 1.7-.35h.3l.13.03zm-.23-.18l-1.65.3h-.3l-1.7-.3.25-.1 1.5-.25h.2l1.65.3.05.05zm.38-.13l-1.63-.27.2-.1 1.77-.3-.34.67zm8.77 5.68l-.05.1-.1.1h-.05l.2-.2zm-61.35-34.25l10.95 30.4 36.5-6.35-10.95-30.4-36.5 6.35zm25.1 32.55l.05.05-1.7.3h-.25l-1.65-.25-.1-.05 1.7-.35h.3l1.65.3zm.7-.05h-.25l-1.7-.3 1.65-.35h.3l1.7.35-1.7.3zm-.75.3h-.1l.2-.1 1.5-.25h.3l1.7.35-1.75.3h-.2l-1.65-.3zm-.75.05h.3l1.65.35h-.05l-1.65.3h-.25l-1.65-.3h-.05l1.7-.35zm.25 1.45h-.3l-1.65-.3 3.45-.65h.25l1.7.35-3.45.6zm-2.35-.4h-.25l-1.7-.3 1.7-.35h.25l1.7.35-1.7.3zm30.9-6.35l-.13.25-1.17.2h-.25l-1.7-.3.1-.1 1.3-.2.4-.05h.25l1.2.2zm-1.9-.25h-.05l-1.7.3h-.25l-.85-.15.05-.05 1.7-.3h.3l.8.2zm-1.75 1.1h-.3l-1.65-.3 1.7-.35h.25l1.65.3h.05v.05l-1.7.3zm-2.5-.25h.1l1.7.35-1.7.3h-.2l-1.75-.3 1.85-.35zm1.3 1.25h-.4l-1.55-.25-.05-.05 1.65-.35h.3l1.65.35-.05.05-1.55.25zm-.25.25l-.05-.05 1.7-.35h.3l1.65.35-1.7.3h-.35l-1.55-.25zm-.75.05h.3l1.7.3-1.6.3h-.35l-1.65-.25-.05-.05 1.65-.3zm.25-.25l.05.05-.1.05-1.65.25h-.2l-1.65-.25-.1-.05.2-.05 1.5-.25h.05v-.05h.15l.05.05h.05l1.65.25zm-.75 1.2l.15-.1 1.65-.25h.05l1.8.3v.05l-1.7.3h-.25l-1.7-.3zm-.85-2.8l1.75-.35h.3l.4.1.35.05.1.05-1.8.3h-.25l-.85-.15zm0 .15l.45.1v.05l-1.8.3h-.25l-.8-.15h-.05l1.7-.35h.3l.45.05zm-2.45.45l.4.1-1.7.3h-.3l-.85-.15 1.8-.35h.2l.45.1zm-.25 1.15h.3l1.7.3-1.75.3h-.05l-.05.05h-.05l-.05-.05h-.05l-1.7-.3.2-.05 1.5-.25zm-1.15-.6h.3l1.7.35-1.7.3h-.25l-1.7-.3 1.65-.35zm-3.45.15l1.7-.35h.3l.4.05.4.15h-.05l-1.65.3h-.3l-.8-.15zm-2.5.4l1.75-.35h.3l.4.1.4.1-1.75.35h-.25l-.85-.2zm0 .15l.35.05.05.1-1.75.3h-.2l-.85-.15 1.65-.35h.3l.45.05zm-4.9.7l1.8-.35h.25l.4.1.4.1-1.65.3h-.3l-.8-.1-.1-.05zm-2.45.45l1.8-.35h.25l.4.05.45.1-1.75.35h-.3l-.85-.15zm-2.45.4l1.75-.3h.05l.05-.05h.15l.05.05h.05l.35.05.4.1-.05.05-1.7.3h-.2l-.9-.2zm-2.45.45l1.75-.35h.3l.4.05.4.05.05.05v.05l-1.8.3h-.2l-.9-.15zm-2.45.4l1.8-.35h.25l.4.1.4.05h.05v.05l-1.8.3h-.2l-.8-.1-.1-.05zm-.55.6h.2l1.65.35-2.8.45h-.15l-1.8-.3 2.9-.5zm-1.85-.15l1.75-.35h.25l.4.05.45.1v.05l-1.75.3h-.3l-.8-.15zm-2.45.45l.05-.1 1.7-.3h.25l.4.1.45.1-.05.05-1.7.25h-.05v.05h-.15l-.05-.05h-.05l-.8-.1zm11.75 2l1.15-.25.6-.1h.3l.75.15h.05v.05l-1.8.3h-.2l-.85-.15zm14.3-29.68l6 16.68 1.4 3.9.05.5-4.3.7-.7.1h-.05l-29 5.05h-.05l-4.5.8-.15.15v.95l-.35-.15-.2-.15-.35-.35-.55-.9-11.85-32.95-.05-.5v-.25l.05-.4.1-.2.1-.15.15-.15.15-.1.35-.15 1.32-.22 4.88-.86 8.28-1.42 2.95-.53 18.44-3.2 1.28-.22h.4l.4.15.4.25.4.35.3.4.25.5 2.92 8.15 1.53 4.22" fill="#E4F4F8"/><path d="M277.88 239.95l6.97 1.2-.2 1.7-11.95 2.08.38-.38 1.77-.3.1-.1h-.05l-.1-.05-1.1-.17a124.2 124.2 0 0 1 4.18-3.98zm-15.78 2.9l-.18.38-8.87 1.52H253l-.05.05.05.05h.05l8.8 1.55h.25c.05.12.1.23.17.35L251 248.7l-1.7.1-26.55-4.55-.15-.05-.1-.05-.05-.05.15-.15 4.5-.8h.05l1.15.2h.1l28.9-5.05-.05-.05H257v-.15l-.1-.1 4.3-.7c.57-.1 1.13-.08 1.7.05l1.78.3-.38.7-2.55-.45H261l-34.85 6.05-.2.1.15.05 13.8 2.4.9.05 21.3-3.7" fill="#BBE0ED"/><path d="M250.4 243.45l1.7-.3-1.7-.3h-.05l-.05-.05h-.05l-.05.05h-.05l-1.65.25-.05.05 1.7.3h.25zm1.9.6h.05l-1.65-.35-.55-.05-2.3.4h-.05l-.05.05 2.2.35.15-.05 2.2-.35zm-.95-2.25l-1.7.35 1.7.3h.25l1.7-.3-1.65-.35h-.3zm.6-.9l-1.45.25-.2.1 1.7.3h.25l1.7-.3-1.7-.35h-.3zm-2.95 1.35h-.05l-1.65.3 1.7.3h.25l1.7-.3-1.65-.3h-.05l-.05-.05h-.15l-.05.05zm-1.05-.6h.05l1.55.3h.3l1.7-.3-1.65-.35h-.3l-1.5.25-.15.1zm8.1-.65l-1.65.35 1.95.3 1.65-.3-1.65-.35h-.3zm-.5.95l1.7.3h.25l1.7-.3-1.7-.35h-.25l-1.55.25-.15.1zm-1.9.1c.17.03.3.03.4 0l1.55-.3h.05l-1.65-.35h-.3l-1.7.35h.1l1.55.3zm-.45.3l1.7.3h.2l1.7-.3-1.7-.35h-.2l-1.55.25-.15.1zm-.65.05l-1.55.3-.15.05 1.7.3h.2l1.75-.3-1.75-.35h-.2zm.2-1.75h.05l-1.65-.35h-.3l-1.65.35h.05l1.65.3 1.85-.3zm3.1-1.2h-.25l-1.7.35 1.7.3h.25l1.75-.3-1.75-.35zm-9.75 4.15l1.7.3h.25l1.7-.3-1.7-.35h-.15l-1.65.25-.15.1zm1.05.55l-1.7.35 1.95.35h.3l1.7-.3-.05-.05-1.95-.35h-.25zm-1.6-.5l-1.65.25-.2.1 1.75.3h.25l1.7-.3-1.75-.35h-.1zm.6-.25l.05-.05-1.65-.3h-.3l-1.7.35 1.75.3h.2l1.65-.3zm.75-.15l1.65-.3-1.65-.35h-.3l-1.65.35.05.05 1.65.25h.25zm-5.45.95h.05l-1.65-.35h-.3l-1.7.35h.05l1.55.3h.45l1.55-.3zm-.05.2l1.7.3h.2l1.7-.3-1.7-.35h-.3l-1.45.25-.15.1zm1.85.65h-.05l-.5-.1h-.3l-1.75.35.85.15h.25l.85.2h.25l1.8-.3-.6-.15.05-.1.85.15h.2l1.8-.3-.8-.2h-.3l-.45.05v-.15l-.35-.1v.2l-1.75.3h-.05zm-2.5-.6l-4.7.9 1.7.25h.05l.05.05h.05l.05-.05h.05l4.7-.8-1.75-.35h-.2zm1.4-1.2h-.05l-1.65-.3h-.3l-1.5.25-.15.1 1.7.3h.2l1.75-.35zm-.25.2l-1.7.35h.05l1.65.3h.25l1.75-.3-1.7-.35h-.3zm-2.85-1.1l-1.7.35 1.7.3h.25l1.7-.3-1.7-.35h-.25zm7.1-1.25l-1.7.35 1.7.3h.3l1.65-.3v-.05h-.05l-1.65-.3h-.25zm.75-.05l1.55.3h.4l1.65-.3V241h-.05l-1.65-.3h-.3l-1.7.35h.1zm-1.35 1l.1.05 1.55.25h.4l1.55-.25.05-.05-1.65-.35h-.3l-1.7.35zm-1.8.1h.3l1.7-.3-.05-.05-1.7-.25-.05-.05h-.1v.05h-.05l-1.65.25-.05.05h-.05l1.7.3zm-1.2.4l-1.5.25-.2.05.05.05 1.55.25h.15l.05.05h.05l.05-.05h.15l1.55-.25.05-.05-1.7-.3-.05-.05h-.15l-.05.05zm.85-.3l-1.75-.3h-.2l-1.65.25-.1.05v.05l1.75.25h.2l1.75-.25v-.05zm-.2.2l.05.05 1.65.25h.35l1.55-.25.05-.05-1.65-.3h-.3l-1.5.25-.2.05zm20.15-2.85l-.05-.05-1.65-.3h-.2l-1.5.25-.25.1 1.7.3h.3l1.65-.3zm-30 5.2l1.7-.3-1.7-.35h-.25l-1.7.35 1.7.3h.25zm2.35.4l3.45-.6-1.7-.35h-.25l-3.45.65 1.65.3h.3zm-.25-1.45l-1.7.35h.05l1.65.3h.25l1.65-.3h.05l-1.65-.35h-.3zm.75-.05l1.65.3h.2l1.75-.3-1.7-.35h-.3l-1.5.25-.2.1h.1zm.75-.3l1.7-.3-1.7-.35h-.3l-1.65.35 1.7.3h.25zm-.7.05l-1.65-.3h-.3l-1.7.35.1.05 1.65.25h.25l1.7-.3-.05-.05zm21.65-1.9l1.7.3h.25l1.7-.3v-.05l-1.8-.3h-.05l-1.65.25-.15.1zm.75-1.2l-1.65-.25h-.05l-.05-.05h-.15v.05h-.05l-1.5.25-.2.05.1.05 1.65.25h.2l1.65-.25.1-.05-.05-.05zm-.25.25l-1.65.3.05.05 1.65.25h.35l1.6-.3-1.7-.3h-.3zm.75-.05l1.55.25h.35l1.7-.3-1.65-.35h-.3l-1.7.35.05.05zm.25-.25l1.55-.25.05-.05-1.65-.35h-.3l-1.65.35.05.05 1.55.25h.4zm-1.3-1.25l-1.85.35 1.75.3h.2l1.7-.3-1.7-.35h-.1zm2.5.25l1.7-.3v-.05h-.05l-1.65-.3h-.25l-1.7.35 1.65.3h.3zm-7.4.6l-1.65.35 1.7.3h.25l1.7-.3-1.7-.35h-.3zm1.15.6l-1.5.25-.2.05 1.7.3h.05l.05.05h.05l.05-.05h.05l1.75-.3-1.7-.3h-.3zM232 243.6l-2.9.5 1.8.3h.15l2.8-.45-1.65-.35h-.2zm30.15-.9l-9.2 1.6h-.2l-.1-.05-.3-.05v.2h-.05l-2.2.4h-.4l-.3-.05v.15h-.05l-1.65.3h-.3l-.4-.05v.15l-1.85.3h-.2l-.3-.05v.15l-1.8.3h-.25l-.25-.05v.15l-1.85.3h-.05l-.05.05-.05-.05h-.05l-.9-.15.05-.35.85.15h.2l1.8-.3v-.05h-.05l-.75-.15h-.3l-.6.1v-.1l-2.65.45h-.15l-1.75-.3v-.2l-.35.1h-.3l-1.65-.3-.05-.2-.35.05h-.25l-1.65-.25-.05-.05v-.1h-.4v.05h-.1l-1.8-.35v-.15l-.3.05h-.05v.05h-.15l-.05-.05h-.05l-.8-.1v-.35l.8.1h.05l.05.05h.15V244h.05l1.7-.25.05-.05-.45-.1.05-.15.8.15h.3l1.75-.3v-.05l-.45-.1V243l.1.05.8.1h.2l1.8-.3v-.05h-.05l-.4-.05v-.15l.9.15h.2l1.8-.3v-.05l-.05-.05-.4-.05v-.15l.9.2h.2l1.7-.3.05-.05-.4-.1v-.15l.85.15h.3l1.75-.35-.45-.1v-.15l.1.05.8.1h.3l1.65-.3-.4-.1.05-.15.85.15h.2l1.75-.3-.05-.1-.35-.05v-.15l.85.2h.25l1.75-.35-.4-.1.05-.15.8.15h.3l1.65-.3h.05l-.4-.15v-.15l.85.15h.3l1.7-.3-.4-.1v-.15h.05l.8.15h.25l1.8-.3V239l-.45-.1v-.15l.85.15h.25l1.8-.3-.1-.05-.35-.05v-.15l.85.15h.25l1.7-.3h.05l.05.1-1.3.2-.1.1 1.7.3h.25l1.18-.2-.06.1-1.77.3-.2.1 1.63.28-.16.3-.12-.03h-.3l-1.7.35 1.6.3h.2l-.1.2-.55.1.45.08-.07.12-.78-.15h-.15l-1.65.3-.15.05 1.7.3h.3l.55-.1-.1.22-.15.03.13.02-.06.13-.47-.1h-.3l-11.15 1.95 1.95.35.1.05h.2l9.38-1.65a9.1 9.1 0 0 1-.18.4" fill="#63A5C5"/><path d="M242.5 224.3l6.9-.95.4 1.05-6.9.95-.4-1.05zm-.5 5.1l-4.25.7-4-10.55 4.25-.7 4 10.55zm9.7-1.7l-7.5 1-.4-1.1 7.5-1 .4 1.1zm-3.5-1.35l-4.65.65-.4-1.05 4.65-.65.4 1.05zm-6.35-3.7l8.3-1.15.45 1.05-8.3 1.15-.45-1.05zm-30.7-11.75l36.5-6.35 10.95 30.4-36.5 6.35-10.95-30.4zm13.25 24.3l29.25-5.15-7.9-20.55-29.25 5.15 7.9 20.55zm-1.95-13.3l4.25-.7 4 10.55-4.25.7-4-10.55zm4.6-3.95l4.2-.7 5.05 13.15-4.2.7-5.05-13.15zm-104.6 28.5l-2.45-.42v-2.75l2.45-.43v3.6zm-5.1-.9l-5.15-.9 5.15-.9v1.8zm20.85-5.48l8.3-1.47 24.5 4.3-32.8 5.78v-8.6" fill="#308FC2"/><path d="M244.1 245.1l-.05.1-.25-.05h-.3l-.25-.1h.05l1.75-.3v-.2l.35.1v.15l-1.25.25-.05.05" fill="#7FC9C9"/><path d="M87.05 244a45.23 45.23 0 0 1-9.85-1.5c-4-1-6.33-3.23-7-6.7-.67-3.47-.67-6.45 0-8.95a84.91 84.91 0 0 1 2.05-7c.7-2.17 1.47-4.4 2.3-6.7.8-2.33 1.3-3.87 1.5-4.6 1.27-4.17 2.65-8.23 4.15-12.2a18.68 18.68 0 0 1 5.8-8.25h.35c1.66.04 3.16.34 4.5.9a16.2 16.2 0 0 1 4.4 3.1 12.53 12.53 0 0 1 3.3 4.75c.37 1.03.65 1.93.85 2.7-1.9-1.77-4.87-1.75-8.9.05-2.1.93-3.72 2.45-4.85 4.55a23 23 0 0 0-1.8 5.1 393.43 393.43 0 0 1-2.8 9.4c-1.73 6.07-2.6 9.68-2.6 10.85 0 1.43.72 3.07 2.15 4.9a10.23 10.23 0 0 0 5.75 3.75c.03-.13.08-.27.15-.4a8.32 8.32 0 0 0-.35 2.4l.55 3.05c.1.27.22.53.35.8" fill="url(#F)"/><path d="M85.95 226.88l-1.45 3.67a10.09 10.09 0 0 0 5.75 3.35 6.73 6.73 0 0 0-2.6 1.8l-1.15 2.05c-.07.13-.12.27-.15.4a10.23 10.23 0 0 1-5.75-3.75c-1.43-1.83-2.15-3.47-2.15-4.9 0-1.17.87-4.78 2.6-10.85l.75-2.45c1.31-4.38 2-6.7 2.05-6.95a23 23 0 0 1 1.8-5.1 10.03 10.03 0 0 1 4.85-4.55c4.03-1.8 7-1.82 8.9-.05.07.23.12.45.15.65l.15.6v.05c.27 1.67.18 3.22-.25 4.65a9.1 9.1 0 0 1-1.85 3.25c-.47.47-1.03.87-1.7 1.2-.43.2-.9.35-1.4.45-2.53.57-4.1 2.22-4.7 4.95a53.93 53.93 0 0 1-2.05 6.85l-1.8 4.68" fill="url(#G)"/><path d="M274.8 301.88l-3.98-.7-2.5-.43-3.37-.6c-3.37-.6-5.18-1.3-5.45-2.1a.79.79 0 0 1 0-.4v-5.05c.27.8 2.08 1.5 5.45 2.1l24.85 4.4c3.4.6 7.35.92 11.85.95 4.5.07 8.25-.18 11.25-.75l22-3.85c2.63-.47 4-1.03 4.1-1.7V299c.1.73-1.27 1.37-4.1 1.9l-.22.05-21.78 3.8c-3 .53-6.75.77-11.25.7-4.5-.03-8.45-.35-11.85-.95l-1.43-.25-5.82-1.02-7.75-1.36" fill="url(#H)"/><path d="M339 293.75c-.1.67-1.47 1.23-4.1 1.7l-22 3.85c-3 .57-6.75.82-11.25.75-4.5-.03-8.45-.35-11.85-.95l-24.85-4.4c-3.37-.6-5.18-1.3-5.45-2.1-.27-.77 1.1-1.43 4.1-2l.35-.05 7.03-1.23c.24.62.53 1.23.87 1.83l1.6.5c1.53.37 3.85.95 6.95 1.75l6.95 1.75 5.95 1.6c2.4.6 4.45 1 6.15 1.2 1.27.13 2.48.17 3.65.1 1-.1 1.95-.25 2.85-.45l11.1-1.85c.13 0 .28-.02.45-.05l.5-.1c.57-.1 1.12-.25 1.65-.45a10.96 10.96 0 0 0 6.2-5.13l7.6 1.33c3.4.6 5.23 1.32 5.5 2.15.03.1.05.18.05.25" fill="url(#I)"/><path d="M307.8 224.93a150.06 150.06 0 0 1 1.85 10.38c.2 1.42.82 2.49 1.85 3.19.5.37 1.05.4 1.65.1l.05-.1c.13-2.03.18-4.1.15-6.2.03-2 .02-3.98-.05-5.95l-.2-6.5-.23-4.92c1.05.53 2.01 1.37 2.88 2.52a15.14 15.14 0 0 1 2.65 5.58v.02a4.74 4.74 0 0 1 .45 2.05v2.1a60.57 60.57 0 0 0 .17 6.6 99.09 99.09 0 0 0 2.38 14.4 338.25 338.25 0 0 0 2.6 10.3c1.17 4.4 2.02 7.83 2.55 10.3a13.28 13.28 0 0 1-3.4 2.6c-1.1.57-2.43 1.12-4 1.65-3.63.3-7.35-.33-11.15-1.9-1.07-.47-2.15-1-3.25-1.6.8-2.23 1.6-4.87 2.4-7.9 0-4.43-2.45-9.03-7.35-13.8a95.64 95.64 0 0 0-5.15-4.4c-1.53-1.27-2.3-2.03-2.3-2.3 0-.83.62-2.17 1.85-4 .85-1.26 1.4-2.58 1.68-3.95.11-.62.17-1.26.17-1.9 0-2.9-.38-5.27-1.13-7.13a8.99 8.99 0 0 0-1.37-2.32 5.63 5.63 0 0 0-4.6-2.15l-.35-.35.85-.75c1.63-1.53 2.83-2.45 3.6-2.75.94-.31 1.93-.62 2.95-.92.94-.27 1.9-.53 2.9-.78a62.8 62.8 0 0 1 1.65 5.4c.43 6.27.72 9.97.85 11.1.7 5.3 1.83 7.95 3.4 7.95.73 0 1.32-.15 1.75-.45l.6-.45c.13.23.2-.25.2-1.45 0-.47.04-1.42.13-2.85.08-1.39.2-3.22.37-5.5.05-.62.03-1.62-.05-2.97" fill="url(#J)"/><path d="M288.93 213.1c-.2.13-.37.27-.53.4.13-.15.26-.3.4-.43l.13.03zm-166.48 28.65h-2c-.3 0-.45.15-.45.45v5.85c0 .27.15.4.45.4h2v2.7h-2c-2.07 0-3.1-1.03-3.1-3.1v-5.85c0-2.07 1.03-3.1 3.1-3.1h2v2.65" fill="#D92B32"/><path d="M307.8 224.93c.08 1.35.1 2.35.05 2.97a584.5 584.5 0 0 0-.38 5.5 61.64 61.64 0 0 0-.12 2.85c0 1.2-.07 1.68-.2 1.45l-.6.45c-.43.3-1.02.45-1.75.45-1.57 0-2.7-2.65-3.4-7.95-.13-1.13-.42-4.83-.85-11.1 0-.23-.55-2.03-1.65-5.4-.03-.2-.08-.38-.15-.55l.3.2 2.4 1c.17.03.33.05.5.05l.55.1c.13 0 .25.02.35.05l2.55-.1c.51 2 1 4 1.45 6 .34 1.33.65 2.67.95 4.03zm-3.05 44.62a56.46 56.46 0 0 1-6.5-4.35c2.63-1.9 2.95-4.2.95-6.9-.5-.6-1.5-1.72-3-3.35-.8-.82-1.43-1.52-1.9-2.13-.32-.4-.57-.76-.75-1.07-1.1.21-2.14.21-3.13 0a7.63 7.63 0 0 1-3.37-1.7 6.64 6.64 0 0 1-2.55-6v-.1l.15-1.1.2-1.7a105.04 105.04 0 0 0 .55-6.55c1.97.3 3.52.18 4.65-.35 1.47-.7 2.43-2.08 2.9-4.15.43-2.03.08-4.18-1.05-6.45l-.05-.05-.05-.1-2.6-3.55-.15-.15-.15-.1h.05a5.63 5.63 0 0 1 4.6 2.15c.54.65 1 1.43 1.38 2.33.75 1.85 1.12 4.22 1.12 7.12 0 .64-.06 1.28-.18 1.9a10.71 10.71 0 0 1-1.67 3.95c-1.23 1.83-1.85 3.17-1.85 4 0 .27.77 1.03 2.3 2.3a95.64 95.64 0 0 1 5.15 4.4c4.9 4.77 7.35 9.37 7.35 13.8-.8 3.03-1.6 5.67-2.4 7.9" fill="url(#K)"/><path d="M298.7 186.85c.2.03.4.1.6.2l.25.1 1 .55 1.45.8h-.05c-.7-.3-1.44-.4-2.2-.3-.3.7-.3 1.4 0 2.1a31.67 31.67 0 0 1 2 5.7 18.93 18.93 0 0 1-2.2-1.2c-.2-.17-.42-.33-.65-.5l-.75-.65-.13-.1a7.63 7.63 0 0 1-.37-.35h-.05c-.43-.43-.75-.9-.95-1.4a3.38 3.38 0 0 1-.5-1.65 5.44 5.44 0 0 1 .05-1.65l.05-.2.1-.35.05-.2c.07-.1.12-.2.15-.3l.1-.2c.17-.2.37-.35.6-.45.2-.07.45-.08.75-.05a3.05 3.05 0 0 1 .7.1" fill="url(#L)"/><path d="M134.65 237.15c.03-.2-.33-.37-1.1-.5-.8-.17-1.78-.23-2.95-.2-1.2 0-2.23.08-3.1.25-.9.17-1.38.35-1.45.55-.07.2.3.37 1.1.5.77.17 1.75.23 2.95.2 1.17 0 2.2-.08 3.1-.25.87-.17 1.35-.35 1.45-.55zm3.55 0c-.13.37-1.02.7-2.65 1-1.63.3-3.53.45-5.7.45-2.17.03-3.97-.08-5.4-.35-1.2-.23-1.87-.5-2-.8v-.15c.13-.4 1.02-.73 2.65-1a34.82 34.82 0 0 1 11.1-.1c1.47.23 2.13.55 2 .95" fill="#F5C098"/><path d="M138.2 248.68v4.52c-.13.37-1.02.7-2.65 1a34.82 34.82 0 0 1-11.1.1c-1.43-.27-2.1-.58-2-.95v-15.9c.13.3.8.57 2 .8 1.43.27 3.23.38 5.4.35 2.17 0 4.07-.15 5.7-.45 1.63-.3 2.52-.63 2.65-1v11.53" fill="url(#M)"/><path d="M134.65 237.15c-.1.2-.58.38-1.45.55-.9.17-1.93.25-3.1.25-1.2.03-2.18-.03-2.95-.2-.8-.13-1.17-.3-1.1-.5.07-.2.55-.38 1.45-.55.87-.17 1.9-.25 3.1-.25 1.17-.03 2.15.03 2.95.2.77.13 1.13.3 1.1.5" fill="#852124"/><path d="M81.25 325.05l-10.75-1.8 7.95-1.45 2.85-.55 10.85 1.85-10.85 1.95h-.05zm-54.8 9.9l-10.75-1.9 10.8-1.85 2.9.5v2.75l-2.9.5h-.05" fill="#CCE9EC"/><path d="M56.8 319.1v41.4l-2.95.5v-41.4l2.95-.5zm38.15 49.2V336l10.9-1.9v13.75l-7.95 1.45v18.5l-2.95.5zm-16.5-46.5l-7.95 1.45V363l-2.95.5v-47.35l10.4-1.8.5-.1v7.55" fill="#D23140"/><path d="M105.85 334.1l-10.9 1.9-10.75-1.8 7.95-1.45 2.85-.55 10.85 1.9zM56.8 316.4v2.7l-2.95.5-10.75-1.8 10.8-1.9 2.9.5zm0-2.15l10.75-1.9 10.85 1.9-.45.1-10.4 1.8-10.75-1.9" fill="#E57680"/><path d="M29.4 334.45v21.2l-2.95.5v-21.2h.05l2.9-.5zm62.75-1.7l-7.95 1.45v31.15l-2.95.4v-40.7h.05l10.85-1.95v9.65" fill="#3FA4A5"/><path d="M43.1 324.75v33.35l-2.95.55v-33.4l2.95-.5zm320.3 28.4v-15.9l15.65-2.75v15.9l-15.65 2.75zm-243.85 11.7v3.9l-10.9 1.8.1-19.45 10.8-1.8v15.55" fill="#EC9446"/><path d="M143.18 36.17l-7.8 3.98c-3.6 1.87-4.48 4.6-2.65 8.2l2.75 5.4-7.3 3.7c-3.16 1.63-5.55.86-7.15-2.3l-8-15.75c-1.63-3.17-.86-5.57 2.3-7.2l15.75-8c3.17-1.6 5.57-.82 7.2 2.35l4.9 9.62zm1.5 2.95l1.6 3.18c1.6 3.17.82 5.55-2.35 7.15l-5.5 2.8-2.75-5.4c-.83-1.63-.43-2.88 1.2-3.75l7.8-3.98" fill="url(#N)"/><path d="M144.68 39.12l-7.8 3.98c-1.63.87-2.03 2.12-1.2 3.75l2.75 5.4 3.9 7.65c.87 1.66 2.12 2.07 3.75 1.2l13.05-6.65c1.67-.84 2.07-2.09 1.2-3.75l-6.65-13.05c-.83-1.63-2.08-2.03-3.75-1.2l-5.25 2.67zm-1.5-2.95l5.25-2.67c3.64-1.84 6.37-.95 8.2 2.65l6.65 13.05c1.87 3.63.99 6.36-2.65 8.2l-13.05 6.65c-3.6 1.87-6.33.98-8.2-2.65l-3.9-7.65-2.75-5.4c-1.83-3.6-.95-6.34 2.65-8.2l7.8-3.98" fill="#E1F0F5"/></svg>