<?xml version="1.0" encoding="UTF-8" standalone="no"?>
<svg
   xmlns:dc="http://purl.org/dc/elements/1.1/"
   xmlns:cc="http://creativecommons.org/ns#"
   xmlns:rdf="http://www.w3.org/1999/02/22-rdf-syntax-ns#"
   xmlns:svg="http://www.w3.org/2000/svg"
   xmlns="http://www.w3.org/2000/svg"
   viewBox="0 0 342.25333 112.21333"
   height="112.21333"
   width="342.25333"
   xml:space="preserve"
   id="svg2"
   version="1.1"><metadata
     id="metadata8"><rdf:RDF><cc:Work
         rdf:about=""><dc:format>image/svg+xml</dc:format><dc:type
           rdf:resource="http://purl.org/dc/dcmitype/StillImage" /></cc:Work></rdf:RDF></metadata><defs
     id="defs6" /><g
     transform="matrix(1.3333333,0,0,-1.3333333,0,112.21333)"
     id="g10"><g
       transform="scale(0.1)"
       id="g12"><path
         id="path14"
         style="fill:#5b7ac6;fill-opacity:1;fill-rule:nonzero;stroke:none"
         d="M 631.09,544.406 H 331.566 V 455.527 H 543.992 C 533.5,330.891 429.805,277.738 331.926,277.738 c -125.227,0 -234.5002,98.532 -234.5002,236.629 0,134.531 104.1682,238.137 234.7772,238.137 100.766,0 160.145,-64.238 160.145,-64.238 l 62.23,64.445 c 0,0 -79.875,88.926 -225.558,88.926 C 143.512,841.637 0,685.07 0,515.953 0,350.242 134.996,188.656 333.75,188.656 c 174.805,0 302.762,119.746 302.762,296.824 0,37.36 -5.426,58.95 -5.426,58.95 l 0.004,-0.024" /><path
         id="path16"
         style="fill:#dd2634;fill-opacity:1;fill-rule:nonzero;stroke:none"
         d="m 877.672,526.34 c 60.437,0 117.711,-48.863 117.711,-127.602 0,-77.066 -57.028,-127.32 -117.988,-127.32 -66.981,0 -119.825,53.645 -119.825,127.934 0,72.695 52.188,126.988 120.102,126.988 z m -1.223,82.433 c -122.902,0 -210.98,-96.082 -210.98,-208.144 0,-113.723 85.429,-211.594 212.426,-211.594 114.96,0 209.145,87.871 209.145,209.149 0,139.004 -109.556,210.589 -210.591,210.589 v 0" /><path
         id="path18"
         style="fill:#f0bf0b;fill-opacity:1;fill-rule:nonzero;stroke:none"
         d="m 1336.53,526.34 c 60.44,0 117.71,-48.863 117.71,-127.602 0,-77.066 -57.03,-127.32 -117.99,-127.32 -66.98,0 -119.82,53.645 -119.82,127.934 0,72.695 52.18,126.988 120.1,126.988 z m -1.22,82.433 c -122.91,0 -210.99,-96.082 -210.99,-208.144 0,-113.723 85.44,-211.594 212.43,-211.594 114.96,0 209.15,87.871 209.15,209.149 0,139.004 -109.56,210.589 -210.59,210.589 v 0" /><path
         id="path20"
         style="fill:#5b7ac6;fill-opacity:1;fill-rule:nonzero;stroke:none"
         d="m 1793.54,526.285 c 55.31,0 112.1,-47.226 112.1,-127.879 0,-81.976 -56.67,-127.152 -113.32,-127.152 -60.14,0 -116.1,48.832 -116.1,126.375 0,80.574 58.11,128.656 117.32,128.656 z m -8.17,82.27 c -112.81,0 -201.48,-98.805 -201.48,-209.703 0,-126.325 102.8,-210.094 199.54,-210.094 59.81,0 91.62,23.746 115.1,50.996 v -41.383 c 0,-72.406 -43.96,-115.7655 -110.32,-115.7655 -64.11,0 -96.26,47.6645 -107.44,74.7145 l -80.65,-33.718 C 1628.73,63.0977 1686.33,0 1788.88,0 c 112.16,0 197.65,70.6484 197.65,218.813 v 377.121 h -88 v -35.551 c -27.05,29.156 -64.05,48.168 -113.16,48.168 v 0.004" /><path
         id="path22"
         style="fill:#dd2634;fill-opacity:1;fill-rule:nonzero;stroke:none"
         d="m 2381.43,528.34 c 38.35,0 65.94,-20.387 77.66,-44.828 l -187.93,-78.551 c -8.1,60.812 49.51,123.379 110.27,123.379 z m -3.66,80.715 c -106.42,0 -195.76,-84.664 -195.76,-209.59 0,-132.192 99.59,-210.594 205.98,-210.594 88.79,0 143.29,48.578 175.82,92.106 l -72.55,48.269 c -18.83,-29.215 -50.3,-57.769 -102.83,-57.769 -59,0 -86.13,32.308 -102.93,63.601 l 281.41,116.77 -14.61,34.218 c -27.19,67.012 -90.6,122.977 -174.52,122.977 l -0.01,0.012" /><path
         id="path24"
         style="fill:#47bc48;fill-opacity:1;fill-rule:nonzero;stroke:none"
         d="m 2047.85,201.332 h 92.43 v 618.602 h -92.43 V 201.332" /></g></g></svg>