<?xml version="1.0" encoding="UTF-8"?>
<svg width="24px" height="24px" viewBox="0 0 24 24" version="1.1" xmlns="http://www.w3.org/2000/svg" xmlns:xlink="http://www.w3.org/1999/xlink">
    <!-- Generator: Sketch 52.4 (67378) - http://www.bohemiancoding.com/sketch -->
    <title>Group 2</title>
    <desc>Created with Sketch.</desc>
    <g id="Page-1" stroke="none" stroke-width="1" fill="none" fill-rule="evenodd">
        <g id="Group-2" fill="#757575">
            <path d="M1.20216216,11.2886486 L11.8118919,21.8983784 L22.4216216,11.2886486 L18.1686486,7.04216216 L5.45297297,7.04216216 L1.20216216,11.2886486 Z M11.8118919,23.0854054 L0.0151351351,11.2864865 L5.10486486,6.20108108 L18.5167568,6.20108108 L23.6108108,11.2864865 L11.8118919,23.0854054 Z" id="Fill-1430"></path>
            <path d="M8.66378378,11.7081081 L11.8118919,21.1610811 L14.9578378,11.7081081 L8.66378378,11.7081081 Z M11.8118919,23.8227027 L7.49837838,10.867027 L16.1232432,10.867027 L11.8118919,23.8227027 Z" id="Fill-1431"></path>
            <polyline id="Fill-1432" points="8.82378378 11.7081081 0.607567568 11.7081081 0.607567568 10.867027 7.33837838 10.867027 4.91891892 6.83891892 5.63891892 6.40648649 8.82378378 11.7081081"></polyline>
            <path d="M8.95567568,10.867027 L14.6681081,10.867027 L11.8118919,7.29513514 L8.95567568,10.867027 Z M16.4151351,11.7081081 L7.20648649,11.7081081 L11.8118919,5.94810811 L16.4151351,11.7081081 Z" id="Fill-1433"></path>
            <polyline id="Fill-1434" points="8.03243243 12.0216216 4.91891892 6.83891892 5.63891892 6.40648649 8.12972973 10.5535135 11.4832432 6.35891892 12.1383784 6.88432432 8.03243243 12.0216216"></polyline>
            <polyline id="Fill-1435" points="15.5891892 12.0216216 11.4832432 6.88432432 12.1383784 6.35891892 15.4918919 10.5535135 17.9827027 6.40648649 18.7027027 6.83891892 15.5891892 12.0216216"></polyline>
            <polyline id="Fill-1436" points="23.0162162 11.7081081 14.7978378 11.7081081 17.9827027 6.40648649 18.7027027 6.83891892 16.2832432 10.867027 23.0162162 10.867027 23.0162162 11.7081081"></polyline>
            <polygon id="Fill-1437" points="11.3924324 2.84756757 12.2335135 2.84756757 12.2335135 0.0475675676 11.3924324 0.0475675676"></polygon>
            <polyline id="Fill-1438" points="14.5362162 3.47459459 13.76 3.15243243 14.8324324 0.564324324 15.6086486 0.886486486 14.5362162 3.47459459"></polyline>
            <polyline id="Fill-1439" points="16.4281081 4.93405405 15.8335135 4.33945946 17.8140541 2.35891892 18.4086486 2.95351351 16.4281081 4.93405405"></polyline>
            <polyline id="Fill-1440" points="9.08756757 3.47459459 8.01513514 0.886486486 8.79135135 0.564324324 9.86378378 3.15243243 9.08756757 3.47459459"></polyline>
            <polyline id="Fill-1441" points="7.19783784 4.93405405 5.2172973 2.95351351 5.81189189 2.35891892 7.79243243 4.33945946 7.19783784 4.93405405"></polyline>
        </g>
    </g>
</svg>