<?xml version="1.0" encoding="UTF-8" standalone="no"?>
<svg
   xmlns:dc="http://purl.org/dc/elements/1.1/"
   xmlns:cc="http://creativecommons.org/ns#"
   xmlns:rdf="http://www.w3.org/1999/02/22-rdf-syntax-ns#"
   xmlns:svg="http://www.w3.org/2000/svg"
   xmlns="http://www.w3.org/2000/svg"
   viewBox="0 0 2185.3333 466.66666"
   height="466.66666"
   width="2185.3333"
   xml:space="preserve"
   id="svg2"
   version="1.1">
    <g transform="matrix(1.3333333,0,0,-1.3333333,0,466.66667)" id="g10">
        <g transform="scale(0.1)" id="g12">
            <path id="path14"
                style="fill:#f25022;fill-opacity:1;fill-rule:nonzero;stroke:none"
                d="m 0,3500 h 1665 c -0.1,-555 0,-1110 -0.1,-1665 C 1110,1835 555,1835 0,1835 v 1665" />
           <!-- <g transform="scale(1.00552)"
               id="g16"><path
           id="path18"
           style="fill:#fefefe;fill-opacity:0;"
           d="m 1655.86,3480.78 h 169.06 c 0,-551.95 -0.1,-1103.9 0.1,-1655.86 551.86,0 1103.81,0.1 1655.66,0 0.2,551.96 0.1,1103.91 0.1,1655.86 H 16300 V 2192.99 c -118.1,-0.4 -236.3,0.9 -354.3,-0.79 -2.7,149.47 -0.3,298.94 -1.3,448.32 -118.2,-35.6 -235.6,-73.49 -354.4,-107.31 -2.9,-113.37 -0.2,-226.84 -1.5,-340.22 -174.6,0.1 -349.2,-0.2 -523.9,0.2 2.2,89.31 -6.1,179.31 6.7,268.12 10.6,70.01 51.2,140.03 119.4,167.08 86.1,35.3 182.2,11.83 264,-24.17 -0.5,102.34 0.8,204.67 -0.7,306.91 -172.1,47.34 -369.3,38.09 -521.9,-61.26 -98.5,-63.06 -169.9,-163.9 -202,-275.68 -38,-123.82 -18.6,-254.6 -24.7,-381.69 -82.8,0.59 -165.6,1.39 -248.2,-0.5 0.9,-95.68 0.5,-191.35 0.2,-286.92 83,-1.69 166.2,0.3 249.2,-1.29 -0.7,-402.58 -0.2,-805.06 -0.2,-1207.634 119.3,0 238.8,0 358.1,0 0,402.674 -0.1,805.354 0.1,1208.034 174.7,0.29 349.4,0.19 524.1,0.1 0.5,-256.69 -0.5,-513.27 0.4,-769.85 1.6,-119.54 22,-247.338 101.2,-341.715 68.5,-83.539 177.3,-121.731 282.3,-129.489 110.7,-7.855 225.1,5.672 327.4,50.126 L 16300,0 H 3480.78 c 0,551.952 0,1103.9 0,1655.86 -551.95,0 -1103.9,0.1 -1655.76,-0.1 -0.2,-551.86 0,-1103.808 -0.1,-1655.76 h -169.06 c 0,551.952 0.1,1103.8 0,1655.76 -551.96,0.3 -1103.908,0 -1655.86,0.2 v 168.96 c 551.952,0 1103.9,0 1655.76,0 0.1,551.96 0,1103.91 0.1,1655.86" /></g> -->
            <path
                id="path20"
                style="fill:#80ba01;fill-opacity:1;fill-rule:nonzero;stroke:none"
                d="m 1835,3500 h 1665 c 0,-555 0.1,-1110 -0.1,-1665 -554.9,0.1 -1109.9,0 -1664.8,0 -0.2,555 -0.1,1110 -0.1,1665" />
            <g
                transform="scale(1.00552)"
                id="g22"><path id="path24"
                style="fill:#777777;fill-opacity:1;fill-rule:nonzero;stroke:none"
                d="m 14932.1,2849.87 c 152.6,99.35 349.8,108.6 521.9,61.26 1.5,-102.24 0.2,-204.57 0.7,-306.91 -81.8,36 -177.9,59.47 -264,24.17 -68.2,-27.05 -108.8,-97.07 -119.4,-167.08 -12.8,-88.81 -4.5,-178.81 -6.7,-268.12 174.7,-0.4 349.3,-0.1 523.9,-0.2 1.3,113.38 -1.4,226.85 1.5,340.22 118.8,33.82 236.2,71.71 354.4,107.31 1,-149.38 -1.4,-298.85 1.3,-448.32 118,1.69 236.2,0.39 354.3,0.79 V 1902.2 c -118.5,4.87 -237.2,1.29 -355.7,1.69 0.5,-167.18 0.1,-334.36 0.2,-501.63 1.9,-92.59 -5,-185.68 5.8,-277.97 6.6,-54.4 26.4,-114.67 77.4,-142.811 85.4,-47.833 193.8,-26.949 272.3,25.561 V 713.362 c -102.3,-44.454 -216.7,-57.981 -327.4,-50.126 -105,7.758 -213.8,45.95 -282.3,129.489 -79.2,94.377 -99.6,222.175 -101.2,341.715 -0.9,256.58 0.1,513.16 -0.4,769.85 -174.7,0.09 -349.4,0.19 -524.1,-0.1 -0.2,-402.68 -0.1,-805.36 -0.1,-1208.034 -119.3,0 -238.8,0 -358.1,0 0,402.574 -0.5,805.054 0.2,1207.634 -83,1.59 -166.2,-0.4 -249.2,1.29 0.3,95.57 0.7,191.24 -0.2,286.92 82.6,1.89 165.4,1.09 248.2,0.5 6.1,127.09 -13.3,257.87 24.7,381.69 32.1,111.78 103.5,212.62 202,275.68" />
            </g>
            <path id="path26"
                style="fill:#777777;fill-opacity:1;fill-rule:nonzero;stroke:none"
                d="m 7304.7,2844.6 c 72.6,11 151.2,-13.8 199.3,-70.6 56.4,-62.2 66.8,-161.2 25,-233.9 -46.2,-82 -149.6,-120.1 -239.7,-100.4 -93.5,16.8 -171.4,103.7 -167.2,200.6 -2.7,102 82.6,192.9 182.6,204.3" />
            <path id="path28"
                style="fill:#777777;fill-opacity:1;fill-rule:nonzero;stroke:none"
                d="m 4545,2800 c 174.6,0 349.1,0 523.7,0 163,-413.9 327.2,-827.4 490.4,-1241.3 41.7,-103.5 80.7,-208.2 124.4,-310.9 209.7,517.2 422.4,1033.1 630.5,1551 167.9,2.7 335.9,0.6 503.9,1 -0.4,-699.9 -0.2,-1399.8 -0.1,-2099.698 -121.2,0.296 -242.3,-1 -363.4,0.699 1.3,516.499 -0.1,1032.999 0.6,1549.599 0.2,23.2 -0.6,46.4 -2.2,69.6 -7.1,-10.8 -13.4,-22 -18.9,-33.6 C 6225.8,1757.7 6013.7,1230.5 5806.8,701.301 5720.6,698.199 5634.3,701.102 5548,699.699 5333.3,1228.4 5121.3,1758.3 4907.7,2287.4 c -5.6,11 -11.6,21.7 -18.1,32 -4.4,-226.3 -0.7,-452.8 -1.9,-679.1 0.1,-313.4 -0.2,-626.8 0.1,-940.198 -114.3,-0.301 -228.6,0 -342.8,-0.102 -0.1,700 -0.2,1400 0,2100" />
            <path id="path30"
                style="fill:#777777;fill-opacity:1;fill-rule:nonzero;stroke:none"
                d="m 8295.7,2206.5 c 173.8,49.5 361.2,47.5 534.9,-1.6 35.8,-10 70.5,-23.9 102.7,-42.8 -2,-114.7 0,-229.5 -1.1,-344.3 -116.1,88.7 -263.4,144.9 -411,126.3 -117.2,-10.6 -229,-71.4 -299.1,-166.1 -90.1,-117.4 -110.9,-273.3 -95.4,-416.9 11.6,-112.4 58.1,-224.7 145.5,-299.2 90.8,-80.701 218.1,-109.298 336.9,-100.298 117.4,13.5 228.2,63.198 323.1,132.598 1,-108.7 -0.5,-217.399 0.8,-326.098 C 8785.8,680.5 8609.3,657.898 8440.8,666.199 8268.4,675.301 8096.5,740.602 7971.7,861.801 7836.1,992.5 7762.5,1178.9 7753.8,1365.6 c -8.8,194.1 30.7,396.6 142.4,558.7 93.6,138.3 240,236.2 399.5,282.2" /><path
         id="path32o"
         style="fill:#777777;fill-opacity:1;fill-rule:nonzero;stroke:none"
         d="m 10735.4,2232.4 c 172.8,22 355.1,12.2 515.5,-60.8 139.2,-62.8 252,-178.9 314.5,-317.9 66.7,-148 82.9,-314.2 71.6,-474.7 -11.1,-156.7 -60.3,-313.7 -158.3,-438.199 -100.3,-132.199 -251.5,-221.801 -413.4,-255.102 -138.4,-28.801 -283.2,-28.699 -421.6,0.403 -165.6,35.398 -318.9,131.5 -416,271.296 -114,162.002 -146.4,368.002 -131.9,562.102 9.8,164.7 61,330.7 166.2,459.9 115.2,144.7 291.9,230.1 473.4,253" /><path
         id="path34"
         style="fill:#777777;fill-opacity:1;fill-rule:nonzero;stroke:none"
         d="m 12229.2,2229.4 c 166.5,29.3 340.8,7.8 498.4,-51.9 0.2,-110.4 0,-220.7 0.1,-331 -110.1,75.7 -244.6,116.4 -378.2,111.7 -67.3,-2.6 -141.3,-31.1 -172,-95.1 -24.4,-63.3 -7.5,-146.3 52.2,-184.2 102.1,-68.3 223.9,-97.3 329.7,-158.5 83.3,-46.8 164.1,-108 206.3,-196.2 79.3,-165.2 45.7,-383.501 -93.7,-506.7 -133.1,-124.398 -324.8,-158.801 -501.1,-152.199 -125.2,8.097 -251,32.801 -366.1,84 0.5,116.097 -0.7,232.097 0.6,348.099 96.8,-70.3 208.5,-120.599 326.7,-141.002 82.3,-13.398 171.8,-14 248.5,22.801 73.4,36.501 86.6,140.801 43,204.601 -40.8,49.2 -100.7,76.3 -157.2,102.9 -106.1,47.7 -217.6,87.6 -310.8,159.1 -65.5,51.1 -115.1,123.1 -134.5,204.3 -28.8,119.7 -19.8,254.6 49.8,359.2 79.5,121.9 217.6,195 358.3,220.1" /><path
         id="path36o"
         style="fill:#777777;fill-opacity:1;fill-rule:nonzero;stroke:none"
         d="m 13605.5,2232.9 c 179.7,22.3 370.5,10.2 534.5,-72.6 143,-71.5 253.9,-200.7 309.3,-350.1 43.3,-114.3 58.5,-237.7 56,-359.4 0.3,-181.8 -48.8,-368.4 -162.9,-512.601 -106.8,-139.597 -270.2,-230.301 -442.7,-258.801 -168.7,-27.296 -346.9,-20.199 -507.2,42.903 -162.4,63.898 -297.4,194.301 -365.8,354.899 -71.3,163.7 -78.8,347.9 -56.6,522.8 23.3,174.9 102.5,345.9 237.5,462.2 110.6,97.1 253,152.1 397.9,170.7" /><path
         id="path38"
         style="fill:#777777;fill-opacity:1;fill-rule:nonzero;stroke:none"
         d="m 9738.5,2182 c 99.4,59.7 225.7,64.7 334.2,28.2 -0.5,-120.1 0,-240.2 -0.3,-360.3 -71,46 -159.6,65.7 -243.4,57.2 -102.2,-11.6 -183.2,-90.1 -225.2,-180.1 -45.6,-95.3 -54.2,-203.1 -51.3,-307.3 0,-239.9 0.1,-479.802 0,-719.7 -118.4,0 -236.7,0 -355,0 -0.3,501.4 0.4,1002.9 -0.3,1504.3 118.5,1.5 237,0.9 355.5,0.3 -0.5,-86.1 0,-172.2 -0.3,-258.4 38.5,93.7 95.8,184.7 186.1,235.8" /><path
         id="path40"
         style="fill:#777777;fill-opacity:1;fill-rule:nonzero;stroke:none"
         d="m 7154.8,2204.6 c 119.4,0.5 238.9,1.7 358.3,-0.6 -1.4,-501.3 -0.1,-1002.7 -0.6,-1504 -119.2,0 -238.4,0 -357.5,0 -0.3,501.5 0.1,1003 -0.2,1504.6" /><path
         id="path42o"
         style="fill:#fff;fill-opacity:1"
         d="m 10842.8,1946.6 c 108.2,7.1 223.4,-23.5 301.2,-102.2 83.2,-81.8 115.4,-200.5 124.3,-313.7 6.4,-123.9 1.3,-253 -50.7,-367.8 -34.4,-77.4 -97.4,-142.8 -176.9,-173.798 -93,-35.704 -197.5,-37.801 -293.5,-12.903 -97.7,25.701 -180.6,96.301 -225.7,186.201 -58,115.8 -66.7,249.7 -54.7,376.7 10.9,115.5 51.1,234.3 139.1,314 63.8,59.6 150.8,88.7 236.9,93.5" /><path
         id="path44"
         style="fill:#fefefe;fill-opacity:1;fill-rule:nonzero;stroke:none"
         d="m 13702.7,1946.3 c 101.7,7.1 210.3,-16.4 288.5,-85.1 72.1,-59.8 112,-149.4 130.3,-239.6 20.6,-105.8 20.4,-215.3 3,-321.6 -13.8,-79.2 -41.2,-158.2 -93.1,-220.9 -52.3,-63 -130.1,-101.401 -210.4,-113.202 -86.2,-12.898 -177,-6.699 -257.6,28 -87,36.802 -154.4,112.102 -189.9,198.702 -42.7,103.2 -51.2,217.5 -42.7,327.9 8.2,106.9 38.5,216.6 109.1,299.7 64.4,77.6 163.2,120.5 262.8,126.1" /><g
         transform="scale(1.00552)"
         id="g46"><path
           id="path48t"
           style="fill:#000;fill-opacity:0"
           d="m 15944.3,1903.89 c 118.5,-0.4 237.2,3.18 355.7,-1.69 v -895.16 c -78.5,-52.51 -186.9,-73.394 -272.3,-25.561 -51,28.141 -70.8,88.411 -77.4,142.811 -10.8,92.29 -3.9,185.38 -5.8,277.97 -0.1,167.27 0.3,334.45 -0.2,501.63" /></g><path
         id="path50"
         style="fill:#02a4ef;fill-opacity:1;fill-rule:nonzero;stroke:none"
         d="m 0,1665.1 c 555,-0.2 1110,0.1 1665,-0.2 0.1,-555 0,-1109.9 0,-1664.9 L 0,0 v 1665.1" /><path
         id="path52"
         style="fill:#ffb902;fill-opacity:1;fill-rule:nonzero;stroke:none"
         d="m 1835.1,1664.9 c 554.9,0.2 1109.9,0.1 1664.9,0.1 0,-555 0,-1110 0,-1665 H 1835 c 0.1,555 -0.1,1110 0.1,1664.9" /></g>
     </g>
</svg>
