<svg xmlns="http://www.w3.org/2000/svg" width="421" height="335"><defs><linearGradient id="a" x1="151.89%" x2="-27.45%" y1="29.98%" y2="57.01%"><stop offset="0%" stop-color="#C5ECFB"/><stop offset="11.77%" stop-color="#C5ECFB"/><stop offset="23.14%" stop-color="#E1F5FD"/><stop offset="100%" stop-color="#E1F5FD"/></linearGradient><linearGradient id="b" x1="117.31%" x2="44.38%" y1="3.31%" y2="102.76%"><stop offset="0%" stop-color="#6FBBDA"/><stop offset="3.53%" stop-color="#A8DBEE"/><stop offset="78.43%" stop-color="#A8DBEE"/><stop offset="86.28%" stop-color="#EEF9FC"/><stop offset="100%" stop-color="#EEF9FC"/></linearGradient><linearGradient id="c" x1="117.5%" x2="-62.27%" y1="40.11%" y2="90.5%"><stop offset="0%" stop-color="#C5ECFB"/><stop offset="11.77%" stop-color="#C5ECFB"/><stop offset="23.14%" stop-color="#E1F5FD"/><stop offset="100%" stop-color="#E1F5FD"/></linearGradient><linearGradient id="d" x1="84.05%" x2="4.64%" y1="82.7%" y2="17.88%"><stop offset="0%" stop-color="#D3125B"/><stop offset="100%" stop-color="#F78D4A"/></linearGradient><linearGradient id="e" x1="30.99%" x2="72.34%" y1="116.93%" y2=".22%"><stop offset="0%" stop-color="#264CA4"/><stop offset="100%" stop-color="#66CEF2"/></linearGradient><linearGradient id="f" x1="125.08%" x2="-36.7%" y1="51.32%" y2="47.51%"><stop offset="0%" stop-color="#202A58"/><stop offset="100%" stop-color="#4EC5E0"/></linearGradient><linearGradient id="g" x1="-152.66%" x2="97.45%" y1="226.93%" y2="8.95%"><stop offset="0%" stop-color="#264CA4"/><stop offset="100%" stop-color="#66CEF2"/></linearGradient><linearGradient id="h" x1="-2.02%" x2="107.72%" y1="49.44%" y2="50.47%"><stop offset="0%" stop-color="#202A58"/><stop offset="100%" stop-color="#4EC5E0"/></linearGradient><linearGradient id="i" x1="47.68%" x2="77.78%" y1="38.95%" y2="79.33%"><stop offset="0%" stop-color="#961540"/><stop offset="100%" stop-color="#F14433"/></linearGradient><linearGradient id="j" x1="20.26%" x2="79.12%" y1="3.87%" y2="93.29%"><stop offset="0%" stop-color="#D3125B"/><stop offset="100%" stop-color="#F78D4A"/></linearGradient><linearGradient id="k" x1="37.82%" x2="52.99%" y1="-8.29%" y2="83.93%"><stop offset="0%" stop-color="#264CA4"/><stop offset="100%" stop-color="#66CEF2"/></linearGradient><linearGradient id="l" x1="16.33%" x2="73.04%" y1="12.19%" y2="78.32%"><stop offset="0%" stop-color="#264CA4"/><stop offset="100%" stop-color="#66CEF2"/></linearGradient><linearGradient id="m" x1="0%" y1="50%" y2="50%"><stop offset="0%" stop-color="#202A58"/><stop offset="100%" stop-color="#4EC5E0"/></linearGradient><linearGradient id="n" x1="40.4%" x2="79.28%" y1="26.89%" y2="105.06%"><stop offset="0%" stop-color="#202A58"/><stop offset="100%" stop-color="#4EC5E0"/></linearGradient><linearGradient id="o" x1="20.98%" x2="90.89%" y1="24.08%" y2="71.72%"><stop offset="0%" stop-color="#202A58"/><stop offset="100%" stop-color="#4EC5E0"/></linearGradient><linearGradient id="p" x1="103.64%" x2="21.27%" y1="39.81%" y2="67.42%"><stop offset="0%" stop-color="#264CA4"/><stop offset="100%" stop-color="#66CEF2"/></linearGradient><linearGradient id="q" x1="95.36%" x2=".85%" y1="82.76%" y2="34.3%"><stop offset="0%" stop-color="#202A58"/><stop offset="100%" stop-color="#4EC5E0"/></linearGradient><linearGradient id="r" x1="0%" y1="50%" y2="50%"><stop offset="0%" stop-color="#202A58"/><stop offset="100%" stop-color="#4EC5E0"/></linearGradient><linearGradient id="s" x1="53.16%" x2="11.51%" y1="49.78%" y2="52.79%"><stop offset="0%" stop-color="#C4ECF1"/><stop offset="100%" stop-color="#FFF"/></linearGradient><linearGradient id="t" x1="0%" x2="102.28%" y1="50%" y2="50%"><stop offset="0%" stop-color="#84B5BB"/><stop offset="100%" stop-color="#69CEEF"/></linearGradient><linearGradient id="u" x1="-16.84%" x2="31.73%" y1="54.14%" y2="50.86%"><stop offset="0%" stop-color="#84D6DA"/><stop offset="100%" stop-color="#D1F0FC"/></linearGradient><linearGradient id="v" x1="74.49%" x2="43.42%" y1="-7.55%" y2="72.01%"><stop offset="0%" stop-color="#D3125B"/><stop offset="100%" stop-color="#F78D4A"/></linearGradient><linearGradient id="w" x1="-.34%" x2="276.98%" y1="50%" y2="50%"><stop offset="0%" stop-color="#84D6DA"/><stop offset="100%" stop-color="#D1F0FC"/></linearGradient><linearGradient id="x" x1="50%" x2="50%" y1="22.35%" y2="83.53%"><stop offset="0%" stop-color="#961540"/><stop offset="100%" stop-color="#F14433"/></linearGradient><linearGradient id="y" x1="-131.97%" x2="148.75%" y1="112.58%" y2="17.41%"><stop offset="0%" stop-color="#264CA4"/><stop offset="100%" stop-color="#66CEF2"/></linearGradient><linearGradient id="z" x1="-467.23%" x2="228.99%" y1="125.81%" y2="22.17%"><stop offset="0%" stop-color="#264CA4"/><stop offset="100%" stop-color="#66CEF2"/></linearGradient><linearGradient id="A" x1="-63.98%" x2="93.04%" y1="50%" y2="50%"><stop offset="0%" stop-color="#84D6DA"/><stop offset="100%" stop-color="#D1F0FC"/></linearGradient><linearGradient id="B" x1="82.33%" x2="19.76%" y1="89.49%" y2="10.66%"><stop offset="0%" stop-color="#C4ECF1"/><stop offset="100%" stop-color="#FFF"/></linearGradient><linearGradient id="C" x1=".29%" x2="99.95%" y1="50.12%" y2="49.66%"><stop offset="0%" stop-color="#84B5BB"/><stop offset="100%" stop-color="#69CEEF"/></linearGradient><linearGradient id="D" x1="26.63%" x2="40.48%" y1="-5.2%" y2="29.33%"><stop offset="0%" stop-color="#84D6DA"/><stop offset="100%" stop-color="#D1F0FC"/></linearGradient><linearGradient id="E" x1="31.34%" x2="75.37%" y1="93.65%" y2="5.53%"><stop offset="0%" stop-color="#84D6DA"/><stop offset="100%" stop-color="#D1F0FC"/></linearGradient><linearGradient id="F" x1="0%" y1="50.01%" y2="50.01%"><stop offset="0%" stop-color="#84B5BB"/><stop offset="100%" stop-color="#69CEEF"/></linearGradient><linearGradient id="G" x1="0%" y1="50%" y2="50%"><stop offset="0%" stop-color="#C4ECF1"/><stop offset="100%" stop-color="#FFF"/></linearGradient><linearGradient id="H" x1="55.89%" x2="44.04%" y1="10.17%" y2="88.85%"><stop offset="0%" stop-color="#D3125B"/><stop offset="100%" stop-color="#F78D4A"/></linearGradient><linearGradient id="I" x1="80.74%" x2="41.2%" y1="16.86%" y2="75.3%"><stop offset="0%" stop-color="#961540"/><stop offset="100%" stop-color="#F14433"/></linearGradient><linearGradient id="J" x1=".26%" x2="104.67%" y1="50%" y2="50%"><stop offset="0%" stop-color="#D3125B"/><stop offset="100%" stop-color="#F78D4A"/></linearGradient><linearGradient id="K" x1="100.16%" x2=".16%" y1="49.99%" y2="49.99%"><stop offset="0%" stop-color="#D3125B"/><stop offset="100%" stop-color="#F78D4A"/></linearGradient><linearGradient id="L" x1="86.3%" x2="13.88%" y1="68.56%" y2="31.64%"><stop offset="0%" stop-color="#D3125B"/><stop offset="100%" stop-color="#F78D4A"/></linearGradient></defs><g fill="none" fill-rule="evenodd"><path fill="#DCF4FD" d="M178.54 297.9l9.17-1.58c.26.19.6.38 1 .57-.18-.95-.38-1.91-.6-2.9l-.09-.36c-.46.3-.78.6-.95.9l-7.39-1.27-.77.77-.63.44a199.78 199.78 0 0 0 .26 3.43zm159.89 32.75l-2.6-.44v.7l-9.46 1.72-9.59-1.58v-3.43l-14.3 2.46 27.2 4.7 90.84-15.7-12.37-2.12v1.38l-9.45 1.63-2.6-.44v.97l-9.46 1.67-2.6-.49v.88l-9.45 1.67-2.6-.44v.97l-9.46 1.67-2.59-.44v.75l-9.46 1.67-2.6-.35v.92z"/><path fill="#DCF4FD" d="M328.84 307.42c-2.71-1.93-8.15-3.68-16.3-5.24l-.82 5.17c.36.59.31 1.4-.13 2.46-.47 1.12-1.23 1.63-2.28 1.54a12.25 12.25 0 0 1-7.04 2.81c-2.44.24-4.99-.05-7.66-.88-.5-.08-.82-.36-.97-.83-.08-.32-.11-.8-.08-1.45-.06-1.44.6-2.86 1.98-4.26l.26-.27a85.99 85.99 0 0 1 2.07-1.76c.79-.73 1.4-1.37 1.8-1.93.42-.72.97-1.5 1.63-2.35l-2.5-.31c.14 1.63-.65 2.73-2.38 3.32a14 14 0 0 1-5.5.3c-.97-.81-2.16-1.03-3.57-.65-.2.06-1.39.57-3.56 1.54-3.84.88-7.98.57-12.4-.93-.39-.09-.6-.3-.62-.66-.03-.17.03-.51.18-1 .2-1.18.86-2.24 1.98-3.17.22-.2.46-.4.72-.58a432.37 432.37 0 0 0-14.71-.26c-6.85 0-13.35.15-19.51.44 4.85-.95 7.26-2.1 7.23-3.43 0-1.4-2.92-2.6-8.75-3.6l-1.34-.22c.73.69 1.06 1.5.99 2.46.02.2-.02.69-.14 1.45-5.51 1.79-10.25 2.06-14.2.83v1.76c-.18.53-1 .87-2.47 1.01a29.41 29.41 0 0 1-4.13.49c-.88.03-1.59.03-2.12 0-2.78-.2-4.97-1.12-6.55-2.73a3.06 3.06 0 0 1-2.6-1.93 4.64 4.64 0 0 1-.04-3.39 12.3 12.3 0 0 0 .07-.88c-3.54.26-6.77.65-9.7 1.15l-.1.02c.08 2.65.27 5.1.56 7.36 5.73.94 12.62 1.4 20.65 1.4h1.15c-3.45.43-6.75.91-9.9 1.46a109 109 0 0 0-10.96 2.37l.31 1.19c.2 1 .4 2.6.57 4.8.06.26.09.53.09.83.2 2.43.45 4.3.75 5.62.97.56 2.12 1.09 3.47 1.59.74.29 1.94.71 3.61 1.27.88.35 1.17 1.04.88 2.07-.3 1-.88 1.54-1.76 1.63-1.85.55-3.78.79-5.8.7a21.72 21.72 0 0 1-5.81-1.14c-.41-.68-.9-2.01-1.45-4a13.4 13.4 0 0 0-1.15-2.9l-.99-.03a9.6 9.6 0 0 0-.94 4.11 76.47 76.47 0 0 0 0 5.28c-.82.14-1.28-.34-1.37-1.45 0-1.41-.07-2.33-.22-2.77.03-1.25-.36-2.98-1.18-5.19-1 0-1.98.02-2.95.04.39.92.26 1.8-.4 2.64a2.59 2.59 0 0 1-2.68 1.14c-1 .18-2.28.14-3.83-.13-2-.35-3.25-.54-3.78-.57a5.99 5.99 0 0 0-.05 2.29c-.03.85-.45 1.17-1.27.96a63.13 63.13 0 0 0-.68-5.58 97.39 97.39 0 0 0-5.3.75c-5.84 1-8.76 2.21-8.76 3.65-.03 1.4 2.88 2.62 8.71 3.65 5.84 1 12.89 1.5 21.16 1.5s15.32-.5 21.16-1.5 8.74-2.23 8.71-3.7c0-.14-.03-.28-.09-.41 12.35 1.62 26.65 2.42 42.9 2.4 19.85 0 36.79-1.21 50.8-3.61 2.59-.45 4.93-.91 7.04-1.39v-3.85l9.55-1.75 2.5.48v-5.25zm-157.51-8.27c.03-.88.01-1.8-.05-2.75l-55.27 9.5v2.83l55.32-9.58zm-69.1 18.18l-13.76-2.42v-4.26l-5.41.92-1.24.09-1.18-.09-9.9-1.71-1.14-.36-1.1-.52-.75-.53-12.67 2.2 24.2 4.17-1.99.36 24.95 4.3 24.94-4.35-11.17-1.93v1.71z"/><path fill="url(#a)" d="M241.38 203.25v-36.16a9.5 9.5 0 0 1-1.67-1 8.99 8.99 0 0 1-2.02-2.06l-.1-.09c.04-1.2.85-2.36 2.43-3.47a52.7 52.7 0 0 0 1.36-.97v-5.05l-3.1-5.06h-1.82v55.75c.44-.24.88-.46 1.32-.66l.79-.36.28-.1a11.45 11.45 0 0 1 2.42-.75l.11-.02z" transform="rotate(-180 210.5 177.26)"/><path fill="url(#a)" d="M273.54 31.52l-.26.27-.53.4h-.35l-.58-.4-.17-.35-.18-.75.18-.75.17-.4.27-.35.3-.22.36-.08h.26l.27.08.26.22.18.36.08.4v.74l-.08.44z" transform="rotate(-180 210.5 30.54)"/><path fill="url(#a)" d="M290.04 27.92l-1.06-.61-.62-1.41v-1.58l.62-1.63.48-.53.58-.4.61-.26h.53l.66.27.44.4.35.6.4 1.55-.4 1.71-.35.7-.44.58-.66.44-.53.17z" transform="rotate(-180 210.5 24.71)"/><path fill="url(#a)" d="M303.5 29.81h.35l.18.09.26.22.18.22.22.83-.22.88-.18.4-.44.44-25.78 4.53h-.26l-.58-.36-.26-.66v-.92l.26-.66.58-.57z" transform="rotate(-180 210.5 33.61)"/><path fill="url(#a)" d="M345.82 10.38h-3.48v150.26L241.38 178.1V79.69c-.16-.25-.32-.47-.48-.69l-1.67 3.21a36.16 36.16 0 0 1-1.85 3.21c-.3.46-.6.88-.93 1.28v108.68l.31 3.25 3.96 4.97 1.8 1.18 2.07.36h1.1l92.25-16 1.1-.27 1.06-.44 2.81-2.46 1.54-2.33 1.1-2.73.53-2.99-.22-167.54h-.04z" transform="rotate(-180 210.5 107.76)"/><path fill="#F6FCFE" d="M178.28 294.47l.63-.44.77-.77 1.21-1.2 1.8-2.73 1.1-3.04.76-3.38-4.54 7.6-.74.93-1.1.8c.02.73.06 1.47.1 2.23zM116 305.9l55.27-9.5c-.02-.46-.06-.92-.1-1.4a18.56 18.56 0 0 0-.08-.68l-55.1 9.5v2.08zm68.23-289.01l-.88-3-.66-1.27-.93-1.14-1.76-1.63-1.1-.53-2.42-.57-1.14.22-92.3 15.87-2.41.84-1.1.7-1.1 1.01-1.94 2.33-1.5 2.9-.87 3.21-.4 3.39V300.4l.4 3.21.35 1.54 1.27 2.73.75 1.1 1.94 1.71 2.2.88 1.18.09 1.24-.09 5.4-.92v-2.09l-5.4.94-1.1.1-1.9-.4-.87-.44-.88-.75-1.46-1.71-.92-2.25-.62-2.59-.13-96.32h-.04l-.22-167.55.53-2.99 1.1-2.72 1.54-2.33 2.81-2.47 1.06-.44 1.1-.26 92.25-16h1.1l2.06.35 1.8 1.19z"/><path fill="url(#b)" d="M245.65 309.81l9.94 1.76 93.53-16.18 1.14-.57 1.14-.79 2.16-1.98.88-1.27 1.5-2.9.88-3.21.3-3.48L357 18.51l-.53-3.16-1.27-2.64-.75-1.19-.88-.96-.3-.22-.76-.53-1.1-.53-1.14-.35-9.9-1.72 2.2.88 1.94 1.72.75 1.1 1.27 2.72.35 1.54.4 3.21v261.19l-.4 3.38-.88 3.21-1.5 2.9-1.93 2.33-1.1 1.01-1.1.7-2.42.84-92.3 15.87" transform="rotate(-180 210.5 159.4)"/><path fill="#AFE0F7" d="M147.46 29.55l-.18.4-.08.43v.75l.08.4.18.35.26.22.27.08h.26l.35-.08.31-.22.27-.35.17-.4.18-.75-.18-.74-.17-.36-.58-.4h-.35l-.53.4zm-26.79 251.64c-1.85.35-2.77 1.48-2.77 3.39v9.93c0 1.8.92 2.54 2.77 2.25l22.79-3.96c1.81-.38 2.72-1.48 2.72-3.3v-9.93c0-1.8-.9-2.54-2.72-2.25l-22.8 3.87zM117.5 37.42l25.7-4.44.57-.58.26-.66v-.92l-.26-.66-.58-.35h-.26l-25.78 4.53-.44.44-.18.4-.22.87.22.84.18.22.26.22.18.09zm13.46-15.92h-.61l-.53.18-.66.44-.44.57-.35.7-.4 1.72.4 1.53.35.62.44.4.66.26h.53l.61-.26.57-.4.49-.53.61-1.62v-1.59l-.61-1.4z"/><path fill="url(#c)" d="M242.83 271.63l-1.1.81-.74.93-4.53 7.6v3.9a50.09 50.09 0 0 1 .85 7.38l3.5-.62.09-.81c.47-4.19.94-7.44 1.4-9.76.48-2.54.66-5.68.53-9.43z" transform="rotate(-180 210.5 281.94)"/><path fill="url(#c)" d="M241.38 240.86a7.58 7.58 0 0 1-2.9-2l-.7-.18c-.45-.13-.9-.26-1.32-.4v9.2c1.75.35 3.39.72 4.92 1.1v-7.72z" transform="rotate(-180 210.5 243.43)"/><path fill="url(#c)" d="M236.46 205.14v2.94h1.82l-1.82-2.94z" transform="rotate(-180 210.5 206.6)"/><path fill="url(#c)" d="M300.33 292.89l-22.79 3.87c-1.81.29-2.72-.46-2.72-2.25v-9.93c0-1.82.9-2.92 2.72-3.3l22.8-3.96c1.84-.29 2.76.46 2.76 2.25v9.93c0 1.9-.92 3.04-2.77 3.39z" transform="rotate(-180 210.5 287.04)"/><path fill="url(#c)" d="M252.75 240.4l1.26-.22c2.99-.53 6.46-.81 10.42-.84 3.96-.06 7.26.15 9.9.61l19.16 3.35 48.85-8.44v74.73h3.48l-.13-96.32-.62-2.6-.92-2.24-1.45-1.71-.88-.75-.88-.44-1.9-.4-1.1.1-5.4.94v7.63l-13.78 2.42L305 213.8v-2.88l-55.1 9.5c.05.54.12 1.1.2 1.69.12 1.11.63 4.03 1.54 8.75a56.33 56.33 0 0 1 1.12 9.54z" transform="rotate(-180 210.5 257.36)"/><path fill="#FFF" d="M159.56 240c1.29 1 2.36 2.62 3.2 4.88h12.1c1.88.2 3.46.57 4.76 1.12v-7.72c-10.85-2.67-16.38-5.73-16.59-9.16-.41.53-.97 1.15-1.67 1.87a99.57 99.57 0 0 0-2.64 2.94c-1.76 2.38-1.48 4.4.84 6.07zm49.05-35.96l-.35.92-6.07-.83.35-.93zm.44 4.48l3.52-9.28 3.74.62-3.52 9.28zm-5.46-2.68l.35-.92 4.1.57-.35.92zm-3.08 1.19l.36-.97 6.6.88-.36.97zm8.67-4.44l-.4.92-7.3-1.01.4-.92zm-38.32 10.5c.03 1.07.12 2.33.27 3.8a62 62 0 0 1 3.9-1.31 213.78 213.78 0 0 0-2.67-2.31 7.44 7.44 0 0 0-1.5-.18zm-10.6-19.65c-.32.47-.7.86-1.14 1.19a2.3 2.3 0 0 0-.13.48l2.55.68c.9.27 1.76.54 2.6.82.67.26 1.72 1.07 3.16 2.41l.75.66c.3-.32.61-.66.97-1l2.42.3c1.37.62 2.52 1.33 3.43 2.16a9.27 9.27 0 0 1-1.54-4.49 7.1 7.1 0 0 1 1.18-4.48 93.04 93.04 0 0 0-2.42 1.4l-.74 1.63a66.84 66.84 0 0 1-1.72 2.11 3.15 3.15 0 0 0-.17-.66v-.04l-.05-.05v-.04l-.04-.05a7.42 7.42 0 0 0-.97-1.75l-.18-.18a6.73 6.73 0 0 0-.46-.35c-.45.12-.96.2-1.52.26a12.7 12.7 0 0 1-3.78-.3 18.18 18.18 0 0 1-2.2-.7z"/><path fill="#FFF" d="M224.53 213.62l6.95-18.07-25.73-4.53-6.95 18.07z"/><path fill="#FFF" d="M222.2 198.45l-4.44 11.57-3.7-.62 4.45-11.56zm4.05 3.48l-3.52 9.27-3.74-.61 3.52-9.28zm-46.63-6.9l-.49.39a5.12 5.12 0 0 0-1.4 1.54l.13.17c.3.54.89 1.52 1.76 2.95v-5.06zm-13.66-73.05l-.42 1.3.35 1.67c.41-.41.85-.78 1.32-1.1a13.91 13.91 0 0 1 6.2-2.24 36.45 36.45 0 0 0-.37-.82l-1.12-2.02a4.26 4.26 0 0 0-.2-.29l-.02-.04-4.07.5a7.27 7.27 0 0 0-1.21 1.92c-.16.35-.32.72-.46 1.12zm154.96 52.38l-.4-.57a10.59 10.59 0 0 1-1.19-4.88 8.41 8.41 0 0 1 1.15-4.13l.4-.62-.03-.13-.4.07-.1.15a38.77 38.77 0 0 0-2.95 6.07c-1.03 2.7-1.54 4.93-1.54 6.72 0 .59.06 1.12.18 1.59.05.23.32.86.79 1.89h.53l.04-.1c.2-.37 1.05-2.17 2.55-5.4l.35-.75.62.1zm-121.29-52.31c.18-.14.36-.3.53-.47l-.22.2-.3.27zm18.53 3.16l.04-.09c0-.53-.02-.88-.04-1.05-.12-.35-.39-.56-.8-.62a21.47 21.47 0 0 1-4.97-1.8 86.45 86.45 0 0 0-2.02-1.06l-.7-.4a47.4 47.4 0 0 0-1.85-1l-.14-.09c-.9-.41-1.76-.88-2.55-1.4-1.43-.56-1.42-1.03.05-1.41v-.53c-.91.23-1.62.72-2.12 1.45-.2.3-.61 1-1.23 2.1-.15.3-.31.55-.48.8 3.81 2.34 7.13 5.92 9.94 10.73 1.46.53 2.7.79 3.74.79 1.12 0 2.03-1.36 2.73-4.09l.26-1.36a1.54 1.54 0 0 1 .14-.97zm2.28.88c.97.97 1.85 1.76 2.64 2.37.2-.26.4-.52.57-.79l.2-.3-1.03-3.96-.09-.57c.25.16.5.28.77.37a4.88 4.88 0 0 1-2.49-2.4l-.35-.72-.13.1c-.09.1-.2.17-.33.23.19.48.29.96.29 1.45-.03.44-.14.95-.31 1.54-.09.32-.25.82-.49 1.5.53-.65.8-.7.8-.14l-.05.92a.9.9 0 0 1 0 .4zm44.96 11.03a9.54 9.54 0 0 1 1.45 1.41c.18.26.41.78.7 1.56v.02l.43-.63 1.9-2.88c-.24-.46-.5-.89-.78-1.28a9.24 9.24 0 0 0-1.06-1.27 6.81 6.81 0 0 0-3.5-2.05 4.76 4.76 0 0 0-.33-.06 73.82 73.82 0 0 0-2.42 2.46 69.4 69.4 0 0 1 3.61 2.72zm57.19 37.5l.97 2.16c.67 1.38 1.32 2.71 1.93 4l.8.13c3.72-3.92 6.3-6.88 7.74-8.88 1.93-2.7 3.03-5.2 3.3-7.52l-.09-.04a6.39 6.39 0 0 0-1.19-2.77c-.64-1-1.13-1.2-1.45-.61l-.09.17.05.04c.79.24 1.16.68 1.1 1.32a1.86 1.86 0 0 1-.31.88 2.5 2.5 0 0 1-.8.66c-.81.59-2.78 2.2-5.89 4.84a27.63 27.63 0 0 1-6.2 4.22l.09 1.01c.03.15.04.28.04.4zm-210.15 41.81a58.12 58.12 0 0 1-9.76 1.76 31.79 31.79 0 0 1 0-7.47 121.3 121.3 0 0 1 9.76-1.63c.3 2.35.3 4.8 0 7.35zm8.93-10.24l5.94-1.1c.18 2.93.18 6.3 0 10.11l-6.11 1.1c-.32-3.66-.27-7.03.17-10.1zM81 161.92l55.96-9.4v10.63l-56.1 9.45z"/><path fill="#FFF" d="M141.83 202.92a13.3 13.3 0 0 1 2.33-4.9 7.46 7.46 0 0 1 2.53-2.23l.07-1.42a66.31 66.31 0 0 1 .35-3.8 20.2 20.2 0 0 0-5.15-4.51 22.63 22.63 0 0 0-6.73-2.69c-2.5-.46-5-.61-7.52-.44l-2.03.44c-3.2.5-6.42 1.67-9.67 3.52a35.7 35.7 0 0 0-8.27 6.68 28.28 28.28 0 0 0-4.89 7.04 31.93 31.93 0 0 0-2.33 5.62 25.28 25.28 0 0 0-.83 13.55 23.15 23.15 0 0 0 2.94 7.73 21.5 21.5 0 0 0 5.59 5.94c3.43 2.58 7.55 3.9 12.36 3.96 4.81.14 9.4-1 13.77-3.43a31.36 31.36 0 0 0 3.06-1.78c.84-3.26 1.43-5.64 1.78-7.15a87.21 87.21 0 0 0 2.09-12.66l-1.83.4.31-1.98-3.52.44a52.88 52.88 0 0 1-.17-3.52c0-.94.07-1.82.22-2.64 0-.35.06-.69.17-1 .47-.16 1-.3 1.59-.45a30.35 30.35 0 0 1 3.25-.66l.53-.06zm-28.82-58.01l30.45-5.15v4L113 148.91zm-3.3 4.61l-30.17 5.15v-4l30.18-5.15zm-27-91.88a7.39 7.39 0 0 1 2.33-1.63 8.15 8.15 0 0 1 2.1-.7l84.2-13.63a33 33 0 0 1 1.72-.04c.5 0 .96.08 1.37.26a6.21 6.21 0 0 1 2.24 1.23 6.74 6.74 0 0 1 2.33 5.28v9.85L79.5 74.47v-9.85c0-1.9.56-3.66 1.7-5.28.16-.2.33-.4.54-.61a5.08 5.08 0 0 1 .96-1.1z"/><path fill="#FFF" d="M135.85 98l9.45 14.99 9.11-15.3a1.72 1.72 0 0 1-.83-.75 4.55 4.55 0 0 1-.62-2.55c0-1.05.2-2.03.61-2.94.44-.94.97-1.47 1.59-1.59.58-.14 1.13.1 1.63.7.4.65.61 1.5.61 2.56 0 1.08-.2 2.08-.61 2.99a1.69 1.69 0 0 1-.22.3l.08.14 3.52 6.15 4.67-13.8c.2-.5.4-.85.61-1.06.3-.23.59-.28.88-.13.27.09.44.3.53.66l6.69 18.02a2.59 2.59 0 0 1 .3-.48c.36-.32.97-.47 1.85-.44-.06 1.53-.3 3.15-.68 4.86l1.6 4.33c.15.5.18 1.04.1 1.63 0 .2-.04.38-.1.52v7.96l-1.73.29c.3.76.6 1.57.9 2.44 1.3 3.68 2.58 6.46 3.83 8.33V37.42L78.66 54.87v225l48.85-8.44-.2-.04c-2.5-.47-3.7-1.03-3.6-1.67v-4.62c0-.06 0-.13.04-.22.23-.73 1.85-1.36 4.84-1.89l6.68-1.16a6.55 6.55 0 0 1-.22-.42 18.14 18.14 0 0 1-1.89-9.01c.05-2.19.4-4.64 1.04-7.37a40.23 40.23 0 0 1-11.07 2.88c-4.45.47-8.74.07-12.84-1.19a27.16 27.16 0 0 1-10.96-5.75 27.74 27.74 0 0 1-7.87-11.08 32.67 32.67 0 0 1-2.55-13.94c.05-4.51.9-9.04 2.55-13.58a48.94 48.94 0 0 1 3.3-7 43.94 43.94 0 0 1 3.83-5.58 46.1 46.1 0 0 1 12.27-11.16 41.59 41.59 0 0 1 14.82-5.68 20.2 20.2 0 0 1 4.71-.61 31.65 31.65 0 0 1 17.82 4.22 33.68 33.68 0 0 1 2.77 1.96l.18-.29a50.68 50.68 0 0 1 2.81-3.87.87.87 0 0 0 .27-.3 4.8 4.8 0 0 1 1.36-1.1 4.67 4.67 0 0 1 .7-.4h-.04c.09-.41.26-.8.53-1.14.23-.36.48-.62.74-.8-.03-.05.15-.22.53-.48.09-.09.44-.3 1.06-.66.38-.32.95-.66 1.71-1 .94-.77 2.36-1.21 4.27-1.33a9 9 0 0 1 2.5.44l.67.09c1.76-.35 2.94-.44 3.56-.26.65.17 1.14.36 1.5.57 2.17.76 3.78 2.37 4.84 4.83.9 2.05 1.29 4.37 1.14 6.95a6.96 6.96 0 0 0-.5-.81l.02.37v.13c.14 1.94.05 4.47-.27 7.6.36.1.71.23 1.06.38v-36.16l-1.43.13a5.56 5.56 0 0 1-.82-.02v4.95l-37.35 6.28v-10.9l31.48-5.23a52.52 52.52 0 0 1-2.11-7.06l-22.63 3.8v-3.9l21.73-3.72a80.1 80.1 0 0 0-1.54-5.74l-.73-3.39-83.38 13.76V86.8c-.2-.36-.31-.82-.31-1.41a5.1 5.1 0 0 1 .44-1.58c.3-.5.61-.75.97-.75.35-.06.63.12.83.53l9.99 17.32 5.19-12.84c.15-.44.32-.73.53-.88-.5 0-.96-.28-1.37-.83a5.31 5.31 0 0 1-.52-2.55 8.44 8.44 0 0 1 .52-3c.5-.9 1.03-1.43 1.59-1.57.64-.15 1.21.1 1.71.74.41.65.62 1.5.62 2.55a7.38 7.38 0 0 1-.62 3 3.94 3.94 0 0 1-1.18 1.36c.29.05.46.26.52.61l10.65 19.96 6.69-15.7a5.52 5.52 0 0 1 .61-.74c.15-.2.32-.28.53-.22.3 0 .51.14.66.44l9.63 14.33 3.61-7.21a2.58 2.58 0 0 1-.75-.66c-.35-.64-.52-1.5-.52-2.55s.17-2.04.52-2.95c.5-.93 1.07-1.48 1.72-1.62.56-.12 1.08.13 1.58.75.44.64.66 1.49.66 2.55 0 1.08-.22 2.08-.66 2.99-.26.5-.54.87-.83 1.14z"/><path fill="#CDCCCA" d="M113.02 144.9v4l30.44-5.14v-4L113 144.91"/><path fill="#C8EDF3" d="M223.85 127.36l-.2.31.33.25-.13-.55zm-10.62 7.13a66.36 66.36 0 0 1 3.12 7.82 98.64 98.64 0 0 1 5.02 30.95v.88c0 1.87.16 6.36.5 13.48l2.6.46a51.49 51.49 0 0 0 4.77-14.69c.41-2.75.69-6.68.84-11.78l.1-.4a261.32 261.32 0 0 0-4.96-28.15 8.21 8.21 0 0 1-2.45-.9l.58 1.18a29.35 29.35 0 0 1 2.42 7c.52 3.13 1.04 7.38 1.53 12.74.56 6.3.99 10.57 1.28 12.8.3 2.52.44 4.03.44 4.53 0 1.75-.4 3.19-1.19 4.3a4.48 4.48 0 0 1-.79-.7h-.13c-.44 0-.7-.04-.75-.13l-.13-.18a58.47 58.47 0 0 1-1.23-10.77 467.9 467.9 0 0 0-.36-10.6c-.44-8.43-2.52-15.26-6.24-20.48-.38.35-.8.95-1.23 1.8-.59.65-1.59.97-3 .97-.22 0-.46-.05-.74-.13zm11.92-10.86a11.24 11.24 0 0 1 2.95 1.23 12.64 12.64 0 0 0-3.12-1.3l.17.07zm8.83 53.22l.08.35a13.63 13.63 0 0 1-.08-.42v.07zm-124.26-27.33v-4l-30.18 5.15v4z"/><path fill="#4A77C4" d="M80.99 161.92l-.13 10.68 56.09-9.45v-10.64zm75.58-65.5c.06-.06.13-.17.22-.31.4-.91.61-1.9.61-3 0-1.05-.2-1.9-.61-2.54-.5-.62-1.04-.85-1.63-.7-.62.11-1.15.64-1.59 1.58a7.06 7.06 0 0 0-.61 2.94c0 1.09.2 1.94.61 2.55.21.35.49.6.84.75.24.09.49.09.75 0 .5-.15.97-.57 1.4-1.27zM135.85 98c.29-.27.57-.65.83-1.14.44-.91.66-1.91.66-3 0-1.05-.22-1.9-.66-2.54-.5-.62-1.02-.87-1.58-.75-.65.15-1.22.69-1.72 1.62a8.08 8.08 0 0 0-.52 2.95c0 1.06.17 1.9.52 2.55.24.3.49.51.75.66.3.15.62.18.97.09.3-.06.54-.2.75-.44zm-35.37-10.82a.43.43 0 0 1 .22-.08c.2-.1.38-.17.52-.22.45-.3.84-.75 1.2-1.37.4-.94.6-1.93.6-2.99 0-1.05-.2-1.9-.6-2.55-.5-.64-1.08-.9-1.72-.74-.56.14-1.09.67-1.59 1.58a8.44 8.44 0 0 0-.52 2.99c0 1.05.17 1.9.52 2.55.41.55.87.83 1.37.83zM82.7 57.64a5.08 5.08 0 0 0-.96 1.1c-.2.2-.38.4-.53.61a8.92 8.92 0 0 0-1.72 5.28v9.85L179 58.25v-9.84c0-2.14-.78-3.9-2.33-5.28a6.21 6.21 0 0 0-2.24-1.23 3.43 3.43 0 0 0-1.37-.26c-.58 0-1.15.01-1.71.04l-84.2 13.63a8.15 8.15 0 0 0-2.11.7 7.39 7.39 0 0 0-2.34 1.63z"/><path fill="#4A77C4" d="M95.02 60.01c.91-.11 1.69.08 2.33.58.7.61 1.06 1.34 1.06 2.2 0 .93-.35 1.78-1.06 2.54a3.13 3.13 0 0 1-2.33 1.37c-.79.14-1.57-.05-2.33-.58a3.15 3.15 0 0 1-.88-2.33c0-.85.3-1.67.88-2.46a4.24 4.24 0 0 1 2.33-1.32zm12.01 1.5c0 .9-.25 1.71-.75 2.42-.79.82-1.6 1.3-2.46 1.45-.85.11-1.6-.15-2.24-.8-.62-.43-.93-1.12-.93-2.06 0-.9.31-1.77.93-2.6a4.4 4.4 0 0 1 2.24-1.36c.85-.11 1.67.1 2.46.62.5.55.75 1.33.75 2.33zm5.59-4.27a3.5 3.5 0 0 1 2.37.44c.7.65 1.06 1.42 1.06 2.33 0 .94-.35 1.76-1.06 2.46a3.46 3.46 0 0 1-2.37 1.46 2.7 2.7 0 0 1-2.33-.7c-.62-.5-.93-1.2-.93-2.12a3.88 3.88 0 0 1 3.26-3.87z"/><path fill="#9CC1E9" d="M177.37 151.4a5.5 5.5 0 0 1-.57-.1l-3.58-1.89a8.71 8.71 0 0 1-.77-.81 23.93 23.93 0 0 1-.95-2.11l-31.48 5.23v10.9l37.35-6.28v-4.95"/><path fill="#F0F0EF" d="M168.49 135.6l-21.73 3.72v3.92l22.63-3.8-.02-.12a375.11 375.11 0 0 0-.88-3.71"/><path fill="#F03559" d="M338.43 302.25v28.4l9.46-1.67v-28.31zM173.59 114.7l1.01 2.73c.15.44.37.72.66.83.36-.06.66-.26.93-.61.23-.2.38-.48.44-.84.06-.14.08-.32.08-.52.1-.59.06-1.13-.08-1.63l-1.6-4.33-.43 1.6a32.26 32.26 0 0 1-1 2.77zM372 285.02v-1.9l-9.46 1.68v41.63l9.46-1.67V287.4zm2.6 2.81v36.4l9.46-1.67v-36.31zM94.76 195.38l8.1 5.23a28.28 28.28 0 0 1 4.88-7.04 35.7 35.7 0 0 1 8.27-6.68 28.52 28.52 0 0 1 9.67-3.52v-10.41a41.57 41.57 0 0 0-14.82 5.67 46.09 46.09 0 0 0-12.28 11.16 43.94 43.94 0 0 0-3.82 5.59zM82.84 86.78l11.08 19a.93.93 0 0 0 .62.53c.2.06.42-.02.66-.22.26-.2.47-.49.61-.84l5.1-12.75 10.39 19.83c.23.3.45.47.66.53.3.09.5.03.61-.18a2.19 2.19 0 0 0 .66-.88l6.91-15.7 9.55 14.12c.29.35.57.5.83.44.3-.09.59-.38.88-.88l3.61-7.21 9.33 15.08c.2.3.45.4.74.3.3-.05.58-.26.84-.6l9.59-16.14 3.78 6.6c.15.26.37.43.66.52.2 0 .41-.12.62-.35.16-.15.3-.31.4-.49.04-.3.1-.6.17-.92.27-.89.63-1.75 1.08-2.57l3.59-10.22 6.2 16.68c.17-.16.32-.36.44-.6l.61-2.06c.15-.58.32-1.05.49-1.4l-6.69-18.03c-.09-.35-.26-.57-.53-.66-.3-.15-.58-.1-.88.13-.2.2-.4.56-.61 1.06l-4.67 13.8-3.52-6.15-.08-.13c-.44.7-.91 1.12-1.41 1.27a1.1 1.1 0 0 1-.75 0l-9.1 15.3-9.46-15c-.2.24-.46.39-.75.45a1.36 1.36 0 0 1-.97-.1l-3.6 7.22-9.64-14.33c-.15-.3-.37-.44-.66-.44-.2-.06-.38.01-.53.22a5.52 5.52 0 0 0-.62.74l-6.68 15.7-10.65-19.96c-.06-.35-.23-.56-.52-.61-.15.05-.33.13-.53.22a.43.43 0 0 0-.22.08c-.2.15-.38.44-.53.88l-5.2 12.84-9.98-17.32c-.2-.41-.48-.59-.83-.53-.36 0-.68.25-.97.75-.2.4-.35.94-.44 1.58 0 .59.1 1.06.3 1.4z"/><path fill="#D4F0FC" d="M173.04 120.8c.3.6.61 1.26.93 2l.92 2.26 1.74-.29v-7.96c-.06.36-.2.63-.44.84-.27.35-.57.56-.93.61-.3-.11-.51-.4-.66-.83l-1-2.73a63.32 63.32 0 0 1-1.15 2.6c0 .11-.05.26-.13.44v.13l-.4.9 1.12 2.02zm-6.82 5.69l-.33-1.54-.35-1.67.42-1.3c.2-.57.4-1.08.64-1.54a2.92 2.92 0 0 1-.93-.81l-.83-1.32a66.23 66.23 0 0 0-1.15-1.85 29.1 29.1 0 0 1-2.02-3.3 9.75 9.75 0 0 1-.7-5.67 2 2 0 0 1-.4.49c-.2.23-.41.35-.62.35a1.08 1.08 0 0 1-.66-.53l-3.78-6.6-9.59 16.14c-.26.35-.54.56-.84.62-.29.09-.54-.02-.74-.31L135 102.57l-3.6 7.2c-.3.5-.6.8-.89.89-.26.06-.54-.09-.83-.44l-9.55-14.11-6.9 15.7a2.19 2.19 0 0 1-.67.87c-.11.2-.32.26-.61.18-.2-.06-.43-.24-.66-.53L100.92 92.5l-5.1 12.75c-.15.35-.36.63-.62.84-.24.2-.46.28-.66.22a.93.93 0 0 1-.62-.53l-11.08-19v53.47l83.38-13.76zm3.9-16.4l.04.08.44.66c.12.1.18.16.18.22.5-.07.9-.27 1.23-.59l-6.2-16.68-3.6 10.22a15.72 15.72 0 0 1 2.32-3.23 2.91 2.91 0 0 1 1.54-.26c.61.08.97.4 1.05.96a77.2 77.2 0 0 1 1.5 5.06c.38 1.4.88 2.6 1.5 3.56z"/><path fill="#54C6C1" d="M112.62 57.24a3.88 3.88 0 0 0-3.26 3.87c0 .91.31 1.61.93 2.11.7.62 1.48.85 2.33.7.94-.11 1.73-.6 2.37-1.44.7-.7 1.06-1.53 1.06-2.47 0-.9-.35-1.68-1.06-2.33a3.5 3.5 0 0 0-2.37-.44"/><path fill="#FBDA3C" d="M316.78 313.94l9.5 1.59 9.55-1.58-7-1.28-2.5-.48zm-214.54-10.59l13.77-2.42-13.77-2.42-13.77 2.42zm281.8-13.37v2.38l2.6.44 9.46-1.67-9.5-1.63zm-277-228.47c0-1-.26-1.77-.76-2.33a3.48 3.48 0 0 0-2.46-.62c-.85.2-1.6.66-2.24 1.37a4.25 4.25 0 0 0-.93 2.59c0 .94.31 1.63.93 2.07.64.64 1.39.9 2.24.79a4.55 4.55 0 0 0 2.46-1.45c.5-.7.75-1.51.75-2.42z"/><path fill="#EE208D" d="M95.02 60.01c-.79.12-1.57.56-2.33 1.32a4.08 4.08 0 0 0-.88 2.46c0 .97.3 1.75.88 2.33.76.53 1.54.72 2.33.58.91-.06 1.69-.52 2.33-1.37a3.67 3.67 0 0 0 1.06-2.55c0-.85-.35-1.58-1.06-2.2a3.03 3.03 0 0 0-2.33-.57"/><path fill="#FBDAD6" d="M168.05 199.69l-.31.3h.04l-.13.09-.13.13-2.29 3.12-.04.1-.05.03c-1 2-1.3 3.89-.92 5.68.41 1.81 1.26 3.03 2.55 3.65 1 .46 2.36.57 4.1.3.67.03 1.17.1 1.49.18a173.17 173.17 0 0 1 5.12 4.53 109.24 109.24 0 0 1 4.23 4.04c.1.12.22.23.33.33l.15.18.02.02.18.18.7.74.18.11c.74.51 1.56.66 2.46.44l.22-.06a4.77 4.77 0 0 0 1-.44l.48-.33.17-.14a5.22 5.22 0 0 0 1.72-2.6 4.4 4.4 0 0 0 .1-.54l.05-.28v-.2a6.61 6.61 0 0 0 0-.38l-.02-.15a2.98 2.98 0 0 0-.15-.57l-.05-.13-.09-.18-.06-.13a4.05 4.05 0 0 0-.24-.33l-.14-.13a3.13 3.13 0 0 0-.52-.46l-.05-.05-.13-.1-.62-.56a44.5 44.5 0 0 1-2.75-2.88l-.1-.13a74.83 74.83 0 0 1-3.22-3.93c-.6-.79-1.18-1.52-1.71-2.2a117.2 117.2 0 0 0-4.75-5.8 13 13 0 0 0-3.44-2.16l-2.42-.3c-.35.34-.67.68-.96 1zm10.51-12.62c.32-3.14.41-5.67.27-7.6v-.14l-.03-.37c-.4-.54-.79-.8-1.16-.77-.56.11-1.03.48-1.4 1.1-.42.61-.68 2.05-.8 4.3-.09 1.97-.5 3.4-1.23 4.31-.06-.23-.13-1.11-.22-2.64-.15-1.58-.7-1.83-1.67-.74-.3.36-.53.85-.69 1.5.02.65.13 1.28.33 1.88.62.59 1.12.72 1.5.4.2.38.43.76.66 1.14.3.5.6.92.92 1.28.27-.44.65-.87 1.15-1.28a16.66 16.66 0 0 0 2.37-2.37zm154.2 26.07c-.84.3-1.47.95-1.9 1.93a3.6 3.6 0 0 0-2.2.27c-.67.29-1.17.69-1.5 1.18-.35.5-.36.91-.04 1.23.35.36 1.07.49 2.16.4.26 1.17 1.11 2.1 2.55 2.77.82.4 2.14.92 3.96 1.54a2.4 2.4 0 0 1 1.4-1.19 2.66 2.66 0 0 1 1.85.26c.62.3 1.28.18 1.98-.35 1.91-.88 2.69-2.23 2.33-4.04l-.04-.09c-.12-.6-.35-1.1-.7-1.5a3.25 3.25 0 0 0-1.72-1 3.3 3.3 0 0 0-1.78-.11 4.24 4.24 0 0 0-.3.06 7 7 0 0 0-.25.09l-.7-.44a9.38 9.38 0 0 0-3.48-1.19c-.61-.05-1.15 0-1.63.18zm-147.03 71.3c.55 2.23 1.3 5.29 2.29 9.2l.09.35c.22.99.42 1.95.6 2.9.1.64.2 1.27.28 1.89a30.67 30.67 0 0 0 4.6 6.37l.46.49a99.67 99.67 0 0 1 3.91 4.4 43.9 43.9 0 0 0-.57-4.8c-.1-.39-.21-.79-.3-1.19a48.8 48.8 0 0 1-.95-5.23 75.27 75.27 0 0 1-.55-7.36 56.45 56.45 0 0 1-.05-1.56 4358 4358 0 0 0-.13-12.62 299.18 299.18 0 0 1 0-11.3 105 105 0 0 0 .13-4.4c.03-3.48-.82-6.12-2.55-7.9a20.19 20.19 0 0 0-8.45-5.1c-.43-.15-.87-.28-1.32-.4a12.43 12.43 0 0 1-.7-.18 20.83 20.83 0 0 1 1.85 8.05l.17.08a16.67 16.67 0 0 0 5.63 1.67c.71.03 1.4.08 2.07.14.18-.03.35-.05.53-.05-.03.35-.13.63-.3.84a31.02 31.02 0 0 0-2.73 3.56l.3.04c2.64.5 3.84 1.09 3.61 1.76v4.44a.69.69 0 0 1 0 .35c-.23.7-1.83 1.32-4.8 1.85l-2.96.53c-.95 4.06-1 8.46-.16 13.19zm33.13-163.78c.57 0 1.02-.09 1.34-.24.13-.06.24-.14.33-.22l.13-.11.09-.16c.09-.17.2-.38.35-.61.18-.38.35-.82.53-1.32l.44-1.05.09-.18c.07-.28.16-.56.26-.83l.09-.22c.4-.98.76-1.93 1.06-2.86a31.3 31.3 0 0 0 1.67-9.06c-.44.18-.98.38-1.63.62-.67.32-2.21.26-4.62-.18-2.76-.47-4.2-.69-4.36-.66-.76-.06-2.08.75-3.95 2.42a54.87 54.87 0 0 1-1.98 1.89 4.6 4.6 0 0 0-.1.4 8.93 8.93 0 0 0-.21 2.28l.04-.04v.13l-1 .09a.55.55 0 0 0 0 .3 6.9 6.9 0 0 0 .43 2.07l.26.53a10.13 10.13 0 0 0 2.86 3.34 19.4 19.4 0 0 0 7.4 3.65l.48.02zm45.97 10.27c.44-.12 1.05.03 1.85.44.76.4 1.45.95 2.06 1.62.65.7 1.06 1.07 1.24 1.1.2.03.4.04.57.04a2.39 2.39 0 0 1-.66-.52 5.2 5.2 0 0 1-1.15-1.45 8.59 8.59 0 0 1-.4-.7 9.53 9.53 0 0 1-.43-2.86c0-.56.06-1 .17-1.32.15-.44.6-1.16 1.37-2.16.3-.2.53-.48.7-.83.41-.62.82-.8 1.23-.57l-1.05 1.93c-.62 1.17-.93 1.95-.93 2.33 0 .59.55 1.01 1.63 1.28.97.23 1.34.71 1.1 1.45.06.06.72.48 1.98 1.27.47.38.84.66 1.1.84.65-.44 1.9-1.26 3.78-2.46.21-1.59-.33-3.17-1.62-4.75a18.17 18.17 0 0 0-3.87-3.52c.26-.59.7-1.25 1.32-1.98.82-.79 1.45-1.36 1.89-1.71 1.32-1.47 1.7-2.85 1.14-4.14a38.24 38.24 0 0 0-8.23 7.39 23.63 23.63 0 0 0-4.79 9.23v.05zm52.13 32.35c.07.09.13.17.18.27.08.14.4.3.96.48l2.25.09.1-.02.4-.07.46-.04a20.39 20.39 0 0 0 5.5-1.36c2.32-1.06 3.66-2.67 4-4.84.5.28 1.03.4 1.57.33a6.95 6.95 0 0 0 2.97-2.97c.7-1.4.38-2.46-.97-3.17-1.73 2-2.73 2.58-3 1.76a80.1 80.1 0 0 0-.83-2.24 4.53 4.53 0 0 1-.26-1.93 1.92 1.92 0 0 1-.48-.75 1.7 1.7 0 0 1 0-1.14l-.22-.14c-3.11-1.75-6.88-2.7-11.31-2.85a.84.84 0 0 0-.26-.05 36.8 36.8 0 0 0-1.06 5.01 59.24 59.24 0 0 0-.53 8.4c.03 3.2.13 4.87.31 5.01l.22.22zm-156-55.79a9.75 9.75 0 0 0 .7 5.67 29 29 0 0 0 2.03 3.3c.18.27.56.88 1.15 1.85.35-.18.58-.28.7-.3.09 0 .72-.2 1.9-.58 1.14-.32 2.76-.22 4.88.3.08-.17.13-.32.13-.43a63.32 63.32 0 0 0 1.14-2.6 32.26 32.26 0 0 0 1.01-2.77c.15-.54.3-1.08.42-1.6.39-1.72.62-3.34.68-4.86-.88-.03-1.5.12-1.84.44a2.59 2.59 0 0 0-.31.48 7.7 7.7 0 0 0-.49 1.41l-.61 2.07c-.04.19-.18.4-.42.63-.31.31-.79.66-1.43 1.04a8.5 8.5 0 0 0-2.77 2.72c-.27.41-.41.81-.44 1.2.06.23.01.7-.13 1.44v.35l-.18-.04-.09-.09c-.47-1.52-.16-3.34.93-5.45a4.2 4.2 0 0 1 2.02-1.8c.06.09.12.16.18.22a12.9 12.9 0 0 1-1.5-3.56 77 77 0 0 0-1.5-5.06c-.08-.56-.44-.88-1.05-.97a2.9 2.9 0 0 0-1.54.27 15.72 15.72 0 0 0-2.31 3.23 13.92 13.92 0 0 0-1.08 2.57c-.07.32-.13.62-.17.93z"/><path fill="#DFA49C" d="M198.8 316.5c-.3-1.32-.55-3.2-.75-5.63 0-.3-.03-.57-.09-.84a99.67 99.67 0 0 0-3.91-4.4l-.46-.48a30.7 30.7 0 0 1-4.6-6.37c.03.24.08.48.13.7.2 1.61.32 3.12.35 4.53.03.12.05.25.05.4v.17c.6.39 1.2.88 1.8 1.5a22.59 22.59 0 0 1 3.17 4.13c2.05 3.34 3.49 5.43 4.3 6.28zm-15.11-44.87l.06 1.39c.11 1.75.38 3.75.8 6a90.33 90.33 0 0 0 1.18 5.43c-.84-4.73-.79-9.13.16-13.2l-2.2.38zm7.17-52.4l-.02-.05-.1-.2a3.97 3.97 0 0 1-.15-.35l-.06-.1-.09-.16-.09-.18a17.1 17.1 0 0 0-.28-.55 40.24 40.24 0 0 0-.44-.85l-.05-.1-.1-.21-.05-.09-.33-.61a103 103 0 0 0-1.76-3.1 140.77 140.77 0 0 0-2.36-3.9l-.44-.7-1.82-2.94a1039.74 1039.74 0 0 1-3.1-5.06c-.87-1.43-1.46-2.41-1.76-2.95a5.42 5.42 0 0 1-1.5-.22c-.82-.23-1.23-.73-1.23-1.49 0-.97 1.36-2.11 4.1-3.43l.39-.2a13.59 13.59 0 0 1 3.7-1.3 8.99 8.99 0 0 0-2.03-2.06 9.5 9.5 0 0 0-1.67-.99 8.68 8.68 0 0 0-1.06-.37c-.26.4-1.05 1.2-2.37 2.37-.5.41-.88.84-1.15 1.28-.32.5-.5.98-.53 1.45a7.1 7.1 0 0 0-1.18 4.48c.08 1.53.6 3.02 1.54 4.48.85.93 2.44 2.87 4.75 5.8l1.71 2.2a74.83 74.83 0 0 0 3.21 3.94l.11.13a44.5 44.5 0 0 0 2.75 2.88l.62.55.13.11.05.05c.2.14.37.29.52.46l.14.13.24.33.06.13.1.18.04.13c.07.18.12.37.15.57l.02.16V219.45l-.04.28a4.4 4.4 0 0 1-.11.55 5.24 5.24 0 0 1-.9 1.74c-.26.32-.53.6-.82.86l-.17.13a5.23 5.23 0 0 1-.49.33 4.77 4.77 0 0 1-.99.44l-.22.06c-.9.22-1.72.07-2.46-.44l-.18-.1.05.08a4.68 4.68 0 0 0 5.37 2.42 4.3 4.3 0 0 0 2.46-1.63 3.31 3.31 0 0 0 .4-.7c.32-.75.41-1.6.26-2.55a7.02 7.02 0 0 0-.11-.24 9.55 9.55 0 0 0-.16-.33l-.04-.13a8 8 0 0 1-.15-.36c-.1-.17-.18-.35-.27-.52l-.04-.11zM171.17 295a75.62 75.62 0 0 1 3.92 4.35 33.66 33.66 0 0 1 4.04 5.85 44.53 44.53 0 0 0-.13-1.9 2163.72 2163.72 0 0 1-.72-8.83 91.08 91.08 0 0 1-.11-2.22c-.13-3.75.05-6.9.52-9.43.47-2.32.94-5.57 1.41-9.76l.09-.81-6.82 1.18a28.05 28.05 0 0 0-4.53 7.41c.18.94.35 1.95.53 3.03.9 4.72 1.42 7.64 1.54 8.75a32.78 32.78 0 0 1 .26 2.38zm18.57-32.71a31.02 31.02 0 0 1 2.72-3.56c.18-.2.28-.49.31-.84-.18 0-.35.02-.53.05a45.16 45.16 0 0 0-2.06-.14 16.67 16.67 0 0 1-5.64-1.67l-.17-.08v.79c0 1.51-.27 2.97-.82 4.37l6.19 1.08zm35.19-161.83c0 .06-.04.1-.13.13l-.1.09c-1.31 1.11-3.07 1.55-5.27 1.32-.76-.12-1.74-.32-2.95-.62-.29-.14-.7-.26-1.23-.35l-.09-.04c-.03 0-.11-.03-.26-.1l-.62-.12.13.04c-.08.03-.26-.01-.52-.13h-.05c-.29.67-.83 1.48-1.62 2.42-.33.32-.84.86-1.54 1.62a9.42 9.42 0 0 0-.44.58 6.1 6.1 0 0 0-.93 1.18.96.96 0 0 0-.17.4 4.24 4.24 0 0 0-.44 1 54.87 54.87 0 0 0 1.98-1.88c1.87-1.67 3.2-2.48 3.96-2.42.14-.03 1.6.2 4.35.66 2.4.44 3.95.5 4.62.18.65-.24 1.19-.44 1.63-.62l-.1-.09a8.52 8.52 0 0 0-.03-1.93 76.82 76.82 0 0 0-.18-1.32zm45.62 33.67c.09.03.17.08.26.14l.88.35h.31a.97.97 0 0 1 .35-.13c.82-.38 1.66-.87 2.51-1.45.12-.06.23-.14.35-.22a15.85 15.85 0 0 1-1.1-.84 40.57 40.57 0 0 1-1.98-1.27c.24-.74-.13-1.22-1.1-1.45-1.08-.27-1.63-.7-1.63-1.28 0-.38.31-1.16.93-2.33a240.51 240.51 0 0 0 1.05-1.93c-.4-.24-.82-.05-1.23.57a2.2 2.2 0 0 1-.7.83 9.25 9.25 0 0 0-1.37 2.16c-.11.32-.17.76-.17 1.32 0 .96.15 1.92.44 2.85.12.24.25.47.4.7.32.6.7 1.08 1.14 1.46.17.2.4.38.66.52zm-3.45 73.07a618.45 618.45 0 0 1 5.65.11 17.08 17.08 0 0 0-1.76 1.63c-.22.22-.42.45-.62.68-1 1.17-1.46 2.07-1.4 2.68.11.76.6 1.09 1.45.97.4-.06 1.1-.62 2.06-1.67l1.04-1.1c.41-.4.7-.63.86-.7a29.22 29.22 0 0 0 4.09-1.54c.15-.1.28-.2.4-.31.15-.15.28-.3.37-.46l2.81.1a4.56 4.56 0 0 0-2.35-3.95 6.2 6.2 0 0 0-1.01-.48 9.38 9.38 0 0 0-4.14-.4c-1.9.15-3.62.63-5.14 1.45-1.56.85-2.34 1.76-2.34 2.73 0 .09.01.17.03.26zm63.5-62.69a36.34 36.34 0 0 0-4.97-1.71 14.6 14.6 0 0 0-5.81-.31 15.16 15.16 0 0 1-.46-.57 6.44 6.44 0 0 0-1.04 1.76c-.08.29-.19.61-.3.96a.84.84 0 0 1 .26.05c4.43.14 8.2 1.1 11.3 2.85l.22.14c.05-.14.1-.3.18-.44a11.58 11.58 0 0 0 1.23-2.46l-.4-.18a1.73 1.73 0 0 1-.21-.09zM172 110.46c-.31.32-.72.52-1.22.6 0-.07-.06-.14-.18-.23a12.09 12.09 0 0 1-.44-.66l-.04-.08a1.46 1.46 0 0 1-.18-.22 4.2 4.2 0 0 0-2.02 1.8c-1.09 2.11-1.4 3.93-.93 5.45l.09.09.18.04v-.35c.14-.73.19-1.21.13-1.45.03-.38.17-.78.44-1.19a8.5 8.5 0 0 1 2.77-2.72 7.38 7.38 0 0 0 1.43-1.04c.24-.23.38-.44.42-.63-.12.23-.27.43-.44.6z"/><path fill="#CC877D" d="M173.37 273.43l-5.12.9a56.33 56.33 0 0 0 .6 6.5c.99-2.49 2.5-4.96 4.52-7.4zm-1.89-86.63c0 1.56-.19 2.83-.57 3.83-.07 1.8-1.08 2.98-3.04 3.54.12.11.24.24.35.37l.18.18a7.42 7.42 0 0 1 .97 1.75l.04.05v.04l.05.05v.04c.08.24.14.46.17.66a66.84 66.84 0 0 0 1.72-2.1l.74-1.64a93.05 93.05 0 0 1 2.42-1.4c.03-.47.21-.96.53-1.45a7.49 7.49 0 0 1-.92-1.28c-.24-.38-.46-.76-.66-1.14-.38.32-.88.19-1.5-.4a6.01 6.01 0 0 1-.33-1.89c-.06.24-.1.5-.15.8zm-11.72-9.8l.33-.26.04-.05h-.04a6.71 6.71 0 0 1-.33.31zm1.47-4.92v-.14l-.05-.04zm16.63 25.05l-.13-.17c.26-.5.73-1.01 1.4-1.54l.49-.4c.35-.26.8-.58 1.36-.96 1.59-1.12 2.4-2.27 2.42-3.48l-.09-.08c-.94.13-2.17.56-3.7 1.3l-.39.2c-2.73 1.31-4.09 2.45-4.09 3.42 0 .76.41 1.26 1.23 1.5.32.11.82.19 1.5.22zm-5.94-78.36l.4-.9v-.13c-2.12-.53-3.74-.63-4.89-.31-1.17.38-1.8.57-1.89.57-.12.03-.35.13-.7.3l.83 1.33c.27.35.58.62.93.81.31-.6.66-1.1 1.03-1.5l4.07-.5.02.04.2.29zm46.28 6.35v.1c.26.17.53.23.79.17s.5-.22.7-.49c.24-.67.4-1.17.49-1.5.17-.58.28-1.1.3-1.53a11.1 11.1 0 0 1-1.45-1.05l-.17-.16a39 39 0 0 1-.48-.02 19.4 19.4 0 0 1-7.4-3.65 10.13 10.13 0 0 1-2.86-3.34l-.26-.53a16.44 16.44 0 0 1-.22-.7 6.9 6.9 0 0 1-.22-1.37.55.55 0 0 1 0-.3v-.53a14.6 14.6 0 0 1-.5-2.2 67.9 67.9 0 0 1-.3-1.85c-.31-1.64-1.16-2.34-2.54-2.1-.3.11-.52.36-.66.74a4.71 4.71 0 0 0-.31 1.1c-.09.38-.09.82 0 1.32.09 1.32.28 2.36.57 3.12.24.53.53.94.88 1.23l.44.44.18.11v4.16l-.05 1.4c.8.53 1.65 1 2.56 1.41l.13.09a47.4 47.4 0 0 1 1.84 1l.7.4a86.45 86.45 0 0 1 2.03 1.06c1.8.88 3.45 1.48 4.97 1.8.41.06.68.27.8.62a8 8 0 0 1 .04 1.05zm46.34 6.88c1.26.26 2.42.94 3.5 2.05.37.37.72.8 1.06 1.27a8.05 8.05 0 0 0 1.45-.04 7.04 7.04 0 0 0 1.45-.66h-.3l-.89-.35a1.09 1.09 0 0 0-.26-.14 4.1 4.1 0 0 1-.57-.04c-.18-.03-.59-.4-1.23-1.1a7.8 7.8 0 0 0-2.07-1.62c-.8-.41-1.41-.56-1.85-.44a2.61 2.61 0 0 0-.29 1.07zm57.92 41.22a27.7 27.7 0 0 0 6.2-4.22c3.11-2.64 5.08-4.25 5.9-4.84a5.78 5.78 0 0 1-.14-2.1c0-.27.03-.54.1-.8l.08-.17c.25-.88.65-2 1.21-3.37a7.62 7.62 0 0 1-3.63.5l.2-.1a2.45 2.45 0 0 1-1.56-.33c-.35 2.17-1.69 3.78-4 4.83-1.27.56-2.92 1-4.98 1.32a3.24 3.24 0 0 1-.52.05l-.47.04.02.13c.06.41.15.8.27 1.19 0 .06.01.13.04.22l.05.09c.23.82.4 1.86.48 3.12.15 2.08.4 3.56.75 4.44zm-151.29 128.2a7 7 0 0 1 5.32 2.99 16.17 16.17 0 0 1 2.69 5.71 56.08 56.08 0 0 0-.05-4.92 33.66 33.66 0 0 0-4.04-5.85l-.64-.75a75.73 75.73 0 0 0-2.14-2.37l-1.14-1.23a30.84 30.84 0 0 1 .16 4.15c-.02.78-.07 1.54-.16 2.27z"/><path fill="#DAF3F3" d="M166.6 120.44a11.67 11.67 0 0 0-.18.42 7.27 7.27 0 0 1 .18-.42zm7.37 2.35z"/><path fill="#9CD3D9" d="M224.47 188.08l7.28 1.25c.11-8.72-.37-17.77-1.45-27.15l-.11-.96-.11.4c-.15 5.1-.43 9.02-.84 11.77a51.49 51.49 0 0 1-4.77 14.69zm-5.61-67.42l.17.15c.33.3.81.65 1.46 1.06 0-.48-.1-.97-.29-1.45-.32.15-.77.23-1.34.24zm-5.63 13.83c.28.08.53.13.75.13 1.4 0 2.4-.32 2.99-.97a6.7 6.7 0 0 1 1.23-1.8c3.72 5.22 5.8 12.04 6.24 20.49.12 2.34.24 5.87.36 10.6.14 4.21.55 7.8 1.23 10.76l.13.18c.06.09.3.13.75.13h.13a3.18 3.18 0 0 1-.4-.61l-.83-2.34v-.08l-.05-.14v-.17a59.8 59.8 0 0 0-.26-4.84c-.26-2.28-.45-5.45-.57-9.5-.15-4.57-.3-7.75-.44-9.53-.62-7.48-2.35-13.52-5.2-18.12l-1-1.67a2.5 2.5 0 0 1-.27-.83c-.09.4-.17.86-.26 1.36-.7 2.73-1.61 4.09-2.73 4.09a11.3 11.3 0 0 1-3.74-.8 49.06 49.06 0 0 1 1.94 3.66zm11.99-1.43a281.67 281.67 0 0 0-1.24-5.15 8.13 8.13 0 0 1-.33-.24c-.17.27-.36.53-.57.8-.79-.62-1.67-1.41-2.64-2.38v.44l.49 1.36 1.5 3.52c.05.09.1.19.12.3v-.04c.1.18.17.34.22.49.88.47 1.7.77 2.45.9zm-20.04-16.77c-1.47.38-1.48.85-.05 1.4l.05-1.4zm117.41 58.34c0-.12-.01-.25-.04-.4l-.1-1.01a16.3 16.3 0 0 1-.74-4.44 15.6 15.6 0 0 0-.48-3.12l-.05-.1a.73.73 0 0 1-.04-.21 7.84 7.84 0 0 1-.26-1.19l-.4.62a8.41 8.41 0 0 0-1.15 4.13c-.02 1.58.37 3.21 1.2 4.88l.39.57 1.67.27zm11.92-13.37a3.62 3.62 0 0 0-.09.8 5.78 5.78 0 0 0 .14 2.1 2.5 2.5 0 0 0 .79-.66c.17-.26.28-.55.3-.88.07-.64-.3-1.08-1.1-1.32l-.04-.04zm-100.65 14.82l.13.77v-.07l-.13-.7z"/><path fill="url(#d)" d="M200.56 173a.9.9 0 0 0 0 .4l-.05.93c0 .55.27.5.8-.13.2-.27.44-.43.7-.49a1 1 0 0 1 .8.18h.03c.15-.3.2-.62.14-.97a2.5 2.5 0 0 0-.27-.84c-.23-.38-.57-.93-1-1.67-2.85-4.6-4.58-10.64-5.2-18.1-.14-1.8-.3-4.98-.44-9.55-.12-4.04-.3-7.2-.57-9.5-.12-1-.2-2.6-.27-4.83v-.18l-.04-.13v-.09l-.84-2.33a3.18 3.18 0 0 0-.4-.61 4.48 4.48 0 0 0-.78-.7 7.27 7.27 0 0 0-1.19 4.3c0 .5.15 2.01.44 4.53.3 2.23.72 6.5 1.27 12.8.5 5.36 1.02 9.6 1.54 12.74a29.3 29.3 0 0 0 2.42 7 42.63 42.63 0 0 1 .8 1.66v-.04c.03.12.07.22.13.3l1.5 3.53.48 1.36v.44" transform="rotate(-180 210.5 149.55)"/><path fill="#C5ECEB" d="M218.2 125.12l-.05.1h.05z"/><path fill="url(#e)" d="M201.35 244.11l-.66.22a16.4 16.4 0 0 0-.18 2.86c-1.35 6-2.36 11-3.03 14.99-.91 5.5-1.42 10.56-1.54 15.17.1.72.06 1.52-.09 2.4 1.54.09 3.05.2 4.55.3.69-5.06 1.02-11.91 1-20.55-.04-3.4-.05-7.55-.05-12.44v-2.95z" transform="rotate(-180 210.5 262.08)"/><path fill="url(#e)" d="M187 207.75l1.55-4.28-1.5.06a390.48 390.48 0 0 0-.04 4.22z" transform="rotate(-180 210.5 205.6)"/><path fill="url(#f)" d="M205.84 280.53l.48-2.26c.18-.76.27-1.53.27-2.29.02-4.04.17-8.09.44-12.13.35-5.66.24-11.3-.31-16.93v-.3c-.03-.5-.15-1.48-.35-2.95h-3.52l-1.5.48v2.95c0 4.9.01 9.04.04 12.44.03 8.64-.3 15.49-.99 20.55l5.44.44" transform="rotate(-180 210.5 262.1)"/><path fill="url(#g)" d="M208.92 243.32a8.02 8.02 0 0 1-2.47.4l-.08.52c.2 1.47.32 2.45.35 2.95v.3c.55 5.63.66 11.27.3 16.93-.26 4.04-.4 8.09-.44 12.13 0 .77-.08 1.53-.26 2.29l-.48 2.27c1.27.1 2.53.22 3.78.35.41-4.33.62-9.03.62-14.1 0-7.41-.06-11.88-.18-13.4a204.2 204.2 0 0 0-.75-7.48 65.76 65.76 0 0 1-.4-3.16" transform="rotate(-180 210.5 262.39)"/><path fill="url(#h)" d="M218.62 281.98c.15-.47.32-.94.5-1.4a25.1 25.1 0 0 0 1.41-13.59 27.47 27.47 0 0 0-.7-2.99 3002.82 3002.82 0 0 0-4.27-15.47 49.16 49.16 0 0 0-.57-1.94l-.1-.48c0-1.29-.5-2.3-1.53-3.03a4.49 4.49 0 0 0-2.42-.8c-.32 0-.64.03-.97.1a8.03 8.03 0 0 1-1.05.43c.11 1.15.25 2.2.4 3.17.4 3.66.65 6.15.74 7.47.12 1.53.18 6 .18 13.41 0 5.07-.2 9.77-.62 14.09 3.08.31 6.08.66 9 1.03z" transform="rotate(-180 210.5 262.13)"/><path fill="url(#h)" d="M222.42 196.94a33.9 33.9 0 0 0-.13-4.55l-1.34 3.71 1.47.84z" transform="rotate(-180 210.5 194.66)"/><path fill="#141928" d="M186.09 315.66c.82 2.21 1.21 3.94 1.18 5.19.15.44.22 1.36.22 2.77.09 1.11.55 1.6 1.37 1.45-.06-2.35-.06-4.1 0-5.28a9.6 9.6 0 0 1 .94-4.1 5.22 5.22 0 0 1 .46-.73c.19.2.36.45.53.74.41.72.8 1.68 1.15 2.9.55 2 1.04 3.33 1.45 4a21.72 21.72 0 0 0 5.8 1.15c2.03.09 3.96-.15 5.81-.7-.47-.03-1.22 0-2.24.08-1.12.1-1.9.12-2.38.1-1.82-.07-2.95-.81-3.39-2.25a23.5 23.5 0 0 0-3.16-5.17l-.05-.06a16.88 16.88 0 0 0-1.67-1.76 12.78 12.78 0 0 0-5-2.88 12.07 12.07 0 0 0-2.65-.46c.03.73.54 2.33 1.54 4.79l.08.22zm-23.32-70.78c.23 2.05 1.42 2.97 3.56 2.77.41-.03 2.01-.09 4.8-.18 2.18-.07 5 .03 8.49.29l2.9.24a7.6 7.6 0 0 0-2.9-2 16.6 16.6 0 0 0-4.75-1.12h-12.1zm8.14-54.25c.38-1 .57-2.27.57-3.83-1.44.35-3.05-.09-4.84-1.32a56.99 56.99 0 0 0-2.2-1.67c-.88-.64-1.63-1.1-2.24-1.36a60.04 60.04 0 0 0 3.56 5.1c1.61 1.82 3.33 2.84 5.15 3.08zm6.73-12.44c.37-.02.76.23 1.16.77.17.22.34.5.51.8.15-2.57-.23-4.88-1.14-6.94-1.06-2.46-2.67-4.07-4.84-4.83 1.81 1.46 3.03 2.87 3.65 4.22.18.37.33.8.44 1.3.25 1.03.33 2.31.26 3.84 0 .27-.02.55-.04.84zm-23.67-3.83c.06.5.04 1.13-.04 1.9.03-.5-.36.74-1.2 3.75a738.67 738.67 0 0 0-2.1 7.9 368.3 368.3 0 0 0-1.45 5.73l-.38 1.6c-1.19 5.01-1.91 8.8-2.18 11.4-.03.34-.04 1.85-.04 4.52.03 2.67.03 4.18 0 4.53a27 27 0 0 1-.13.92c.53.26 1.01.23 1.45-.09a3.85 3.85 0 0 0 1.63-2.81 131.95 131.95 0 0 1 2.46-12.66c.4-1.76.83-3.52 1.28-5.28l.04-.17a95.14 95.14 0 0 0 1.54-6.7 80.71 80.71 0 0 0 .57-3.94 35.03 35.03 0 0 1 1.19-6.29c.41-1.55.95-3.06 1.63-4.53a2.25 2.25 0 0 0 0-1.84 3.71 3.71 0 0 0-1.94.26 4.67 4.67 0 0 0-.7.4 4.8 4.8 0 0 0-1.36 1.1.87.87 0 0 1-.27.3zm3.56-2.5l.88-.49a1.56 1.56 0 0 1 .22-.09l.49-1.8c-.62.35-.97.57-1.06.66-.38.27-.56.43-.53.49v1.23zm2.56 4.88a46.9 46.9 0 0 0 9.37 6.81c.44.35.85.32 1.23-.09.23-.2.48-.61.75-1.23a68.88 68.88 0 0 1-3.65-1.98 24.47 24.47 0 0 1-4.58-3.25 24.96 24.96 0 0 1-2.02-1.98 2.97 2.97 0 0 1-.22.44c-.18.44-.46.85-.84 1.23l-.04.05zm1.27-4.18c1.76-.38 4-.57 6.73-.57 3.87 0 6.17-.02 6.9-.05-1.14-2.4-3.25-3.28-6.33-2.63-1 .2-2.3.63-3.91 1.27-2 .8-3.17 1.25-3.52 1.36v.14l.09.3.04.18zm6.25-4.97a7.12 7.12 0 0 0-.68.13c-1.02.23-2.07.64-3.15 1.23-.8.44-1.9 1.15-3.34 2.11.2.1.38.22.53.4a58.42 58.42 0 0 1 7.19-3.74l.1-.04-.65-.09zm-6.78.88a32.7 32.7 0 0 0-1.67 2.64 2.49 2.49 0 0 1 .62-.09 10.28 10.28 0 0 1 2.24-2.37 8.86 8.86 0 0 1 3.08-1.5c-1.9.12-3.33.56-4.27 1.32zm62.38 128.2v-.7l-.3-1.76c2.25.79 4.7 1.13 7.34 1a23.08 23.08 0 0 0 7.3-1.53 2.92 2.92 0 0 0-.99-2.46 5.53 5.53 0 0 0-1.43-.97c-.45.19-.94.37-1.47.55l-.15.06c-1.76.65-3.02.97-3.79.97-1.01 0-2.22-.56-3.63-1.7a27.41 27.41 0 0 1-3.54-3.53 464.67 464.67 0 0 0-3.3-3.87 10.63 10.63 0 0 0-2.55-2.2h-2.06l6.73 11.87c.26.2.5.43.7.66-.3.27-.73.53-1.32.8-1.08.5-2.07.74-2.95.74-1.82 0-3.17-.54-4.05-1.62a8.54 8.54 0 0 1-1.3-3.02 48.52 48.52 0 0 1-.19-.9c-.56-2.66-.9-4.22-1.01-4.66a9.82 9.82 0 0 0-1.19-2.42 4.49 4.49 0 0 1-2.42-.79 3.52 3.52 0 0 1-1.54-3.03 22.8 22.8 0 0 0-.66 6.46c.02 2.61 0 4.5-.06 5.67a12.3 12.3 0 0 1-.07.88c.23.59.66 1.15 1.28 1.67.38.33.96.7 1.76 1.15 1.08 2.37 3.3 3.66 6.64 3.87a25.3 25.3 0 0 0 8.22-1.2zm67.44-7.12l-.52.17a16.51 16.51 0 0 1-3.96 5.23 10.25 10.25 0 0 1-.58.53 17.74 17.74 0 0 1-4.77 3.12 11.65 11.65 0 0 1-4.68 1.01c-.97 0-2-.23-3.08-.7l-.14-.04c-1.11.93-1.77 1.99-1.98 3.16a21.77 21.77 0 0 0 8.67 1.54c3.05-.12 5.9-.86 8.53-2.24 1.18-.12 3-.2 5.46-.27a10.4 10.4 0 0 0 4.07-1.07c.36-.2.69-.4.99-.64.3-1.52.17-3.44-.35-5.76a72.26 72.26 0 0 1-1.15-5.71 14.3 14.3 0 0 0-.44-1.85c-.23-.76-.45-.75-.66.04a3.69 3.69 0 0 1-1.89 2.95c-.79.44-1.67.64-2.64.61a4.53 4.53 0 0 1-.88-.08zm50.77-139.32c-.42-.12-.98-.23-1.7-.33a40.7 40.7 0 0 0-2-.29 266.23 266.23 0 0 0-6.64-.62l-1.27-.17c.08.26.25.51.48.75-.06.61.03 1.26.26 1.93a80.1 80.1 0 0 1 .84 2.24c.26.82 1.26.24 2.99-1.76 1.35.7 1.67 1.76.97 3.17a6.94 6.94 0 0 1-2.97 2.97l-.2.1c1.3.13 2.5-.04 3.63-.5a8.1 8.1 0 0 0 1.47-.81c1.38-1 2.48-2.4 3.3-4.22.35-.8.63-1.61.84-2.46zm.26-1.5a11.8 11.8 0 0 0-.77-6.44 12.5 12.5 0 0 0-5.74-2.53l-.33-.06a47.1 47.1 0 0 0-8.2-.6 24.62 24.62 0 0 1-3.06-.2c-1.84-.22-3.2-.67-4.11-1.34-1.3-1.02-1.9-1.92-1.85-2.68-.76 1-.9 2.2-.4 3.6.39 1 1.1 2.15 2.14 3.44l.46.57a14.6 14.6 0 0 1 5.8.3c1.24.3 2.9.87 4.98 1.72a34.82 34.82 0 0 1 9.04 2.84c.92.48 1.6.94 2.04 1.38zm-29.95 158.62c.34-2.13.6-3.86.8-5.17l.16-1.03c.33-2.43.5-4.51.53-6.24-.94.12-1.96.2-3.08.26-.32 1.2-.8 2.55-1.45 4.05-.36.82-.66 1.53-.9 2.13-.4.98-.66 1.67-.77 2.09a7.38 7.38 0 0 1-.35 1.05 8.5 8.5 0 0 1-7.3 4.22 7.5 7.5 0 0 1-2.65-.35c-.7-.32-1.1-.86-1.18-1.63-1.38 1.41-2.04 2.83-1.98 4.27 2.52 1.4 5.28 2 8.27 1.76 3.37-.2 5.77-1.45 7.21-3.74a108.2 108.2 0 0 0 2.68-1.67zm-141.28 9.1c.3 1.78.52 3.64.68 5.58.82.2 1.24-.11 1.27-.96a5.99 5.99 0 0 1 .05-2.29c.53.03 1.79.22 3.78.57 1.55.27 2.83.31 3.83.13-1.26-.38-2.13-1.55-2.6-3.51l-.02-.07a74.07 74.07 0 0 0-.6-2.35 7.04 7.04 0 0 0-.96-2.2 5.56 5.56 0 0 0-3.3-2.42c-.94-.26-2.35-.48-4.22-.66.9 2.49 1.6 5.21 2.09 8.18zm-17.67-47.96a19.36 19.36 0 0 1-2.2-1.1 17.34 17.34 0 0 1-7.08-7.01 19.57 19.57 0 0 1-.8-1.6 20.41 20.41 0 0 1-1.53-11.88 26.22 26.22 0 0 1-3.52-1.45c-.66-.35-1.25-.74-1.78-1.16a9.33 9.33 0 0 1-1.21-1.12 44.72 44.72 0 0 0-.46 1.86 35.85 35.85 0 0 0-1.04 7.37 18.15 18.15 0 0 0 2.11 9.43 9.64 9.64 0 0 0 5.46 4.5c.47.18.95.31 1.45.4l.44.09c.15.03.28.04.4.04l9.76 1.63z"/><path fill="#1D2733" d="M214.63 280.53l-.08.53a8 8 0 0 0-2.47.4 8.03 8.03 0 0 0-1.05.44 5.38 5.38 0 0 1-.97.08 9.8 9.8 0 0 1 1.19 2.42 158.77 158.77 0 0 1 1.2 5.56 8.54 8.54 0 0 0 1.3 3.02c.88 1.08 2.23 1.62 4.05 1.62.88 0 1.86-.25 2.95-.75a5.24 5.24 0 0 0 1.32-.79 5 5 0 0 0-.7-.66l-6.73-11.87zm5.68-.7l-.66.22-1.5.48h-1.45c.68.36 1.53 1.09 2.55 2.2 1.44 1.67 2.54 2.96 3.3 3.87a27.35 27.35 0 0 0 3.54 3.54c1.4 1.13 2.62 1.7 3.63 1.7.77 0 2.03-.33 3.79-.98l.15-.06a24.87 24.87 0 0 0 1.47-.55 14.5 14.5 0 0 0-1.1-.44 30.88 30.88 0 0 1-9.85-5.76c-.67-.8-1.3-1.44-1.89-1.93a5.62 5.62 0 0 1-1.28-1.76l-.7-.53zm69.99 9.54l-2.24-1.1a39.68 39.68 0 0 0-.13-1.89 5.9 5.9 0 0 1-.66 1.67c-.18.32-.49.82-.93 1.5a.83.83 0 0 0-.7.26c-.18.15-.33.37-.44.66a17.5 17.5 0 0 0-2.6 2.81c-.7.8-1.73 1.51-3.08 2.16a326.78 326.78 0 0 0-3.65 1.58 13.3 13.3 0 0 0-2.95 1.85l.14.04a7.8 7.8 0 0 0 3.08.7c1.57 0 3.13-.34 4.68-1a17.77 17.77 0 0 0 5.35-3.66c1.87-1.76 3.2-3.5 3.96-5.23l.17-.35zm19.84 5.8h-1.54a21.75 21.75 0 0 0-3.87-.4l.09-.3a6.36 6.36 0 0 0-1.37 2.6 6.59 6.59 0 0 0-.66 1.58c-.55.62-1.05 1.21-1.5 1.78a21.5 21.5 0 0 0-1.62 2.35c-.4.56-1.01 1.2-1.8 1.93-.47.38-1.16.97-2.07 1.76l-.26.26c.08.77.48 1.3 1.18 1.63a7.5 7.5 0 0 0 2.64.35 8.5 8.5 0 0 0 7.3-4.22c.15-.35.27-.7.36-1.05.1-.42.36-1.11.77-2.09a74.02 74.02 0 0 1 .9-2.13c.64-1.5 1.13-2.85 1.45-4.05z"/><path fill="#100F0D" d="M311.73 307.35c-.12.09-1.02.65-2.69 1.67-1.44 2.29-3.84 3.53-7.21 3.74-3 .23-5.75-.35-8.27-1.76-.03.65 0 1.13.08 1.45.15.47.47.75.97.84 2.67.82 5.22 1.1 7.66.88 2.81-.27 5.16-1.2 7.04-2.82 1.05.09 1.81-.42 2.28-1.54.44-1.05.49-1.87.14-2.46zm-88.52-11.39c3.96 1.24 8.7.96 14.21-.83a6.9 6.9 0 0 0 .14-1.45 23.08 23.08 0 0 1-7.3 1.54 19.4 19.4 0 0 1-7.35-1.01l.3 1.75zm75.58 4.16a5.6 5.6 0 0 0-.13-.77c-.3.24-.63.45-1 .64-1.08.58-2.44.94-4.06 1.07-2.46.06-4.28.15-5.46.27a19.88 19.88 0 0 1-8.53 2.24c-2.93.09-5.82-.42-8.67-1.54-.14.5-.2.84-.17 1.01.03.35.23.57.61.66 4.43 1.5 8.57 1.8 12.41.93a76.2 76.2 0 0 1 3.56-1.54c1.41-.38 2.6-.16 3.57.66a14 14 0 0 0 5.5-.31c1.73-.59 2.52-1.7 2.37-3.32zm-93.48-8.95c-.41 1.2-.4 2.33.04 3.39a3.06 3.06 0 0 0 2.6 1.93c1.58 1.61 3.77 2.52 6.55 2.73.53.03 1.24.03 2.12 0a29.41 29.41 0 0 0 4.13-.49c1.47-.14 2.29-.48 2.46-1v-1.06c-3.1.9-5.85 1.3-8.22 1.18-3.35-.2-5.56-1.49-6.65-3.87-.79-.43-1.37-.82-1.76-1.14a4.4 4.4 0 0 1-1.27-1.67z"/><path fill="url(#i)" d="M195.19 96.52a13.77 13.77 0 0 1 2.46-.61c3.11-.44 6.8-.14 11.05.92 2.31.58 4 1.71 5.06 3.38.29.56.33 1.18.13 1.85.58-.44 1-.73 1.27-.88.2-.26.46-.5.75-.7-.2-.56-.4-1.1-.61-1.63-.74-.94-2.3-2.15-4.67-3.65a29.63 29.63 0 0 0-3.47-2.02h-.05c-.7-.06-1.16-.18-1.36-.35a4.5 4.5 0 0 1-1.23-.35c-1.2-.3-2.19-.5-2.95-.62-2.2-.23-3.96.2-5.28 1.32l-.09.09c-.09.03-.13.07-.13.13a3.57 3.57 0 0 0-.88 3.12z" transform="rotate(-180 210.5 96.93)"/><path fill="url(#i)" d="M217.89 110.75a18.22 18.22 0 0 0 1.28-3.56 43.8 43.8 0 0 0 .22-1.94v-.48c.11-3.1-.58-5.83-2.07-8.18.3.76.48 1.8.57 3.12.09.5.09.94 0 1.32a4.71 4.71 0 0 1-.3 1.1c-.15.38-.37.63-.67.75-1.38.23-2.23-.47-2.55-2.11l-.28-1.85a14.47 14.47 0 0 0-.51-2.2v-.52l-1.01.08v.14l.04-.05a8.93 8.93 0 0 1-.22 2.29l-.09.4c-.08.32-.23.65-.44 1a.96.96 0 0 1-.17.4c-.27.44-.57.84-.93 1.19a9.42 9.42 0 0 1-.44.57h.05c3.05 1.32 5.45 3.91 7.21 7.78.18.23.28.48.31.75z" transform="rotate(-180 210.5 103.47)"/><path fill="url(#j)" d="M217.89 101.91a1.52 1.52 0 0 0-.3-.75c-1.77-3.87-4.17-6.46-7.22-7.78h-.05a63 63 0 0 1-1.54 1.63 10.5 10.5 0 0 0-1.62 2.42c.67.29 1.83.96 3.47 2.02 2.38 1.5 3.93 2.7 4.66 3.65l.62 1.62a12.95 12.95 0 0 0 1.98-2.77v-.04z" transform="rotate(-180 210.5 99.05)"/><path fill="url(#j)" d="M195.19 90.87c.12.15.25.35.4.61a11.9 11.9 0 0 0 3.91 3.92 15.47 15.47 0 0 0 5.06 2.33c3.87.85 6.98.4 9.33-1.32.2-.68.16-1.3-.14-1.85-1.05-1.67-2.74-2.8-5.05-3.38-4.26-1.06-7.94-1.37-11.05-.93-.9.15-1.73.35-2.46.62z" transform="rotate(-180 210.5 94.1)"/><path fill="#3E1F17" d="M214.28 100.77a2.8 2.8 0 0 0-.4-.1c.27.13.45.17.54.14l-.14-.04"/><path fill="#6C341F" d="M214.28 100.77l.62.13.26.09.1.04c-.21-.18-.67-.3-1.37-.35l.4.09"/><path fill="url(#k)" d="M223.3 177.37a13.77 13.77 0 0 1-.53-6.42l.05-.26v-.18l-.09.14a338.61 338.61 0 0 0-5.67-13.02c-2.85-6.97-4.27-12.88-4.27-17.71 0-2.08.63-5.84 1.89-11.26.25-1.07.48-2.07.68-3l-16.23-2.82c.33 7.11.5 11.6.5 13.47v.88c1.3 4.9 3.6 10.23 6.91 16 1.53 2.7 3.52 5.87 5.98 9.5a89.48 89.48 0 0 1 3.65 5.63l-5.1 4.26 5.94.84a9.2 9.2 0 0 0 .5 5.23l.03.04c.12.47.26.93.44 1.37.17.44.48 1.1.92 2.02.41.94.98 1.98 1.72 3.12a6.67 6.67 0 0 0 2.2 2.42l.72-.18.16-.04.26-.07 1.63-.42a270.96 270.96 0 0 0 6.33-1.75 9.9 9.9 0 0 0 2.86-1.76c-3.52 2.2-6.55 1.62-9.1-1.72a13.58 13.58 0 0 1-2.38-4.3z" transform="rotate(-180 210.5 155.23)"/><path fill="url(#k)" d="M190.7 151.52a213.32 213.32 0 0 1-1.45-27.14l-4.29-.75c-1.26 3.2-.65 7.22 1.83 12.07.05.23.1.45.13.68l.02.13a16.97 16.97 0 0 1 .2 1.12l1.4 11.26c.16 2.2.27 4.57.36 7.12.06 1.85.09 3.81.09 5.89v.26c-1 2.7-1.56 5.4-1.67 8.14-.27 6.1 1.6 12.28 5.58 18.55a11.24 11.24 0 0 0 2.95 1.23 93.25 93.25 0 0 1-2.5-4.53l-.27-.57-.97-2a277.97 277.97 0 0 0-2.68-5.47c.4-.44 1.19-1.26 2.33-2.47l1.01-1-2.15-1.2a43.72 43.72 0 0 1-1.5-.92 7.77 7.77 0 0 1-.48-.35h-.05c1.12-4.01 1.78-9.22 1.98-15.6a187.82 187.82 0 0 0 .13-4.45z" transform="rotate(-180 210.5 156.85)"/><path fill="url(#l)" d="M241.38 129.19c1.25 1.87 2.53 4.64 3.83 8.33.3.86.6 1.68.9 2.44l.92 2.27.55 1.18c2.53-.35 4.6-1.1 6.2-2.24a77.07 77.07 0 0 0-2.9-7.96c-3.3-7.73-6.83-11.6-10.55-11.6-1.47 0-3.32.68-5.55 2.06a89 89 0 0 0-6.33 4.53 85.75 85.75 0 0 1-5.15 3.74c.5 1.52 1.3 2.96 2.38 4.3 2.55 3.35 5.58 3.92 9.1 1.72a13.12 13.12 0 0 0 1.68-1.76c.31-.4.62-.82.92-1.27.53-.8 1.14-1.87 1.85-3.21a292.6 292.6 0 0 0 1.67-3.21c.16.2.32.44.48.68" transform="rotate(-180 210.5 132.5)"/><path fill="url(#m)" d="M199.63 120.11a98.65 98.65 0 0 0 5.02 30.95 66.19 66.19 0 0 0 3.12 7.83 49.06 49.06 0 0 0 1.94 3.65c2.81 4.8 6.13 8.38 9.94 10.72.31-.48.64-.9.99-1.27l.2-.2c.17-.17.35-.33.53-.46a4.91 4.91 0 0 1 1.45-.8 6.67 6.67 0 0 1-2.2-2.41 22.98 22.98 0 0 1-1.72-3.12 35.15 35.15 0 0 1-.92-2.03c-.18-.44-.32-.89-.44-1.36l-.02-.04a9.2 9.2 0 0 1-.5-5.23l-5.95-.84 5.1-4.26c-.29-.59-1.5-2.47-3.65-5.63a141.2 141.2 0 0 1-5.98-9.5c-3.31-5.77-5.62-11.1-6.9-16" transform="rotate(-180 210.5 146.69)"/><path fill="url(#n)" d="M222.42 140.6a47.55 47.55 0 0 0-1.47-.84l-2.58 7.17-.22.44-.26.35-.35.3-.35.23-.36.13h-.35l-1.12-.2c-.2.94-.43 1.94-.68 3.01-1.26 5.43-1.9 9.18-1.9 11.26 0 4.83 1.43 10.74 4.27 17.71a339.3 339.3 0 0 1 5.68 13.02l.09-.13v.17l6.55-5.05a565.7 565.7 0 0 1-3.01-5.98l-1-2.03a104.64 104.64 0 0 0-4.92-8.96c-.53-4.78.25-9.32 2.33-13.63 2.08-4.25 3.18-9.13 3.3-14.64a75.64 75.64 0 0 0-3.65-2.33" transform="rotate(-180 210.5 166.5)"/><path fill="url(#o)" d="M251.61 135.83a52.52 52.52 0 0 0-2.11-7.05 23.93 23.93 0 0 0-.95-2.11 8.71 8.71 0 0 0-.77-.82l-3.58-1.89a5.5 5.5 0 0 0-1.39-.1l-1.43.13-.1.02a11.49 11.49 0 0 0-2.71.86l-.8.35c-.43.2-.87.43-1.32.66a47.64 47.64 0 0 0-7.08 4.57l-6.55 5.05-.05.27c-.32 2.25-.15 4.39.53 6.42a86.2 86.2 0 0 0 5.15-3.74 88.77 88.77 0 0 1 6.33-4.53c2.23-1.38 4.08-2.06 5.55-2.06 3.72 0 7.24 3.86 10.55 11.6 1.2 2.84 2.17 5.5 2.9 7.96a9.4 9.4 0 0 0 1.33-1.1l-.33-1.54-.73-3.38c-.34-1-.85-2.9-1.54-5.74l-.88-3.72-.02-.1" transform="rotate(-180 210.5 137.63)"/><path fill="url(#p)" d="M191.39 153.41c.5.37 1 .7 1.51 1-3.99-6.28-5.85-12.46-5.58-18.56a89.13 89.13 0 0 0-4.93-5.93c-3.14-3.37-6.16-5.06-9.06-5.06-2.35 0-6.2 3.18-11.53 9.54a531.83 531.83 0 0 1-6.2 7.74c.85.7 2.05 1.6 3.6 2.72l.75-.83c.82-.91 1.75-1.9 2.77-2.95 2.17-1.96 5.7-5.01 10.56-9.14 3.11 2.78 5.41 4.9 6.91 6.33 2.64 2.55 4.47 5.02 5.5 7.43a20.06 20.06 0 0 0 4.27 6.5l1.43 1.21" transform="rotate(-180 210.5 139.63)"/><path fill="url(#q)" d="M187.32 154.36c.11-2.73.67-5.44 1.67-8.13-1.06-.56-3.32-2.13-6.78-4.7-2.72-2.03-5.12-3.32-7.17-3.88a4.92 4.92 0 0 0-4.26-.08c-1.26.5-2.47 1.34-3.61 2.55a2282.9 2282.9 0 0 1-7.35 9.05 104.63 104.63 0 0 0-5.94 7.87l-.44.62v.02c.3.78.53 1.3.7 1.56.21.3.7.76 1.46 1.4a531.83 531.83 0 0 0 6.2-7.73c5.34-6.36 9.18-9.54 11.53-9.54 2.9 0 5.92 1.68 9.06 5.06 1.4 1.52 3.05 3.5 4.93 5.93" transform="rotate(-180 210.5 148.89)"/><path fill="url(#r)" d="M197.15 157.66a21.76 21.76 0 0 0-.13-.55 261.29 261.29 0 0 1-6.2-33.3l-.12-.97-.02 1.43a179.15 179.15 0 0 1-.1 3c-.21 6.4-.87 11.6-1.99 15.61h.05l.48.36a44.13 44.13 0 0 0 3.65 2.1l-1.01 1.02a455.6 455.6 0 0 0-2.33 2.46 277.97 277.97 0 0 1 2.68 5.47l.97 2 .26.57a93.25 93.25 0 0 0 2.51 4.53l.18.07c.2.06.43.1.66.15l.81.2c.26.09.52.21.77.37l-.09-.57a510.75 510.75 0 0 1-1.03-3.95" transform="rotate(-180 210.5 142.51)"/><path fill="#719ED9" d="M153.27 195.77l2.24.09a.98.98 0 0 1 .3-.04l.5-.1c.14 0 .28 0 .43-.04l2.11-.88c.1-.05.18-.11.27-.17a4.88 4.88 0 0 0 1.14-1.19 10.72 10.72 0 0 1-1.01-.44c-1.38-.67-2.84-2.04-4.4-4.1l-.09.45a95.14 95.14 0 0 1-1.45 6.25l-.04.17zm-11.3-9.71a20.2 20.2 0 0 1 5.14 4.5 49.64 49.64 0 0 1 .22-1.78 32.24 32.24 0 0 1 1.54-5.89 26.56 26.56 0 0 1 2.1-4.37 33.68 33.68 0 0 0-2.76-1.96 95.53 95.53 0 0 0-6.25 9.5zm-7.77 58.97c.13-.6.29-1.23.46-1.87a217.3 217.3 0 0 1 2.75-10.97 31.36 31.36 0 0 1-3.06 1.79 26.22 26.22 0 0 1-13.77 3.43c-4.8-.06-8.93-1.38-12.36-3.96a21.5 21.5 0 0 1-5.59-5.94 23.15 23.15 0 0 1-2.94-7.73c-.97-4.37-.7-8.88.83-13.54a31.93 31.93 0 0 1 2.33-5.63l-8.1-5.23a48.94 48.94 0 0 0-3.3 6.99 41.3 41.3 0 0 0-2.54 13.58c-.15 4.95.7 9.6 2.55 13.94a27.77 27.77 0 0 0 7.87 11.08 27.17 27.17 0 0 0 10.96 5.76 31.95 31.95 0 0 0 12.84 1.18 40.16 40.16 0 0 0 11.07-2.88z"/><path fill="#FAB440" d="M335.83 330.21v-16.26l-9.54 1.58.08 17.1 9.46-1.72zm60.27-39.08l-9.46 1.67v29.37l9.46-1.67v-22.03zm-280.1 9.8l-13.76 2.42v13.98l13.77-2.42v-11.1zm11.7-118a29.46 29.46 0 0 1 7.53.44 22.63 22.63 0 0 1 6.73 2.69 95.23 95.23 0 0 1 6.25-9.5 31.64 31.64 0 0 0-17.82-4.22l-1.89.35c-.18 1.3-.34 3-.48 5.15-.15 2.9-.25 4.6-.31 5.1z"/><path fill="#94DBE1" d="M359.94 291.04l-9.46 1.58v35.79l9.46-1.67v-.75zm38.76 28.93l9.45-1.63v-18.68l-9.45 1.67zm-273.02-136.6l2.03-.44c.06-.5.16-2.2.3-5.1.15-2.14.31-3.85.49-5.14l1.9-.35c-1.45 0-3.02.2-4.72.61v10.43z"/><path fill="#7C86CC" d="M141.83 202.92l-.53.06a30.35 30.35 0 0 0-3.25.66c-.6.15-1.12.3-1.59.44-.11.32-.17.66-.17 1.01-.15.82-.22 1.7-.22 2.64 0 .76.06 1.93.17 3.52l3.52-.44-.3 1.98 1.82-.4c.1-1.36.17-2.66.18-3.91a197.07 197.07 0 0 0-4.2.79l-.1-4.53 4.34-.72c.07-.4.18-.76.33-1.08v-.02"/><path fill="#C2C9EA" d="M112.44 216.44c.3-2.55.3-5 0-7.35-3.28.41-6.54.96-9.76 1.63a31.79 31.79 0 0 0 0 7.47 58.3 58.3 0 0 0 9.76-1.76z"/><path fill="#C2C9EA" d="M110.6 210.41v5.45l-6.16 1.01v-5.4z"/><path fill="#FFF" d="M121.94 214.24l4.5-.66c.08-2.44.08-4.59 0-6.47l-4.5.75v6.38zm-11.34-3.83l-6.16 1.06v5.4l6.15-1zm30.86-1.93a44.45 44.45 0 0 0-.03-1.9v-1.84a7.21 7.21 0 0 1 .07-.72l-4.33.72.08 4.53.8-.18c1.13-.21 2.27-.42 3.4-.61z"/><path fill="#939FD8" d="M121.94 214.24v-6.38l4.5-.75c.08 1.88.08 4.03 0 6.47l-4.5.66z"/><path fill="#939FD8" d="M121.37 206.2c-.44 3.07-.5 6.44-.17 10.1l6.11-1.1c.18-3.8.18-7.18 0-10.1l-5.94 1.1z"/><path fill="#1F2953" d="M205 323.05c.88-.1 1.47-.63 1.76-1.63.3-1.03 0-1.72-.88-2.07a75.24 75.24 0 0 1-3.6-1.27c-1.36-.5-2.51-1.03-3.48-1.58-.82-.85-2.26-2.95-4.31-6.3a22.63 22.63 0 0 0-3.17-4.12c-.6-.61-1.2-1.11-1.8-1.5-1.56-.56-2.94-.06-4.14 1.5-1.14 1.55-1.45 3.07-.92 4.57a12.07 12.07 0 0 1 7.65 3.34 16.9 16.9 0 0 1 1.67 1.76l.05.06a23.43 23.43 0 0 1 3.16 5.17c.44 1.44 1.57 2.18 3.4 2.24.46.03 1.25 0 2.37-.09 1.02-.08 1.77-.11 2.24-.08zm-45.88-153.57l-.49 1.8c.18-.08.36-.14.53-.17.7-1.2 1.26-2.08 1.67-2.64-.76.35-1.33.7-1.71 1.01zm-5.15 4.88a50.68 50.68 0 0 0-2.81 3.87l-.18.29a26.56 26.56 0 0 0-2.11 4.37 32.24 32.24 0 0 0-1.54 5.9 49.64 49.64 0 0 0-.22 1.77 66.31 66.31 0 0 0-.35 3.8l-.07 1.43-.2 4.33-.17 5.72a103.42 103.42 0 0 0-.05 5.23 67.25 67.25 0 0 0 .13 5.45l.05.09.13-.92c.03-.35.03-1.86 0-4.53 0-2.67.01-4.18.04-4.53.27-2.58 1-6.38 2.18-11.39l.38-1.6a368.3 368.3 0 0 1 1.45-5.74 722.2 722.2 0 0 1 2.1-7.89c.84-3 1.23-4.26 1.2-3.76.09-.76.1-1.4.04-1.89zm3.56-3.74a2.8 2.8 0 0 0-.74.8 2.9 2.9 0 0 0-.53 1.14l1.27-.7v-1.24zm3.66 4.4c.06.12.73.78 2.02 1.98a24.54 24.54 0 0 0 4.57 3.25c1.7.97 2.92 1.63 3.65 1.98a3.59 3.59 0 0 1-.74 1.23c-.38.41-.8.44-1.23.09a46.93 46.93 0 0 1-9.37-6.81c-.1.06-.2.15-.33.26l-.11.09a60.91 60.91 0 0 1-.66.57l-.58.44c-.28.2-.93.56-1.93 1.05a34.87 34.87 0 0 0-1.06 5.8 80.71 80.71 0 0 1-.57 3.94c1.56 2.07 3.02 3.44 4.4 4.11a18.08 18.08 0 0 0 3.21 1.14c1.26.3 2.52.4 3.78.31a9.39 9.39 0 0 0 1.52-.26l.11-.02c1.96-.56 2.97-1.74 3.04-3.54-1.82-.24-3.54-1.26-5.15-3.08a60.04 60.04 0 0 1-3.56-5.1c.61.27 1.36.72 2.24 1.36a56.99 56.99 0 0 1 2.2 1.67c1.79 1.24 3.4 1.68 4.84 1.32.04-.29.1-.55.15-.79a3.8 3.8 0 0 1 .68-1.5c.97-1.08 1.53-.83 1.68.76.08 1.52.16 2.4.22 2.63.73-.9 1.14-2.34 1.23-4.3.12-2.26.38-3.7.8-4.31.37-.62.84-.99 1.4-1.1l.04-.84c.07-1.53-.01-2.81-.26-3.84a5.9 5.9 0 0 0-.44-1.3c-.62-1.35-1.84-2.76-3.65-4.22-.36-.2-.85-.4-1.5-.57-.62-.18-1.8-.1-3.56.26l-.11.04a58.55 58.55 0 0 0-7.2 3.74l.1.18c.02.08.07.17.12.26l.05.04c.35-.11 1.52-.57 3.52-1.36a24.38 24.38 0 0 1 3.91-1.27c3.08-.65 5.2.23 6.34 2.63-.74.03-3.04.05-6.9.05-2.74 0-4.98.19-6.74.57a4.81 4.81 0 0 1-.18 2.46zm3.91-7.87a8.86 8.86 0 0 0-3.08 1.5 9.57 9.57 0 0 0-2.24 2.37c.26-.03.48-.01.66.04a49.06 49.06 0 0 1 3.34-2.1 11.63 11.63 0 0 1 3.83-1.37 9 9 0 0 0-2.5-.44zm18.46 94.06c.54-1.4.8-2.86.8-4.37v-.8c-.08-2.84-.7-5.52-1.84-8.04a186.2 186.2 0 0 0-2.9-.24 83 83 0 0 0-8.5-.29c-2.78.1-4.38.15-4.79.18-2.14.2-3.33-.72-3.56-2.77-.85-2.26-1.92-3.89-3.21-4.88-2 1.52-3.9 2.8-5.72 3.82-.97.53-1.92 1-2.86 1.41a21 21 0 0 1-9.81 1.67 20.41 20.41 0 0 0 2.33 13.48 17.34 17.34 0 0 0 7.08 7c.7.42 1.44.78 2.2 1.1.8.18 1.63.31 2.51.4 1.03.06 2.1.03 3.21-.09 1.5-.17 3.3-.52 5.41-1.05 1.2-.32 2.95-.8 5.24-1.4l6.11-1.55a390.19 390.19 0 0 1 6.12-1.54l1.4-.44a13.38 13.38 0 0 0 .78-1.6zm-4.38 48.91a16.17 16.17 0 0 0-2.69-5.71 7 7 0 0 0-5.32-3c-1.23.24-2.1 1.16-2.6 2.77a9.09 9.09 0 0 0-.21 4.1c1.87.17 3.28.39 4.22.65 1.55.5 2.65 1.3 3.3 2.42.38.53.7 1.26.97 2.2.14.52.34 1.3.59 2.35l.02.07c.47 1.96 1.34 3.13 2.6 3.51a2.6 2.6 0 0 0 2.68-1.14c.66-.84.79-1.72.4-2.64l-.1-.22a31.35 31.35 0 0 1-2.28-2.41 8.78 8.78 0 0 1-1.58-2.95z"/><path fill="url(#s)" d="M119.6 244.94l-9.73-1.69c-.1.74-.26 1.49-.46 2.24a19.16 19.16 0 0 1-2.47 5.41c1.12-.23 2.42-.7 3.92-1.4 1.7-.91 2.99-1.57 3.87-1.98 1.3-.64 2.92-1.5 4.86-2.58z" transform="rotate(-180 210.5 247.08)"/><path fill="url(#s)" d="M98.12 240.73a70.63 70.63 0 0 0-4.95-.08c-3.95.03-7.43.3-10.42.83l-21.87 3.87c-2.96.53-4.56 1.14-4.8 1.85-.23.67.98 1.26 3.62 1.76l19.35 3.38a37.37 37.37 0 0 0 3.15.42c3.8-4.7 8.74-8.41 14.8-11.15a4.94 4.94 0 0 1 1.1-.4l.02-.48z" transform="rotate(-180 210.5 246.7)"/><path fill="url(#t)" d="M109.87 254l9.72 1.7a256.5 256.5 0 0 0 4.86-2.71l-.3-1.05-.07-.16a20.3 20.3 0 0 0-1.65-.37l-12.56-2.2c.02.4.06.78.1 1.14.12 1.2.08 2.41-.1 3.65z" transform="rotate(-180 210.5 252.45)"/><path fill="url(#t)" d="M98.12 251.04c.07-1.58.17-3.16.29-4.74a75.8 75.8 0 0 0-5.24-.1c-3.95.04-7.43.32-10.42.84l-21.87 3.83c-2.96.53-4.56 1.14-4.8 1.85a.71.71 0 0 0 0 .35v4.44c.24-.7 1.84-1.32 4.8-1.85l21.87-3.87c2.99-.53 6.47-.8 10.42-.83a70.62 70.62 0 0 1 4.95.08z" transform="rotate(-180 210.5 251.85)"/><path fill="url(#u)" d="M138.53 168.82a7.28 7.28 0 0 1-.48.27c-.44-.3-.85-.66-1.24-1.1a5.43 5.43 0 0 1-1.36-2.33l-1.06.57-6.64 4.46a40.22 40.22 0 0 0-9.15 9.96 43.43 43.43 0 0 0-.7 1.14c-3.43 5.85-5.8 13.48-7.09 22.9a12.4 12.4 0 0 0 2.34-1.88l.04-.1a26.43 26.43 0 0 0 4.7-6.23c.48-.85.93-1.8 1.37-2.82.41-.97 1-2.42 1.76-4.35l.44-1.03c.36-.84.71-1.6 1.06-2.25l.52-.94a97.75 97.75 0 0 0 3.57-5.45l2.07-2.8a32.63 32.63 0 0 1 1.84-2.08 31.1 31.1 0 0 1 4.23-3.48 253.86 253.86 0 0 1 3.78-2.46" transform="rotate(-180 210.5 185.18)"/><path fill="url(#v)" d="M83.14 163.28c-.39.26-.8.48-1.2.68a34.25 34.25 0 0 0 1.07 6.66c.44 1.73 1.26 4.21 2.47 7.43a96.18 96.18 0 0 1 2.5 7.48 34.45 34.45 0 0 1 1.15 8.7c0 1.85-.85 3.9-2.55 6.16-1.53 2-3.4 3.75-5.6 5.27a15.2 15.2 0 0 1-3.9 2.03 57.43 57.43 0 0 0 6.6 5.23c.26-2.32 1.36-4.82 3.3-7.52 1.43-2 4.01-4.95 7.73-8.88l.8.13 3.47-3.03 1.54-1.36.49.66 2.59 4.08.04-.08h.53c.47 1.02.74 1.65.8 1.89.11.47.17 1 .17 1.58 0 1.79-.51 4.03-1.54 6.72a38.72 38.72 0 0 1-2.95 6.07l-.1.16.1-.03 2.25.1c.55.17.88.33.96.48.05.09.1.18.18.26l.8-.22c1.22-.24 2.24-.48 3.03-.75l.4-.17a1.69 1.69 0 0 0-.36.13c.35-1.12 1.04-3.58 2.07-7.39 1.03-3.84 1.57-6.93 1.63-9.27.03-2.32-.58-5.16-1.8-8.53A23.55 23.55 0 0 1 108.4 169l.61-1.47a266.87 266.87 0 0 1-14.6-2.1c-2.18-.36-4.24-.75-6.16-1.14-.48.17-1.02.23-1.63.18a9.4 9.4 0 0 1-3.48-1.19" transform="rotate(-180 210.5 188.72)"/><path fill="url(#w)" d="M110.81 198.32c1.3-9.42 3.66-17.06 7.09-22.9v-11.13a51.25 51.25 0 0 1-1.98 2.51c-.8.88-1.82 2.17-3.08 3.87-.2.23-.4.47-.57.7l-.05.05a64.11 64.11 0 0 1-2.42 3.07c1.24 3.37 1.84 6.22 1.8 8.53-.05 2.35-.6 5.44-1.62 9.28a236.22 236.22 0 0 1-2.07 7.39c.12-.06.24-.1.35-.14a14.7 14.7 0 0 0 2.56-1.23" transform="rotate(-180 210.5 181.99)"/><path fill="#DC1956" d="M320 184.52l.48.66 1.54-1.37c.03-.23.07-.47.13-.7l.27-1.76a40.45 40.45 0 0 0 .4-3.3.78.78 0 0 0 .21-.22c.2-.29.38-.64.53-1.05l-.97-2.15-1.67-.27-.62-.09-.35.75.09.57c.06.7.34 1.57.84 2.6l-.1.7a14.44 14.44 0 0 1-.17 1.58 300.57 300.57 0 0 0-.35 2.07 356.82 356.82 0 0 1-.26 1.98"/><path fill="#8CAAD5" d="M322.02 183.81l3.47-3.03a445.65 445.65 0 0 0-1.93-4c-.15.41-.32.76-.53 1.05a.78.78 0 0 1-.22.22 40.45 40.45 0 0 1-.4 3.3l-.26 1.76a5.81 5.81 0 0 0-.13.7zm-4.62-3.38l2.6 4.09.26-1.98.35-2.07c.09-.53.15-1.05.18-1.58l.08-.7a7.7 7.7 0 0 1-.83-2.6 25.21 25.21 0 0 0-.09-.57c-1.5 3.23-2.35 5.03-2.55 5.4z"/><path fill="url(#x)" d="M75.45 171.9a58.68 58.68 0 0 1-.8 5.01l1.59 4.11a47.4 47.4 0 0 1 1.8 6.03c.53 2.4 1.9 3.85 4.14 4.35.44.09.85.22 1.23.4a5.7 5.7 0 0 1 1.5 1.05c.76.88 1.3 1.83 1.62 2.86.38 1.26.46 2.62.22 4.09v.04l-.13.53a5.06 5.06 0 0 1-.13.57 29.49 29.49 0 0 1-.75 2.37 11.02 11.02 0 0 1-2.9 4.18 14.26 14.26 0 0 1-3.35 2.46 2.21 2.21 0 0 1-.53.26c-1.17.5-2.5.76-3.96.8.3.44.61.88.97 1.32l.1.04.04.13.08.09c.06.06.13.12.22.17l.05.14.35.35a.66.66 0 0 0 .26.22 15.2 15.2 0 0 0 3.92-2.02 24.61 24.61 0 0 0 5.59-5.28c1.7-2.26 2.55-4.3 2.55-6.16 0-2.87-.38-5.77-1.15-8.7a96.04 96.04 0 0 0-2.5-7.47A78.45 78.45 0 0 1 83 176.4a34.25 34.25 0 0 1-1.08-6.66c-.87.4-1.79.7-2.75.85a5.72 5.72 0 0 1-.74.14 8.88 8.88 0 0 0-3 1.16" transform="rotate(-180 210.5 191.6)"/><path fill="#327BAD" d="M308.3 295.13c.11.03.21.04.3.04h1.54a43.1 43.1 0 0 0 3.08-.26 120.73 120.73 0 0 0 9.66-42.25l.02-.48c.38-.1.75-.22 1.1-.4 6.06-2.73 11-6.45 14.8-11.14a38.3 38.3 0 0 0 2.31-3.15c-3.96 1.1-8.79 2.14-14.47 3.12-2.28.4-4.62.76-7.02 1.1a20.34 20.34 0 0 0-4.6 9.87 24.26 24.26 0 0 0-.35 3.32l-.06 1.4c-.31 5.78-1.18 12.7-2.62 20.8-1.53 8.77-2.76 14.78-3.7 18.03"/><path fill="url(#y)" d="M106.26 294.47l.33-.57.35-.31a19.16 19.16 0 0 0 2.47-5.4 16.86 16.86 0 0 0 .57-5.9 13.59 13.59 0 0 1-.11-1.14c-.08-1.88.2-4.15.86-6.82 1.02-4.01 1.58-6.63 1.67-7.87l1.05-12.17a49.98 49.98 0 0 1 2.73-11.92l.09-.3c-1 0-2.19-.12-3.56-.36-.94 3.26-2.17 9.27-3.7 18.03a175.45 175.45 0 0 0-2.68 22.2 24.26 24.26 0 0 1-.35 3.32 20.35 20.35 0 0 1-4.6 9.87 251.56 251.56 0 0 1 4.88-.66" transform="rotate(-180 210.5 268.42)"/><path fill="#F9AE8C" d="M279.02 203.29l.1-.18a4.36 4.36 0 0 1-.43.05l.33.13"/><path fill="url(#z)" d="M130.35 244.66a4.53 4.53 0 0 0-.88-.09 26.76 26.76 0 0 0-.22 3.21c0 2.99.42 8.75 1.27 17.28.85 8.5 1.28 14.56 1.28 18.2 0 2.28-.32 4.4-.97 6.37l3.67-.2c.31-1.19.47-2.57.47-4.15 0-.73-.03-1.83-.1-3.3 0-1.29.08-2.38.23-3.3.64-4.1.59-9.24-.18-15.43-.2-1.7-.55-4.26-1.05-7.69-.41-3.05-.68-5.63-.8-7.74a39.68 39.68 0 0 1-.13-1.89l-2.24-1.1-.35-.17" transform="rotate(-180 210.5 267.1)"/><path fill="#327BAD" d="M314.74 242.37a358.3 358.3 0 0 1-24.57 2.2c-.65 1.97-.97 4.1-.97 6.38 0 3.63.43 9.7 1.28 18.2.85 8.53 1.27 14.29 1.27 17.27 0 .94-.07 2.01-.22 3.21.97.03 1.85-.17 2.64-.61a3.69 3.69 0 0 0 1.9-2.95c.14-3.84.26-6.72.35-8.66.2-3.31.55-6.2 1.05-8.66 1.48-5.91 1.3-11.12-.55-15.63l-.06-.15c-.12-.35-.22-.7-.31-1.06a257.07 257.07 0 0 1 4.86-2.7 121.03 121.03 0 0 1 4.86-2.57c.88-.41 2.17-1.07 3.87-1.98 1.5-.7 2.8-1.17 3.92-1.4l.35-.32.33-.57"/><path fill="#5E6061" d="M290.13 289.72l.52-.17-.35-.18-.17.35"/><path fill="#2A3C8D" d="M317.62 134.88c-.06.77.56 1.66 1.85 2.69.9.66 2.27 1.1 4.11 1.34a24.62 24.62 0 0 0 3.06.2c3.29 0 6.02.2 8.2.59l.33.06a12.5 12.5 0 0 1 5.74 2.53l.02.02a1.09 1.09 0 0 0-.13-.26v-.09c-1.7-2.6-4.28-4.47-7.74-5.58a22.3 22.3 0 0 0-9.72-.88c-.8.14-1.69.06-2.69-.27-.17-.03-1-.35-2.46-.96-.2.2-.4.4-.57.61zm23.8 15.35c.07-.3.12-.59.17-.88v-.13a1.53 1.53 0 0 0 .1-.49 8.53 8.53 0 0 0-2.05-1.38 8.94 8.94 0 0 0-.38-.2 34.84 34.84 0 0 0-6.86-2.29 21.54 21.54 0 0 0-1.8-.35l.22.09.4.17c-.15.53-.56 1.35-1.24 2.47a3.47 3.47 0 0 0-.17.44 1.7 1.7 0 0 0 0 1.14l1.27.17 1.06.1c2.56.21 4.42.4 5.58.52a42.02 42.02 0 0 1 3.7.62z"/><path fill="url(#A)" d="M135.45 192.03v-.02c-.07-.2-.13-.4-.18-.63a6.13 6.13 0 0 1-.08-1.06c0-.48.03-.93.08-1.36a426.77 426.77 0 0 1-6.97-.4l-2.4.88c-2.05.5-3.96 1.9-5.72 4.22l-.9 1.39c-.36.5-.7 1-1 1.45l-.03.04-.35.5v11.13a40.3 40.3 0 0 1 9.85-11.1l6.64-4.46 1.06-.58" transform="rotate(-180 210.5 198.37)"/><path fill="#D11E25" d="M339.07 213.47c-.42.2-.82.43-1.21.68l.7.44a7 7 0 0 1 .24-.09l.31-.07a3.3 3.3 0 0 1 1.78.11c.74.2 1.3.53 1.72 1.02.35.4.58.89.7 1.49l.05.09c.35 1.82-.43 3.16-2.34 4.04 1.47.15 2.92.2 4.36.18.12-.24.22-.47.3-.7l.49-2.69c0-.46-.04-.89-.11-1.3a5.18 5.18 0 0 0-.2-.8l-1.01-1.8a5.91 5.91 0 0 0-2.29-1.6c-.26.04-.51.08-.74.14-.96.16-1.88.45-2.75.86zm-57.02-5.87a284.3 284.3 0 0 1 3.68.17c.05-.42.08-.88.08-1.36 0-.37-.03-.72-.08-1.05a4.82 4.82 0 0 0-.18-.64v-.02a5.45 5.45 0 0 0-1.36-2.33 6.15 6.15 0 0 0-1.24-1.1 7.28 7.28 0 0 0-.48.26c-1.29.38-2.4.9-3.34 1.58l-.11.18c.24.1.47.22.68.35a4.56 4.56 0 0 1 2.35 3.96z"/><path fill="url(#B)" d="M233.66 214.7a103 103 0 0 1-1.76-3.1l-1.56.26a3.68 3.68 0 0 1-1.5.05l-.04.44-1.23 3.43 2.33-.4c1.3-.22 2.55-.45 3.76-.68z" transform="rotate(-180 210.5 213.69)"/><path fill="url(#B)" d="M249.65 215.58l-6.13 1.05c.77.71 1.6 1.45 2.46 2.22a62 62 0 0 0 3.9-1.32 6.75 6.75 0 0 1-.05-.33 92.3 92.3 0 0 0-.18-1.62z" transform="rotate(-180 210.5 217.22)"/><path fill="url(#B)" d="M106.77 220.72v-.97l-2.16-.37v.94c0 .27.13.4.4.4h1.76z" transform="rotate(-180 210.5 220.05)"/><path fill="url(#B)" d="M104.61 225.27l2.16-.37v-1.76H105c-.27 0-.4.12-.4.35v1.78z" transform="rotate(-180 210.5 224.2)"/><path fill="url(#B)" d="M102.28 223.78l-4.53-.8 4.53-.79V220c0-1.81.91-2.72 2.73-2.72h1.76v-1.93c-.09-.33.5-.6 1.76-.84a30.53 30.53 0 0 1 9.77.09c1.43.26 2.2.56 2.33.88v3.98l28.85 5.07-21.55 3.78-7.3-1.3v2.58c.11.35-.47.63-1.76.83a30.75 30.75 0 0 1-9.77-.09c-1.44-.23-2.22-.52-2.33-.87v-1.58H105c-1.82 0-2.73-.91-2.73-2.73v-1.36z" transform="rotate(-180 210.5 222.46)"/><path fill="url(#B)" d="M135.27 239.52a284.3 284.3 0 0 0 3.68.17l2.81.11a2.7 2.7 0 0 1 .77-.77c.65-.35 2.01-.86 4.1-1.54.15-.07.44-.3.85-.7l1.04-1.1c.96-1.05 1.65-1.61 2.06-1.67.85-.12 1.34.2 1.45.97.06.61-.4 1.5-1.4 2.68-.2.23-.4.46-.62.68a17.08 17.08 0 0 1-1.76 1.63l.64.02a619.25 619.25 0 0 0 13.26.13c8.72 0 17.02-.17 24.9-.53l1.5-.06 4.8-13.26.17-.4.44-.56.35-.27.35-.17.18-.05h.17l.62-.26 22.48-3.91.48-.05.58.05 11.28 1.95a4.3 4.3 0 0 1 2.05-1.12 4.67 4.67 0 0 1 5.36 2.42l11.48 1.98a5.84 5.84 0 0 1 2.25-5.28 6.7 6.7 0 0 1 2.97-1.5c-2.74-1.72-7.13-3.33-13.18-4.8a122.31 122.31 0 0 0-4.93-1.13 195.69 195.69 0 0 0-6.5-1.23 279.74 279.74 0 0 0-12.26-1.8c-2.82-.35-5.72-.67-8.69-.97a512.53 512.53 0 0 0-4.37-.4 533.95 533.95 0 0 0-10.6-.74c-9.93-.59-20.57-.88-31.92-.88-10.73-.01-20.83.24-30.29.77a282.89 282.89 0 0 0-3.9.24c-8.86.57-17.14 1.38-24.85 2.44l-.22.02c-2.55.36-5.05.74-7.48 1.15l-1 .17c-7.13 1.23-12.89 2.55-17.3 3.98-4.88 1.57-8.1 3.26-9.68 5.08a4.01 4.01 0 0 0-1.1 2.64c.01 1.15.61 2.25 1.8 3.32a39.81 39.81 0 0 1 7.53-1.04 36.32 36.32 0 0 1 4.36.18c.7-.53 1.36-.65 1.98-.36.67.33 1.29.41 1.84.27a2.4 2.4 0 0 0 1.41-1.19c1.82.62 3.14 1.13 3.96 1.54 1.44.67 2.29 1.6 2.55 2.77 1.09-.09 1.8.04 2.16.4.32.32.3.73-.05 1.23-.32.5-.82.9-1.5 1.18a3.6 3.6 0 0 1-2.2.27 3.31 3.31 0 0 1-1.88 1.93 265.7 265.7 0 0 0 20.76 3.23 357 357 0 0 0 19.3 1.74c2.27.15 4.6.28 6.96.4z" transform="rotate(-180 210.5 223.65)"/><path fill="url(#C)" d="M209.62 228.37l-3.78-.35a441.14 441.14 0 0 0-5.44-.44c-1.5-.1-3.01-.21-4.55-.3a536.9 536.9 0 0 0-33.74-1 541.47 541.47 0 0 0-31.28.84c-8.74.5-16.92 1.23-24.57 2.2a251.56 251.56 0 0 0-4.88.66c-2.4.34-4.74.7-7.02 1.1-5.68.98-10.5 2.02-14.47 3.12-9.06 2.53-13.6 5.39-13.6 8.57.01.9.38 1.78 1.1 2.64 1.58-1.82 4.8-3.51 9.68-5.08 4.41-1.43 10.18-2.75 17.3-3.98l1-.18c2.44-.4 4.93-.78 7.48-1.14l.22-.02c7.7-1.06 16-1.87 24.86-2.44a282.89 282.89 0 0 1 3.9-.24c9.45-.53 19.55-.78 30.28-.77a542.37 542.37 0 0 1 37.37 1.23 533.68 533.68 0 0 1 9.52.8 280.86 280.86 0 0 1 20.94 2.77c2.32.39 4.49.8 6.52 1.22 1.75.36 3.39.74 4.92 1.12 6.05 1.48 10.44 3.09 13.18 4.82a6.91 6.91 0 0 1 2.75 0c.15-.28.37-.59.66-.95-.2-3.43-5.74-6.49-16.59-9.16a133.62 133.62 0 0 0-4.92-1.1 195.69 195.69 0 0 0-6.51-1.23 262.8 262.8 0 0 0-11.33-1.67 328.45 328.45 0 0 0-9-1.04" transform="rotate(-180 210.5 235.84)"/><path fill="#8CCFF2" d="M191.36 223.47h.22l7.75-1.36h.04l.04-.05-.04-.04h-.04l-7.81-1.34.1.24c.16.95.07 1.8-.26 2.55zm-10.2-2.18l-.97.16-.09.04h-.04l.09.09 1.56.26a46.27 46.27 0 0 0-.55-.55zm.88.88l-10.52-1.82c.05.3.1.63.13.97v.08l11.49 1.98-.05-.09a71.18 71.18 0 0 0-.7-.74h-.05l-.08-.1-.05-.08-.02-.02-.15-.18zm40.07-1.56l-25.51-4.44h-.05l-.61-.09-.09.1v.12h-.22l-.04.05 25.42 4.44h.1zm-32.68-4.22l.04.09 1.06-.18h.22l.35.05.04-.1.7-.17h.27l1.5.27.04.04v.13l.35-.08h.27l1.54.3v.13l.4-.04h.26l1.5.3v.14l.39-.09h.17l1.59.31v.13l.35-.04h.26l1.5.3.04.14.36-.1h.26l1.54.32v.13l.4-.04h.26l1.45.3.05.14.35-.1h.22l1.58.31v.14l.35-.05h.22l1.59.31v.13l.3-.04h.05l.04-.05h.13l.05.05h.04l1.54.26v.13l.35-.04h.27l1.54.3v.14l.35-.09h.22l1.58.3v.14l.36-.04h.22l1.54.3.04.14.35-.1h.22l1.5.27.04.1v.3l-.7.09h-.05l-.04.04h-.13v-.04h-.05l-.26-.05v.13l-1.59.31h-.08v-.04h-.35v.09l-.05.04-1.45.22h-.22l-.3-.04-.05.17-1.45.26h-.27l-.3-.08v.17l-1.55.27h-.13l-2.33-.4v.09l1.01.22.05.3-.8.14h-.04l-.04.04-.05-.04h-.04l-1.63-.27v-.13l-.22.05h-.22l-1.58-.27v-.13l-.27.04h-.17l-1.63-.26v-.13l-.35.04h-.27l-1.45-.26h-.04v-.13l-.27.04h-.35l-1.93-.35h-.05v-.18l-.26.05-.09.04h-.18l-8.09-1.4.04.13 18.74 3.25.8-.04 12.14-2.11.13-.05-.18-.09-30.66-5.32h-.66z"/><path fill="#8CCFF2" d="M232.45 207.75l1.54-4.28 4.14-11.43.04-.44-.04-.4-.05-.18-.26-.44-.3-.17.12.09.13.13.1.13.08.18.04.35v.22l-.04.44-10.43 28.97-.48.79-.3.3-.18.14-.31.13v-.83l-.05.04-.08.04-.14.05-23.36 4-1.49-.09-9.92-1.71-.24.4c-.13.17-.27.34-.42.5l11.28 1.95.58.05.48-.05 22.48-3.9.61-.27h.18l.18-.05.35-.17.35-.27.44-.57.18-.4 4.8-13.25z"/><path fill="#E7F7FE" d="M201.66 220.88h.22l1.5-.27-.05-.04-1.45-.22h-.05l-.04-.05h-.04l-.05.05h-.04l-1.5.26zm-1.67.52l1.93.31.13.04 1.94-.3-.05-.05h-.04l-2.02-.35-.49.04-1.45.31zm-2.86-1.84l-.13-.1-1.37-.21h-.22l-1.5.3 1.5.27h.22zm-.44-.84h-.27l-1.45.3 1.45.27 1.72-.26zm7.12.57l-.13-.09-1.32-.22h-.26l-1.45.31 1.5.27h.26l1.36-.27zm-.92.53l-.04-.04h-.14l-.04.04h-.04l-1.46.26 1.5.27h.22l1.5-.27-1.46-.26zm-2.6-1.19h-.26l-1.5.31 1.5.26h.22l1.5-.26-.18-.09zm.53.8h-.26l-1.45.3 1.5.27h.21l1.5-.27zm-2.02.21l1.36-.26h.09l-1.5-.3h-.26l-1.45.3h.04l1.37.26a.71.71 0 0 0 .35 0zm.97.31h-.18l-1.54.3 1.54.27h.18l1.5-.26-.14-.05zm-.58-.04l-.13-.09-1.36-.22h-.18l-1.5.3 1.5.27h.18zm.4-1.5l1.63.27 1.45-.27h.04l-1.45-.3H201l-1.45.3zm-2.73-1.05l-1.54.3 1.54.27h.22l1.5-.26-1.5-.31zm7.66 4.13h-.22l-1.72.3-.04.05 1.5.27h.26l1.71-.31zm.92-.48l-.13-.1-1.45-.21h-.14l-1.49.3 1.5.27h.22zm.49.04h-.1l-1.53.3 1.5.27h.21l1.54-.26-.17-.09zm1.27 1.28l-.04-.05-1.1-.22-.4-.04h-.26l-.7.17 1.58.27h.17zm-1.8-1.5l1.45.27h.17l1.54-.27-1.5-.3h-.26l-1.45.26zm-.66-.13h.22l1.45-.22.04-.04-1.45-.31h-.26l-1.46.3zm4.8.83l1.36.27h.4l1.36-.27h.04l-1.5-.3h-.26l-1.45.3zm.04.18l-.14-.09-1.27-.22h-.27l-1.5.31 1.5.26h.18zm.57.04h-.18l-1.54.31 4.14.7h.04l.05.05h.04l.04-.05h.05l1.5-.22zm-2.2.53l-.22.09h-.26l-.22.04-.53.14 1.58.26h.22l.75-.18h.22l.75-.13-1.54-.3h-.27l-.44.08zm.97-1.58l1.54.3h.17l1.5-.26-.13-.09-1.32-.22h-.27l-1.45.27zm-4.18-1.94h.08l-1.5-.3h-.26l-1.45.26h-.04v.05l1.45.26h.35zm.66.05h-.22l-1.46.26h-.04v.05l1.45.26h.27l1.5-.26zm6.24 1.1h-.22l-1.5.3 1.5.27h.22l1.5-.27zm-2.5.97h-.27l-1.5.3 1.55.27h.22l1.45-.27h.04zm-3.21-1.24l-1.5-.3h-.27l-1.45.3.05.05 1.36.22h.35l1.37-.22zm1.58.1l1.5-.27h-.05l-.04-.05-1.46-.22h-.04v-.04h-.09l-.04.04-1.5.22-.04.05 1.5.26zm.3.08v.04l1.55.22h.17l1.54-.22v-.04l-.09-.04-1.45-.22h-.17zm.75.26l-.04-.04h-.13l-.05.04-1.5.27.05.04 1.37.22h.13l.04.05h.05l.04-.05h.13l1.37-.22.04-.04-.18-.05zM208 220l-.17-.05-1.32-.22h-.27l-1.45.27.04.04 1.37.22h.3l1.46-.22zm-16.82-.14l8.24 1.45h.18l.09-.04 1.71-.3-9.8-1.72h-.27l-.42.09.27.52zm-.31-.63l.1-.02-.12-.03zm-.27-.6l.16.35.48.1h.27l1.5-.27-.14-.05-1.45-.26h-.13l-.69.13zm-.15-.26l.09.15.4-.06zm-.37-.73c.1.19.2.37.28.55h.18l1.4-.26-1.49-.3h-.26l-.11.01zm.2-.15l1.45.26h.26l1.5-.26-.22-.09-1.32-.22h-.18l-1.45.27zm-.34-.11l1.43-.24-.17-.09-1.56-.26.3.59zm-7.72 4.99l.05.09.09.09h.04zm53.98-30.12l-9.63 26.73-32.12-5.58 9.64-26.73zm-22.08 28.63l-.05.04 1.5.26h.22l1.45-.22.09-.04-1.5-.3h-.26zm-.62-.05h.22l1.5-.26-1.45-.31h-.27l-1.5.3zm.66.26h.09l-.18-.08-1.32-.22h-.26l-1.5.3 1.54.27h.18zm.66.05h-.26l-1.45.3h.04l1.45.27h.22l1.45-.26h.05zm-.22 1.27h.27l1.45-.26-3.04-.57h-.22l-1.5.3zm2.07-.35h.22l1.5-.26-1.5-.31h-.22l-1.5.3zm-27.19-5.58l.11.22 1.04.17h.22l1.5-.26-.1-.09-1.14-.17-.35-.05h-.22zm1.67-.22h.05l1.5.26h.21l.75-.13-.04-.04-1.5-.27h-.26zm1.54.97h.27l1.45-.27-1.5-.3h-.22l-1.45.26h-.04v.04zm2.2-.22h-.08l-1.5.3 1.5.27h.17l1.54-.27zm-1.14 1.1h.35l1.37-.23.04-.04-1.45-.3h-.27l-1.45.3.05.04zm.22.21l.04-.04-1.5-.3h-.26l-1.45.3 1.5.26h.3zm.66.05h-.27l-1.5.26 1.42.27h.3l1.46-.22.04-.05zm-.22-.22l-.04.04.08.05 1.46.22h.17l1.45-.22.09-.05-.18-.04-1.32-.22h-.04v-.05h-.13l-.05.05h-.04zm.66 1.05l-.13-.08-1.46-.22h-.04l-1.58.26v.04l1.5.27h.21zm.75-2.46l-1.54-.3H194l-.35.08-.3.05-.1.04 1.59.26h.22zm0 .13l-.4.1v.04l1.59.26h.22l.7-.13h.04l-1.5-.31h-.26zm2.15.4l-.35.09 1.5.26h.26l.75-.13-1.59-.3h-.17zm.22 1.01h-.26l-1.5.27 1.54.26h.05l.04.04h.04l.05-.04h.04l1.5-.26-.18-.05zm1.01-.53h-.26l-1.5.31 1.5.26h.22l1.5-.26zm3.04.13l-1.5-.3h-.26l-.35.04-.35.13h.04l1.45.27h.27zm2.2.36l-1.54-.31h-.26l-.36.09-.35.08 1.54.31h.22zm0 .13l-.3.04-.05.1 1.54.26h.17l.75-.14-1.45-.3h-.27zm4.31.61l-1.58-.3h-.22l-.35.09-.36.08 1.46.27h.26l.7-.1zm2.16.4l-1.59-.3h-.22l-.35.04-.4.08 1.54.31h.27zm2.15.35l-1.54-.26h-.04l-.05-.05h-.13l-.04.05h-.05l-.3.04-.36.09.05.04 1.5.27h.17zm2.16.4l-1.54-.31h-.27l-.35.04-.35.05-.04.04v.05l1.58.26h.17zm2.15.35l-1.58-.3h-.22l-.35.08-.36.04h-.04v.05l1.58.26h.18l.7-.09zm.49.53h-.18l-1.45.3 2.46.4h.13l1.59-.26zm1.62-.13l-1.54-.31h-.22l-.35.04-.4.09v.04l1.55.27h.26zm2.16.39l-.04-.09-1.5-.26h-.22l-.35.09-.4.09.05.04 1.5.22h.04v.04h.13l.04-.04h.05zm-10.34 1.76l-1.01-.22-.53-.09h-.26l-.66.13h-.05v.05l1.59.26h.17z"/><path fill="#E7F7FE" d="M198.71 196.94l-5.28 14.66-1.23 3.43-.04.44 3.78.61.61.1h.05l25.51 4.43h.05l3.96.7.13.14v.83l.3-.13.18-.13.31-.31.49-.8 10.42-28.96.05-.44v-.22l-.05-.35-.09-.18-.08-.13-.14-.13-.13-.1-.3-.12-1.17-.2-4.3-.75-7.27-1.25-2.6-.46-16.23-2.82-1.12-.2h-.35l-.36.14-.35.22-.35.3-.27.36-.22.44-2.57 7.16z"/><path fill="#C0E9FA" d="M177.48 217.8l-6.13 1.05.17 1.5 10.52 1.82a8.33 8.33 0 0 1-.33-.33l-1.56-.26-.1-.09h.05l.09-.04.97-.16a109.24 109.24 0 0 0-3.68-3.5zm13.88 2.55c.06.1.1.22.16.33l7.8 1.34h.05l.04.04-.04.05h-.04l-7.75 1.36h-.22a2.87 2.87 0 0 1-.15.3l9.92 1.72 1.5.09 23.36-4 .13-.05.08-.04.05-.04-.13-.13-3.96-.7h-.05l-1 .17h-.1l-25.42-4.44.04-.05h.22v-.13l.09-.09-3.79-.61a3.68 3.68 0 0 0-1.49.04l-1.56.27.33.61 2.24-.4h.66l30.66 5.33.18.08-.13.05-12.14 2.1-.8.05-18.74-3.25z"/><path fill="#6CB0DA" d="M201.66 220.88l-1.5-.27 1.5-.26h.04l.05-.05h.04l.04.05h.05l1.45.22.04.04-1.5.26zm-1.67.52h-.05l1.45-.3.49-.05 2.02.35h.04l.05.05-1.94.3-.13-.04zm.83-1.98l1.5.31-1.5.27h-.22l-1.5-.27 1.46-.3zm-.53-.79l1.28.22.18.1-1.5.25h-.22l-1.5-.26 1.5-.3zm2.6 1.19h.04l1.45.26-1.5.27h-.21l-1.5-.27 1.46-.26h.04l.04-.04h.13zm.92-.53h-.04l-1.36.27h-.27l-1.5-.27 1.46-.3h.26l1.32.21zm-7.12-.57l1.45.3-1.72.27-1.45-.26 1.45-.3zm.44.84l-1.5.26h-.22l-1.5-.26 1.5-.31h.22l1.37.22zm1.67.08a.71.71 0 0 1-.35 0l-1.37-.26h-.04l1.45-.3h.26l1.5.3h-.09l-1.36.26zm.4.27l-1.5.26h-.18l-1.5-.26 1.5-.31h.18l1.36.22zm.57.04l1.36.27.13.04-1.5.26h-.17l-1.54-.26 1.54-.3zm-.18-1.54h-.04l1.45-.3h.26l1.45.3h-.04l-1.45.27zm-2.73-1.05h.22l1.5.3-1.5.27h-.22l-1.54-.26zm8.58 3.65l-1.5.26h-.22l-1.49-.26 1.5-.31h.13l1.45.22zm-.92.48l1.5.3-1.72.32h-.27l-1.5-.27.05-.04 1.72-.31zm1.4-.44l1.46.22.17.09-1.54.26h-.22l-1.5-.26 1.55-.3zm-.52-.22l-.05-.04 1.45-.27h.27l1.5.31-1.55.26h-.17zm-.66-.13l-1.46-.27 1.46-.3h.26l1.45.3-.04.05-1.45.22zm4.8.83h-.05l1.45-.3h.26l1.5.3h-.04l-1.37.27h-.4zm.04.18l-1.5.26h-.18l-1.5-.26 1.5-.3h.27l1.27.21zm-1.63.57h.04l.44-.09h.27l1.54.31-.75.13h-.22l-.75.18h-.22l-1.58-.26.53-.14-.05-.08-.75.13h-.17l-1.59-.27.7-.17h.27l.4.04v-.13l.3-.09v.18l1.55.26zm2.2-.53l4.13.8-1.5.22h-.04l-.04.04h-.04l-.05-.05h-.04l-4.14-.7 1.54-.3zm-1.23-1.05h.04l1.45-.27h.27l1.32.22.13.1-1.5.26h-.17zm.22.18l1.5.3h-.05l-1.45.27h-.22l-1.54-.27 1.5-.3zm2.5-.97l1.5.3-1.5.27h-.22l-1.5-.27 1.5-.3zm-6.24-1.1l1.5.3-1.5.27h-.27l-1.45-.26v-.05h.04l1.46-.26zm-.66-.05l-1.37.27h-.35l-1.45-.27v-.04h.04l1.45-.26h.27l1.5.3zm1.19.88l-.1.05-1.36.22h-.35l-1.36-.22-.05-.05 1.45-.3h.27zm1.58.1h-.27l-1.5-.27.05-.05 1.5-.22.04-.04h.1v.04h.03l1.46.22.04.05h.04zm1.05.34l1.32.22.18.05-.04.04-1.37.22h-.13l-.04.05h-.05l-.04-.05h-.13l-1.37-.22-.04-.04 1.5-.27.04-.04h.13zm-.74-.26l1.54-.26h.17l1.45.22.1.04v.04l-1.55.22h-.17l-1.54-.22zm.17.18l-.04.04-1.45.22h-.31l-1.37-.22-.04-.04 1.45-.27h.27l1.32.22zm-17.73-2.51l.05-.04 1.45-.27h.18l1.32.22.22.09-1.5.26h-.26zm26.4 4.57l-1.5-.26 1.5-.31h.22l1.5.3-1.5.27zm-2.07.35l-3.03-.52 1.5-.31h.21l3.04.57-1.45.26zm.22-1.27l1.5.3h-.05l-1.45.27h-.22l-1.45-.26h-.04l1.45-.31zm-.66-.04l-1.45.26h-.18l-1.54-.27 1.5-.3h.26l1.32.22.18.09zm-.66-.27l-1.5-.26 1.5-.31h.27l1.45.3-1.5.27zm.62.04l1.45-.26h.26l1.5.3-.09.05-1.45.22h-.22l-1.5-.26zm-19.05-1.67l-1.5.27h-.22l-1.5-.27v-.04l1.6-.26h.03l1.46.22zm-.66-1.05l1.45-.22h.04l.05-.04h.13v.04h.05l1.32.22.17.04-.09.05-1.45.22h-.17l-1.46-.22-.08-.05zm.22.22l1.45.26-.04.05-1.46.22h-.3l-1.41-.27 1.5-.26zm-.66-.05l-1.36.22h-.31l-1.5-.26 1.45-.3h.27l1.5.3zm-.22-.22l-1.36-.22-.05-.04 1.45-.3h.27l1.45.3-.05.04-1.36.22zm1.14-1.1l1.63.31-1.54.27h-.17l-1.5-.27 1.5-.3zm-2.2.23l-1.5-.27v-.04h.05l1.45-.27h.22l1.5.31-1.45.27zm6.51.52l1.46.31-1.5.26h-.22l-1.5-.26 1.5-.3zm-1 .53l1.31.22.18.05-1.5.26h-.04l-.05.04h-.04l-.04-.04h-.05l-1.54-.26 1.5-.27zm19.66 2.73l2.55.44-1.59.26h-.13l-2.46-.4 1.45-.3z"/><path fill="#6CB0DA" d="M191.32 220.22l8.1 1.4h.17l.09-.04.26-.05v.18h.05l1.93.35h.35l.27-.04v.13h.04l1.45.26h.27l.35-.04v.13l1.63.26h.17l.27-.04v.13l1.58.27h.22l.22-.05v.13l1.63.27h.04l.05.04.04-.04h.04l.8-.13-.05-.31-.75.13h-.17l-1.59-.26v-.05h.05l.66-.13h.26l.53.09v-.09l2.33.4h.13l1.54-.27v-.17l.31.08h.27l1.45-.26.04-.17.3.04h.23l1.45-.22.05-.04v-.1h.35v.05h.08l1.59-.3v-.14l.26.05h.05v.04h.13l.04-.04h.05l.7-.1v-.3l-.7.09h-.05l-.04.04h-.13v-.04h-.05l-1.5-.22-.04-.04.4-.1-.05-.12-.7.13h-.26l-1.54-.27v-.04l.4-.09v-.13l-.1.04-.7.1h-.17l-1.59-.27v-.05h.05l.35-.04v-.13l-.8.13h-.17l-1.58-.26v-.05l.04-.04.35-.05v-.13l-.79.18h-.18l-1.5-.27-.04-.04.36-.09v-.13l-.75.13h-.27l-1.54-.3.4-.1v-.13l-.09.05-.7.09h-.26l-1.46-.27.36-.09-.05-.13-.75.13h-.17l-1.54-.26.04-.09.3-.04v-.13l-.74.17h-.22l-1.54-.3.35-.1-.04-.13-.7.14h-.27l-1.45-.27h-.04l.35-.13v-.13l-.75.13h-.26l-1.5-.26.35-.09v-.13h-.04l-.7.13H197l-1.59-.26v-.05l.4-.09v-.13l-.75.13h-.22l-1.58-.26.08-.04.31-.05v-.13l-.75.13h-.22l-1.5-.26h-.04l-.04.09 1.14.17.1.09-1.5.26h-.22l-1.04-.17.05.09 1.56.26.17.09-1.43.24.14.26.1-.02h.27l1.5.3-1.41.27h-.18l.09.18.48.09-.4.06.07.11.69-.13h.13l1.45.26.13.05-1.5.26h-.26l-.48-.09.09.2.13.02-.11.03.04.1.42-.08h.26l9.81 1.71-1.71.31-.09.04h-.18l-8.24-1.45.15.35z"/><path fill="#4A9BDB" d="M208.6 204.04l-6.06-.84-.35.93 6.07.83zm.45 4.48l3.74.62 3.52-9.28-3.74-.61zm-8.54-1.5l6.6.89.35-.97-6.6-.88zm3.08-1.18l4.1.57.35-.92-4.1-.57zm5.59-3.25l-7.3-1.01-.4.92 7.3 1z"/><path fill="#4A9BDB" d="M236.2 192.25l-32.12-5.58-9.64 26.73 32.12 5.58z"/><path fill="#4A9BDB" d="M224.53 213.62l-25.73-4.53 6.95-18.07 25.73 4.53z"/><path fill="#4A9BDB" d="M226.25 201.93l-3.74-.62-3.52 9.28 3.74.61zm-4.05-3.48l-3.7-.61-4.44 11.56 3.7.62zm92.03 25.06l2.16-.37v-2.42l-2.16-.37zm4.49-.79l4.53-.79-4.53-.8zm-18.35-4.81l-7.3-1.3-21.55 3.78 28.86 5.08z"/><path fill="#86D7D6" d="M207.2 222.33l.04.08.22-.04h.27l.22-.09h-.05l-1.54-.26v-.18l-.3.09v.13l1.1.22.04.05"/><path fill="url(#D)" d="M75.62 172.2a39.81 39.81 0 0 0-8.67 1.33c-3.52.88-5.57 2.84-6.15 5.89-.59 3.05-.59 5.67 0 7.87a74.62 74.62 0 0 0 1.8 6.15c.62 1.9 1.29 3.87 2.02 5.9.7 2.04 1.15 3.4 1.32 4.04a170.74 170.74 0 0 0 3.65 10.72 16.44 16.44 0 0 0 5.1 7.26h.32c1.46-.04 2.78-.3 3.95-.8a2.21 2.21 0 0 0 .53-.26 14.23 14.23 0 0 0 3.35-2.46 11.01 11.01 0 0 0 2.9-4.18c.32-.9.57-1.7.75-2.37-1.67 1.56-4.28 1.54-7.83-.04a8.82 8.82 0 0 1-4.27-4 20.25 20.25 0 0 1-1.58-4.49 332.37 332.37 0 0 0-2.47-8.26c-1.52-5.34-2.28-8.52-2.28-9.54 0-1.26.63-2.7 1.89-4.31a9 9 0 0 1 5.06-3.3c.02.12.07.23.13.35a5.18 5.18 0 0 1-.2-.81 7.32 7.32 0 0 1-.11-1.3l.48-2.68.31-.7" transform="rotate(-180 210.5 196.78)"/><path fill="url(#E)" d="M74.65 191.03a705.02 705.02 0 0 0-1.27-3.23 8.56 8.56 0 0 1 2.07-1.78 8.88 8.88 0 0 1 2.99-1.16 5.92 5.92 0 0 1-2.29-1.59l-1.01-1.8a1.7 1.7 0 0 1-.13-.35 9 9 0 0 0-5.06 3.3c-1.26 1.61-1.9 3.05-1.9 4.3 0 1.03.77 4.21 2.3 9.55l.65 2.15a353 353 0 0 1 1.8 6.11c.5 1.97 1.03 3.46 1.59 4.49a8.82 8.82 0 0 0 4.27 4c3.54 1.58 6.16 1.6 7.83.04.06-.2.1-.4.13-.57l.13-.53v-.04a9.07 9.07 0 0 0-.22-4.1 8.02 8.02 0 0 0-1.63-2.85 5.7 5.7 0 0 0-1.5-1.05 5.5 5.5 0 0 0-1.22-.4c-2.23-.5-3.61-1.95-4.14-4.35a47.4 47.4 0 0 0-1.8-6.03 585.09 585.09 0 0 0-1.59-4.1" transform="rotate(-180 210.5 198.67)"/><path fill="url(#F)" d="M240.81 267.24l-3.5.62-2.2.37-2.97.53c-2.96.53-4.56 1.14-4.8 1.85a.69.69 0 0 0 0 .35v4.44c.24-.7 1.84-1.32 4.8-1.85l21.87-3.87c2.99-.52 6.46-.8 10.42-.83 3.96-.06 7.26.16 9.9.66l19.36 3.38c2.32.41 3.52.91 3.6 1.5v-4.62c.1-.64-1.1-1.2-3.6-1.67l-.2-.04-19.16-3.34a53.36 53.36 0 0 0-9.9-.62c-3.96.03-7.43.3-10.42.84l-1.26.22-5.12.9-6.82 1.18" transform="rotate(-180 210.5 269.75)"/><path fill="url(#G)" d="M297.3 266.76c-.1-.59-1.3-1.08-3.61-1.5l-19.36-3.38a50.7 50.7 0 0 0-9.9-.66c-3.96.03-7.43.3-10.42.84l-21.87 3.86c-2.96.53-4.56 1.15-4.8 1.85-.23.67.98 1.26 3.62 1.76l.3.04 6.18 1.08a13.38 13.38 0 0 1 .77-1.6l1.41-.44c1.35-.33 3.39-.84 6.12-1.54l6.11-1.54c2.29-.62 4.03-1.09 5.24-1.4a44 44 0 0 1 5.4-1.06 19.96 19.96 0 0 1 3.22-.1c.88.1 1.72.23 2.5.4l9.77 1.63c.12 0 .25.02.4.04l.44.1c.5.08.98.21 1.45.39 2.5.9 4.33 2.4 5.46 4.5l6.68-1.16c3-.53 4.6-1.16 4.84-1.89a.7.7 0 0 0 .04-.22" transform="rotate(-180 210.5 265.93)"/><path fill="url(#H)" d="M269.85 237.49c.17-.81.33-1.62.48-2.44.44-2.23.82-4.46 1.14-6.68.18-1.26.72-2.2 1.63-2.81.44-.33.92-.36 1.45-.1l.05.1c.11 1.78.16 3.6.13 5.45.03 1.76.01 3.5-.05 5.23l-.17 5.71-.2 4.33a7.46 7.46 0 0 0 2.53-2.22 13.29 13.29 0 0 0 2.33-4.9v-.02c.15-.32.26-.68.33-1.08a7.21 7.21 0 0 0 .07-.72v-1.85a44.45 44.45 0 0 1-.03-1.89c.01-1.25.07-2.55.18-3.91.31-3.8 1-8.03 2.1-12.66a296.23 296.23 0 0 1 2.28-9.06 215.3 215.3 0 0 0 2.24-9.06c-.36-.4-.76-.77-1.2-1.12a11.69 11.69 0 0 0-1.79-1.16c-.97-.5-2.14-.98-3.52-1.45-3.2-.27-6.47.29-9.81 1.67-.94.4-1.9.88-2.86 1.4.7 1.97 1.4 4.28 2.11 6.95 0 3.9-2.15 7.94-6.46 12.13a83.92 83.92 0 0 1-4.53 3.87c-1.35 1.12-2.03 1.79-2.03 2.03 0 .73.54 1.9 1.63 3.51a9.42 9.42 0 0 1 1.47 3.48 9.03 9.03 0 0 1 .16 1.67c0 2.54-.33 4.63-1 6.26a7.9 7.9 0 0 1-1.2 2.04 4.95 4.95 0 0 1-4.05 1.9l-.3.3.74.66c1.44 1.35 2.5 2.16 3.17 2.42a79.11 79.11 0 0 0 2.6.81c.81.24 1.67.46 2.54.69a55.21 55.21 0 0 0 1.46-4.75 344 344 0 0 1 .74-9.76c.62-4.66 1.62-7 3-7 .64 0 1.15.14 1.54.4l.52.4c.12-.2.18.22.18 1.27 0 .42.04 1.26.1 2.5l.34 4.85c.04.54.03 1.42-.04 2.61" transform="rotate(-180 210.5 221.04)"/><path fill="#ED1F2D" d="M167.76 194.19c.17.12.32.23.46.35a5.69 5.69 0 0 0-.35-.37l-.1.02zm146.47 25.19H316c.27 0 .4.13.4.4v5.14c0 .23-.13.35-.4.35h-1.76v2.37H316c1.82 0 2.73-.9 2.73-2.72v-5.14c0-1.82-.9-2.73-2.73-2.73h-1.76v2.33z"/><path fill="url(#I)" d="M269.85 206.65c.07-1.2.08-2.06.04-2.61a513.6 513.6 0 0 1-.33-4.84 54.2 54.2 0 0 1-.11-2.5c0-1.06-.06-1.49-.18-1.28l-.52-.4c-.39-.26-.9-.4-1.54-.4-1.38 0-2.38 2.34-3 7-.11 1-.36 4.25-.74 9.76 0 .2-.49 1.79-1.46 4.75a2.3 2.3 0 0 1-.13.48l.27-.18 2.1-.88c.16-.02.3-.04.45-.04a19.15 19.15 0 0 0 .79-.13l2.24.09a182.37 182.37 0 0 0 1.28-5.28c.3-1.17.58-2.35.84-3.54z" transform="rotate(-180 210.5 205.62)"/><path fill="url(#I)" d="M267.16 200a49.83 49.83 0 0 0-5.72 3.82c2.32 1.67 2.6 3.69.84 6.06-.44.53-1.32 1.51-2.64 2.95a23.8 23.8 0 0 0-1.67 1.87 7.53 7.53 0 0 0-.66.94 6.91 6.91 0 0 0-2.75 0 6.72 6.72 0 0 0-2.97 1.5 5.84 5.84 0 0 0-2.24 5.27v.1l.13.96a356.83 356.83 0 0 0 .4 3.45c.14 1.47.23 2.74.26 3.8 1.73-.26 3.09-.16 4.09.3 1.29.63 2.14 1.84 2.55 3.66a8.5 8.5 0 0 1-.92 5.67l-.05.04-.04.1-2.29 3.11-.13.14-.13.08h.04c1.61.03 2.96-.6 4.05-1.89a7.9 7.9 0 0 0 1.2-2.04c.67-1.63 1-3.72 1-6.27a9.03 9.03 0 0 0-.16-1.67 9.4 9.4 0 0 0-1.47-3.47c-1.09-1.61-1.63-2.78-1.63-3.52 0-.23.68-.9 2.03-2.02 1.99-1.61 3.5-2.9 4.53-3.87 4.3-4.19 6.46-8.23 6.46-12.13-.7-2.67-1.4-4.98-2.1-6.95z" transform="rotate(-180 210.5 221.9)"/><path fill="url(#J)" d="M261.84 179.05c.17-.03.35-.09.53-.18a1.56 1.56 0 0 0 .22-.08l.88-.49 1.27-.7h-.04a3.71 3.71 0 0 1-1.94.26 2.25 2.25 0 0 1 0-1.84 27.83 27.83 0 0 0 1.63-4.53l.13-.48c-1 .5-1.65.85-1.93 1.05a10.2 10.2 0 0 1-.58.44 60.91 60.91 0 0 0-.66.57l-.1.09-.34.3h-.04c-.38.39-.66.8-.83 1.24a2.97 2.97 0 0 0-.22.44c-.12.32-.2.66-.22 1.01a4.78 4.78 0 0 0 .04 1.45l.04.18c.03.11.06.22.1.3l.04.18.13.26.09.18c.14.17.32.3.52.4.18.05.4.07.66.04a2.69 2.69 0 0 0 .62-.09" transform="rotate(-180 210.5 175.08)"/><path fill="#FABA90" d="M303.5 215.34c-.03-.18.3-.33.97-.44.7-.15 1.56-.2 2.6-.18 1.05 0 1.96.07 2.72.22.8.15 1.22.3 1.27.48.06.18-.26.33-.96.44-.68.15-1.54.2-2.6.18-1.03 0-1.93-.07-2.73-.22-.76-.15-1.18-.3-1.27-.48z"/><path fill="#FABA90" d="M300.38 215.34c.11.32.89.61 2.33.88 1.43.26 3.1.39 5.01.39 1.9.03 3.5-.07 4.75-.3 1.06-.21 1.65-.45 1.76-.71v-.13c-.11-.35-.9-.65-2.33-.88a30.75 30.75 0 0 0-9.76-.09c-1.3.2-1.88.48-1.76.84z"/><path fill="url(#K)" d="M120.63 220.63v-3.98c-.12-.32-.9-.61-2.34-.88a30.75 30.75 0 0 0-9.76-.08c-1.26.23-1.85.51-1.76.83v13.98c.11-.26.7-.5 1.76-.7 1.26-.24 2.84-.34 4.75-.3 1.9 0 3.58.12 5.01.39 1.44.26 2.22.55 2.33.88v-10.14" transform="rotate(-180 210.5 223.05)"/><path fill="#971A1F" d="M303.5 215.34c.09.17.51.33 1.27.48.8.15 1.7.22 2.73.22 1.06.03 1.92-.03 2.6-.18.7-.11 1.02-.26.97-.44-.06-.17-.49-.33-1.28-.48-.76-.15-1.67-.22-2.73-.22-1.02-.03-1.89.03-2.6.18-.67.11-1 .26-.96.44"/><path fill="#D1F0F5" d="M350.48 292.62l9.46-1.58-7-1.28-2.5-.48-9.55 1.63 9.55 1.71zm48.22 8.7l9.45-1.66-9.5-1.63-2.55.44v2.42l2.55.44z"/><path fill="#E5223D" d="M372 287.4v36.4l2.59.43v-36.4zm-33.57 43.25v-28.4l-9.6-1.67v12.1l7 1.26v16.27zm14.51-40.88l7 1.27v34.95l2.6.44V284.8l-9.15-1.59-.44-.08z"/><path fill="#F36085" d="M328.84 300.58l9.59 1.67 9.46-1.58-7-1.28-2.5-.48zm43.15-15.56v2.37l2.6.44 9.46-1.58-9.5-1.67zm0-1.9l-9.46-1.66-9.54 1.67.4.09 9.15 1.58z"/><path fill="#4DB1B4" d="M396.1 300.89v18.64l2.6.44v-18.64h-.05zm-55.2-1.5l6.99 1.28v27.39l2.6.35v-35.79h-.05l-9.55-1.71z"/><path fill="#F78F2C" d="M384.05 292.36v29.32l2.6.49V292.8zm-281.81 24.97v-13.98l-13.77-2.42v13.98zm214.54 10.29v3.43l9.6 1.58-.1-17.1-9.5-1.58v3.84z"/><path fill="#F03559" d="M6.86 209.18a4.42 4.42 0 0 0-1.23 3.12c0 1.23.41 2.27 1.23 3.12a4.4 4.4 0 0 0 3.17 1.28 4.2 4.2 0 0 0 3.08-1.28 4.17 4.17 0 0 0 1.32-3.12c0-1.2-.44-2.24-1.32-3.12a4.2 4.2 0 0 0-3.08-1.27 4.4 4.4 0 0 0-3.17 1.27z"/><path fill="#E1F5FD" d="M356.95 27.48a4.3 4.3 0 0 0 1.36-3.2c0-1.3-.45-2.4-1.36-3.3a4.42 4.42 0 0 0-3.26-1.33c-1.26 0-2.34.45-3.25 1.32-.91.91-1.37 2.01-1.37 3.3a4.3 4.3 0 0 0 1.37 3.21c.9.9 2 1.36 3.25 1.36 1.3 0 2.38-.45 3.26-1.36zM5 306.25c-1.46-.73-1.81-1.83-1.05-3.3l5.85-11.47c.73-1.44 1.83-1.79 3.3-1.05l11.48 5.84c1.44.76 1.79 1.86 1.06 3.3l-5.85 11.47c-.77 1.47-1.86 1.82-3.3 1.06l-11.48-5.85z"/><path fill="#E1F5FD" d="M7.21 290.16l-5.85 11.47c-1.64 3.2-.86 5.6 2.33 7.21l11.49 5.85c3.17 1.64 5.57.87 7.21-2.33l5.85-11.47c1.62-3.17.84-5.57-2.33-7.21l-11.48-5.85c-3.2-1.61-5.6-.83-7.22 2.33zm9.38-70.43c-1.7.88-2.12 2.19-1.24 3.92l3.17 6.24c.88 1.7 2.17 2.1 3.87 1.23l6.25-3.17c1.7-.88 2.11-2.17 1.23-3.87l-3.17-6.24c-.88-1.73-2.17-2.15-3.87-1.27l-6.24 3.16z"/><path fill="#E1F5FD" d="M23.54 217.97c.76-.4 1.34-.22 1.76.58l3.16 6.24c.41.76.24 1.35-.52 1.76l-6.25 3.16c-.76.38-1.35.2-1.76-.57l-3.17-6.24c-.41-.8-.23-1.38.53-1.76l6.25-3.17z"/><path fill="url(#L)" d="M125.24 20.01l-6.86-3.5c-3.17-1.64-3.94-4.04-2.33-7.2l2.42-4.75-6.42-3.26c-2.79-1.43-4.89-.76-6.3 2.03l-7.03 13.84c-1.44 2.79-.77 4.9 2.02 6.33l13.86 7.04c2.79 1.4 4.9.72 6.33-2.07l4.31-8.46z" transform="rotate(-180 210.5 15.9)"/><path fill="url(#L)" d="M126.56 25.94l1.41-2.79c1.4-2.78.72-4.88-2.07-6.29l-4.84-2.46-2.42 4.75c-.73 1.44-.38 2.53 1.06 3.3l6.86 3.5z" transform="rotate(-180 210.5 20.17)"/><path fill="#E5F3FC" d="M294.44 14.4l6.86 3.5c1.44.76 1.79 1.86 1.05 3.3l-2.42 4.74-3.43 6.73c-.76 1.46-1.86 1.82-3.3 1.05l-11.48-5.84c-1.46-.74-1.82-1.84-1.05-3.3l5.85-11.48c.73-1.43 1.83-1.78 3.3-1.05l4.62 2.35z"/><path fill="#E5F3FC" d="M295.76 11.8l-4.62-2.34c-3.2-1.62-5.6-.84-7.22 2.33l-5.85 11.47c-1.64 3.2-.87 5.6 2.33 7.21l11.48 5.85c3.17 1.64 5.58.86 7.22-2.33l3.43-6.73 2.42-4.75c1.61-3.16.84-5.57-2.33-7.2l-6.86-3.5z"/></g></svg>