<svg xmlns="http://www.w3.org/2000/svg" xmlns:xlink="http://www.w3.org/1999/xlink" width="468" height="396"><defs><path id="a" d="M.43 8.72c2.29-.41 5.95-1.9 6.72-1.95.77-.06 14.5-.1 14.5-.1s-10.22 1.42-11.08 1.7c-.87.27-3.09 3.83-2.37 3.97.72.14 2.55-2.67 3.64-2.77 1.1-.1 19.4-.4 20.04-.07.63.33 3.3 3.23 6.66 3.81 5.93 1.04 29.95-2.1 29.95-2.1L62.26.98s-32.37-1-34.15-.85c-1.78.17-1.92 3.04-1.92 3.04L5.54 5.66.43 8.72"/><linearGradient id="b" x1="2.78%" x2="70.75%" y1="50%" y2="50%"><stop offset="0%" stop-color="#D4D4D5"/><stop offset="100%" stop-color="#FFFFFE"/></linearGradient><path id="d" d="M44 3.18C37.39-2.34 23.39.4 26.14 7c2.73 6.6 4.36 10.27 4.36 10.27l-6.96 1.36c-3.08-.4-10.54 2.38-15.68 3.46-5.13 1.08-4.47-.18-7.37.05l4.91 2.76h18.42l6.68 8.2-.57 1.83v.75h3.6c.54 0 1.74-2.57.85-4.85-.35-.9-.97-1.6-2.38-3.66 0 0 12.68.22 16.1 0 4.13-.27 7.07-3.02 7.24-7.67C55.69 10.02 49.68 7.9 44 3.18"/><linearGradient id="e" x1="-6.32%" x2="102.01%" y1="50%" y2="50%"><stop offset="0%" stop-color="#D4D4D5"/><stop offset="100%" stop-color="#FFFFFE"/></linearGradient><path id="g" d="M5.16 8.15c4.2-.6-.09 2.5 3.93 2.41 4.02-.1 19.24-2.86 26.8-6.2 7.55-3.34 15.57-2.89 21.5-3.98 5.95-1.1 14.9 11.43 2.76 13.56-12.14 2.13-17.9 1.6-25.28 1-7.4-.6-20.24-1.11-20.24-1.11S4.3 13.03 2.25 12.5l-2.06-.53 4.97-3.82"/><linearGradient id="h" x1="-2.52%" x2="93.52%" y1="53.02%" y2="49.41%"><stop offset="0%" stop-color="#D4D4D5"/><stop offset="100%" stop-color="#FFFFFE"/></linearGradient><path id="j" d="M.16 4.23c3.87.74 6.36-.32 7.68-.26 1.33.06 11.93.76 11.93.76L14.62.1S6.34 1.58 6.23 1.58C6.13 1.6.16 4.23.16 4.23"/><linearGradient id="k" x1="-37.11%" x2="380.55%" y1="-276%" y2="1501.01%"><stop offset="0%" stop-color="#D4D4D5"/><stop offset="100%" stop-color="#F9F8FA"/></linearGradient><path id="m" d="M.51 3.39c-.62.39 5.5 3.04 6.31 3.08.81.03-.43-1.71 0-2.02.43-.3 31.45 1.34 31.45 1.34L36.85.1S5.47 2.15 3.43 2.65C1.4 3.15.51 3.4.51 3.4"/><linearGradient id="n" x1="2.02%" x2="84.21%" y1="50%" y2="50%"><stop offset="0%" stop-color="#D4D4D5"/><stop offset="100%" stop-color="#F9F8FA"/></linearGradient><path id="p" d="M19.91 68.89H48.4l28.25-49.38L.36.06l19.55 68.83"/><linearGradient id="q" x1="-260.16%" x2="113.36%" y1="50%" y2="50%"><stop offset="0%" stop-color="#D4D4D5"/><stop offset="100%" stop-color="#F9F8FA"/></linearGradient><path id="s" d="M.08 49.07h110.94s14.05-24.37 62.46-24.37L114.85.33 42.98 6.37.08 49.07"/><linearGradient id="t" x1="-110.14%" x2="87.1%" y1="-69.33%" y2="95%"><stop offset="0%" stop-color="#D4D4D5"/><stop offset="100%" stop-color="#F9F8FA"/></linearGradient><path id="v" d="M161.87 13.87L111.72.43l-6.79 6.3c-6.04-1-18.72-.8-44.43 2.8C-1.56 18.24.26 56.58.26 56.58h74.41s11.5-26.04 57-34.14l-7.38-7.3 37.58-1.26"/><path id="x" d="M.08 60.88h28.49L56.82 11.5 12.7.26.08 60.88"/><path id="z" d="M232.25 44.78l8.1-3.73C201.43 16.14 143.3.33 78.39.33c-27.5 0-53.8 2.84-77.92 8l27.48 29.52c15.19-3.26 33.13 5.17 50.44 5.17 34.36 0 65.7 7.04 89.37 18.6l-1.1.48v6.56c19.75 12.64 31.68 29 31.68 46.88 0 28.18-29.62 52.6-72.88 64.6l25.36 38.04h10.4c68.74-19.07 115.8-57.87 115.8-102.64 0-26.68-16.71-51.23-44.76-70.76"/><linearGradient id="A" x1="-17.96%" x2="85.98%" y1="4.84%" y2="68.43%"><stop offset="0%" stop-color="#D4D4D5"/><stop offset="100%" stop-color="#F9F8FA"/></linearGradient><path id="C" d="M231.91 44.78l8.11-3.73C201.08 16.14 142.96.33 78.04.33c-27.5 0-53.8 2.84-77.92 8L27.6 37.85c15.19-3.26 33.13 5.17 50.44 5.17 34.37 0 65.7 7.04 89.37 18.6l-1.1.48v6.56c19.75 12.64 31.68 29 31.68 46.88 0 28.18-29.61 52.6-72.88 64.6l25.36 38.04h10.4c68.74-19.07 115.8-57.87 115.8-102.64 0-26.68-16.7-51.23-44.76-70.76"/><linearGradient id="D" x1="-171.09%" x2="121.15%" y1="35.8%" y2="55.17%"><stop offset="0%" stop-color="#F2F1F0"/><stop offset="100%" stop-color="#847F8F"/></linearGradient><path id="F" d="M77.96 43.02c40.87 0 77.44 9.96 101.95 25.64l60.03-27.6C201 16.13 142.88.32 77.96.32c-27.5 0-53.8 2.84-77.92 8l28.87 39.73a235.09 235.09 0 0 1 49.05-5.04"/><linearGradient id="G" x1="-72.91%" x2="51.48%" y1="50%" y2="50%"><stop offset="0%" stop-color="#847F8F"/><stop offset="100%" stop-color="#F2F1F0"/></linearGradient><path id="I" d="M77.96 42.76c40.87 0 77.44 9.96 101.95 25.64l60.03-27.6C201 15.87 142.88.06 77.96.06c-27.5 0-53.8 2.84-77.92 8L28.91 47.8a235.12 235.12 0 0 1 49.05-5.04"/><linearGradient id="J" x1="0%" y1="50%" y2="50%"><stop offset="0%" stop-color="#FFFFFE"/><stop offset="100%" stop-color="#F2F1F0"/></linearGradient><path id="L" d="M78.08 42.8c40.87 0 77.44 9.95 101.96 25.63l60.02-27.6C201.12 15.9 143.01.1 78.08.1c-27.5 0-53.8 2.84-77.92 8l28.88 39.73a235.1 235.1 0 0 1 49.04-5.04"/><linearGradient id="M" x1="0%" y1="50%" y2="50%"><stop offset="0%" stop-color="#FFFFFE"/><stop offset="100%" stop-color="#F2F1F0"/></linearGradient><path id="O" d="M123.63 96.9C65.97 84.74 20.53 59.3.04 27.5V.44a106.04 106.04 0 0 0 17.59 20.52l-1.26 1.38 8.93 5.15c24 18.99 58.2 33.88 98.33 42.34l12.1-16.9a199.37 199.37 0 0 0 16.39 4.17l-28.5 39.81"/><linearGradient id="P" x1="0%" x2="80.01%" y1="7.69%" y2="50%"><stop offset="0%" stop-color="#368BFF"/><stop offset="100%" stop-color="#348BFF"/></linearGradient><linearGradient id="R" x1="-13.75%" x2="60.29%" y1="50%" y2="30.37%"><stop offset="0%" stop-color="#007BFE"/><stop offset="100%" stop-color="#60B0FF"/></linearGradient><path id="S" d="M123.63 83.83C83.5 75.37 49.3 60.47 25.3 41.49c.09-.09 3.7-3.77 8.15-4.6.76-.14 1.57-.2 2.39-.2 4.02 0 8.3 1.42 8.3 1.42l2.84-3.6-3.58-1.73c.63-1.49 4.57-5 8.73-5 .68 0 1.36.09 2.04.3a10.18 10.18 0 0 0 6.44-.27c2.3-.9 3.44-2.64 1.13-4.43a5.08 5.08 0 0 0-3.16-1.24c-2.36 0-4.25 2.03-6.78 2.15h-.24c-3.65 0-11.2-3.83-20.6-3.96L17.64 34.96A106.04 106.04 0 0 1 .04 14.43L74.34.34c12.89 20.01 41.49 36.03 77.78 43.68l-28.5 39.8"/><linearGradient id="T" x1="4.81%" x2="98.06%" y1="50%" y2="50%"><stop offset="0%" stop-color="#8DD6FE"/><stop offset="100%" stop-color="#378EFF"/></linearGradient><path id="V" d="M60.37.27v23.28L.34 51.15V27.88L60.37.27"/><linearGradient id="W" x1="-40.25%" x2="197.79%" y1="34.9%" y2="74.72%"><stop offset="0%" stop-color="#847F8F"/><stop offset="100%" stop-color="#F2F1F0"/></linearGradient><path id="Y" d="M94.24.08L73.29 48.8v18.14C41.1 79.48 15.65 96.78.44 116.95l72.85 16.16c13.76-18.25 40.83-32.78 74.68-40.03V8.76L94.24.08"/><linearGradient id="Z" x1="-38.13%" x2="164.15%" y1="50%" y2="50%"><stop offset="0%" stop-color="#847F8F"/><stop offset="100%" stop-color="#F2F1F0"/></linearGradient><path id="ab" d="M147.97 39.78L119.09.05C65.33 11.57 22.31 34.65.44 63.65L73.29 79.8c13.76-18.26 40.83-32.79 74.68-40.03"/><linearGradient id="ac" x1="-18.34%" x2="143.84%" y1="24.63%" y2="74.06%"><stop offset="0%" stop-color="#FFFFFE"/><stop offset="100%" stop-color="#F2F1F0"/></linearGradient><path id="ae" d="M.44.11v84.32l72.85 16.17V16.27L.44.11"/><linearGradient id="af" x1="-82.77%" x2="129.17%" y1="106.32%" y2="16.41%"><stop offset="0%" stop-color="#FFFFFE"/><stop offset="100%" stop-color="#F2F1F0"/></linearGradient><path id="ah" d="M151.71 74.52c0-28.4-18.93-54.4-50.33-74.49L41.35 21.08v6.56c19.77 12.64 31.7 29 31.7 46.88 0 28.18-29.63 52.6-72.89 64.6l35.77 38.04C104.66 158.1 151.7 119.3 151.7 74.52"/><linearGradient id="ai" x1="127.82%" x2="-2.23%" y1="66.5%" y2="40.53%"><stop offset="0%" stop-color="#F2F1F0"/><stop offset="100%" stop-color="#847F8F"/></linearGradient><path id="ak" d="M151.71 74.96c0-28.4-18.93-54.4-50.33-74.48l-60.03 27.6c19.77 12.64 31.7 29 31.7 46.88 0 28.18-29.63 52.6-72.89 64.6l35.77 38.04c68.73-19.07 115.78-57.87 115.78-102.64"/><linearGradient id="al" x1="111.47%" x2="3.82%" y1="54.95%" y2="46.91%"><stop offset="0%" stop-color="#FFFFFE"/><stop offset="100%" stop-color="#F2F1F0"/></linearGradient><path id="an" d="M.16.5v6.56L35.93 45.1v-6.57L.16.5"/><linearGradient id="ao" x1="-138.06%" x2="184.35%" y1="40.45%" y2="56.82%"><stop offset="0%" stop-color="#FFFFFE"/><stop offset="100%" stop-color="#F2F1F0"/></linearGradient><path id="aq" d="M.08 40.31v27.07l28.49-39.8V.5L.08 40.31"/><linearGradient id="ar" x1="-384.73%" x2="320.52%" y1="39.4%" y2="56.59%"><stop offset="0%" stop-color="#3468D1"/><stop offset="100%" stop-color="#3573DE"/></linearGradient><path id="at" d="M34.23 5.19l-3.08-1c4.57 0 21.6-.81 21.6-.81V.16S-1.65.83.43 3.7c.27.37 13.5.47 24.37.5l4.62 1.23c-7.12.43-12.67 1.12-11.86 2.23.46.63 38.5 1.45 38.5 1.45V5.39s-12.5-.02-21.83-.2"/><linearGradient id="au" x1="-5.06%" x2="86.19%" y1="62.2%" y2="51.21%"><stop offset="0%" stop-color="#D4D4D5"/><stop offset="100%" stop-color="#F9F8FA"/></linearGradient><path id="aw" d="M9.09 28.2c-.65-2.46-1.66-6.23-2.76-10.2l12.71 2.77a796.2 796.2 0 0 0 1.97 9.44l-11.92-2zM22.25 36l4.07-1.1S18.34 3.86 16.8 4.34c-.73.22.34 6.75 1.74 13.92L5.61 15.48C3.44 7.82 1.08.27.31.5c-1.45.45 6.82 33.35 8 38.92l2.95-1.91-1.61-6.38 12.02 2.17.58 2.69z"/><linearGradient id="ax" x1="26.23%" x2="65.08%" y1="7.23%" y2="89.53%"><stop offset="0%" stop-color="#D4D4D5"/><stop offset="100%" stop-color="#F9F8FA"/></linearGradient><path id="az" d="M34.21 9.28L7.4 24.76a4.85 4.85 0 1 1-4.84-8.4L29.37.89a4.85 4.85 0 0 1 4.84 8.4"/><linearGradient id="aA" x1="46.62%" x2="54.12%" y1="41.67%" y2="60.15%"><stop offset="0%" stop-color="#FFFFFE"/><stop offset="100%" stop-color="#F2F1F0"/></linearGradient><path id="aC" d="M3.34.27C5.22.44 8.3 4.62 9.45 4.7c1.15.08-1.69 1.72-1.69 1.72L.44 1.98S2.5.18 3.34.27"/><linearGradient id="aD" x1="-7.79%" x2="89.46%" y1="45.24%" y2="52.64%"><stop offset="0%" stop-color="#D4D4D5"/><stop offset="100%" stop-color="#F9F8FA"/></linearGradient><path id="aF" d="M2.3.15C-.75 7.72-.25 10.2 5.02 11.17c3.22.6 4.32.7 4.32.7.11-1.94.68-3.57.68-3.57S6.47 5.94 5.44 4.8A53.18 53.18 0 0 1 2.3.15"/><linearGradient id="aG" x1="-113.94%" x2="-209.01%" y1="-572.13%" y2="-942.45%"><stop offset="0%" stop-color="#61A5BD"/><stop offset="100%" stop-color="#975391"/></linearGradient><path id="aI" d="M19.48 2.66A4.85 4.85 0 0 0 12.86.88L.33 8.12C4.23 6.7 7.51 9.4 11.41 9.65c3.89.23 7.9-1.92 7.94-1.94a4.84 4.84 0 0 0 .13-5.05"/><linearGradient id="aJ" x1="26.38%" x2="139.77%" y1="50%" y2="50%"><stop offset="0%" stop-color="#D4D4D5"/><stop offset="100%" stop-color="#F9F8FA"/></linearGradient><path id="aL" d="M5.25 26.7S-.68 7.93.55 4.14C1.8.37 5.82.17 5.82.17v7.4l-.57 19.12"/><linearGradient id="aM" x1="28.53%" x2="206.35%" y1="-4.42%" y2="155.54%"><stop offset="0%" stop-color="#211E54"/><stop offset="100%" stop-color="#2F619E"/></linearGradient><path id="aO" d="M7.3 4.97c-3.85 11.8-1.75 25.67-1.75 25.67l-2.84-2.4S.44 7.64.47 4.46C.51 1.27 1.72.37 1.72.37l5.57 4.6"/><linearGradient id="aP" x1="-8.66%" x2="278.93%" y1="-8.05%" y2="228.29%"><stop offset="0%" stop-color="#211E54"/><stop offset="100%" stop-color="#2F619E"/></linearGradient><path id="aR" d="M.54 2.11c.02.9-.18 1.34.11 1.78.29.43 1.36.72 1.97.43.68-.32 1.1-.57 1.28-.94.18-.38.47-.35 1-.49.53-.13 3.15-1.7 2.96-2.25C7.66.09 6.64-.1 5 .54 3.37 1.14 1 1.8 1 1.8l-.46.31"/><linearGradient id="aS" x1="69.55%" x2="70.99%" y1="312.87%" y2="332.67%"><stop offset="0%" stop-color="#211E54"/><stop offset="100%" stop-color="#975391"/></linearGradient><path id="aU" d="M.23 1.71C.26 3.24.2 3.48.69 3.96c.49.48 2.05-.21 2.17-.6.11-.38.34-.03.88-.38C4.3 2.62 6.56 1.44 6.7.77c.15-.68-1.1-.78-2.23-.4-1 .33-2.4.34-2.4.34l-1.84 1"/><linearGradient id="aV" x1="70.84%" x2="72.35%" y1="311.18%" y2="330.92%"><stop offset="0%" stop-color="#211E54"/><stop offset="100%" stop-color="#975391"/></linearGradient><linearGradient id="aX" x1="37.82%" x2="52.99%" y1="-8.29%" y2="83.93%"><stop offset="0%" stop-color="#264CA4"/><stop offset="100%" stop-color="#66CEF2"/></linearGradient><linearGradient id="aY" x1="16.33%" x2="73.04%" y1="12.19%" y2="78.32%"><stop offset="0%" stop-color="#264CA4"/><stop offset="100%" stop-color="#66CEF2"/></linearGradient><path id="aZ" d="M286.47 335.92c1.42 3.99 4.98 7.07 4.98 7.07s-2.22-.07-2.67 1.46c-.35 1.22-.21 1.77 1.5 2.07 2.61.45 5.47-.5 6.14-1.93 1.45-3.09-7.8-16.56-9.08-18.07-1.68-2.01-2.22 5.64-.87 9.4"/><path id="ba" d="M7.59.45c.63.6.53 1.93.11 2.4-.42.47-1.32.4-1.83.73-1.37.9-4.49 1.58-5.1 1.15-.6-.42-.85-1.58 2.37-2.81C4.56 1.37 5.28.6 5.28.6L7.59.45"/><linearGradient id="bb" x1="730.46%" x2="781.45%" y1="553.61%" y2="591.42%"><stop offset="0%" stop-color="#211E54"/><stop offset="100%" stop-color="#975391"/></linearGradient><path id="bd" d="M6.1.3c.62.59.53 1.93.1 2.4-.41.47-1.07.08-1.38.6C3.67 5.3 1.6 5.06.87 5c-1.09-.12-1.14-1.02.65-2.7C3.25.65 3.59.23 3.59.23l2.5.06"/><linearGradient id="be" x1="696.84%" x2="745.26%" y1="420.72%" y2="448.5%"><stop offset="0%" stop-color="#211E54"/><stop offset="100%" stop-color="#975391"/></linearGradient><path id="bg" d="M9.63 6.75c-.27 1.42 1.19.62 1.52 1.44.34.81-1.84 1.04-2.69 0-.48-.6-.88-.37-.36-1.19.55-.85-.65-1.23-1.14-.65-.5.58-1.09-.04-1.32-.49-.23-.45-1.83.59-3 .79C1.46 6.85-.13 6.45.12 5c.25-1.43.88-.65 1.14-1.2.25-.54-.99-.53-.27-1.3.71-.76 1.53.15 1.76-.48C3 1.4 4.04 1.3 4.45.69c.43-.62 1.3.23 1.58 0C6.3.45 7.62.46 8.33 2.28c.7 1.82.65 1.06 1.12 1.93.48.87.18 2.54.18 2.54"/><linearGradient id="bh" x1="183.82%" x2="215.89%" y1="118.9%" y2="136.48%"><stop offset="0%" stop-color="#211E54"/><stop offset="100%" stop-color="#975391"/></linearGradient><path id="bj" d="M360.95 363.33c-6.86 6.11-8.08 12.74-5.62 16.61 2.47 3.88 8.59 6.16 11.83 8.37 0 0 .3-1.94 1.72-1.85 0 0-6.23-6.73-6.3-6.9-.71-1.91 2.6-8.3 3.13-10.5.53-2.22-4.76-5.73-4.76-5.73"/><path id="bk" d="M.64.75c-.32.34-.47 1.3 0 2 .46.71 1.14 1.35 1.19 1.66 0 0-.23-.4-1.16.54-.27.26.76 1.17 1.59 1.23.82.06 1.62-.84 2.05-1.43.43-.58-.04-2.85-.47-3.6A3.62 3.62 0 0 0 1.96.1C1.2-.01.88.49.64.75"/><linearGradient id="bl" x1="201.73%" x2="-401.19%" y1="94.37%" y2="-72.92%"><stop offset="0%" stop-color="#211E54"/><stop offset="100%" stop-color="#2F619E"/></linearGradient><path id="bn" d="M68.93 16.78c0 1.53-2.65 5.97-2.65 5.97l-1.98-5.54s4.63-1 4.63-.43zm-1.22 19.76c-1.2-.99-3.86-7.93-3.86-7.93l2.93 1.87s.9-.44.66-.92c-.24-.48 7.71-13.49 7.1-16.2-.62-2.7-28.55-.51-28.55-.51s-8.66-2.63-13.04-3.52c-4.38-.88-7.05-2.28-5.82-4.04 1.23-1.77 2.4-3.2 1.85-4.1C28.43.3 24.74.3 24.74.3l-.55 2.63L8.27 11.8l2.06-6.22 3.71 1 3.4-1.3-.77-1.77h-6.04l-6.7 6.24-3.56 6.87c8.37.06 12.94.48 12.94.48l13.89 8.3h5.85s8.84-.6 11.26-.9c2.41-.29 12.34-5.22 12.34-5.22l7.37 17.74s3.74 2.52 4.64 2c.91-.5.25-1.5-.95-2.48z"/><linearGradient id="bo" x1="-11.78%" x2="155.71%" y1="49.69%" y2="50.39%"><stop offset="0%" stop-color="#D4D4D5"/><stop offset="100%" stop-color="#F2F1F0"/></linearGradient><linearGradient id="bq" x1="74.49%" x2="43.42%" y1="-7.55%" y2="72.01%"><stop offset="0%" stop-color="#D3125B"/><stop offset="100%" stop-color="#F78D4A"/></linearGradient><path id="br" d="M10.02 5.92c-.12-.17-.34-.4-.63-.64l-.16-.13c-.45-.4-1.8-1.82-2.5-4.83 0 0-2.5-.33-2.84.8-.17.58-.8 1.01-1.37 1.29-.4.07-.74.2-1.03.39h-.01C.71 3.3.33 4.2.51 5.53.9 8.4 6.6 11.16 8.8 10c2.19-1.16 1.95-3.1 1.23-4.08"/><path id="bt" d="M.12 3.2c-.53 4.47.93 5.54 2.3 6.05 1.38.51 4.49-1.3 3.87-6.05C5.66-1.54.55-.4.12 3.2"/><linearGradient id="bv" x1="50%" x2="50%" y1="0%" y2="100%"><stop offset="0%" stop-color="#FFF"/><stop offset="100%"/></linearGradient><path id="bw" d="M.12 3.2c-.53 4.47.93 5.54 2.3 6.05 1.38.51 4.49-1.3 3.87-6.05C5.66-1.54.55-.4.12 3.2"/><path id="bx" d="M1.64.13c9 2.08 21.83 7.1 21.83 12.37 0 3.5-10.38 21.26-10.38 21.26s-1.84-.17-2.27-.86c.02-1.61 8.4-17.98 5.9-19.36C11.88 10.87.33 9.77.33 9.77L1.63.13"/><linearGradient id="by" x1="134.13%" x2="57.89%" y1="126.73%" y2="50.63%"><stop offset="0%" stop-color="#008EC8"/><stop offset="100%" stop-color="#2F619E"/></linearGradient><path id="bA" d="M2.29 3.81L.16 2.58V.12l2.13 1.23v2.46"/><linearGradient id="bB" x1="0%" x2="100.08%" y1="50%" y2="50%"><stop offset="0%" stop-color="#FFFFFE"/><stop offset="100%" stop-color="#F2F1F0"/></linearGradient><path id="bD" d="M.34 28.08h30L74.3 10.44C69.65 6.77 65 3.4 60.37.48L.34 28.08"/><linearGradient id="bE" x1="0%" y1="50%" y2="50%"><stop offset="0%" stop-color="#D4D4D5"/><stop offset="100%" stop-color="#F9F8FA"/></linearGradient></defs><g fill="none" fill-rule="evenodd"><g transform="translate(134.06 245.12)"><mask id="c" fill="#fff"><use xlink:href="#a"/></mask><path fill="url(#b)" d="M.43 8.72c2.29-.41 5.95-1.9 6.72-1.95.77-.06 14.5-.1 14.5-.1s-10.22 1.42-11.08 1.7c-.87.27-3.09 3.83-2.37 3.97.72.14 2.55-2.67 3.64-2.77 1.1-.1 19.4-.4 20.04-.07.63.33 3.3 3.23 6.66 3.81 5.93 1.04 29.95-2.1 29.95-2.1L62.26.98s-32.37-1-34.15-.85c-1.78.17-1.92 3.04-1.92 3.04L5.54 5.66.43 8.72" mask="url(#c)"/></g><g transform="translate(339.64 357.18)"><mask id="f" fill="#fff"><use xlink:href="#d"/></mask><path fill="url(#e)" d="M44 3.18C37.39-2.34 23.39.4 26.14 7c2.73 6.6 4.36 10.27 4.36 10.27l-6.96 1.36c-3.08-.4-10.54 2.38-15.68 3.46-5.13 1.08-4.47-.18-7.37.05l4.91 2.76h18.42l6.68 8.2-.57 1.83v.75h3.6c.54 0 1.74-2.57.85-4.85-.35-.9-.97-1.6-2.38-3.66 0 0 12.68.22 16.1 0 4.13-.27 7.07-3.02 7.24-7.67C55.69 10.02 49.68 7.9 44 3.18" mask="url(#f)"/></g><g transform="translate(279.62 379.7)"><mask id="i" fill="#fff"><use xlink:href="#g"/></mask><path fill="url(#h)" d="M5.16 8.15c4.2-.6-.09 2.5 3.93 2.41 4.02-.1 19.24-2.86 26.8-6.2 7.55-3.34 15.57-2.89 21.5-3.98 5.95-1.1 14.9 11.43 2.76 13.56-12.14 2.13-17.9 1.6-25.28 1-7.4-.6-20.24-1.11-20.24-1.11S4.3 13.03 2.25 12.5l-2.06-.53 4.97-3.82" mask="url(#i)"/></g><g transform="translate(35.52 319.66)"><mask id="l" fill="#fff"><use xlink:href="#j"/></mask><path fill="url(#k)" d="M.16 4.23c3.87.74 6.36-.32 7.68-.26 1.33.06 11.93.76 11.93.76L14.62.1S6.34 1.58 6.23 1.58C6.13 1.6.16 4.23.16 4.23" mask="url(#l)"/></g><g transform="translate(57.52 249.63)"><mask id="o" fill="#fff"><use xlink:href="#m"/></mask><path fill="url(#n)" d="M.51 3.39c-.62.39 5.5 3.04 6.31 3.08.81.03-.43-1.71 0-2.02.43-.3 31.45 1.34 31.45 1.34L36.85.1S5.47 2.15 3.43 2.65C1.4 3.15.51 3.4.51 3.4" mask="url(#o)"/></g><g transform="translate(165.57 301.15)"><mask id="r" fill="#fff"><use xlink:href="#p"/></mask><path fill="url(#q)" d="M19.91 68.89H48.4l28.25-49.38L.36.06l19.55 68.83" mask="url(#r)"/></g><g transform="translate(157.57 186.1)"><mask id="u" fill="#fff"><use xlink:href="#s"/></mask><path fill="url(#t)" d="M.08 49.07h110.94s14.05-24.37 62.46-24.37L114.85.33 42.98 6.37.08 49.07" mask="url(#u)"/></g><g transform="translate(110.55 178.59)"><mask id="w" fill="#fff"><use xlink:href="#v"/></mask><path fill="#E4E4E8" d="M161.87 13.87L111.72.43l-6.79 6.3c-6.04-1-18.72-.8-44.43 2.8C-1.56 18.24.26 56.58.26 56.58h74.41s11.5-26.04 57-34.14l-7.38-7.3 37.58-1.26" mask="url(#w)"/></g><g transform="translate(157.57 309.16)"><mask id="y" fill="#fff"><use xlink:href="#x"/></mask><path fill="#E4E4E8" d="M.08 60.88h28.49L56.82 11.5 12.7.26.08 60.88" mask="url(#y)"/></g><g transform="translate(190.08 147.07)"><mask id="B" fill="#fff"><use xlink:href="#z"/></mask><path fill="url(#A)" d="M232.25 44.78l8.1-3.73C201.43 16.14 143.3.33 78.39.33c-27.5 0-53.8 2.84-77.92 8l27.48 29.52c15.19-3.26 33.13 5.17 50.44 5.17 34.36 0 65.7 7.04 89.37 18.6l-1.1.48v6.56c19.75 12.64 31.68 29 31.68 46.88 0 28.18-29.62 52.6-72.88 64.6l25.36 38.04h10.4c68.74-19.07 115.8-57.87 115.8-102.64 0-26.68-16.71-51.23-44.76-70.76" mask="url(#B)"/></g><g transform="translate(180.58 147.07)"><mask id="E" fill="#fff"><use xlink:href="#C"/></mask><path fill="url(#D)" d="M231.91 44.78l8.11-3.73C201.08 16.14 142.96.33 78.04.33c-27.5 0-53.8 2.84-77.92 8L27.6 37.85c15.19-3.26 33.13 5.17 50.44 5.17 34.37 0 65.7 7.04 89.37 18.6l-1.1.48v6.56c19.75 12.64 31.68 29 31.68 46.88 0 28.18-29.61 52.6-72.88 64.6l25.36 38.04h10.4c68.74-19.07 115.8-57.87 115.8-102.64 0-26.68-16.7-51.23-44.76-70.76" mask="url(#E)" opacity=".1"/></g><path fill="#DBE0E3" d="M185.48 195.13v-23.27l-28.87-39.72v23.27l28.87 39.72"/><g transform="translate(156.57 147.07)"><mask id="H" fill="#fff"><use xlink:href="#F"/></mask><path fill="url(#G)" d="M77.96 43.02c40.87 0 77.44 9.96 101.95 25.64l60.03-27.6C201 16.13 142.88.32 77.96.32c-27.5 0-53.8 2.84-77.92 8l28.87 39.73a235.09 235.09 0 0 1 49.05-5.04" mask="url(#H)"/></g><g transform="translate(156.57 124.06)"><mask id="K" fill="#fff"><use xlink:href="#I"/></mask><path fill="url(#J)" d="M77.96 42.76c40.87 0 77.44 9.96 101.95 25.64l60.03-27.6C201 15.87 142.88.06 77.96.06c-27.5 0-53.8 2.84-77.92 8L28.91 47.8a235.12 235.12 0 0 1 49.05-5.04" mask="url(#K)"/></g><g transform="translate(156.07 124.06)"><mask id="N" fill="#fff"><use xlink:href="#L"/></mask><path fill="url(#M)" d="M78.08 42.8c40.87 0 77.44 9.95 101.96 25.63l60.02-27.6C201.12 15.9 143.01.1 78.08.1c-27.5 0-53.8 2.84-77.92 8l28.88 39.73a235.1 235.1 0 0 1 49.04-5.04" mask="url(#N)"/></g><g transform="translate(34.01 273.14)"><mask id="Q" fill="#fff"><use xlink:href="#O"/></mask><path fill="url(#P)" d="M123.63 96.9C65.97 84.74 20.53 59.3.04 27.5V.44a106.04 106.04 0 0 0 17.59 20.52l-1.26 1.38 8.93 5.15c24 18.99 58.2 33.88 98.33 42.34l12.1-16.9a199.37 199.37 0 0 0 16.39 4.17l-28.5 39.81" mask="url(#Q)"/></g><path fill="url(#R)" fill-rule="nonzero" stroke="#979797" d="M58.02 276.14h51.52v24.51H58.02z"/><g transform="translate(34.01 259.13)"><mask id="U" fill="#fff"><use xlink:href="#S"/></mask><path fill="url(#T)" d="M123.63 83.83C83.5 75.37 49.3 60.47 25.3 41.49c.09-.09 3.7-3.77 8.15-4.6.76-.14 1.57-.2 2.39-.2 4.02 0 8.3 1.42 8.3 1.42l2.84-3.6-3.58-1.73c.63-1.49 4.57-5 8.73-5 .68 0 1.36.09 2.04.3a10.18 10.18 0 0 0 6.44-.27c2.3-.9 3.44-2.64 1.13-4.43a5.08 5.08 0 0 0-3.16-1.24c-2.36 0-4.25 2.03-6.78 2.15h-.24c-3.65 0-11.2-3.83-20.6-3.96L17.64 34.96A106.04 106.04 0 0 1 .04 14.43L74.34.34c12.89 20.01 41.49 36.03 77.78 43.68l-28.5 39.8" mask="url(#U)"/></g><g transform="translate(336.14 164.58)"><mask id="X" fill="#fff"><use xlink:href="#V"/></mask><path fill="url(#W)" d="M60.37.27v23.28L.34 51.15V27.88L60.37.27" mask="url(#X)"/></g><g transform="translate(37.52 102.05)"><mask id="aa" fill="#fff"><use xlink:href="#Y"/></mask><path fill="url(#Z)" d="M94.24.08L73.29 48.8v18.14C41.1 79.48 15.65 96.78.44 116.95l72.85 16.16c13.76-18.25 40.83-32.78 74.68-40.03V8.76L94.24.08" mask="url(#aa)"/></g><g transform="translate(37.52 71.04)"><mask id="ad" fill="#fff"><use xlink:href="#ab"/></mask><path fill="url(#ac)" d="M147.97 39.78L119.09.05C65.33 11.57 22.31 34.65.44 63.65L73.29 79.8c13.76-18.26 40.83-32.79 74.68-40.03" mask="url(#ad)"/></g><g transform="translate(37.52 134.57)"><mask id="ag" fill="#fff"><use xlink:href="#ae"/></mask><path fill="url(#af)" d="M.44.11v84.32l72.85 16.17V16.27L.44.11" mask="url(#ag)"/></g><g transform="translate(295.13 188.1)"><mask id="aj" fill="#fff"><use xlink:href="#ah"/></mask><path fill="url(#ai)" d="M151.71 74.52c0-28.4-18.93-54.4-50.33-74.49L41.35 21.08v6.56c19.77 12.64 31.7 29 31.7 46.88 0 28.18-29.63 52.6-72.89 64.6l35.77 38.04C104.66 158.1 151.7 119.3 151.7 74.52" mask="url(#aj)"/></g><g transform="translate(295.13 181.1)"><mask id="am" fill="#fff"><use xlink:href="#ak"/></mask><path fill="url(#al)" d="M151.71 74.96c0-28.4-18.93-54.4-50.33-74.48l-60.03 27.6c19.77 12.64 31.7 29 31.7 46.88 0 28.18-29.63 52.6-72.89 64.6l35.77 38.04c68.73-19.07 115.78-57.87 115.78-102.64" mask="url(#am)"/></g><g transform="translate(295.13 320.16)"><mask id="ap" fill="#fff"><use xlink:href="#an"/></mask><path fill="url(#ao)" d="M.16.5v6.56L35.93 45.1v-6.57L.16.5" mask="url(#ap)"/></g><g transform="translate(157.57 302.65)"><mask id="as" fill="#fff"><use xlink:href="#aq"/></mask><path fill="url(#ar)" d="M.08 40.31v27.07l28.49-39.8V.5L.08 40.31" mask="url(#as)"/></g><g transform="translate(74.03 240.62)"><mask id="av" fill="#fff"><use xlink:href="#at"/></mask><path fill="url(#au)" d="M34.23 5.19l-3.08-1c4.57 0 21.6-.81 21.6-.81V.16S-1.65.83.43 3.7c.27.37 13.5.47 24.37.5l4.62 1.23c-7.12.43-12.67 1.12-11.86 2.23.46.63 38.5 1.45 38.5 1.45V5.39s-12.5-.02-21.83-.2" mask="url(#av)"/></g><g transform="translate(84.54 169.59)"><mask id="ay" fill="#fff"><use xlink:href="#aw"/></mask><path fill="url(#ax)" d="M9.09 28.2c-.65-2.46-1.66-6.23-2.76-10.2l12.71 2.77a796.2 796.2 0 0 0 1.97 9.44l-11.92-2zM22.25 36l4.07-1.1S18.34 3.86 16.8 4.34c-.73.22.34 6.75 1.74 13.92L5.61 15.48C3.44 7.82 1.08.27.31.5c-1.45.45 6.82 33.35 8 38.92l2.95-1.91-1.61-6.38 12.02 2.17.58 2.69z" mask="url(#ay)"/></g><path fill="#D4D4D5" d="M75.11 244.75h-.1a.75.75 0 0 1-.64-.85l9.53-73.79a.75.75 0 0 1 1.49.2l-9.53 73.79a.75.75 0 0 1-.75.65M91.8 248.45h-.1a.75.75 0 0 1-.64-.84l9.53-73.8a.75.75 0 0 1 1.49.2l-9.53 73.79a.75.75 0 0 1-.74.65"/><path fill="#D4D4D5" d="M100.07 184.73l-.16-.01-16.7-3.7a.75.75 0 0 1 .33-1.47l16.7 3.7a.75.75 0 0 1-.17 1.48M98.65 195.74l-.17-.01-16.69-3.7a.75.75 0 1 1 .33-1.47l16.69 3.7a.75.75 0 0 1-.16 1.48M97.22 206.75l-.16-.01-16.7-3.7a.75.75 0 0 1 .33-1.47l16.7 3.7a.75.75 0 0 1-.17 1.48M95.8 217.76l-.16-.01-16.7-3.7a.75.75 0 1 1 .33-1.47l16.69 3.7a.75.75 0 0 1-.16 1.48M94.37 228.78l-.16-.02-16.7-3.7a.75.75 0 0 1 .33-1.47l16.7 3.7a.75.75 0 0 1-.17 1.49M92.95 239.79l-.16-.02-16.7-3.7a.75.75 0 1 1 .33-1.47l16.7 3.7a.75.75 0 0 1-.17 1.49"/><path fill="#211B49" d="M62.62 253.73c1.48 1.24 1.78 1.11 1.97 1.97.2.86-2.17.34-3.28-.07 0 0-.92-.35-1.38-.95-.47-.61-.93-.3-1.8-.61-.88-.3-.99-1.15-.6-2.48.38-1.34 2.92-.03 3.47.4.55.43 1.62 1.74 1.62 1.74"/><path fill="#F8D5CE" d="M62 184.69c.72-1.58 1.46-.54 1.86-2.48.39-1.94-.39-4.5-3.2-6.35-2.8-1.85-4.58.37-4.9 3.64-.3 3.26 1.6 5.66 1.6 5.66l2.64.9 2-1.37"/><path fill="#211B49" d="M77.88 234.65c.42 1.43.65 1.86.95 2.23.29.37 2.23-.14 2.4-.47.17-.34.58.03.77.16.18.14 3.86-.38 3.87-.82.02-1.71-1-.23-3.43-1.1-4.22-1.5-2.8-2.17-2.8-2.17l-1.76 2.17"/><path fill="#211D4A" d="M80.8 233.86c-2.72-17.36-1.7-19.1-4.17-20.63-2.47-1.53-11.35-6.08-11.35-6.08l-2.61 8.28s10 4.7 10.36 5.67c1.1 3.08 1.21 4.12 2.29 7.15 1.34 3.75 2.1 5.7 2.48 6.78.38 1.07 3.23.2 3-1.17"/><path fill="#F8D5CE" d="M86.1 193.24c1.31.1 1.9.74 2.52.8.61.05.6-.29.6-.29s-1.3-.54-1.35-1.24c-.04-.69.44-.64.72-.58.45.09 2.39.57 2.39.57s.31-1.34-.7-2.47c-1.02-1.14-2.71-1.07-5.17.35-2.45 1.41.98 2.86.98 2.86"/><path fill="#211D4A" d="M65.57 216.44c-1.05 7.38-2.18 10.9-2.73 16.54-.56 5.64-1.28 14.49-1.96 17.75-.44 2.18-3.42 1.95-3.23 0 .18-1.85-.38-14.69-.8-18.08-.42-3.4-1.08-18-1.08-18l9.51-7.5.29 9.29"/><path fill="#86C6DD" d="M46.81 206.63s3.49-13.64 6.87-16.15l2.2-2c1.37-2.15 1.48-3.32 1.48-3.32a7.92 7.92 0 0 0 4.63-.47s-.45 1.34.04 1.9c3.32.66 8.51 4.27 10.8 4.76 2.63.56 7.2-.09 12.28-.97.7-.13 1.51 2.63.87 2.96-5.47 2.72-7.71 4.23-12.35 3.4-4.64-.83-5.84-.49-6.9 1.06-1.06 1.55.82 7.39 2.81 10.87 1.74 3.04-3.43 3.4-5.46 4.14-2.03.74-2.9 7.6-7.31 8.29-2 .3-3.36-9.99-4.41-15.45l-2.12 3.62-3.43-2.64"/><g transform="translate(36.52 199.6)"><mask id="aB" fill="#fff"><use xlink:href="#az"/></mask><path fill="url(#aA)" d="M34.21 9.28L7.4 24.76a4.85 4.85 0 1 1-4.84-8.4L29.37.89a4.85 4.85 0 0 1 4.84 8.4" mask="url(#aB)"/></g><path fill="#211B49" d="M63.5 179.08c-1.09.29-1.17 1.16-1.56 2.2-.4 1.04-1.35.65-2.1-.25-.74-.9-.42-1.38-.9-1.95-.5-.57-.98-.76-.6-1.33.36-.58 1.15-.08 1.7-.58.55-.5 1.38-.77 1.61-.56l.79.8s.4-.91-.94-2.02a4.1 4.1 0 0 0-4.92-.15s-1.58 1.14-2.6 3.75c-1 2.62 2.14 4.96 2.85 5.33.55.3 1.25-.66 1.5-1.72s.1-.94-.5-1.3c-.62-.35-.9-1.46-.25-1.71.66-.25.91-.16 1.28.42s.97 3.26 1.48 3.7c.51.44 1.63-.79 2.5-.83.32-.01.47-.03.54-.02.13.01.2.16.14.27l-.1.17c1.78-.25 1.32-4.55.07-4.22"/><path fill="#D4D4D5" d="M43.2 219.18c1.03 1.8.68 3.95-.8 4.8-1.47.84-3.5.08-4.54-1.72s-.68-3.95.79-4.8c1.47-.85 3.5-.08 4.54 1.72"/><g transform="translate(48.02 208.6)"><mask id="aE" fill="#fff"><use xlink:href="#aC"/></mask><path fill="url(#aD)" d="M3.34.27C5.22.44 8.3 4.62 9.45 4.7c1.15.08-1.69 1.72-1.69 1.72L.44 1.98S2.5.18 3.34.27" mask="url(#aE)"/></g><path fill="#F8D5CE" d="M55.04 212.9c1.9.7 3.68-.64 3.96-.09.28.55-1.55 1-1.42 1.23.14.22 1.2.25 2.6.37 1.38.12.68 2.37-1.59 2.56-2.27.18-3.04-.87-4.46-1.08-1.41-.22.91-2.99.91-2.99"/><g transform="translate(45.02 204.6)"><mask id="aH" fill="#fff"><use xlink:href="#aF"/></mask><path fill="url(#aG)" d="M2.3.15C-.75 7.72-.25 10.2 5.02 11.17c3.22.6 4.32.7 4.32.7.11-1.94.68-3.57.68-3.57S6.47 5.94 5.44 4.8A53.18 53.18 0 0 1 2.3.15" mask="url(#aH)"/></g><g transform="translate(53.02 199.6)"><mask id="aK" fill="#fff"><use xlink:href="#aI"/></mask><path fill="url(#aJ)" d="M19.48 2.66A4.85 4.85 0 0 0 12.86.88L.33 8.12C4.23 6.7 7.51 9.4 11.41 9.65c3.89.23 7.9-1.92 7.94-1.94a4.84 4.84 0 0 0 .13-5.05" mask="url(#aK)"/></g><g transform="translate(45.52 293.65)"><mask id="aN" fill="#fff"><use xlink:href="#aL"/></mask><path fill="url(#aM)" d="M5.25 26.7S-.68 7.93.55 4.14C1.8.37 5.82.17 5.82.17v7.4l-.57 19.12" mask="url(#aN)"/></g><g transform="translate(52.02 295.65)"><mask id="aQ" fill="#fff"><use xlink:href="#aO"/></mask><path fill="url(#aP)" d="M7.3 4.97c-3.85 11.8-1.75 25.67-1.75 25.67l-2.84-2.4S.44 7.64.47 4.46C.51 1.27 1.72.37 1.72.37l5.57 4.6" mask="url(#aQ)"/></g><g transform="translate(291.62 389.2)"><mask id="aT" fill="#fff"><use xlink:href="#aR"/></mask><path fill="url(#aS)" d="M.54 2.11c.02.9-.18 1.34.11 1.78.29.43 1.36.72 1.97.43.68-.32 1.1-.57 1.28-.94.18-.38.47-.35 1-.49.53-.13 3.15-1.7 2.96-2.25C7.66.09 6.64-.1 5 .54 3.37 1.14 1 1.8 1 1.8l-.46.31" mask="url(#aT)"/></g><g transform="translate(279.12 387.7)"><mask id="aW" fill="#fff"><use xlink:href="#aU"/></mask><path fill="url(#aV)" d="M.23 1.71C.26 3.24.2 3.48.69 3.96c.49.48 2.05-.21 2.17-.6.11-.38.34-.03.88-.38C4.3 2.62 6.56 1.44 6.7.77c.15-.68-1.1-.78-2.23-.4-1 .33-2.4.34-2.4.34l-1.84 1" mask="url(#aW)"/></g><path fill="#211D4A" d="M274.23 345.25c1.35 12.44 2.7 18.23 2.8 22.57.1 4.34 1.34 17.46 1.83 20.64.48 3.18 3.61 1.44 3.59 0-.02-1.45 1.52-18.33 1.62-22.18.1-3.86 0-21.99 0-21.99l-9.84.96"/><path fill="#211D4A" d="M279.17 354.05c6.84 13.68 8.04 12.91 9.9 18.89 1.86 5.98 2.25 14.96 2.53 17.51.3 2.55 3.38 2.08 3.58 0 .19-2.08.67-19 0-22.98-.68-3.98-8.7-23.18-8.7-23.18l-6.18 3.57-1.13 6.2"/><path fill="#F8D5CE" d="M301.55 338.13c1.1.46 1.4-.25 3.2.63 1.1.53.77 2.02 1.36 2.54.59.52 1.94.48 1.84 1.15-.05.36-.45.26-2.47-.44 0 0-1.23.03-2.06-.2-.84-.21-.54-1.1-.78-1.36-.23-.27-2.03-.8-2.03-.8l.94-1.52M280.32 320.68c.61-1 .86-2.48.55-3.25-.31-.77-1.25-4.8 1.87-5.95 3.12-1.15 5.56 1.52 5.03 4.6-.53 3.09-.85 4.8-1.67 4.9-.81.11-1.1-.06-1.29.6-.18.65-3.67 0-3.67 0l-.82-.28v-.62"/><path fill="#064C8F" d="M301.87 337.53c-10.74-4.9-18.22-13.64-18.22-13.64l-6.78 1.5s10.94 12.8 22.75 14.82c2.65.45 3.1-2.3 2.25-2.68"/><path fill="url(#aX)" d="M279.58 320.88c6.82 3.9 7.28 3.5 9.22 9.26 1.45 4.32-1.55 15.57 1.18 21.42.97 2.06-.6 3.2-2.44 2.82-2.36-.5-3-5.58-3-5.58s1.68 12.34-2.32 11.7c-4-.64-6.98-4.64-8.19-8.41-.62-1.94-1.07-17.71-.87-18.83 1.25-7.09 4.2-13.64 6.42-12.38"/><path fill="#F8D5CE" d="M288.86 341.24s-.1 1.78-.24 2.32c0 0-.35.56-1.14 1.25-.78.7-1.95.45-1.87 1.22.08.77.94.06 2.67.33 1.47.32 1.78-.12 1.78-.12l.06-2.4c.06-2.1-1.26-2.6-1.26-2.6"/><g><use fill="url(#aY)" xlink:href="#aZ"/><use fill="#195374" fill-opacity=".6" xlink:href="#aZ"/></g><path fill="#DB3468" d="M280.32 320.68s-.95.79-1.24 1.35c-.13.24 3.41 1.54 5.73 1.86v-2.32s-4.62-.17-4.5-.89"/><path fill="#211D4A" d="M286.56 309.85c3.23.23 2.8 3.64 1.98 5.04-.81 1.4-.85.94-1.98 1.65 0 0-.22-.11-.53 1.86l-.6.16c-.2.05.18-.58-.1-.83-.3-.26-1.26.37-.89 1.25.37.89.37.63.37.63s-.77.88-1.22.72c-.45-.16-2.6-.3-2.7-1.08-.12-.78-1.02-1.86-.85-3.98.16-2.1 1.55-4.08 3.61-4.44 2.06-.35 2.15-1.03 2.91-.98"/><g transform="translate(34.51 319.16)"><mask id="bc" fill="#fff"><use xlink:href="#ba"/></mask><path fill="url(#bb)" d="M7.59.45c.63.6.53 1.93.11 2.4-.42.47-1.32.4-1.83.73-1.37.9-4.49 1.58-5.1 1.15-.6-.42-.85-1.58 2.37-2.81C4.56 1.37 5.28.6 5.28.6L7.59.45" mask="url(#bc)"/></g><path fill="#FFFFFE" d="M42.07 318.5c.08.84.16 1.32.2 1.58.05.2-.02.4-.17.52-.42.37-1.31.95-2.33.45 0 0-.6-.23-.32-1.01.27-.78.42-1.77.42-1.77l2.2.24"/><g transform="translate(46.52 323.66)"><mask id="bf" fill="#fff"><use xlink:href="#bd"/></mask><path fill="url(#be)" d="M6.1.3c.62.59.53 1.93.1 2.4-.41.47-1.07.08-1.38.6C3.67 5.3 1.6 5.06.87 5c-1.09-.12-1.14-1.02.65-2.7C3.25.65 3.59.23 3.59.23l2.5.06" mask="url(#bf)"/></g><path fill="#FFFFFE" d="M59.77 275.3c2.07 5.07 2.57 7.61-1.68 12.52-4.25 4.9-10.36 9.71-11.16 11.16-.8 1.45-1.74 4.62-4.38 19.5-.17.91-2.97 1.13-2.96-.57.01-2.92.5-19.64 1.32-23.79.82-4.14 9.35-12.3 9.35-12.3l9.5-6.51M52.58 322.85c.08.84.16 1.32.2 1.58.05.2-.02.4-.17.52-.42.36-1.31.95-2.33.45 0 0-.6-.23-.32-1.01.27-.78.42-1.77.42-1.77l2.2.23"/><path fill="#F8D5CE" d="M49.05 272.25c-2.57 1.97-3.62 2.73-3.62 2.73l-2.5-1.37 3.58-5.15 1.2-.97 1.61 2.31-.27 2.45"/><path fill="#FFFFFE" d="M65.91 278.83c2.08 5.06 2.57 7.6-1.68 12.5-4.25 4.91-9.2 7.74-10 9.2-.8 1.44-1.56 15.21-1.16 22.1.06.93-2.99 1.69-3.21 0-.28-2.08-2.12-21.24-1.3-25.39.81-4.15 7.84-11.9 7.84-11.9l9.51-6.51M49.97 263.86l.07 8.95s-.33-.93-.99-.56c0 0 .28-3.47-2.54-3.79 0 0 2.58-4.1 3.46-4.6"/><path fill="#FFFFFE" d="M67.46 282.26c-.77 4.42-6.23 6.9-13.18 3.03-6.95-3.88-3.67-5.35-3.55-9.05.11-3.7.86-5.01-.72-10.47-1.58-5.45 7.97-2.5 12 .86 4.02 3.36 6.17 11.55 5.45 15.63"/><path fill="#211D4A" d="M62.7 266.74c4.02 3.36 5.91 12.9 5.2 16.97-.61 3.5-4.96 7.5-9.88 6.36.11-.68.55-4.82.58-6.24.13-6.02-3.05-9.46-2.21-16.77 0 0 3.56-1.6.42-3.07-3.14-1.45-4.55-1.45-4.94-.27-.4 1.2 1.26 10 1.03 16.44-.09 2.34-1.02 5.62-1.1 6.76-4.25-3-1.76-7.4-1.65-10.68.11-3.7-.48-4.83-.58-10.5-.1-5.85 9.1-2.37 13.13 1"/><path fill="#F8D5CE" d="M54.74 260.35c1.42 2.94 2.38 3.67 2.67 4.22.3.56-1.13 1.21-2.26 1.3l-.73 1.97-1.3-2.97s-.7-.3-.54-.93c.17-.62-.22-1.18-.43-1.59-.2-.4 2.6-2 2.6-2"/><path fill="#F8D5CE" d="M54.8 259.82c-.07 2.1-1.77 2.99-3.18 3.3-1.4.33-4.57-4.1-4.11-6.07.46-1.98 3.56-3.89 5.27-2.44 1.71 1.45 2.02 5.2 2.02 5.2"/><path fill="#FFFFFE" d="M49.84 276.42h.06l2.3-.6a.24.24 0 0 0-.12-.47l-2.3.6a.24.24 0 0 0 .06.47M60.64 267.1c2.49.67 4.2 4.38 4.94 7.88.74 3.5-2.75 2.64-3.95 1.36-1.2-1.27-4.37-10.14-1-9.23"/><path fill="#F8D5CE" d="M49.66 275.66c.89-.2 1 .28 1.76 1.35h.01l7.7 2.99s1.22-9.8 1.75-11.29l3.66 6.27c-1.29 5.55-2.7 7.82-3.8 8.9-.89.88-7.86-3.38-10.59-5.1 0 0-.87.18-2.34-1-1.47-1.17.86-1.9 1.85-2.12"/><g transform="translate(45.52 253.13)"><mask id="bi" fill="#fff"><use xlink:href="#bg"/></mask><path fill="url(#bh)" d="M9.63 6.75c-.27 1.42 1.19.62 1.52 1.44.34.81-1.84 1.04-2.69 0-.48-.6-.88-.37-.36-1.19.55-.85-.65-1.23-1.14-.65-.5.58-1.09-.04-1.32-.49-.23-.45-1.83.59-3 .79C1.46 6.85-.13 6.45.12 5c.25-1.43.88-.65 1.14-1.2.25-.54-.99-.53-.27-1.3.71-.76 1.53.15 1.76-.48C3 1.4 4.04 1.3 4.45.69c.43-.62 1.3.23 1.58 0C6.3.45 7.62.46 8.33 2.28c.7 1.82.65 1.06 1.12 1.93.48.87.18 2.54.18 2.54" mask="url(#bi)"/></g><path fill="#DB3468" d="M49.3 277.04l-6.95-5.73 4 7.29 6.93 6.11-3.98-7.67"/><path fill="#F8D5CE" d="M43.3 273.06c-1.8 2.44-.99 3.55-.47 4.27.5.7 5.66 3.86 6.39 5.16.73 1.3 2.5.96 3.1.63.62-.33 1-1.47.59-2.38-.5-1.06-2.15-.03-2.15-.03l-6.05-5.1-1.4-2.55"/><path fill="#FFFFFE" d="M59.94 273.97c1.12-.9 4.07.55 4.3 2.2l.74-.86-1.97-5.6-1.9-1.71-.97.71-.2 5.26M367.16 388.31c.86.4 1.46 1.33 1.33.57 0 0 1.21-1.55 1.18-1.61-.03-.06-.79-.81-.79-.81l-2 .4.28 1.45"/><path fill="#F8D5CE" d="M329.53 354.09c-1.15-1.37-1.46-1.1-1.4-.87.05.22.41.56.29.7-.12.13-.34-.21-1.56.08-1.22.3-1.06 2.78-.43 3.05.64.27 1.18-1.53 1.98-1.16.81.37 1.74.12 1.74.12l.2-.94-.82-.98"/><g><use fill="url(#aY)" xlink:href="#bj"/><use fill="#195374" fill-opacity=".6" xlink:href="#bj"/></g><path fill="#211D4A" d="M339.29 379.93c-.51.88 2.4 2.16 3.77 2.47.8.18 1.87 1.29 2.67 1.05 2.02-.58 1.1-2.12.8-2.75-.5-1.02-1.41-1-1.41-1s-2.13.12-2.82-.05c-.62-.14-2.33-.9-3.01.28"/><path fill="#FFFFFE" d="M343.6 379.35c-.02.84.13 1.84 1.5 2.01 2.46.3.87-2.57.87-2.57l-2.37.56"/><path fill="#F8D5CE" d="M337.38 352.53s-1.1.04-1.96-.34c-.88-.38-1.38-.58-2.25.1-.57.43-.92 1.37-.32 1.37.54 0 .65-.26.93-.46.3-.22.8-.1.9.05.16.2-.46.73-.37.9.19.41.99-.47 1.93-.71s1.27.1 1.25 0l-.1-.9"/><path fill="url(#aX)" d="M355.4 365.26c-7.37-4.24-13.5-8.94-16.47-6.27-2.96 2.67 2.93 17.72 4.1 20.11 1.16 2.4 3.85 1.52 3.44-.2-.41-1.7-1.17-10.66-1.17-10.66s6.06 4.94 11.85 4.65c4.21-.2 5.61-4.5 6.63-5.99 3.16-4.56 2.48-4.58 2.48-4.58l-10.87 2.94"/><path fill="#211D4A" d="M337.25 352.35c-.28.01-.37 1.31.1 1.4.48.1 16.9-1.62 16.9-1.62l2.12-7.56-7.44 4.52-11.68 3.26"/><path fill="#211D4A" d="M351.62 347.54c-1.3 6.64 2.95 8.68-.33 15.79-1.83 3.94 2.57 9.15 7.57 9.21 3.75.05 10.4-3.8 10.36-5.51-.28-12.77-3.85-19.74-7.66-22.8-4.09-3.28-9.23-.33-9.94 3.3"/><path fill="#211D4A" d="M330.87 354.76c-1.04-.04-1.36 1.22-.94 1.58.43.37 11.14 2.65 14.3 2.36 5.49-.52 12.3-4.44 11-8.03-1.9-5.24-3.8-1.04-10.19 3.19-3.99 2.64-14.17.9-14.17.9"/><path fill="#F8D5CE" d="M356.93 343.29c.02-.38-1.54-.16-2.44-.83-.9-.67-2.13-2.21-2.13-2.21l-1.48 4.2s1.81.82 1.54 1.2c-1.54 2.2 4.48-1.98 4.5-2.36"/><g transform="translate(367.16 386.7)"><mask id="bm" fill="#fff"><use xlink:href="#bk"/></mask><path fill="url(#bl)" d="M.64.75c-.32.34-.47 1.3 0 2 .46.71 1.14 1.35 1.19 1.66 0 0-.23-.4-1.16.54-.27.26.76 1.17 1.59 1.23.82.06 1.62-.84 2.05-1.43.43-.58-.04-2.85-.47-3.6A3.62 3.62 0 0 0 1.96.1C1.2-.01.88.49.64.75" mask="url(#bm)"/></g><path fill="#211D4A" d="M369.05 388.82c0 .77 1.6 2.48 1.11 3.14-.48.66-1.16.9-1.53.66a2 2 0 0 0 .78.25c.83.06 1.62-.84 2.05-1.42.44-.59-.03-2.85-.47-3.6-1.58-.4-1.94.2-1.94.97"/><path fill="#F8D5CE" d="M350.88 344.46c-.45-.26-.78.93-1.42 1.07-.64.13-4.71-2.37-4.97-4.72-.25-2.35 3.64-3.24 7.87-.56l-1.48 4.2"/><path fill="#211D4A" d="M344.14 342.07c1.22.97 3.56.66 3.91.74.36.08-.31-.3-.1-.57.2-.27.83-.34 1.13.46.3.8 2.02.43 2.54.38.53-.06 2.06-.95 2.29-1.57.23-.61-2.83-2.64-3.84-4.38-1-1.73-1.83-2.53-3.06-1.18-1.23 1.35-2.48-.65-3.41.77-.94 1.41.18 2.2-1.03 3.01-1.21.82 1.08 1.95 1.57 2.34"/><g transform="translate(278.62 138.07)"><mask id="bp" fill="#fff"><use xlink:href="#bn"/></mask><path fill="url(#bo)" d="M68.93 16.78c0 1.53-2.65 5.97-2.65 5.97l-1.98-5.54s4.63-1 4.63-.43zm-1.22 19.76c-1.2-.99-3.86-7.93-3.86-7.93l2.93 1.87s.9-.44.66-.92c-.24-.48 7.71-13.49 7.1-16.2-.62-2.7-28.55-.51-28.55-.51s-8.66-2.63-13.04-3.52c-4.38-.88-7.05-2.28-5.82-4.04 1.23-1.77 2.4-3.2 1.85-4.1C28.43.3 24.74.3 24.74.3l-.55 2.63L8.27 11.8l2.06-6.22 3.71 1 3.4-1.3-.77-1.77h-6.04l-6.7 6.24-3.56 6.87c8.37.06 12.94.48 12.94.48l13.89 8.3h5.85s8.84-.6 11.26-.9c2.41-.29 12.34-5.22 12.34-5.22l7.37 17.74s3.74 2.52 4.64 2c.91-.5.25-1.5-.95-2.48z" mask="url(#bp)"/></g><path fill="#F8D5CE" d="M120.53 209.15c-.26-.76-1.22-1.45-1.8-1.82 0-.3.1-.67.42-.98.62-.57-.65-2.04-.65-2.04l-.52.59c-1.8 2.28-1.52 4.4.7 5.86 2.21 1.46 2.23-.5 1.85-1.61"/><path fill="#211D4A" d="M144.63 252.83c.05 1.11-.17 1.53-.39 1.67-.21.15-.22.19-.25.37-.04.18-.28.9-.5 1.36-.78 1.6-2.19 1.65-1.89.33.3-1.32.48-1.35.55-2.28.06-.92.16-1.85 1-2.25.85-.4 1.45.12 1.48.8"/><path fill="url(#bq)" d="M131.08 192.94c.48 1.5-1.58 4.25-2.86 6.06-1.08 1.55-9.19 7.8-9.19 7.8l-1.1-2.36 7.94-8.26c3.27-9.2 3.3-9.17 4.18-10.77 1.52-2.75.56 6.03 1.03 7.53"/><path fill="#211D4A" d="M135.72 251.9c-1.19 1-1.43.9-1.59 1.59-.15.69 1.75.28 2.65-.06 0 0 .73-.28 1.1-.76.38-.5.75-.25 1.46-.5.7-.24.79-.92.48-1.99-.3-1.07-2.36-.02-2.8.33-.44.34-1.3 1.4-1.3 1.4"/><path fill="#F8D5CE" d="M137.51 250.27c-.2.31-.02.45.27.5.28.06 1.26-.23 1.45-.67.2-.43.5-13.64 0-18.65-.5-5 .18-20.1.36-23.81.19-3.7-6.3-4.54-6.44 1.94-.13 6.47 1.33 21.03 2.19 24.15.85 3.11 2.2 13.48 2.33 14.71.06.54.14 1.37-.16 1.83"/><path fill="#F8D5CE" d="M142.73 252.52c-.04.4-.07.84.54.96.51.1 1.2-.56.98-1.3-.33-1.13.93-13.42.42-18.42-.51-5.01-1.51-20.12-1.33-23.82.19-3.7-6.42-4.54-6.56 1.94-.14 6.47 3.05 21.59 3.92 24.7.87 3.11 1.85 12.64 1.99 13.87.06.54.09 1.55.04 2.07"/><path fill="#211D4A" d="M129.6 204.54c-.64 17.34 1.4 20.06 2.32 24.9.37 1.98 6.43 5.07 9.64 4.74 3.2-.34 3.73-1.46 3.61-3.28-.29-4.37-.38-6.18-.95-25.2l-14.62-1.16"/><path fill="#FFFFFE" d="M142.2 208.5c0 3.2-1.4 7.7-8.08 4.89-5.08-2.15-5.91-3.88-5.91-8.07 0-7.88.4-20.6 3.86-22.5 3.1-1.72 10.07 1.42 12.51 6.83 2.13 4.7.83 16.91.7 21.02-.12 4.12-3.08-2.17-3.08-2.17"/><path fill="#D4D4D5" d="M133.27 217.92s.16-2.72-1.2-4.53l-6.68.79 7.88 3.74"/><g transform="translate(131.56 180.6)"><mask id="bs" fill="#fff"><use xlink:href="#br"/></mask><path d="M10.02 5.92c-.12-.17-.34-.4-.63-.64l-.16-.13c-.45-.4-1.8-1.82-2.5-4.83 0 0-2.5-.33-2.84.8-.17.58-.8 1.01-1.37 1.29-.4.07-.74.2-1.03.39h-.01C.71 3.3.33 4.2.51 5.53.9 8.4 6.6 11.16 8.8 10c2.19-1.16 1.95-3.1 1.23-4.08" mask="url(#bs)"/></g><path fill="#DB3468" d="M140.34 190.6c2.2-1.17 1.95-3.1 1.24-4.09-.13-.17-.35-.39-.64-.64l-.15-.13a8.02 8.02 0 0 1-1.95-3.04s-.7 1.65-1.79 1.87c-.95.2-2.8-.06-3-1.57-.38.08-.72.2-1 .4h-.02c-.77.5-1.14 1.39-.96 2.72.39 2.88 6.09 5.63 8.27 4.47"/><g transform="translate(132.06 175.09)"><mask id="bu" fill="#fff"><use xlink:href="#bt"/></mask><g mask="url(#bu)"><use fill="url(#bv)" xlink:href="#bw"/><use fill="#F8D5CE" xlink:href="#bw"/></g></g><path fill="#DB3468" d="M132.08 179.5c-.3 0-.9-.27-.7-.4.18-.13.02-.1.12-.45.1-.34-1.06-.24-.83-.37.22-.12-.13-.12-.2-.67-.06-.55-.21-.91.1-.87.32.04.46-.6.5-.74.05-.14-.6-.22-.48-.66.12-.44.44-.58.58-.95.14-.36.33-.77.33-.77s.42-.14.68-.83c.25-.7.88-1.55 1.2-1.55.31 0 .82.7 1.54.6.72-.1.72-1.22 1.17-.91.45.3.23.66.96.57.74-.1 1.1-.88 1.34-.62.23.25.34.78.66.62.31-.16.42-.23.54-.1.1.13-.2.34 0 .5.18.15.03.18.25.4.22.22-.02-.24.47-.1.5.13 1.45.6 1.6.8.14.22.64.3.48.79-.15.49.09 1.87.6 1.99 1.87.44.29 1.26 0 1.45-.3.19.02 1.74-.02 2.03-.05.28.15.82-.2.7-.36-.13-.45.46-.45.46l-.06.57c0 .1.1-.08-.4.05-.51.12-.98-.13-.92.34.06.47.63.57.38.88-.26.32-.9.34-1.14.21.59.32-.26.62-1.26-.1-.28-.2-.08-.2-.28-.2s-.59-.73-.59-.73l.04-1.66-2.36-3.1h-1.84l-1.33.77s-.37.61-.38.84l-.1 1.22"/><path fill="#211D4A" d="M137.8 177.73c-1.63-2.67-3.56-3.42-5.28-.62l-.34 1.18c1.25-1.83 3.02-1.11 4.45 1.15.15.23.42.34.68.3.28-.06.62-.03.73.39.05.22-.04.52-.15.76-.12.3-.11.62.03.9l.07.13s.99-2.26-.2-4.2"/><path fill="#F8D5CE" d="M133.3 211.7c-.67.62-1.07 1.8-2.25 2.07-1.18.27-1.86.45-1.37 1.29.49.84 3.17.27 3.73-.1.57-.39 1.71-1.63 1.71-1.63l.56-2.05-1.97.04-.4.38"/><path fill="url(#bq)" d="M144.24 191.35c.9 2 .55 3.1.55 4.67 0 1.58-1.63 8.5-2.75 10.01-1.12 1.52-6.92 7.3-6.92 7.3s.32-.65-.74-1.6c-.53-.48-.96-.14-.96-.14l5.94-8.58s1.6-9.71 2.19-11.66c.59-1.95 2.45-.53 2.7 0"/><path fill="#F8D5CE" d="M133.4 211.67c-.52.16-1.25-.24-1.73 0-.48.23.28.72.92.75.64.03.82-.75.82-.75"/><path fill="#FFFFFE" d="M117.75 207.4c-1.8 1.5-2.45 6.17-.95 10.9 1.96 6.16-2.55 7.77-2.55 7.77l14.44 7.71s3.06-2.62 1.99-6.98c-1.07-4.37-.22-10.17 0-11.56.2-1.18 1.24-1.91 1.24-1.91s-8.06-3.67-12.13-5.8c-1.09-.57-1.45-.63-2.04-.14M339.66 164.88l.84.89 1.59.42v-1.42l-.66-1.3-1.72.18-.05 1.23M341.71 173.3l.83.89 1.59.42v-1.42l-.66-1.3-1.72.18-.04 1.23"/><path fill="#211D4A" d="M310.54 158.34c9.7 6.54 16.68-8.07 19.49-9.97l9.63 16.51s.45-1.15 1.77-1.4c0 0-6.4-17.22-8.16-19.61-1.76-2.4-2.81-2.44-5.81-1.7-3 .73-8.19 8.09-11.66 8.9-1.73.4-3.7-1.4-5.85 2.41-2.15 3.81.59 4.86.59 4.86"/><path fill="#49172E" d="M297.36 142.36l2.48-1.45-8.53 1.25-.44-2.16s10.7-3.74 13.41-3.34c1.25.18.88 1.96.26 3.62a54.68 54.68 0 0 1-2.65 4.85l-4.53-2.77"/><path fill="#211D4A" d="M308.3 161.63c6.4 3.3 16.07-2.6 18.88-4.51l14.53 16.18s.44-1.15 1.76-1.41c0 0-11.28-16.88-13.04-19.27-1.77-2.4-2.82-2.44-5.82-1.7-3 .73-9.02 2.12-9.02 2.12s-4.1.43-6.25 4.23c-2.15 3.81-1.03 4.36-1.03 4.36"/><path fill="#49172E" d="M285.58 149.26l-2.54 1.27s.77-1.66 3.07-3.91a35.02 35.02 0 0 0 2.84-2.97l-1.84-1.24s-6.52 5.66-8.12 8.25c-1.6 2.6-1.9 4.4 1.35 3.97 3.25-.43 6.88-.47 6.88-.47l3.85-2.4-2.14-3.15-2.55.19-.8.46"/><path fill="url(#bq)" d="M313.93 149.78c-2.23-1.23-1.63 1.26-5.67-1-2.87-1.62-4.58-2.88-6.25-3.64l-.12-.05a3.58 3.58 0 0 0-1.51-2.23c-1.99-1.41-3.14-.46-3.14-.46l-3.86 1.88-.24.07a8 8 0 0 0-3.28 1.88c-2.88 2.31-4.07 2.93-4.28 3.03.18-.07.98-.3 1.94 1.18 1.08 1.67.37 2.86-.3 3.72 0 0 3.65-.11 7.38 2.44 5.42 3.73 9.14 6.3 11.22 6.87 0 0 2.52.01 3.9-4.01.95-2.71 1.77-6.72 6.08-8.4 0 0-1.25-.94-1.87-1.28"/><path fill="#FFFFFE" d="M285.58 149.26l-.03.02.03-.02"/><path fill="#49172E" d="M289.25 146.76c1.59-.76 4.94-.52 6.39-1.21 1.44-.7-1.22-1.73-1.22-1.73s-1.85.77-2.12-.2c-.28-.97-2.77 1.07-2.77 1.07s.24.9.13 1.34c-.11.43-.4.73-.4.73"/><path fill="#49172E" d="M289.53 144.64c2.1-.72 3.28-1.16 3.1-1.85-.14-.58-1.24-4.8-3.18-5.38-1.94-.58-3.13 3.68-2.29 5.24.85 1.56 2.37 2 2.37 2"/><path fill="#211D4A" d="M289.62 145.08c.33 3.68-3.1-1.6-4.46-1.2l-3.08 2.39s-3.28 2.43-4.72 2.7a4.13 4.13 0 0 1-5.26-3.64c-.37-5.58 5.64-.12 6.62-4.42.92-4.03 3.55-1.2 4.61-3.14 1.38-2.5 2.45.76 3.84-.18 1.4-.95 3.65-1.73 4.62 1.11.13.38.14 1.9.14 1.9s-1.2-2.47-2.09-2.37c-.89.1-1.78 2.68-1.48 3.82 0 0-.84-.01-.5.67.33.68.97.46.97.46s.73 1.22.8 1.9M342.46 173.75c-.3.81-.52 1.57 1.01 2.12.37.14 1.3.71 2.55 1.23 1.26.5 2.14-.46 1.01-1.06-1.18-.62-2-1.85-2-1.85s-.31-.61-.26-.89c.13-.6-.77-.37-1 .24l-.08.31s-.86.52-1 .34c-.15-.18-.2-.54-.23-.44M340.42 165.33c-.3.82-.53 1.57 1.01 2.13.37.13 1.3.7 2.55 1.22 1.26.5 2.14-.45 1.01-1.05-1.18-.63-2-1.86-2-1.86s-.31-.6-.26-.89c.13-.6-.77-.37-1 .24l-.08.32s-.86.51-1 .33c-.15-.18-.2-.54-.23-.44"/><path fill="#F2F1F0" d="M144.58 52.05V22.21L106.97.49v29.03l33.93 19.59 3.68 14.26V52.05M313.17 110.91V81.07l37.61-21.72v29.03l-33.93 19.59-3.68 14.26v-11.32M37.95 259.53v-29.25L.34 252v29.03l33.93-19.59 3.68 9.4v-11.31M292.46 291.38v-29.84l37.61 21.72v29.03l-33.56-19.38-4.05 9.79v-11.32"/><path fill="#F8D5CE" d="M150.66 98.2s9.83 10.57 18.54 15.14c0 0 1.04.3 1.73 1.42.32.51 1.52 1.19 1.17.23-.34-.96.29-.71.95-.33l1.36.78s.52-.78-1.56-1.96c-2.07-1.19-2.34-1.03-3-1.6-.51-.44-7.89-7.35-7.89-7.35l-8.36-9.21s-2.8 1.06-2.94 2.87"/><path fill="#DB3468" d="M154.76 96.59s-1.87-1.54-1.55-3.6c.33-2.07.45-4.46.45-4.46s-3 7.3-3.53 9.1l1.21 1.23c-.32-.57 2.53-3.28 3.42-2.27"/><path fill="#FFFFFE" d="M151.88 134.52l-.28 1.5s-.24.9-.45 1.18c-.22.28-.15.52-.15.52l2.05 2 .62-.94s-.6-.97-.55-1.3c.05-.32.3-1.07.3-1.07l.57-1.73-2.11-.16"/><path fill="#211D4A" d="M152.41 140.91c-1.3-.61-2.53-1.74-1.92-2.69l.7-1.08c.34 1.08 2.32 1.77 2.48 1.64 0 0 4.83 3.18 4.7 3.82l-.13.26c-.42.51-4.65-1.4-5.83-1.95"/><path fill="#FFFFFE" d="M148.2 145.57s-.42 1.93-.55 2.27c-.12.35 3.77 2.44 2.68-1.17-.13-.45.02-1.88.02-1.88l-2.16.78"/><path fill="#211D4A" d="M149.47 149.95c-1.32-.47-2.33-1.1-2.02-2.18.09-.33.53-1.22.53-1.22.23.82 2.39 1.48 2.54 1.1 0 0 5.19 2.85 5.26 3.53l-.04.3c-.27.63-4.95-1.07-6.27-1.53"/><g transform="translate(140.56 103.05)"><mask id="bz" fill="#fff"><use xlink:href="#bx"/></mask><path fill="url(#by)" d="M1.64.13c9 2.08 21.83 7.1 21.83 12.37 0 3.5-10.38 21.26-10.38 21.26s-1.84-.17-2.27-.86c.02-1.61 8.4-17.98 5.9-19.36C11.88 10.87.33 9.77.33 9.77L1.63.13" mask="url(#bz)"/></g><path fill="#2F619E" d="M133.38 109.5c.03 5.72 15.45 11.08 15.85 13.32.65 3.65-1.04 22.75-1.04 22.75.32.64 2.13.8 2.13.2 0 0 4.98-24.2 4.55-25.78-.74-2.66-7.43-6.91-9.87-10.56-.82-1.22-3.11-4.87-3.11-4.87s-8.56-4.4-8.51 4.95"/><path fill="url(#bq)" d="M135.4 112.82s-5.38.44-4.01-10.49c1.14-9.09 5.02-12.65 13.19-17.2 7.65-4.26 9.52 1.6 9 4.95-.05.34-2.4 4.3-3.98 9.1-.78 2.4-1.62 5.16-1.38 7.5.28 2.71-11.35 5.76-11.35 5.76l-.8-5.44-.67 5.82"/><path fill="#F8D5CE" d="M160.4 87.28c-2.27 4.4-3.03 4.43-4 4.2-.97-.24-.96-.88-2.03-1.29-1.06-.42-1.4.56-2.51.88-.78.23-.91-2.12-.12-3.1.79-1 1.04-2.08 2.74-1.5 1.7.56 2.05-.49 4.15-.5 2.1-.02 1.77 1.31 1.77 1.31"/><path fill="#211D4A" d="M160.74 84.86c1.85 2.24-.25 2.68-1.19 2.52-1.27-.23-3 .22-3 .22-1.21-1.75-2.09.27-1.64.65.66.58-2.4-.64-3.5 1.91-1.1 2.56-3.3 1.64-4.1-.73-.73-2.14-1.66-4.61-3.78-3.57-2.12 1.03-6.09 3.88-7.67 5.76-2.59 3.08-3.87 7.39-3.87 7.39-.28-1.64-2.27.6-2.93-1.61-1.01-3.42 1.89-7.67 5.68-8.22 3.23-.47 3.95-2.07 5.8-5.6 1.84-3.52 8.25.55 10.48-.3 6.76-2.58 7.18-1.5 9.72 1.58"/><path fill="#F8D5CE" d="M142.61 97.62c2.08 6.73 2.54 9.8 8.8 11.65 6.26 1.86 9.28 1.02 10.56 2.5 1.28 1.48.86.07.75-.18-.1-.24-1.02-1.95-1.82-2.48 0 0-.65-.6-2.08-.55-.85.03-9.05-.93-10.14-4.45-.77-2.47-1.75-7.64-1.75-7.64l-2.86-1.15-1.46 2.3"/><path fill="#DB3468" d="M145.69 86.78c1.24 2.55 1.24 9.69 1.24 9.69s-3.6-.6-4.32 1.15c0 0-1.67-3.91-1.37-6.1.3-2.18 3.74-6.2 4.45-4.74"/><path fill="#49172E" d="M170 119.98c-.1-1.25.45-1.92.39-2.56-.06-.65-.44.2-.59.52-.14.33-.13-1.12-.63-1.85-.5-.74-1.65.16-1.53 1.41.11 1.26.34 1.8.51 2.32.17.53.2.92.2.92l1.66-.76"/><path fill="#211D4A" d="M200.03 151.15c-.12 2.93-1.65 24.23-1.69 26.67-.05 3.98 3.75 22.35 3.75 22.35-.23.73-1.5 1.47-2.34.76 0 0-8.28-22.6-8.09-24.34.32-2.94-1.59-23.05-1.59-23.05l2.96-4.17 7 1.78"/><path fill="#49172E" d="M180.2 114.4l-1-1.52s-1.31-2.28-2.86-1.38c-1.54.9-1.06 3.48.03 3.09 1.38-.5 1.91.35 1.91.35l.59.97c1.25 2.07 1.33-1.5 1.33-1.5"/><path fill="#211D4A" d="M184.4 151.15c-2.52 8.65 1.45 21.87 2.06 31.52.15 2.3 3.83 19.07 3.83 19.07s1.82 1.4 2.11-1.21c-.72-3.7-.43-14.68-.16-17.9.92-10.81 3.94-28.58 3.94-28.58l-11.78-2.9"/><path fill="#FFFFFE" d="M199.45 148.31c-4.02-5.92-1.49-4.06-3.37-12.41-2.48-10.97-7.26-7.83-7.26-7.83-1.26 1.12.3.52-2.16 2.5-.72.3-2.17 1.14-3.23 1.27-2.4.3-4.3.43-2.32 4.77 1.2 2.65 1.32 6.73.77 11.33-.9 7.57.08 7.57 1.84 8.44 5.67 2.83 19.58-2.4 15.73-8.07"/><path fill="#211D4A" d="M183.43 131.84c1.08 2.15 1.58 23.27-1.48 7.73 0 0-10.15.77-10.9-1.74-1.04-3.44-3.04-17.4-3.04-17.4l2.27-.6s4.26 12.53 5.08 13.55c.82 1.01 8.07-1.54 8.07-1.54M188.2 130.22c2.31-1.91 6.49 2.64 8.1 6.74 0 0-.14-6.1-1.83-8.6-1.7-2.5-7.93-12.58-8.4-13.24-.47-.65-5.87-1.2-5.87-1.2l-2.07 1.91 5.44 3.8 4.64 10.59"/><path fill="#49172E" d="M189.32 121.08c-4.88 2.09-4.74 3.37-4.57 4.43.17 1.05.86 1.1 1.22 2.26.36 1.17 0 1.88-.43 3.06-.3.81 1.48.7 2.6-.07s1.51-.9 1.03-2.76c-.48-1.86 1.46-2.21 1.64-4.45.18-2.25-1.5-2.47-1.5-2.47"/><path fill="#DB3468" d="M188.78 120.77c-1.2.33-.4 3.94-.6 4.06 0 0 1.1.02.55.8-.54.78-1.09.21-1.09.21s-.14 1 .57 1.4c.7.42.89.3.89.3s1.79.18 3.03-1.2c1.52-1.68-.67-6.28-3.35-5.57"/><path fill="#DB3468" d="M192.01 124.57c-.52.14-.35 1.12-.15 1.27.2.15 1.84.97 1.83 2.73 0 1.76-1.27 1.55-1.39 4.36-.11 2.8 7.42 4.8 6.6 7.14-.82 2.34-3.8.78-4.2 3.05-.2 1.01.18 2.22 4.51 1.28 4.34-.93 4.77-5.03 1.8-8.93-2.97-3.9-1.37-5.97-2.1-7.9-.75-1.94-4.42-3.66-6.9-3M174.58 114.8a3.5 3.5 0 1 1 0-7 3.5 3.5 0 0 1 0 7zm0-8.08a4.57 4.57 0 1 0 0 9.14 4.57 4.57 0 0 0 0-9.14z"/><path fill="#49172E" d="M179.6 113.5c-.3-1.09-.57-2.65-.8-2.62-1.04.1-.02 2.08-.27 2.7-.24.62.42.25.42.25l.65-.33"/><path fill="#4E5D9B" d="M192.34 200.05c-.52-.36-1.62-.34-2.71 1.15-.79 1.07-2.18 4.5-3.5 5.3-.9.56-1.38 1.44 0 1.41 1.65-.03 7.14-5.29 6.92-6.13a4.72 4.72 0 0 0-.03-.13c-.21-.8-.4-1.4-.68-1.6"/><path fill="#2A2A6C" d="M186.13 207.91s1.26.22 2.53-1.01c1.75-1.7 3.9-3.62 4.07-3.88.3-.47.52-.86.32-1.24s-1.14-.36-1.95.44c-.25.25-2.04 3.08-3.61 4.91-.64.74-1.36.78-1.36.78"/><path fill="#4E5D9B" d="M201.89 199.85c-.53-.2-1.2-.1-2 .8-.88 1-1.15 4.89-2.75 5.52-1.1.44-1.55 1.33.28 1.58 2.19.29 5.84-5.07 5.39-6.05-.03-.06-.23-1.57-.92-1.85"/><path fill="#2A2A6C" d="M197.42 207.75s1.52.15 2.48-.64c.94-.78 2-2.25 2.37-3.28.28-.8.77-1.55.54-2.13-.22-.53-1.03-.76-1.83.1-.7.74-.44 3.36-2.17 5.1-.7.7-1.39.85-1.39.85"/><path fill="#D4D4D5" d="M.34 252v7.47l37.61-21.72v-7.47L.34 252M313.17 81.07v7.47l37.61-21.71v-7.48l-37.61 21.72M330.07 283.26v7.47l-37.61-21.72v-7.47l37.61 21.72M144.58 22.21v7.47L106.97 7.96V.49l37.61 21.72"/><path fill="#DB3468" d="M116.63 15.93v16.63l-3.82-2.21V13.72l3.82 2.21"/><path fill="#211D4A" d="M122.63 29.77v6.25l-3.82-2.2v-6.25l3.82 2.2M134.99 39.54v3.62l-3.82-2.21v-3.62l3.82 2.21"/><path fill="#FFFFFE" d="M128.72 26.94v12.6l-3.82-2.21V24.74l3.82 2.2M313.9 297.74c-2.46-1.36-4.49-4.8-4.53-7.66-.01-.6.06-1.13.22-1.58l-2.42-2.27c-.23.7-.35 1.51-.33 2.44.07 4.5 3.25 9.88 7.1 12.02 2.25 1.25 4.24 1.12 5.48-.09l-2-2.94c-.8.8-2.07.89-3.52.08"/><path fill="#211D4A" d="M307.17 286.23l2.42 2.27c.57-1.69 2.2-2.22 4.14-1.14.8.45 1.57 1.12 2.23 1.91l1.12-1.97a12.44 12.44 0 0 0-3.4-2.9c-3.06-1.7-5.62-.84-6.5 1.83"/><path fill="#DB3468" d="M317.42 297.66l2 2.94a5.08 5.08 0 0 0 1.36-3.34l-2.52-1.71a3.3 3.3 0 0 1-.84 2.1"/><path fill="#211D4A" d="M317.08 287.3l-1.12 1.97a11 11 0 0 1 1.22 1.85l1.9-.84a16.96 16.96 0 0 0-2-2.98"/><path fill="#211D4A" d="M318.26 295.55l2.52 1.71c.02-.27.03-.54.02-.83-.03-2-.68-4.17-1.72-6.15l-1.9.84a8.97 8.97 0 0 1 1.08 4.43M302.42 281.26l-2.13-1.23v-2.47l2.13 1.24v2.46"/><g transform="translate(300.13 281.14)"><mask id="bC" fill="#fff"><use xlink:href="#bA"/></mask><path fill="url(#bB)" d="M2.29 3.81L.16 2.58V.12l2.13 1.23v2.46" mask="url(#bC)"/></g><path fill="#DB3468" d="M302.42 288.65l-2.13-1.23v-2.47l2.13 1.23v2.47"/><path fill="#FFFFFE" d="M6.26 260.35v12.46l26.01-15.01v-12.92L6.26 260.35"/><path fill="#DB3468" d="M10.81 263.11l-3.79 2.19v-4.38l3.79-2.19v4.38"/><path fill="#211D4A" d="M31.54 251.14l-3.79 2.19v-4.38l3.79-2.19v4.38M31.54 256.89l-3.79 2.19v-4.38l3.79-2.19v4.38M345.65 88.22c.28-.16.5-.54.5-.86 0-.32-.22-.45-.5-.29-1.38.8-1.82.1-2.42-.85-.7-1.12-1.56-2.5-4.34-.9-2.08 1.2-3.15.56-4.37-.18-1.27-.76-2.7-1.62-5.44-.04-2.06 1.2-3.01 2.86-3.93 4.48-1.11 1.95-2.26 3.97-5.63 5.91-.27.16-.5.55-.5.87 0 .31.23.44.5.28 3.8-2.19 5.2-4.67 6.34-6.67.88-1.55 1.58-2.77 3.22-3.72 2.32-1.34 3.49-.64 4.73.1 1.27.77 2.58 1.56 5.08.11 2.18-1.25 2.78-.3 3.47.8.61.99 1.31 2.1 3.3.96"/><path fill="#DB3468" d="M332.04 92.7h.01c2.43-1.41 3.89-4.04 5.58-7.09 1.55-2.79 3.31-5.96 6.25-8.87.26-.26.39-.66.3-.9-.1-.25-.38-.24-.64.02-3.16 3.13-5 6.45-6.63 9.38-1.6 2.88-2.86 5.15-4.86 6.3v.01c-3.2 1.84-4.6.5-6.1-.92-1.35-1.3-2.74-2.63-5.5-1.48-.26.12-.51.48-.55.82-.04.33.15.51.42.4 2.34-.99 3.56.18 4.84 1.4 1.5 1.43 3.2 3.06 6.88.93"/><g transform="translate(336.14 181.1)"><mask id="bF" fill="#fff"><use xlink:href="#bD"/></mask><path fill="url(#bE)" d="M.34 28.08h30L74.3 10.44C69.65 6.77 65 3.4 60.37.48L.34 28.08" mask="url(#bF)"/></g></g></svg>