<?xml version="1.0" ?><!DOCTYPE svg  PUBLIC '-//W3C//DTD SVG 1.1//EN'  'http://www.w3.org/Graphics/SVG/1.1/DTD/svg11.dtd'><svg height="1.04167in" style="shape-rendering:geometricPrecision; text-rendering:geometricPrecision; image-rendering:optimizeQuality; fill-rule:evenodd; clip-rule:evenodd" version="1.1" viewBox="0 0 384 384" width="1.04167in" xml:space="preserve" xmlns="http://www.w3.org/2000/svg" xmlns:xlink="http://www.w3.org/1999/xlink"><defs><style type="text/css">
   <![CDATA[
    .fil1 {fill:#FEFEFE}
    .fil0 {fill:#4EBEED}
   ]]>
  </style></defs><g id="Layer_x0020_1"><g id="_521265328"><rect class="fil0" height="384" rx="37" ry="37" width="384"/><path class="fil1" d="M313 118c-9,4 -19,6 -29,8 11,-7 19,-16 22,-28 -9,6 -20,10 -31,12 -9,-9 -22,-15 -37,-15 -27,0 -49,22 -49,49 0,4 0,7 1,11 -41,-2 -78,-22 -102,-51 -5,7 -7,15 -7,24 0,17 9,32 22,41 -8,0 -16,-2 -23,-6 0,0 0,0 0,1 0,6 2,12 4,17 6,16 20,27 36,31 -4,1 -8,1 -13,1 -3,0 -6,0 -9,-1 6,20 25,34 46,34 -17,14 -38,21 -61,21 -5,0 -8,0 -12,0 22,14 48,22 76,22 78,0 125,-54 138,-110 2,-10 3,-20 3,-30 0,-2 0,-4 0,-6 10,-7 18,-15 25,-25z"/></g></g></svg>