<svg width="512" height="512" xmlns="http://www.w3.org/2000/svg">

 <g>
  <title>background</title>
  <rect fill="none" id="canvas_background" height="402" width="582" y="-1" x="-1"/>
 </g>
 <g>
  <title>Layer 1</title>
  <path fill="#4ebcd4" id="svg_4" d="m161.97,413.146c0,34.717 -28.065,62.854 -62.692,62.854c-34.621,0 -62.688,-28.135 -62.688,-62.854c0,-34.721 28.066,-62.859 62.688,-62.859c34.626,0.002 62.692,28.139 62.692,62.859l0,0z"/>
  <path fill="#4ebcd4" id="svg_5" d="m36.59,182.674l0,83.822c115.224,0 208.97,93.973 208.97,209.504l83.571,0c0,-161.729 -131.239,-293.326 -292.541,-293.326l0,0z"/>
  <path fill="#4ebcd4" id="svg_6" d="m36.59,36l0,83.819c195.902,0 355.259,159.753 355.259,356.181l83.562,0c-0.001,-242.625 -196.844,-440 -438.821,-440l0,0z"/>
 </g>
</svg>