<?xml version="1.0" ?><!DOCTYPE svg  PUBLIC '-//W3C//DTD SVG 1.1//EN'  'http://www.w3.org/Graphics/SVG/1.1/DTD/svg11.dtd'><svg height="512px" style="enable-background:new 0 0 512 512;" version="1.1" viewBox="0 0 512 512" width="512px" xml:space="preserve" xmlns="http://www.w3.org/2000/svg" xmlns:xlink="http://www.w3.org/1999/xlink"><g id="comp_x5F_306-slack"><g><path fill="#4ebcd4" d="M122.643,316.682c0,26.596-21.727,48.323-48.321,48.323c-26.593,0-48.319-21.728-48.319-48.323    c0-26.592,21.727-48.318,48.319-48.318h48.321V316.682z M146.996,316.682c0-26.592,21.728-48.318,48.321-48.318    c26.593,0,48.32,21.727,48.32,48.318V437.68c0,26.592-21.728,48.319-48.32,48.319c-26.594,0-48.321-21.728-48.321-48.319V316.682z     M195.317,122.643c-26.594,0-48.321-21.728-48.321-48.321c0-26.593,21.728-48.32,48.321-48.32c26.593,0,48.32,21.728,48.32,48.32    v48.321H195.317L195.317,122.643z M195.317,146.997c26.593,0,48.32,21.727,48.32,48.321c0,26.593-21.728,48.318-48.32,48.318    H74.321c-26.593,0-48.319-21.726-48.319-48.318c0-26.595,21.727-48.321,48.319-48.321H195.317L195.317,146.997z M389.359,195.318    c0-26.595,21.725-48.321,48.32-48.321c26.593,0,48.318,21.727,48.318,48.321c0,26.593-21.726,48.318-48.318,48.318h-48.32V195.318    L389.359,195.318z M365.004,195.318c0,26.593-21.728,48.318-48.321,48.318c-26.593,0-48.32-21.726-48.32-48.318V74.321    c0-26.593,21.728-48.32,48.32-48.32c26.594,0,48.321,21.728,48.321,48.32V195.318L365.004,195.318z M316.683,389.358    c26.594,0,48.321,21.727,48.321,48.321c0,26.592-21.728,48.319-48.321,48.319c-26.593,0-48.32-21.728-48.32-48.319v-48.321    H316.683z M316.683,365.005c-26.593,0-48.32-21.728-48.32-48.323c0-26.592,21.728-48.318,48.32-48.318H437.68    c26.593,0,48.318,21.727,48.318,48.318c0,26.596-21.726,48.323-48.318,48.323H316.683z"/></g></g><g id="Layer_1"/></svg>
